%TF.GenerationSoftware,KiCad,Pcbnew,7.0.8*%
%TF.CreationDate,2023-11-14T16:13:24-08:00*%
%TF.ProjectId,HV_Safety_Loop,48565f53-6166-4657-9479-5f4c6f6f702e,rev?*%
%TF.SameCoordinates,Original*%
%TF.FileFunction,Legend,Top*%
%TF.FilePolarity,Positive*%
%FSLAX46Y46*%
G04 Gerber Fmt 4.6, Leading zero omitted, Abs format (unit mm)*
G04 Created by KiCad (PCBNEW 7.0.8) date 2023-11-14 16:13:24*
%MOMM*%
%LPD*%
G01*
G04 APERTURE LIST*
%ADD10C,0.100000*%
%ADD11C,0.150000*%
%ADD12C,0.300000*%
%ADD13C,0.400000*%
%ADD14C,0.127000*%
%ADD15C,0.200000*%
%ADD16C,0.120000*%
G04 APERTURE END LIST*
D10*
D11*
X177002200Y-166007200D02*
X285002200Y-166007200D01*
X285002200Y-198007200D01*
X177002200Y-198007200D01*
X177002200Y-166007200D01*
D10*
D11*
X10000000Y-10000000D02*
X287002200Y-10000000D01*
X287002200Y-200007200D01*
X10000000Y-200007200D01*
X10000000Y-10000000D01*
D10*
D11*
X12000000Y-12000000D02*
X285002200Y-12000000D01*
X285002200Y-198007200D01*
X12000000Y-198007200D01*
X12000000Y-12000000D01*
D10*
D11*
X60000000Y-12000000D02*
X60000000Y-10000000D01*
D10*
D11*
X110000000Y-12000000D02*
X110000000Y-10000000D01*
D10*
D11*
X160000000Y-12000000D02*
X160000000Y-10000000D01*
D10*
D11*
X210000000Y-12000000D02*
X210000000Y-10000000D01*
D10*
D11*
X260000000Y-12000000D02*
X260000000Y-10000000D01*
D10*
D11*
X36089160Y-11593604D02*
X35346303Y-11593604D01*
X35717731Y-11593604D02*
X35717731Y-10293604D01*
X35717731Y-10293604D02*
X35593922Y-10479319D01*
X35593922Y-10479319D02*
X35470112Y-10603128D01*
X35470112Y-10603128D02*
X35346303Y-10665033D01*
D10*
D11*
X85346303Y-10417414D02*
X85408207Y-10355509D01*
X85408207Y-10355509D02*
X85532017Y-10293604D01*
X85532017Y-10293604D02*
X85841541Y-10293604D01*
X85841541Y-10293604D02*
X85965350Y-10355509D01*
X85965350Y-10355509D02*
X86027255Y-10417414D01*
X86027255Y-10417414D02*
X86089160Y-10541223D01*
X86089160Y-10541223D02*
X86089160Y-10665033D01*
X86089160Y-10665033D02*
X86027255Y-10850747D01*
X86027255Y-10850747D02*
X85284398Y-11593604D01*
X85284398Y-11593604D02*
X86089160Y-11593604D01*
D10*
D11*
X135284398Y-10293604D02*
X136089160Y-10293604D01*
X136089160Y-10293604D02*
X135655826Y-10788842D01*
X135655826Y-10788842D02*
X135841541Y-10788842D01*
X135841541Y-10788842D02*
X135965350Y-10850747D01*
X135965350Y-10850747D02*
X136027255Y-10912652D01*
X136027255Y-10912652D02*
X136089160Y-11036461D01*
X136089160Y-11036461D02*
X136089160Y-11345985D01*
X136089160Y-11345985D02*
X136027255Y-11469795D01*
X136027255Y-11469795D02*
X135965350Y-11531700D01*
X135965350Y-11531700D02*
X135841541Y-11593604D01*
X135841541Y-11593604D02*
X135470112Y-11593604D01*
X135470112Y-11593604D02*
X135346303Y-11531700D01*
X135346303Y-11531700D02*
X135284398Y-11469795D01*
D10*
D11*
X185965350Y-10726938D02*
X185965350Y-11593604D01*
X185655826Y-10231700D02*
X185346303Y-11160271D01*
X185346303Y-11160271D02*
X186151064Y-11160271D01*
D10*
D11*
X236027255Y-10293604D02*
X235408207Y-10293604D01*
X235408207Y-10293604D02*
X235346303Y-10912652D01*
X235346303Y-10912652D02*
X235408207Y-10850747D01*
X235408207Y-10850747D02*
X235532017Y-10788842D01*
X235532017Y-10788842D02*
X235841541Y-10788842D01*
X235841541Y-10788842D02*
X235965350Y-10850747D01*
X235965350Y-10850747D02*
X236027255Y-10912652D01*
X236027255Y-10912652D02*
X236089160Y-11036461D01*
X236089160Y-11036461D02*
X236089160Y-11345985D01*
X236089160Y-11345985D02*
X236027255Y-11469795D01*
X236027255Y-11469795D02*
X235965350Y-11531700D01*
X235965350Y-11531700D02*
X235841541Y-11593604D01*
X235841541Y-11593604D02*
X235532017Y-11593604D01*
X235532017Y-11593604D02*
X235408207Y-11531700D01*
X235408207Y-11531700D02*
X235346303Y-11469795D01*
D10*
D11*
X285965350Y-10293604D02*
X285717731Y-10293604D01*
X285717731Y-10293604D02*
X285593922Y-10355509D01*
X285593922Y-10355509D02*
X285532017Y-10417414D01*
X285532017Y-10417414D02*
X285408207Y-10603128D01*
X285408207Y-10603128D02*
X285346303Y-10850747D01*
X285346303Y-10850747D02*
X285346303Y-11345985D01*
X285346303Y-11345985D02*
X285408207Y-11469795D01*
X285408207Y-11469795D02*
X285470112Y-11531700D01*
X285470112Y-11531700D02*
X285593922Y-11593604D01*
X285593922Y-11593604D02*
X285841541Y-11593604D01*
X285841541Y-11593604D02*
X285965350Y-11531700D01*
X285965350Y-11531700D02*
X286027255Y-11469795D01*
X286027255Y-11469795D02*
X286089160Y-11345985D01*
X286089160Y-11345985D02*
X286089160Y-11036461D01*
X286089160Y-11036461D02*
X286027255Y-10912652D01*
X286027255Y-10912652D02*
X285965350Y-10850747D01*
X285965350Y-10850747D02*
X285841541Y-10788842D01*
X285841541Y-10788842D02*
X285593922Y-10788842D01*
X285593922Y-10788842D02*
X285470112Y-10850747D01*
X285470112Y-10850747D02*
X285408207Y-10912652D01*
X285408207Y-10912652D02*
X285346303Y-11036461D01*
D10*
D11*
X60000000Y-198007200D02*
X60000000Y-200007200D01*
D10*
D11*
X110000000Y-198007200D02*
X110000000Y-200007200D01*
D10*
D11*
X160000000Y-198007200D02*
X160000000Y-200007200D01*
D10*
D11*
X210000000Y-198007200D02*
X210000000Y-200007200D01*
D10*
D11*
X260000000Y-198007200D02*
X260000000Y-200007200D01*
D10*
D11*
X36089160Y-199600804D02*
X35346303Y-199600804D01*
X35717731Y-199600804D02*
X35717731Y-198300804D01*
X35717731Y-198300804D02*
X35593922Y-198486519D01*
X35593922Y-198486519D02*
X35470112Y-198610328D01*
X35470112Y-198610328D02*
X35346303Y-198672233D01*
D10*
D11*
X85346303Y-198424614D02*
X85408207Y-198362709D01*
X85408207Y-198362709D02*
X85532017Y-198300804D01*
X85532017Y-198300804D02*
X85841541Y-198300804D01*
X85841541Y-198300804D02*
X85965350Y-198362709D01*
X85965350Y-198362709D02*
X86027255Y-198424614D01*
X86027255Y-198424614D02*
X86089160Y-198548423D01*
X86089160Y-198548423D02*
X86089160Y-198672233D01*
X86089160Y-198672233D02*
X86027255Y-198857947D01*
X86027255Y-198857947D02*
X85284398Y-199600804D01*
X85284398Y-199600804D02*
X86089160Y-199600804D01*
D10*
D11*
X135284398Y-198300804D02*
X136089160Y-198300804D01*
X136089160Y-198300804D02*
X135655826Y-198796042D01*
X135655826Y-198796042D02*
X135841541Y-198796042D01*
X135841541Y-198796042D02*
X135965350Y-198857947D01*
X135965350Y-198857947D02*
X136027255Y-198919852D01*
X136027255Y-198919852D02*
X136089160Y-199043661D01*
X136089160Y-199043661D02*
X136089160Y-199353185D01*
X136089160Y-199353185D02*
X136027255Y-199476995D01*
X136027255Y-199476995D02*
X135965350Y-199538900D01*
X135965350Y-199538900D02*
X135841541Y-199600804D01*
X135841541Y-199600804D02*
X135470112Y-199600804D01*
X135470112Y-199600804D02*
X135346303Y-199538900D01*
X135346303Y-199538900D02*
X135284398Y-199476995D01*
D10*
D11*
X185965350Y-198734138D02*
X185965350Y-199600804D01*
X185655826Y-198238900D02*
X185346303Y-199167471D01*
X185346303Y-199167471D02*
X186151064Y-199167471D01*
D10*
D11*
X236027255Y-198300804D02*
X235408207Y-198300804D01*
X235408207Y-198300804D02*
X235346303Y-198919852D01*
X235346303Y-198919852D02*
X235408207Y-198857947D01*
X235408207Y-198857947D02*
X235532017Y-198796042D01*
X235532017Y-198796042D02*
X235841541Y-198796042D01*
X235841541Y-198796042D02*
X235965350Y-198857947D01*
X235965350Y-198857947D02*
X236027255Y-198919852D01*
X236027255Y-198919852D02*
X236089160Y-199043661D01*
X236089160Y-199043661D02*
X236089160Y-199353185D01*
X236089160Y-199353185D02*
X236027255Y-199476995D01*
X236027255Y-199476995D02*
X235965350Y-199538900D01*
X235965350Y-199538900D02*
X235841541Y-199600804D01*
X235841541Y-199600804D02*
X235532017Y-199600804D01*
X235532017Y-199600804D02*
X235408207Y-199538900D01*
X235408207Y-199538900D02*
X235346303Y-199476995D01*
D10*
D11*
X285965350Y-198300804D02*
X285717731Y-198300804D01*
X285717731Y-198300804D02*
X285593922Y-198362709D01*
X285593922Y-198362709D02*
X285532017Y-198424614D01*
X285532017Y-198424614D02*
X285408207Y-198610328D01*
X285408207Y-198610328D02*
X285346303Y-198857947D01*
X285346303Y-198857947D02*
X285346303Y-199353185D01*
X285346303Y-199353185D02*
X285408207Y-199476995D01*
X285408207Y-199476995D02*
X285470112Y-199538900D01*
X285470112Y-199538900D02*
X285593922Y-199600804D01*
X285593922Y-199600804D02*
X285841541Y-199600804D01*
X285841541Y-199600804D02*
X285965350Y-199538900D01*
X285965350Y-199538900D02*
X286027255Y-199476995D01*
X286027255Y-199476995D02*
X286089160Y-199353185D01*
X286089160Y-199353185D02*
X286089160Y-199043661D01*
X286089160Y-199043661D02*
X286027255Y-198919852D01*
X286027255Y-198919852D02*
X285965350Y-198857947D01*
X285965350Y-198857947D02*
X285841541Y-198796042D01*
X285841541Y-198796042D02*
X285593922Y-198796042D01*
X285593922Y-198796042D02*
X285470112Y-198857947D01*
X285470112Y-198857947D02*
X285408207Y-198919852D01*
X285408207Y-198919852D02*
X285346303Y-199043661D01*
D10*
D11*
X10000000Y-60000000D02*
X12000000Y-60000000D01*
D10*
D11*
X10000000Y-110000000D02*
X12000000Y-110000000D01*
D10*
D11*
X10000000Y-160000000D02*
X12000000Y-160000000D01*
D10*
D11*
X10690476Y-35222176D02*
X11309523Y-35222176D01*
X10566666Y-35593604D02*
X10999999Y-34293604D01*
X10999999Y-34293604D02*
X11433333Y-35593604D01*
D10*
D11*
X11092857Y-84912652D02*
X11278571Y-84974557D01*
X11278571Y-84974557D02*
X11340476Y-85036461D01*
X11340476Y-85036461D02*
X11402380Y-85160271D01*
X11402380Y-85160271D02*
X11402380Y-85345985D01*
X11402380Y-85345985D02*
X11340476Y-85469795D01*
X11340476Y-85469795D02*
X11278571Y-85531700D01*
X11278571Y-85531700D02*
X11154761Y-85593604D01*
X11154761Y-85593604D02*
X10659523Y-85593604D01*
X10659523Y-85593604D02*
X10659523Y-84293604D01*
X10659523Y-84293604D02*
X11092857Y-84293604D01*
X11092857Y-84293604D02*
X11216666Y-84355509D01*
X11216666Y-84355509D02*
X11278571Y-84417414D01*
X11278571Y-84417414D02*
X11340476Y-84541223D01*
X11340476Y-84541223D02*
X11340476Y-84665033D01*
X11340476Y-84665033D02*
X11278571Y-84788842D01*
X11278571Y-84788842D02*
X11216666Y-84850747D01*
X11216666Y-84850747D02*
X11092857Y-84912652D01*
X11092857Y-84912652D02*
X10659523Y-84912652D01*
D10*
D11*
X11402380Y-135469795D02*
X11340476Y-135531700D01*
X11340476Y-135531700D02*
X11154761Y-135593604D01*
X11154761Y-135593604D02*
X11030952Y-135593604D01*
X11030952Y-135593604D02*
X10845238Y-135531700D01*
X10845238Y-135531700D02*
X10721428Y-135407890D01*
X10721428Y-135407890D02*
X10659523Y-135284080D01*
X10659523Y-135284080D02*
X10597619Y-135036461D01*
X10597619Y-135036461D02*
X10597619Y-134850747D01*
X10597619Y-134850747D02*
X10659523Y-134603128D01*
X10659523Y-134603128D02*
X10721428Y-134479319D01*
X10721428Y-134479319D02*
X10845238Y-134355509D01*
X10845238Y-134355509D02*
X11030952Y-134293604D01*
X11030952Y-134293604D02*
X11154761Y-134293604D01*
X11154761Y-134293604D02*
X11340476Y-134355509D01*
X11340476Y-134355509D02*
X11402380Y-134417414D01*
D10*
D11*
X10659523Y-185593604D02*
X10659523Y-184293604D01*
X10659523Y-184293604D02*
X10969047Y-184293604D01*
X10969047Y-184293604D02*
X11154761Y-184355509D01*
X11154761Y-184355509D02*
X11278571Y-184479319D01*
X11278571Y-184479319D02*
X11340476Y-184603128D01*
X11340476Y-184603128D02*
X11402380Y-184850747D01*
X11402380Y-184850747D02*
X11402380Y-185036461D01*
X11402380Y-185036461D02*
X11340476Y-185284080D01*
X11340476Y-185284080D02*
X11278571Y-185407890D01*
X11278571Y-185407890D02*
X11154761Y-185531700D01*
X11154761Y-185531700D02*
X10969047Y-185593604D01*
X10969047Y-185593604D02*
X10659523Y-185593604D01*
D10*
D11*
X287002200Y-60000000D02*
X285002200Y-60000000D01*
D10*
D11*
X287002200Y-110000000D02*
X285002200Y-110000000D01*
D10*
D11*
X287002200Y-160000000D02*
X285002200Y-160000000D01*
D10*
D11*
X285692676Y-35222176D02*
X286311723Y-35222176D01*
X285568866Y-35593604D02*
X286002199Y-34293604D01*
X286002199Y-34293604D02*
X286435533Y-35593604D01*
D10*
D11*
X286095057Y-84912652D02*
X286280771Y-84974557D01*
X286280771Y-84974557D02*
X286342676Y-85036461D01*
X286342676Y-85036461D02*
X286404580Y-85160271D01*
X286404580Y-85160271D02*
X286404580Y-85345985D01*
X286404580Y-85345985D02*
X286342676Y-85469795D01*
X286342676Y-85469795D02*
X286280771Y-85531700D01*
X286280771Y-85531700D02*
X286156961Y-85593604D01*
X286156961Y-85593604D02*
X285661723Y-85593604D01*
X285661723Y-85593604D02*
X285661723Y-84293604D01*
X285661723Y-84293604D02*
X286095057Y-84293604D01*
X286095057Y-84293604D02*
X286218866Y-84355509D01*
X286218866Y-84355509D02*
X286280771Y-84417414D01*
X286280771Y-84417414D02*
X286342676Y-84541223D01*
X286342676Y-84541223D02*
X286342676Y-84665033D01*
X286342676Y-84665033D02*
X286280771Y-84788842D01*
X286280771Y-84788842D02*
X286218866Y-84850747D01*
X286218866Y-84850747D02*
X286095057Y-84912652D01*
X286095057Y-84912652D02*
X285661723Y-84912652D01*
D10*
D11*
X286404580Y-135469795D02*
X286342676Y-135531700D01*
X286342676Y-135531700D02*
X286156961Y-135593604D01*
X286156961Y-135593604D02*
X286033152Y-135593604D01*
X286033152Y-135593604D02*
X285847438Y-135531700D01*
X285847438Y-135531700D02*
X285723628Y-135407890D01*
X285723628Y-135407890D02*
X285661723Y-135284080D01*
X285661723Y-135284080D02*
X285599819Y-135036461D01*
X285599819Y-135036461D02*
X285599819Y-134850747D01*
X285599819Y-134850747D02*
X285661723Y-134603128D01*
X285661723Y-134603128D02*
X285723628Y-134479319D01*
X285723628Y-134479319D02*
X285847438Y-134355509D01*
X285847438Y-134355509D02*
X286033152Y-134293604D01*
X286033152Y-134293604D02*
X286156961Y-134293604D01*
X286156961Y-134293604D02*
X286342676Y-134355509D01*
X286342676Y-134355509D02*
X286404580Y-134417414D01*
D10*
D11*
X285661723Y-185593604D02*
X285661723Y-184293604D01*
X285661723Y-184293604D02*
X285971247Y-184293604D01*
X285971247Y-184293604D02*
X286156961Y-184355509D01*
X286156961Y-184355509D02*
X286280771Y-184479319D01*
X286280771Y-184479319D02*
X286342676Y-184603128D01*
X286342676Y-184603128D02*
X286404580Y-184850747D01*
X286404580Y-184850747D02*
X286404580Y-185036461D01*
X286404580Y-185036461D02*
X286342676Y-185284080D01*
X286342676Y-185284080D02*
X286280771Y-185407890D01*
X286280771Y-185407890D02*
X286156961Y-185531700D01*
X286156961Y-185531700D02*
X285971247Y-185593604D01*
X285971247Y-185593604D02*
X285661723Y-185593604D01*
D10*
D11*
X200458026Y-193793328D02*
X200458026Y-192293328D01*
X200458026Y-192293328D02*
X200815169Y-192293328D01*
X200815169Y-192293328D02*
X201029455Y-192364757D01*
X201029455Y-192364757D02*
X201172312Y-192507614D01*
X201172312Y-192507614D02*
X201243741Y-192650471D01*
X201243741Y-192650471D02*
X201315169Y-192936185D01*
X201315169Y-192936185D02*
X201315169Y-193150471D01*
X201315169Y-193150471D02*
X201243741Y-193436185D01*
X201243741Y-193436185D02*
X201172312Y-193579042D01*
X201172312Y-193579042D02*
X201029455Y-193721900D01*
X201029455Y-193721900D02*
X200815169Y-193793328D01*
X200815169Y-193793328D02*
X200458026Y-193793328D01*
X202600884Y-193793328D02*
X202600884Y-193007614D01*
X202600884Y-193007614D02*
X202529455Y-192864757D01*
X202529455Y-192864757D02*
X202386598Y-192793328D01*
X202386598Y-192793328D02*
X202100884Y-192793328D01*
X202100884Y-192793328D02*
X201958026Y-192864757D01*
X202600884Y-193721900D02*
X202458026Y-193793328D01*
X202458026Y-193793328D02*
X202100884Y-193793328D01*
X202100884Y-193793328D02*
X201958026Y-193721900D01*
X201958026Y-193721900D02*
X201886598Y-193579042D01*
X201886598Y-193579042D02*
X201886598Y-193436185D01*
X201886598Y-193436185D02*
X201958026Y-193293328D01*
X201958026Y-193293328D02*
X202100884Y-193221900D01*
X202100884Y-193221900D02*
X202458026Y-193221900D01*
X202458026Y-193221900D02*
X202600884Y-193150471D01*
X203100884Y-192793328D02*
X203672312Y-192793328D01*
X203315169Y-192293328D02*
X203315169Y-193579042D01*
X203315169Y-193579042D02*
X203386598Y-193721900D01*
X203386598Y-193721900D02*
X203529455Y-193793328D01*
X203529455Y-193793328D02*
X203672312Y-193793328D01*
X204743741Y-193721900D02*
X204600884Y-193793328D01*
X204600884Y-193793328D02*
X204315170Y-193793328D01*
X204315170Y-193793328D02*
X204172312Y-193721900D01*
X204172312Y-193721900D02*
X204100884Y-193579042D01*
X204100884Y-193579042D02*
X204100884Y-193007614D01*
X204100884Y-193007614D02*
X204172312Y-192864757D01*
X204172312Y-192864757D02*
X204315170Y-192793328D01*
X204315170Y-192793328D02*
X204600884Y-192793328D01*
X204600884Y-192793328D02*
X204743741Y-192864757D01*
X204743741Y-192864757D02*
X204815170Y-193007614D01*
X204815170Y-193007614D02*
X204815170Y-193150471D01*
X204815170Y-193150471D02*
X204100884Y-193293328D01*
X205458026Y-193650471D02*
X205529455Y-193721900D01*
X205529455Y-193721900D02*
X205458026Y-193793328D01*
X205458026Y-193793328D02*
X205386598Y-193721900D01*
X205386598Y-193721900D02*
X205458026Y-193650471D01*
X205458026Y-193650471D02*
X205458026Y-193793328D01*
X205458026Y-192864757D02*
X205529455Y-192936185D01*
X205529455Y-192936185D02*
X205458026Y-193007614D01*
X205458026Y-193007614D02*
X205386598Y-192936185D01*
X205386598Y-192936185D02*
X205458026Y-192864757D01*
X205458026Y-192864757D02*
X205458026Y-193007614D01*
D10*
D11*
X177002200Y-194507200D02*
X285002200Y-194507200D01*
D10*
D11*
X178458026Y-196593328D02*
X178458026Y-195093328D01*
X179315169Y-196593328D02*
X178672312Y-195736185D01*
X179315169Y-195093328D02*
X178458026Y-195950471D01*
X179958026Y-196593328D02*
X179958026Y-195593328D01*
X179958026Y-195093328D02*
X179886598Y-195164757D01*
X179886598Y-195164757D02*
X179958026Y-195236185D01*
X179958026Y-195236185D02*
X180029455Y-195164757D01*
X180029455Y-195164757D02*
X179958026Y-195093328D01*
X179958026Y-195093328D02*
X179958026Y-195236185D01*
X181529455Y-196450471D02*
X181458027Y-196521900D01*
X181458027Y-196521900D02*
X181243741Y-196593328D01*
X181243741Y-196593328D02*
X181100884Y-196593328D01*
X181100884Y-196593328D02*
X180886598Y-196521900D01*
X180886598Y-196521900D02*
X180743741Y-196379042D01*
X180743741Y-196379042D02*
X180672312Y-196236185D01*
X180672312Y-196236185D02*
X180600884Y-195950471D01*
X180600884Y-195950471D02*
X180600884Y-195736185D01*
X180600884Y-195736185D02*
X180672312Y-195450471D01*
X180672312Y-195450471D02*
X180743741Y-195307614D01*
X180743741Y-195307614D02*
X180886598Y-195164757D01*
X180886598Y-195164757D02*
X181100884Y-195093328D01*
X181100884Y-195093328D02*
X181243741Y-195093328D01*
X181243741Y-195093328D02*
X181458027Y-195164757D01*
X181458027Y-195164757D02*
X181529455Y-195236185D01*
X182815170Y-196593328D02*
X182815170Y-195807614D01*
X182815170Y-195807614D02*
X182743741Y-195664757D01*
X182743741Y-195664757D02*
X182600884Y-195593328D01*
X182600884Y-195593328D02*
X182315170Y-195593328D01*
X182315170Y-195593328D02*
X182172312Y-195664757D01*
X182815170Y-196521900D02*
X182672312Y-196593328D01*
X182672312Y-196593328D02*
X182315170Y-196593328D01*
X182315170Y-196593328D02*
X182172312Y-196521900D01*
X182172312Y-196521900D02*
X182100884Y-196379042D01*
X182100884Y-196379042D02*
X182100884Y-196236185D01*
X182100884Y-196236185D02*
X182172312Y-196093328D01*
X182172312Y-196093328D02*
X182315170Y-196021900D01*
X182315170Y-196021900D02*
X182672312Y-196021900D01*
X182672312Y-196021900D02*
X182815170Y-195950471D01*
X184172313Y-196593328D02*
X184172313Y-195093328D01*
X184172313Y-196521900D02*
X184029455Y-196593328D01*
X184029455Y-196593328D02*
X183743741Y-196593328D01*
X183743741Y-196593328D02*
X183600884Y-196521900D01*
X183600884Y-196521900D02*
X183529455Y-196450471D01*
X183529455Y-196450471D02*
X183458027Y-196307614D01*
X183458027Y-196307614D02*
X183458027Y-195879042D01*
X183458027Y-195879042D02*
X183529455Y-195736185D01*
X183529455Y-195736185D02*
X183600884Y-195664757D01*
X183600884Y-195664757D02*
X183743741Y-195593328D01*
X183743741Y-195593328D02*
X184029455Y-195593328D01*
X184029455Y-195593328D02*
X184172313Y-195664757D01*
X186029455Y-195807614D02*
X186529455Y-195807614D01*
X186743741Y-196593328D02*
X186029455Y-196593328D01*
X186029455Y-196593328D02*
X186029455Y-195093328D01*
X186029455Y-195093328D02*
X186743741Y-195093328D01*
X187386598Y-196450471D02*
X187458027Y-196521900D01*
X187458027Y-196521900D02*
X187386598Y-196593328D01*
X187386598Y-196593328D02*
X187315170Y-196521900D01*
X187315170Y-196521900D02*
X187386598Y-196450471D01*
X187386598Y-196450471D02*
X187386598Y-196593328D01*
X188100884Y-196593328D02*
X188100884Y-195093328D01*
X188100884Y-195093328D02*
X188458027Y-195093328D01*
X188458027Y-195093328D02*
X188672313Y-195164757D01*
X188672313Y-195164757D02*
X188815170Y-195307614D01*
X188815170Y-195307614D02*
X188886599Y-195450471D01*
X188886599Y-195450471D02*
X188958027Y-195736185D01*
X188958027Y-195736185D02*
X188958027Y-195950471D01*
X188958027Y-195950471D02*
X188886599Y-196236185D01*
X188886599Y-196236185D02*
X188815170Y-196379042D01*
X188815170Y-196379042D02*
X188672313Y-196521900D01*
X188672313Y-196521900D02*
X188458027Y-196593328D01*
X188458027Y-196593328D02*
X188100884Y-196593328D01*
X189600884Y-196450471D02*
X189672313Y-196521900D01*
X189672313Y-196521900D02*
X189600884Y-196593328D01*
X189600884Y-196593328D02*
X189529456Y-196521900D01*
X189529456Y-196521900D02*
X189600884Y-196450471D01*
X189600884Y-196450471D02*
X189600884Y-196593328D01*
X190243742Y-196164757D02*
X190958028Y-196164757D01*
X190100885Y-196593328D02*
X190600885Y-195093328D01*
X190600885Y-195093328D02*
X191100885Y-196593328D01*
X191600884Y-196450471D02*
X191672313Y-196521900D01*
X191672313Y-196521900D02*
X191600884Y-196593328D01*
X191600884Y-196593328D02*
X191529456Y-196521900D01*
X191529456Y-196521900D02*
X191600884Y-196450471D01*
X191600884Y-196450471D02*
X191600884Y-196593328D01*
X194600884Y-196593328D02*
X194600884Y-195093328D01*
X194743742Y-196021900D02*
X195172313Y-196593328D01*
X195172313Y-195593328D02*
X194600884Y-196164757D01*
X195815170Y-196593328D02*
X195815170Y-195593328D01*
X195815170Y-195093328D02*
X195743742Y-195164757D01*
X195743742Y-195164757D02*
X195815170Y-195236185D01*
X195815170Y-195236185D02*
X195886599Y-195164757D01*
X195886599Y-195164757D02*
X195815170Y-195093328D01*
X195815170Y-195093328D02*
X195815170Y-195236185D01*
X197172314Y-196521900D02*
X197029456Y-196593328D01*
X197029456Y-196593328D02*
X196743742Y-196593328D01*
X196743742Y-196593328D02*
X196600885Y-196521900D01*
X196600885Y-196521900D02*
X196529456Y-196450471D01*
X196529456Y-196450471D02*
X196458028Y-196307614D01*
X196458028Y-196307614D02*
X196458028Y-195879042D01*
X196458028Y-195879042D02*
X196529456Y-195736185D01*
X196529456Y-195736185D02*
X196600885Y-195664757D01*
X196600885Y-195664757D02*
X196743742Y-195593328D01*
X196743742Y-195593328D02*
X197029456Y-195593328D01*
X197029456Y-195593328D02*
X197172314Y-195664757D01*
X198458028Y-196593328D02*
X198458028Y-195807614D01*
X198458028Y-195807614D02*
X198386599Y-195664757D01*
X198386599Y-195664757D02*
X198243742Y-195593328D01*
X198243742Y-195593328D02*
X197958028Y-195593328D01*
X197958028Y-195593328D02*
X197815170Y-195664757D01*
X198458028Y-196521900D02*
X198315170Y-196593328D01*
X198315170Y-196593328D02*
X197958028Y-196593328D01*
X197958028Y-196593328D02*
X197815170Y-196521900D01*
X197815170Y-196521900D02*
X197743742Y-196379042D01*
X197743742Y-196379042D02*
X197743742Y-196236185D01*
X197743742Y-196236185D02*
X197815170Y-196093328D01*
X197815170Y-196093328D02*
X197958028Y-196021900D01*
X197958028Y-196021900D02*
X198315170Y-196021900D01*
X198315170Y-196021900D02*
X198458028Y-195950471D01*
X199815171Y-196593328D02*
X199815171Y-195093328D01*
X199815171Y-196521900D02*
X199672313Y-196593328D01*
X199672313Y-196593328D02*
X199386599Y-196593328D01*
X199386599Y-196593328D02*
X199243742Y-196521900D01*
X199243742Y-196521900D02*
X199172313Y-196450471D01*
X199172313Y-196450471D02*
X199100885Y-196307614D01*
X199100885Y-196307614D02*
X199100885Y-195879042D01*
X199100885Y-195879042D02*
X199172313Y-195736185D01*
X199172313Y-195736185D02*
X199243742Y-195664757D01*
X199243742Y-195664757D02*
X199386599Y-195593328D01*
X199386599Y-195593328D02*
X199672313Y-195593328D01*
X199672313Y-195593328D02*
X199815171Y-195664757D01*
X201529456Y-195093328D02*
X202529456Y-195093328D01*
X202529456Y-195093328D02*
X201886599Y-196593328D01*
X203100884Y-196450471D02*
X203172313Y-196521900D01*
X203172313Y-196521900D02*
X203100884Y-196593328D01*
X203100884Y-196593328D02*
X203029456Y-196521900D01*
X203029456Y-196521900D02*
X203100884Y-196450471D01*
X203100884Y-196450471D02*
X203100884Y-196593328D01*
X204100885Y-195093328D02*
X204243742Y-195093328D01*
X204243742Y-195093328D02*
X204386599Y-195164757D01*
X204386599Y-195164757D02*
X204458028Y-195236185D01*
X204458028Y-195236185D02*
X204529456Y-195379042D01*
X204529456Y-195379042D02*
X204600885Y-195664757D01*
X204600885Y-195664757D02*
X204600885Y-196021900D01*
X204600885Y-196021900D02*
X204529456Y-196307614D01*
X204529456Y-196307614D02*
X204458028Y-196450471D01*
X204458028Y-196450471D02*
X204386599Y-196521900D01*
X204386599Y-196521900D02*
X204243742Y-196593328D01*
X204243742Y-196593328D02*
X204100885Y-196593328D01*
X204100885Y-196593328D02*
X203958028Y-196521900D01*
X203958028Y-196521900D02*
X203886599Y-196450471D01*
X203886599Y-196450471D02*
X203815170Y-196307614D01*
X203815170Y-196307614D02*
X203743742Y-196021900D01*
X203743742Y-196021900D02*
X203743742Y-195664757D01*
X203743742Y-195664757D02*
X203815170Y-195379042D01*
X203815170Y-195379042D02*
X203886599Y-195236185D01*
X203886599Y-195236185D02*
X203958028Y-195164757D01*
X203958028Y-195164757D02*
X204100885Y-195093328D01*
X205243741Y-196450471D02*
X205315170Y-196521900D01*
X205315170Y-196521900D02*
X205243741Y-196593328D01*
X205243741Y-196593328D02*
X205172313Y-196521900D01*
X205172313Y-196521900D02*
X205243741Y-196450471D01*
X205243741Y-196450471D02*
X205243741Y-196593328D01*
X206172313Y-195736185D02*
X206029456Y-195664757D01*
X206029456Y-195664757D02*
X205958027Y-195593328D01*
X205958027Y-195593328D02*
X205886599Y-195450471D01*
X205886599Y-195450471D02*
X205886599Y-195379042D01*
X205886599Y-195379042D02*
X205958027Y-195236185D01*
X205958027Y-195236185D02*
X206029456Y-195164757D01*
X206029456Y-195164757D02*
X206172313Y-195093328D01*
X206172313Y-195093328D02*
X206458027Y-195093328D01*
X206458027Y-195093328D02*
X206600885Y-195164757D01*
X206600885Y-195164757D02*
X206672313Y-195236185D01*
X206672313Y-195236185D02*
X206743742Y-195379042D01*
X206743742Y-195379042D02*
X206743742Y-195450471D01*
X206743742Y-195450471D02*
X206672313Y-195593328D01*
X206672313Y-195593328D02*
X206600885Y-195664757D01*
X206600885Y-195664757D02*
X206458027Y-195736185D01*
X206458027Y-195736185D02*
X206172313Y-195736185D01*
X206172313Y-195736185D02*
X206029456Y-195807614D01*
X206029456Y-195807614D02*
X205958027Y-195879042D01*
X205958027Y-195879042D02*
X205886599Y-196021900D01*
X205886599Y-196021900D02*
X205886599Y-196307614D01*
X205886599Y-196307614D02*
X205958027Y-196450471D01*
X205958027Y-196450471D02*
X206029456Y-196521900D01*
X206029456Y-196521900D02*
X206172313Y-196593328D01*
X206172313Y-196593328D02*
X206458027Y-196593328D01*
X206458027Y-196593328D02*
X206600885Y-196521900D01*
X206600885Y-196521900D02*
X206672313Y-196450471D01*
X206672313Y-196450471D02*
X206743742Y-196307614D01*
X206743742Y-196307614D02*
X206743742Y-196021900D01*
X206743742Y-196021900D02*
X206672313Y-195879042D01*
X206672313Y-195879042D02*
X206600885Y-195807614D01*
X206600885Y-195807614D02*
X206458027Y-195736185D01*
D10*
D11*
X177002200Y-191507200D02*
X285002200Y-191507200D01*
D10*
D12*
X264413853Y-193785528D02*
X263913853Y-193071242D01*
X263556710Y-193785528D02*
X263556710Y-192285528D01*
X263556710Y-192285528D02*
X264128139Y-192285528D01*
X264128139Y-192285528D02*
X264270996Y-192356957D01*
X264270996Y-192356957D02*
X264342425Y-192428385D01*
X264342425Y-192428385D02*
X264413853Y-192571242D01*
X264413853Y-192571242D02*
X264413853Y-192785528D01*
X264413853Y-192785528D02*
X264342425Y-192928385D01*
X264342425Y-192928385D02*
X264270996Y-192999814D01*
X264270996Y-192999814D02*
X264128139Y-193071242D01*
X264128139Y-193071242D02*
X263556710Y-193071242D01*
X265628139Y-193714100D02*
X265485282Y-193785528D01*
X265485282Y-193785528D02*
X265199568Y-193785528D01*
X265199568Y-193785528D02*
X265056710Y-193714100D01*
X265056710Y-193714100D02*
X264985282Y-193571242D01*
X264985282Y-193571242D02*
X264985282Y-192999814D01*
X264985282Y-192999814D02*
X265056710Y-192856957D01*
X265056710Y-192856957D02*
X265199568Y-192785528D01*
X265199568Y-192785528D02*
X265485282Y-192785528D01*
X265485282Y-192785528D02*
X265628139Y-192856957D01*
X265628139Y-192856957D02*
X265699568Y-192999814D01*
X265699568Y-192999814D02*
X265699568Y-193142671D01*
X265699568Y-193142671D02*
X264985282Y-193285528D01*
X266199567Y-192785528D02*
X266556710Y-193785528D01*
X266556710Y-193785528D02*
X266913853Y-192785528D01*
X267485281Y-193642671D02*
X267556710Y-193714100D01*
X267556710Y-193714100D02*
X267485281Y-193785528D01*
X267485281Y-193785528D02*
X267413853Y-193714100D01*
X267413853Y-193714100D02*
X267485281Y-193642671D01*
X267485281Y-193642671D02*
X267485281Y-193785528D01*
X267485281Y-192856957D02*
X267556710Y-192928385D01*
X267556710Y-192928385D02*
X267485281Y-192999814D01*
X267485281Y-192999814D02*
X267413853Y-192928385D01*
X267413853Y-192928385D02*
X267485281Y-192856957D01*
X267485281Y-192856957D02*
X267485281Y-192999814D01*
D10*
D11*
X178386598Y-193721900D02*
X178600884Y-193793328D01*
X178600884Y-193793328D02*
X178958026Y-193793328D01*
X178958026Y-193793328D02*
X179100884Y-193721900D01*
X179100884Y-193721900D02*
X179172312Y-193650471D01*
X179172312Y-193650471D02*
X179243741Y-193507614D01*
X179243741Y-193507614D02*
X179243741Y-193364757D01*
X179243741Y-193364757D02*
X179172312Y-193221900D01*
X179172312Y-193221900D02*
X179100884Y-193150471D01*
X179100884Y-193150471D02*
X178958026Y-193079042D01*
X178958026Y-193079042D02*
X178672312Y-193007614D01*
X178672312Y-193007614D02*
X178529455Y-192936185D01*
X178529455Y-192936185D02*
X178458026Y-192864757D01*
X178458026Y-192864757D02*
X178386598Y-192721900D01*
X178386598Y-192721900D02*
X178386598Y-192579042D01*
X178386598Y-192579042D02*
X178458026Y-192436185D01*
X178458026Y-192436185D02*
X178529455Y-192364757D01*
X178529455Y-192364757D02*
X178672312Y-192293328D01*
X178672312Y-192293328D02*
X179029455Y-192293328D01*
X179029455Y-192293328D02*
X179243741Y-192364757D01*
X179886597Y-193793328D02*
X179886597Y-192793328D01*
X179886597Y-192293328D02*
X179815169Y-192364757D01*
X179815169Y-192364757D02*
X179886597Y-192436185D01*
X179886597Y-192436185D02*
X179958026Y-192364757D01*
X179958026Y-192364757D02*
X179886597Y-192293328D01*
X179886597Y-192293328D02*
X179886597Y-192436185D01*
X180458026Y-192793328D02*
X181243741Y-192793328D01*
X181243741Y-192793328D02*
X180458026Y-193793328D01*
X180458026Y-193793328D02*
X181243741Y-193793328D01*
X182386598Y-193721900D02*
X182243741Y-193793328D01*
X182243741Y-193793328D02*
X181958027Y-193793328D01*
X181958027Y-193793328D02*
X181815169Y-193721900D01*
X181815169Y-193721900D02*
X181743741Y-193579042D01*
X181743741Y-193579042D02*
X181743741Y-193007614D01*
X181743741Y-193007614D02*
X181815169Y-192864757D01*
X181815169Y-192864757D02*
X181958027Y-192793328D01*
X181958027Y-192793328D02*
X182243741Y-192793328D01*
X182243741Y-192793328D02*
X182386598Y-192864757D01*
X182386598Y-192864757D02*
X182458027Y-193007614D01*
X182458027Y-193007614D02*
X182458027Y-193150471D01*
X182458027Y-193150471D02*
X181743741Y-193293328D01*
X183100883Y-193650471D02*
X183172312Y-193721900D01*
X183172312Y-193721900D02*
X183100883Y-193793328D01*
X183100883Y-193793328D02*
X183029455Y-193721900D01*
X183029455Y-193721900D02*
X183100883Y-193650471D01*
X183100883Y-193650471D02*
X183100883Y-193793328D01*
X183100883Y-192864757D02*
X183172312Y-192936185D01*
X183172312Y-192936185D02*
X183100883Y-193007614D01*
X183100883Y-193007614D02*
X183029455Y-192936185D01*
X183029455Y-192936185D02*
X183100883Y-192864757D01*
X183100883Y-192864757D02*
X183100883Y-193007614D01*
X184886598Y-193364757D02*
X185600884Y-193364757D01*
X184743741Y-193793328D02*
X185243741Y-192293328D01*
X185243741Y-192293328D02*
X185743741Y-193793328D01*
X186886598Y-192793328D02*
X186886598Y-193793328D01*
X186529455Y-192221900D02*
X186172312Y-193293328D01*
X186172312Y-193293328D02*
X187100883Y-193293328D01*
D10*
D11*
X263458026Y-196593328D02*
X263458026Y-195093328D01*
X264815170Y-196593328D02*
X264815170Y-195093328D01*
X264815170Y-196521900D02*
X264672312Y-196593328D01*
X264672312Y-196593328D02*
X264386598Y-196593328D01*
X264386598Y-196593328D02*
X264243741Y-196521900D01*
X264243741Y-196521900D02*
X264172312Y-196450471D01*
X264172312Y-196450471D02*
X264100884Y-196307614D01*
X264100884Y-196307614D02*
X264100884Y-195879042D01*
X264100884Y-195879042D02*
X264172312Y-195736185D01*
X264172312Y-195736185D02*
X264243741Y-195664757D01*
X264243741Y-195664757D02*
X264386598Y-195593328D01*
X264386598Y-195593328D02*
X264672312Y-195593328D01*
X264672312Y-195593328D02*
X264815170Y-195664757D01*
X265529455Y-196450471D02*
X265600884Y-196521900D01*
X265600884Y-196521900D02*
X265529455Y-196593328D01*
X265529455Y-196593328D02*
X265458027Y-196521900D01*
X265458027Y-196521900D02*
X265529455Y-196450471D01*
X265529455Y-196450471D02*
X265529455Y-196593328D01*
X265529455Y-195664757D02*
X265600884Y-195736185D01*
X265600884Y-195736185D02*
X265529455Y-195807614D01*
X265529455Y-195807614D02*
X265458027Y-195736185D01*
X265458027Y-195736185D02*
X265529455Y-195664757D01*
X265529455Y-195664757D02*
X265529455Y-195807614D01*
X268172313Y-196593328D02*
X267315170Y-196593328D01*
X267743741Y-196593328D02*
X267743741Y-195093328D01*
X267743741Y-195093328D02*
X267600884Y-195307614D01*
X267600884Y-195307614D02*
X267458027Y-195450471D01*
X267458027Y-195450471D02*
X267315170Y-195521900D01*
X269886598Y-195021900D02*
X268600884Y-196950471D01*
X271172313Y-196593328D02*
X270315170Y-196593328D01*
X270743741Y-196593328D02*
X270743741Y-195093328D01*
X270743741Y-195093328D02*
X270600884Y-195307614D01*
X270600884Y-195307614D02*
X270458027Y-195450471D01*
X270458027Y-195450471D02*
X270315170Y-195521900D01*
D10*
D11*
X177002200Y-187507200D02*
X285002200Y-187507200D01*
D10*
D13*
X178693928Y-188211638D02*
X179836785Y-188211638D01*
X179015357Y-190211638D02*
X179265357Y-188211638D01*
X180253452Y-190211638D02*
X180420119Y-188878304D01*
X180503452Y-188211638D02*
X180396309Y-188306876D01*
X180396309Y-188306876D02*
X180479643Y-188402114D01*
X180479643Y-188402114D02*
X180586786Y-188306876D01*
X180586786Y-188306876D02*
X180503452Y-188211638D01*
X180503452Y-188211638D02*
X180479643Y-188402114D01*
X181086786Y-188878304D02*
X181848690Y-188878304D01*
X181455833Y-188211638D02*
X181241548Y-189925923D01*
X181241548Y-189925923D02*
X181312976Y-190116400D01*
X181312976Y-190116400D02*
X181491548Y-190211638D01*
X181491548Y-190211638D02*
X181682024Y-190211638D01*
X182634405Y-190211638D02*
X182455833Y-190116400D01*
X182455833Y-190116400D02*
X182384405Y-189925923D01*
X182384405Y-189925923D02*
X182598690Y-188211638D01*
X184170119Y-190116400D02*
X183967738Y-190211638D01*
X183967738Y-190211638D02*
X183586785Y-190211638D01*
X183586785Y-190211638D02*
X183408214Y-190116400D01*
X183408214Y-190116400D02*
X183336785Y-189925923D01*
X183336785Y-189925923D02*
X183432024Y-189164019D01*
X183432024Y-189164019D02*
X183551071Y-188973542D01*
X183551071Y-188973542D02*
X183753452Y-188878304D01*
X183753452Y-188878304D02*
X184134404Y-188878304D01*
X184134404Y-188878304D02*
X184312976Y-188973542D01*
X184312976Y-188973542D02*
X184384404Y-189164019D01*
X184384404Y-189164019D02*
X184360595Y-189354495D01*
X184360595Y-189354495D02*
X183384404Y-189544971D01*
X185134405Y-190021161D02*
X185217738Y-190116400D01*
X185217738Y-190116400D02*
X185110595Y-190211638D01*
X185110595Y-190211638D02*
X185027262Y-190116400D01*
X185027262Y-190116400D02*
X185134405Y-190021161D01*
X185134405Y-190021161D02*
X185110595Y-190211638D01*
X185265357Y-188973542D02*
X185348690Y-189068780D01*
X185348690Y-189068780D02*
X185241548Y-189164019D01*
X185241548Y-189164019D02*
X185158214Y-189068780D01*
X185158214Y-189068780D02*
X185265357Y-188973542D01*
X185265357Y-188973542D02*
X185241548Y-189164019D01*
D10*
D11*
X178958026Y-185607614D02*
X178458026Y-185607614D01*
X178458026Y-186393328D02*
X178458026Y-184893328D01*
X178458026Y-184893328D02*
X179172312Y-184893328D01*
X179743740Y-186393328D02*
X179743740Y-185393328D01*
X179743740Y-184893328D02*
X179672312Y-184964757D01*
X179672312Y-184964757D02*
X179743740Y-185036185D01*
X179743740Y-185036185D02*
X179815169Y-184964757D01*
X179815169Y-184964757D02*
X179743740Y-184893328D01*
X179743740Y-184893328D02*
X179743740Y-185036185D01*
X180672312Y-186393328D02*
X180529455Y-186321900D01*
X180529455Y-186321900D02*
X180458026Y-186179042D01*
X180458026Y-186179042D02*
X180458026Y-184893328D01*
X181815169Y-186321900D02*
X181672312Y-186393328D01*
X181672312Y-186393328D02*
X181386598Y-186393328D01*
X181386598Y-186393328D02*
X181243740Y-186321900D01*
X181243740Y-186321900D02*
X181172312Y-186179042D01*
X181172312Y-186179042D02*
X181172312Y-185607614D01*
X181172312Y-185607614D02*
X181243740Y-185464757D01*
X181243740Y-185464757D02*
X181386598Y-185393328D01*
X181386598Y-185393328D02*
X181672312Y-185393328D01*
X181672312Y-185393328D02*
X181815169Y-185464757D01*
X181815169Y-185464757D02*
X181886598Y-185607614D01*
X181886598Y-185607614D02*
X181886598Y-185750471D01*
X181886598Y-185750471D02*
X181172312Y-185893328D01*
X182529454Y-186250471D02*
X182600883Y-186321900D01*
X182600883Y-186321900D02*
X182529454Y-186393328D01*
X182529454Y-186393328D02*
X182458026Y-186321900D01*
X182458026Y-186321900D02*
X182529454Y-186250471D01*
X182529454Y-186250471D02*
X182529454Y-186393328D01*
X182529454Y-185464757D02*
X182600883Y-185536185D01*
X182600883Y-185536185D02*
X182529454Y-185607614D01*
X182529454Y-185607614D02*
X182458026Y-185536185D01*
X182458026Y-185536185D02*
X182529454Y-185464757D01*
X182529454Y-185464757D02*
X182529454Y-185607614D01*
X184386597Y-186393328D02*
X184386597Y-184893328D01*
X184386597Y-185607614D02*
X185243740Y-185607614D01*
X185243740Y-186393328D02*
X185243740Y-184893328D01*
X185743741Y-184893328D02*
X186243741Y-186393328D01*
X186243741Y-186393328D02*
X186743741Y-184893328D01*
X186886598Y-186536185D02*
X188029455Y-186536185D01*
X188315169Y-186321900D02*
X188529455Y-186393328D01*
X188529455Y-186393328D02*
X188886597Y-186393328D01*
X188886597Y-186393328D02*
X189029455Y-186321900D01*
X189029455Y-186321900D02*
X189100883Y-186250471D01*
X189100883Y-186250471D02*
X189172312Y-186107614D01*
X189172312Y-186107614D02*
X189172312Y-185964757D01*
X189172312Y-185964757D02*
X189100883Y-185821900D01*
X189100883Y-185821900D02*
X189029455Y-185750471D01*
X189029455Y-185750471D02*
X188886597Y-185679042D01*
X188886597Y-185679042D02*
X188600883Y-185607614D01*
X188600883Y-185607614D02*
X188458026Y-185536185D01*
X188458026Y-185536185D02*
X188386597Y-185464757D01*
X188386597Y-185464757D02*
X188315169Y-185321900D01*
X188315169Y-185321900D02*
X188315169Y-185179042D01*
X188315169Y-185179042D02*
X188386597Y-185036185D01*
X188386597Y-185036185D02*
X188458026Y-184964757D01*
X188458026Y-184964757D02*
X188600883Y-184893328D01*
X188600883Y-184893328D02*
X188958026Y-184893328D01*
X188958026Y-184893328D02*
X189172312Y-184964757D01*
X190458026Y-186393328D02*
X190458026Y-185607614D01*
X190458026Y-185607614D02*
X190386597Y-185464757D01*
X190386597Y-185464757D02*
X190243740Y-185393328D01*
X190243740Y-185393328D02*
X189958026Y-185393328D01*
X189958026Y-185393328D02*
X189815168Y-185464757D01*
X190458026Y-186321900D02*
X190315168Y-186393328D01*
X190315168Y-186393328D02*
X189958026Y-186393328D01*
X189958026Y-186393328D02*
X189815168Y-186321900D01*
X189815168Y-186321900D02*
X189743740Y-186179042D01*
X189743740Y-186179042D02*
X189743740Y-186036185D01*
X189743740Y-186036185D02*
X189815168Y-185893328D01*
X189815168Y-185893328D02*
X189958026Y-185821900D01*
X189958026Y-185821900D02*
X190315168Y-185821900D01*
X190315168Y-185821900D02*
X190458026Y-185750471D01*
X190958026Y-185393328D02*
X191529454Y-185393328D01*
X191172311Y-186393328D02*
X191172311Y-185107614D01*
X191172311Y-185107614D02*
X191243740Y-184964757D01*
X191243740Y-184964757D02*
X191386597Y-184893328D01*
X191386597Y-184893328D02*
X191529454Y-184893328D01*
X192600883Y-186321900D02*
X192458026Y-186393328D01*
X192458026Y-186393328D02*
X192172312Y-186393328D01*
X192172312Y-186393328D02*
X192029454Y-186321900D01*
X192029454Y-186321900D02*
X191958026Y-186179042D01*
X191958026Y-186179042D02*
X191958026Y-185607614D01*
X191958026Y-185607614D02*
X192029454Y-185464757D01*
X192029454Y-185464757D02*
X192172312Y-185393328D01*
X192172312Y-185393328D02*
X192458026Y-185393328D01*
X192458026Y-185393328D02*
X192600883Y-185464757D01*
X192600883Y-185464757D02*
X192672312Y-185607614D01*
X192672312Y-185607614D02*
X192672312Y-185750471D01*
X192672312Y-185750471D02*
X191958026Y-185893328D01*
X193100883Y-185393328D02*
X193672311Y-185393328D01*
X193315168Y-184893328D02*
X193315168Y-186179042D01*
X193315168Y-186179042D02*
X193386597Y-186321900D01*
X193386597Y-186321900D02*
X193529454Y-186393328D01*
X193529454Y-186393328D02*
X193672311Y-186393328D01*
X194029454Y-185393328D02*
X194386597Y-186393328D01*
X194743740Y-185393328D02*
X194386597Y-186393328D01*
X194386597Y-186393328D02*
X194243740Y-186750471D01*
X194243740Y-186750471D02*
X194172311Y-186821900D01*
X194172311Y-186821900D02*
X194029454Y-186893328D01*
X194958026Y-186536185D02*
X196100883Y-186536185D01*
X197172311Y-186393328D02*
X196458025Y-186393328D01*
X196458025Y-186393328D02*
X196458025Y-184893328D01*
X197886597Y-186393328D02*
X197743740Y-186321900D01*
X197743740Y-186321900D02*
X197672311Y-186250471D01*
X197672311Y-186250471D02*
X197600883Y-186107614D01*
X197600883Y-186107614D02*
X197600883Y-185679042D01*
X197600883Y-185679042D02*
X197672311Y-185536185D01*
X197672311Y-185536185D02*
X197743740Y-185464757D01*
X197743740Y-185464757D02*
X197886597Y-185393328D01*
X197886597Y-185393328D02*
X198100883Y-185393328D01*
X198100883Y-185393328D02*
X198243740Y-185464757D01*
X198243740Y-185464757D02*
X198315169Y-185536185D01*
X198315169Y-185536185D02*
X198386597Y-185679042D01*
X198386597Y-185679042D02*
X198386597Y-186107614D01*
X198386597Y-186107614D02*
X198315169Y-186250471D01*
X198315169Y-186250471D02*
X198243740Y-186321900D01*
X198243740Y-186321900D02*
X198100883Y-186393328D01*
X198100883Y-186393328D02*
X197886597Y-186393328D01*
X199243740Y-186393328D02*
X199100883Y-186321900D01*
X199100883Y-186321900D02*
X199029454Y-186250471D01*
X199029454Y-186250471D02*
X198958026Y-186107614D01*
X198958026Y-186107614D02*
X198958026Y-185679042D01*
X198958026Y-185679042D02*
X199029454Y-185536185D01*
X199029454Y-185536185D02*
X199100883Y-185464757D01*
X199100883Y-185464757D02*
X199243740Y-185393328D01*
X199243740Y-185393328D02*
X199458026Y-185393328D01*
X199458026Y-185393328D02*
X199600883Y-185464757D01*
X199600883Y-185464757D02*
X199672312Y-185536185D01*
X199672312Y-185536185D02*
X199743740Y-185679042D01*
X199743740Y-185679042D02*
X199743740Y-186107614D01*
X199743740Y-186107614D02*
X199672312Y-186250471D01*
X199672312Y-186250471D02*
X199600883Y-186321900D01*
X199600883Y-186321900D02*
X199458026Y-186393328D01*
X199458026Y-186393328D02*
X199243740Y-186393328D01*
X200386597Y-185393328D02*
X200386597Y-186893328D01*
X200386597Y-185464757D02*
X200529455Y-185393328D01*
X200529455Y-185393328D02*
X200815169Y-185393328D01*
X200815169Y-185393328D02*
X200958026Y-185464757D01*
X200958026Y-185464757D02*
X201029455Y-185536185D01*
X201029455Y-185536185D02*
X201100883Y-185679042D01*
X201100883Y-185679042D02*
X201100883Y-186107614D01*
X201100883Y-186107614D02*
X201029455Y-186250471D01*
X201029455Y-186250471D02*
X200958026Y-186321900D01*
X200958026Y-186321900D02*
X200815169Y-186393328D01*
X200815169Y-186393328D02*
X200529455Y-186393328D01*
X200529455Y-186393328D02*
X200386597Y-186321900D01*
X201743740Y-186250471D02*
X201815169Y-186321900D01*
X201815169Y-186321900D02*
X201743740Y-186393328D01*
X201743740Y-186393328D02*
X201672312Y-186321900D01*
X201672312Y-186321900D02*
X201743740Y-186250471D01*
X201743740Y-186250471D02*
X201743740Y-186393328D01*
X202458026Y-186393328D02*
X202458026Y-184893328D01*
X202600884Y-185821900D02*
X203029455Y-186393328D01*
X203029455Y-185393328D02*
X202458026Y-185964757D01*
X203672312Y-186393328D02*
X203672312Y-185393328D01*
X203672312Y-184893328D02*
X203600884Y-184964757D01*
X203600884Y-184964757D02*
X203672312Y-185036185D01*
X203672312Y-185036185D02*
X203743741Y-184964757D01*
X203743741Y-184964757D02*
X203672312Y-184893328D01*
X203672312Y-184893328D02*
X203672312Y-185036185D01*
X205029456Y-186321900D02*
X204886598Y-186393328D01*
X204886598Y-186393328D02*
X204600884Y-186393328D01*
X204600884Y-186393328D02*
X204458027Y-186321900D01*
X204458027Y-186321900D02*
X204386598Y-186250471D01*
X204386598Y-186250471D02*
X204315170Y-186107614D01*
X204315170Y-186107614D02*
X204315170Y-185679042D01*
X204315170Y-185679042D02*
X204386598Y-185536185D01*
X204386598Y-185536185D02*
X204458027Y-185464757D01*
X204458027Y-185464757D02*
X204600884Y-185393328D01*
X204600884Y-185393328D02*
X204886598Y-185393328D01*
X204886598Y-185393328D02*
X205029456Y-185464757D01*
X206315170Y-186393328D02*
X206315170Y-185607614D01*
X206315170Y-185607614D02*
X206243741Y-185464757D01*
X206243741Y-185464757D02*
X206100884Y-185393328D01*
X206100884Y-185393328D02*
X205815170Y-185393328D01*
X205815170Y-185393328D02*
X205672312Y-185464757D01*
X206315170Y-186321900D02*
X206172312Y-186393328D01*
X206172312Y-186393328D02*
X205815170Y-186393328D01*
X205815170Y-186393328D02*
X205672312Y-186321900D01*
X205672312Y-186321900D02*
X205600884Y-186179042D01*
X205600884Y-186179042D02*
X205600884Y-186036185D01*
X205600884Y-186036185D02*
X205672312Y-185893328D01*
X205672312Y-185893328D02*
X205815170Y-185821900D01*
X205815170Y-185821900D02*
X206172312Y-185821900D01*
X206172312Y-185821900D02*
X206315170Y-185750471D01*
X207672313Y-186393328D02*
X207672313Y-184893328D01*
X207672313Y-186321900D02*
X207529455Y-186393328D01*
X207529455Y-186393328D02*
X207243741Y-186393328D01*
X207243741Y-186393328D02*
X207100884Y-186321900D01*
X207100884Y-186321900D02*
X207029455Y-186250471D01*
X207029455Y-186250471D02*
X206958027Y-186107614D01*
X206958027Y-186107614D02*
X206958027Y-185679042D01*
X206958027Y-185679042D02*
X207029455Y-185536185D01*
X207029455Y-185536185D02*
X207100884Y-185464757D01*
X207100884Y-185464757D02*
X207243741Y-185393328D01*
X207243741Y-185393328D02*
X207529455Y-185393328D01*
X207529455Y-185393328D02*
X207672313Y-185464757D01*
X208029456Y-186536185D02*
X209172313Y-186536185D01*
X209529455Y-185393328D02*
X209529455Y-186893328D01*
X209529455Y-185464757D02*
X209672313Y-185393328D01*
X209672313Y-185393328D02*
X209958027Y-185393328D01*
X209958027Y-185393328D02*
X210100884Y-185464757D01*
X210100884Y-185464757D02*
X210172313Y-185536185D01*
X210172313Y-185536185D02*
X210243741Y-185679042D01*
X210243741Y-185679042D02*
X210243741Y-186107614D01*
X210243741Y-186107614D02*
X210172313Y-186250471D01*
X210172313Y-186250471D02*
X210100884Y-186321900D01*
X210100884Y-186321900D02*
X209958027Y-186393328D01*
X209958027Y-186393328D02*
X209672313Y-186393328D01*
X209672313Y-186393328D02*
X209529455Y-186321900D01*
X211529456Y-186321900D02*
X211386598Y-186393328D01*
X211386598Y-186393328D02*
X211100884Y-186393328D01*
X211100884Y-186393328D02*
X210958027Y-186321900D01*
X210958027Y-186321900D02*
X210886598Y-186250471D01*
X210886598Y-186250471D02*
X210815170Y-186107614D01*
X210815170Y-186107614D02*
X210815170Y-185679042D01*
X210815170Y-185679042D02*
X210886598Y-185536185D01*
X210886598Y-185536185D02*
X210958027Y-185464757D01*
X210958027Y-185464757D02*
X211100884Y-185393328D01*
X211100884Y-185393328D02*
X211386598Y-185393328D01*
X211386598Y-185393328D02*
X211529456Y-185464757D01*
X212172312Y-186393328D02*
X212172312Y-184893328D01*
X212172312Y-185464757D02*
X212315170Y-185393328D01*
X212315170Y-185393328D02*
X212600884Y-185393328D01*
X212600884Y-185393328D02*
X212743741Y-185464757D01*
X212743741Y-185464757D02*
X212815170Y-185536185D01*
X212815170Y-185536185D02*
X212886598Y-185679042D01*
X212886598Y-185679042D02*
X212886598Y-186107614D01*
X212886598Y-186107614D02*
X212815170Y-186250471D01*
X212815170Y-186250471D02*
X212743741Y-186321900D01*
X212743741Y-186321900D02*
X212600884Y-186393328D01*
X212600884Y-186393328D02*
X212315170Y-186393328D01*
X212315170Y-186393328D02*
X212172312Y-186321900D01*
D10*
D11*
X177002200Y-181507200D02*
X285002200Y-181507200D01*
D10*
D11*
X178386598Y-183621900D02*
X178600884Y-183693328D01*
X178600884Y-183693328D02*
X178958026Y-183693328D01*
X178958026Y-183693328D02*
X179100884Y-183621900D01*
X179100884Y-183621900D02*
X179172312Y-183550471D01*
X179172312Y-183550471D02*
X179243741Y-183407614D01*
X179243741Y-183407614D02*
X179243741Y-183264757D01*
X179243741Y-183264757D02*
X179172312Y-183121900D01*
X179172312Y-183121900D02*
X179100884Y-183050471D01*
X179100884Y-183050471D02*
X178958026Y-182979042D01*
X178958026Y-182979042D02*
X178672312Y-182907614D01*
X178672312Y-182907614D02*
X178529455Y-182836185D01*
X178529455Y-182836185D02*
X178458026Y-182764757D01*
X178458026Y-182764757D02*
X178386598Y-182621900D01*
X178386598Y-182621900D02*
X178386598Y-182479042D01*
X178386598Y-182479042D02*
X178458026Y-182336185D01*
X178458026Y-182336185D02*
X178529455Y-182264757D01*
X178529455Y-182264757D02*
X178672312Y-182193328D01*
X178672312Y-182193328D02*
X179029455Y-182193328D01*
X179029455Y-182193328D02*
X179243741Y-182264757D01*
X179886597Y-183693328D02*
X179886597Y-182193328D01*
X180529455Y-183693328D02*
X180529455Y-182907614D01*
X180529455Y-182907614D02*
X180458026Y-182764757D01*
X180458026Y-182764757D02*
X180315169Y-182693328D01*
X180315169Y-182693328D02*
X180100883Y-182693328D01*
X180100883Y-182693328D02*
X179958026Y-182764757D01*
X179958026Y-182764757D02*
X179886597Y-182836185D01*
X181815169Y-183621900D02*
X181672312Y-183693328D01*
X181672312Y-183693328D02*
X181386598Y-183693328D01*
X181386598Y-183693328D02*
X181243740Y-183621900D01*
X181243740Y-183621900D02*
X181172312Y-183479042D01*
X181172312Y-183479042D02*
X181172312Y-182907614D01*
X181172312Y-182907614D02*
X181243740Y-182764757D01*
X181243740Y-182764757D02*
X181386598Y-182693328D01*
X181386598Y-182693328D02*
X181672312Y-182693328D01*
X181672312Y-182693328D02*
X181815169Y-182764757D01*
X181815169Y-182764757D02*
X181886598Y-182907614D01*
X181886598Y-182907614D02*
X181886598Y-183050471D01*
X181886598Y-183050471D02*
X181172312Y-183193328D01*
X183100883Y-183621900D02*
X182958026Y-183693328D01*
X182958026Y-183693328D02*
X182672312Y-183693328D01*
X182672312Y-183693328D02*
X182529454Y-183621900D01*
X182529454Y-183621900D02*
X182458026Y-183479042D01*
X182458026Y-183479042D02*
X182458026Y-182907614D01*
X182458026Y-182907614D02*
X182529454Y-182764757D01*
X182529454Y-182764757D02*
X182672312Y-182693328D01*
X182672312Y-182693328D02*
X182958026Y-182693328D01*
X182958026Y-182693328D02*
X183100883Y-182764757D01*
X183100883Y-182764757D02*
X183172312Y-182907614D01*
X183172312Y-182907614D02*
X183172312Y-183050471D01*
X183172312Y-183050471D02*
X182458026Y-183193328D01*
X183600883Y-182693328D02*
X184172311Y-182693328D01*
X183815168Y-182193328D02*
X183815168Y-183479042D01*
X183815168Y-183479042D02*
X183886597Y-183621900D01*
X183886597Y-183621900D02*
X184029454Y-183693328D01*
X184029454Y-183693328D02*
X184172311Y-183693328D01*
X184672311Y-183550471D02*
X184743740Y-183621900D01*
X184743740Y-183621900D02*
X184672311Y-183693328D01*
X184672311Y-183693328D02*
X184600883Y-183621900D01*
X184600883Y-183621900D02*
X184672311Y-183550471D01*
X184672311Y-183550471D02*
X184672311Y-183693328D01*
X184672311Y-182764757D02*
X184743740Y-182836185D01*
X184743740Y-182836185D02*
X184672311Y-182907614D01*
X184672311Y-182907614D02*
X184600883Y-182836185D01*
X184600883Y-182836185D02*
X184672311Y-182764757D01*
X184672311Y-182764757D02*
X184672311Y-182907614D01*
D10*
D12*
D10*
D11*
D10*
D11*
D10*
D11*
D10*
D11*
D10*
D11*
X197002200Y-191507200D02*
X197002200Y-194507200D01*
D10*
D11*
X261002200Y-191507200D02*
X261002200Y-198007200D01*
X158306009Y-85340952D02*
X158353628Y-85198095D01*
X158353628Y-85198095D02*
X158401247Y-85150476D01*
X158401247Y-85150476D02*
X158496485Y-85102857D01*
X158496485Y-85102857D02*
X158639342Y-85102857D01*
X158639342Y-85102857D02*
X158734580Y-85150476D01*
X158734580Y-85150476D02*
X158782200Y-85198095D01*
X158782200Y-85198095D02*
X158829819Y-85293333D01*
X158829819Y-85293333D02*
X158829819Y-85674285D01*
X158829819Y-85674285D02*
X157829819Y-85674285D01*
X157829819Y-85674285D02*
X157829819Y-85340952D01*
X157829819Y-85340952D02*
X157877438Y-85245714D01*
X157877438Y-85245714D02*
X157925057Y-85198095D01*
X157925057Y-85198095D02*
X158020295Y-85150476D01*
X158020295Y-85150476D02*
X158115533Y-85150476D01*
X158115533Y-85150476D02*
X158210771Y-85198095D01*
X158210771Y-85198095D02*
X158258390Y-85245714D01*
X158258390Y-85245714D02*
X158306009Y-85340952D01*
X158306009Y-85340952D02*
X158306009Y-85674285D01*
X158782200Y-84721904D02*
X158829819Y-84579047D01*
X158829819Y-84579047D02*
X158829819Y-84340952D01*
X158829819Y-84340952D02*
X158782200Y-84245714D01*
X158782200Y-84245714D02*
X158734580Y-84198095D01*
X158734580Y-84198095D02*
X158639342Y-84150476D01*
X158639342Y-84150476D02*
X158544104Y-84150476D01*
X158544104Y-84150476D02*
X158448866Y-84198095D01*
X158448866Y-84198095D02*
X158401247Y-84245714D01*
X158401247Y-84245714D02*
X158353628Y-84340952D01*
X158353628Y-84340952D02*
X158306009Y-84531428D01*
X158306009Y-84531428D02*
X158258390Y-84626666D01*
X158258390Y-84626666D02*
X158210771Y-84674285D01*
X158210771Y-84674285D02*
X158115533Y-84721904D01*
X158115533Y-84721904D02*
X158020295Y-84721904D01*
X158020295Y-84721904D02*
X157925057Y-84674285D01*
X157925057Y-84674285D02*
X157877438Y-84626666D01*
X157877438Y-84626666D02*
X157829819Y-84531428D01*
X157829819Y-84531428D02*
X157829819Y-84293333D01*
X157829819Y-84293333D02*
X157877438Y-84150476D01*
X158163152Y-83293333D02*
X158829819Y-83293333D01*
X157782200Y-83531428D02*
X158496485Y-83769523D01*
X158496485Y-83769523D02*
X158496485Y-83150476D01*
X224238095Y-104104819D02*
X224238095Y-103104819D01*
X224238095Y-103581009D02*
X224809523Y-103581009D01*
X224809523Y-104104819D02*
X224809523Y-103104819D01*
X225190476Y-103104819D02*
X225809523Y-103104819D01*
X225809523Y-103104819D02*
X225476190Y-103485771D01*
X225476190Y-103485771D02*
X225619047Y-103485771D01*
X225619047Y-103485771D02*
X225714285Y-103533390D01*
X225714285Y-103533390D02*
X225761904Y-103581009D01*
X225761904Y-103581009D02*
X225809523Y-103676247D01*
X225809523Y-103676247D02*
X225809523Y-103914342D01*
X225809523Y-103914342D02*
X225761904Y-104009580D01*
X225761904Y-104009580D02*
X225714285Y-104057200D01*
X225714285Y-104057200D02*
X225619047Y-104104819D01*
X225619047Y-104104819D02*
X225333333Y-104104819D01*
X225333333Y-104104819D02*
X225238095Y-104057200D01*
X225238095Y-104057200D02*
X225190476Y-104009580D01*
X218306009Y-85817142D02*
X218353628Y-85674285D01*
X218353628Y-85674285D02*
X218401247Y-85626666D01*
X218401247Y-85626666D02*
X218496485Y-85579047D01*
X218496485Y-85579047D02*
X218639342Y-85579047D01*
X218639342Y-85579047D02*
X218734580Y-85626666D01*
X218734580Y-85626666D02*
X218782200Y-85674285D01*
X218782200Y-85674285D02*
X218829819Y-85769523D01*
X218829819Y-85769523D02*
X218829819Y-86150475D01*
X218829819Y-86150475D02*
X217829819Y-86150475D01*
X217829819Y-86150475D02*
X217829819Y-85817142D01*
X217829819Y-85817142D02*
X217877438Y-85721904D01*
X217877438Y-85721904D02*
X217925057Y-85674285D01*
X217925057Y-85674285D02*
X218020295Y-85626666D01*
X218020295Y-85626666D02*
X218115533Y-85626666D01*
X218115533Y-85626666D02*
X218210771Y-85674285D01*
X218210771Y-85674285D02*
X218258390Y-85721904D01*
X218258390Y-85721904D02*
X218306009Y-85817142D01*
X218306009Y-85817142D02*
X218306009Y-86150475D01*
X218782200Y-85198094D02*
X218829819Y-85055237D01*
X218829819Y-85055237D02*
X218829819Y-84817142D01*
X218829819Y-84817142D02*
X218782200Y-84721904D01*
X218782200Y-84721904D02*
X218734580Y-84674285D01*
X218734580Y-84674285D02*
X218639342Y-84626666D01*
X218639342Y-84626666D02*
X218544104Y-84626666D01*
X218544104Y-84626666D02*
X218448866Y-84674285D01*
X218448866Y-84674285D02*
X218401247Y-84721904D01*
X218401247Y-84721904D02*
X218353628Y-84817142D01*
X218353628Y-84817142D02*
X218306009Y-85007618D01*
X218306009Y-85007618D02*
X218258390Y-85102856D01*
X218258390Y-85102856D02*
X218210771Y-85150475D01*
X218210771Y-85150475D02*
X218115533Y-85198094D01*
X218115533Y-85198094D02*
X218020295Y-85198094D01*
X218020295Y-85198094D02*
X217925057Y-85150475D01*
X217925057Y-85150475D02*
X217877438Y-85102856D01*
X217877438Y-85102856D02*
X217829819Y-85007618D01*
X217829819Y-85007618D02*
X217829819Y-84769523D01*
X217829819Y-84769523D02*
X217877438Y-84626666D01*
X218829819Y-83674285D02*
X218829819Y-84245713D01*
X218829819Y-83959999D02*
X217829819Y-83959999D01*
X217829819Y-83959999D02*
X217972676Y-84055237D01*
X217972676Y-84055237D02*
X218067914Y-84150475D01*
X218067914Y-84150475D02*
X218115533Y-84245713D01*
X217829819Y-83055237D02*
X217829819Y-82959999D01*
X217829819Y-82959999D02*
X217877438Y-82864761D01*
X217877438Y-82864761D02*
X217925057Y-82817142D01*
X217925057Y-82817142D02*
X218020295Y-82769523D01*
X218020295Y-82769523D02*
X218210771Y-82721904D01*
X218210771Y-82721904D02*
X218448866Y-82721904D01*
X218448866Y-82721904D02*
X218639342Y-82769523D01*
X218639342Y-82769523D02*
X218734580Y-82817142D01*
X218734580Y-82817142D02*
X218782200Y-82864761D01*
X218782200Y-82864761D02*
X218829819Y-82959999D01*
X218829819Y-82959999D02*
X218829819Y-83055237D01*
X218829819Y-83055237D02*
X218782200Y-83150475D01*
X218782200Y-83150475D02*
X218734580Y-83198094D01*
X218734580Y-83198094D02*
X218639342Y-83245713D01*
X218639342Y-83245713D02*
X218448866Y-83293332D01*
X218448866Y-83293332D02*
X218210771Y-83293332D01*
X218210771Y-83293332D02*
X218020295Y-83245713D01*
X218020295Y-83245713D02*
X217925057Y-83198094D01*
X217925057Y-83198094D02*
X217877438Y-83150475D01*
X217877438Y-83150475D02*
X217829819Y-83055237D01*
X224238095Y-85104819D02*
X224238095Y-84104819D01*
X224238095Y-84581009D02*
X224809523Y-84581009D01*
X224809523Y-85104819D02*
X224809523Y-84104819D01*
X225809523Y-85104819D02*
X225238095Y-85104819D01*
X225523809Y-85104819D02*
X225523809Y-84104819D01*
X225523809Y-84104819D02*
X225428571Y-84247676D01*
X225428571Y-84247676D02*
X225333333Y-84342914D01*
X225333333Y-84342914D02*
X225238095Y-84390533D01*
X128306009Y-85340952D02*
X128353628Y-85198095D01*
X128353628Y-85198095D02*
X128401247Y-85150476D01*
X128401247Y-85150476D02*
X128496485Y-85102857D01*
X128496485Y-85102857D02*
X128639342Y-85102857D01*
X128639342Y-85102857D02*
X128734580Y-85150476D01*
X128734580Y-85150476D02*
X128782200Y-85198095D01*
X128782200Y-85198095D02*
X128829819Y-85293333D01*
X128829819Y-85293333D02*
X128829819Y-85674285D01*
X128829819Y-85674285D02*
X127829819Y-85674285D01*
X127829819Y-85674285D02*
X127829819Y-85340952D01*
X127829819Y-85340952D02*
X127877438Y-85245714D01*
X127877438Y-85245714D02*
X127925057Y-85198095D01*
X127925057Y-85198095D02*
X128020295Y-85150476D01*
X128020295Y-85150476D02*
X128115533Y-85150476D01*
X128115533Y-85150476D02*
X128210771Y-85198095D01*
X128210771Y-85198095D02*
X128258390Y-85245714D01*
X128258390Y-85245714D02*
X128306009Y-85340952D01*
X128306009Y-85340952D02*
X128306009Y-85674285D01*
X128782200Y-84721904D02*
X128829819Y-84579047D01*
X128829819Y-84579047D02*
X128829819Y-84340952D01*
X128829819Y-84340952D02*
X128782200Y-84245714D01*
X128782200Y-84245714D02*
X128734580Y-84198095D01*
X128734580Y-84198095D02*
X128639342Y-84150476D01*
X128639342Y-84150476D02*
X128544104Y-84150476D01*
X128544104Y-84150476D02*
X128448866Y-84198095D01*
X128448866Y-84198095D02*
X128401247Y-84245714D01*
X128401247Y-84245714D02*
X128353628Y-84340952D01*
X128353628Y-84340952D02*
X128306009Y-84531428D01*
X128306009Y-84531428D02*
X128258390Y-84626666D01*
X128258390Y-84626666D02*
X128210771Y-84674285D01*
X128210771Y-84674285D02*
X128115533Y-84721904D01*
X128115533Y-84721904D02*
X128020295Y-84721904D01*
X128020295Y-84721904D02*
X127925057Y-84674285D01*
X127925057Y-84674285D02*
X127877438Y-84626666D01*
X127877438Y-84626666D02*
X127829819Y-84531428D01*
X127829819Y-84531428D02*
X127829819Y-84293333D01*
X127829819Y-84293333D02*
X127877438Y-84150476D01*
X128829819Y-83198095D02*
X128829819Y-83769523D01*
X128829819Y-83483809D02*
X127829819Y-83483809D01*
X127829819Y-83483809D02*
X127972676Y-83579047D01*
X127972676Y-83579047D02*
X128067914Y-83674285D01*
X128067914Y-83674285D02*
X128115533Y-83769523D01*
X168306009Y-85340952D02*
X168353628Y-85198095D01*
X168353628Y-85198095D02*
X168401247Y-85150476D01*
X168401247Y-85150476D02*
X168496485Y-85102857D01*
X168496485Y-85102857D02*
X168639342Y-85102857D01*
X168639342Y-85102857D02*
X168734580Y-85150476D01*
X168734580Y-85150476D02*
X168782200Y-85198095D01*
X168782200Y-85198095D02*
X168829819Y-85293333D01*
X168829819Y-85293333D02*
X168829819Y-85674285D01*
X168829819Y-85674285D02*
X167829819Y-85674285D01*
X167829819Y-85674285D02*
X167829819Y-85340952D01*
X167829819Y-85340952D02*
X167877438Y-85245714D01*
X167877438Y-85245714D02*
X167925057Y-85198095D01*
X167925057Y-85198095D02*
X168020295Y-85150476D01*
X168020295Y-85150476D02*
X168115533Y-85150476D01*
X168115533Y-85150476D02*
X168210771Y-85198095D01*
X168210771Y-85198095D02*
X168258390Y-85245714D01*
X168258390Y-85245714D02*
X168306009Y-85340952D01*
X168306009Y-85340952D02*
X168306009Y-85674285D01*
X168782200Y-84721904D02*
X168829819Y-84579047D01*
X168829819Y-84579047D02*
X168829819Y-84340952D01*
X168829819Y-84340952D02*
X168782200Y-84245714D01*
X168782200Y-84245714D02*
X168734580Y-84198095D01*
X168734580Y-84198095D02*
X168639342Y-84150476D01*
X168639342Y-84150476D02*
X168544104Y-84150476D01*
X168544104Y-84150476D02*
X168448866Y-84198095D01*
X168448866Y-84198095D02*
X168401247Y-84245714D01*
X168401247Y-84245714D02*
X168353628Y-84340952D01*
X168353628Y-84340952D02*
X168306009Y-84531428D01*
X168306009Y-84531428D02*
X168258390Y-84626666D01*
X168258390Y-84626666D02*
X168210771Y-84674285D01*
X168210771Y-84674285D02*
X168115533Y-84721904D01*
X168115533Y-84721904D02*
X168020295Y-84721904D01*
X168020295Y-84721904D02*
X167925057Y-84674285D01*
X167925057Y-84674285D02*
X167877438Y-84626666D01*
X167877438Y-84626666D02*
X167829819Y-84531428D01*
X167829819Y-84531428D02*
X167829819Y-84293333D01*
X167829819Y-84293333D02*
X167877438Y-84150476D01*
X167829819Y-83245714D02*
X167829819Y-83721904D01*
X167829819Y-83721904D02*
X168306009Y-83769523D01*
X168306009Y-83769523D02*
X168258390Y-83721904D01*
X168258390Y-83721904D02*
X168210771Y-83626666D01*
X168210771Y-83626666D02*
X168210771Y-83388571D01*
X168210771Y-83388571D02*
X168258390Y-83293333D01*
X168258390Y-83293333D02*
X168306009Y-83245714D01*
X168306009Y-83245714D02*
X168401247Y-83198095D01*
X168401247Y-83198095D02*
X168639342Y-83198095D01*
X168639342Y-83198095D02*
X168734580Y-83245714D01*
X168734580Y-83245714D02*
X168782200Y-83293333D01*
X168782200Y-83293333D02*
X168829819Y-83388571D01*
X168829819Y-83388571D02*
X168829819Y-83626666D01*
X168829819Y-83626666D02*
X168782200Y-83721904D01*
X168782200Y-83721904D02*
X168734580Y-83769523D01*
X104166666Y-100577319D02*
X104166666Y-101291604D01*
X104166666Y-101291604D02*
X104119047Y-101434461D01*
X104119047Y-101434461D02*
X104023809Y-101529700D01*
X104023809Y-101529700D02*
X103880952Y-101577319D01*
X103880952Y-101577319D02*
X103785714Y-101577319D01*
X105119047Y-100577319D02*
X104642857Y-100577319D01*
X104642857Y-100577319D02*
X104595238Y-101053509D01*
X104595238Y-101053509D02*
X104642857Y-101005890D01*
X104642857Y-101005890D02*
X104738095Y-100958271D01*
X104738095Y-100958271D02*
X104976190Y-100958271D01*
X104976190Y-100958271D02*
X105071428Y-101005890D01*
X105071428Y-101005890D02*
X105119047Y-101053509D01*
X105119047Y-101053509D02*
X105166666Y-101148747D01*
X105166666Y-101148747D02*
X105166666Y-101386842D01*
X105166666Y-101386842D02*
X105119047Y-101482080D01*
X105119047Y-101482080D02*
X105071428Y-101529700D01*
X105071428Y-101529700D02*
X104976190Y-101577319D01*
X104976190Y-101577319D02*
X104738095Y-101577319D01*
X104738095Y-101577319D02*
X104642857Y-101529700D01*
X104642857Y-101529700D02*
X104595238Y-101482080D01*
X188306009Y-85340952D02*
X188353628Y-85198095D01*
X188353628Y-85198095D02*
X188401247Y-85150476D01*
X188401247Y-85150476D02*
X188496485Y-85102857D01*
X188496485Y-85102857D02*
X188639342Y-85102857D01*
X188639342Y-85102857D02*
X188734580Y-85150476D01*
X188734580Y-85150476D02*
X188782200Y-85198095D01*
X188782200Y-85198095D02*
X188829819Y-85293333D01*
X188829819Y-85293333D02*
X188829819Y-85674285D01*
X188829819Y-85674285D02*
X187829819Y-85674285D01*
X187829819Y-85674285D02*
X187829819Y-85340952D01*
X187829819Y-85340952D02*
X187877438Y-85245714D01*
X187877438Y-85245714D02*
X187925057Y-85198095D01*
X187925057Y-85198095D02*
X188020295Y-85150476D01*
X188020295Y-85150476D02*
X188115533Y-85150476D01*
X188115533Y-85150476D02*
X188210771Y-85198095D01*
X188210771Y-85198095D02*
X188258390Y-85245714D01*
X188258390Y-85245714D02*
X188306009Y-85340952D01*
X188306009Y-85340952D02*
X188306009Y-85674285D01*
X188782200Y-84721904D02*
X188829819Y-84579047D01*
X188829819Y-84579047D02*
X188829819Y-84340952D01*
X188829819Y-84340952D02*
X188782200Y-84245714D01*
X188782200Y-84245714D02*
X188734580Y-84198095D01*
X188734580Y-84198095D02*
X188639342Y-84150476D01*
X188639342Y-84150476D02*
X188544104Y-84150476D01*
X188544104Y-84150476D02*
X188448866Y-84198095D01*
X188448866Y-84198095D02*
X188401247Y-84245714D01*
X188401247Y-84245714D02*
X188353628Y-84340952D01*
X188353628Y-84340952D02*
X188306009Y-84531428D01*
X188306009Y-84531428D02*
X188258390Y-84626666D01*
X188258390Y-84626666D02*
X188210771Y-84674285D01*
X188210771Y-84674285D02*
X188115533Y-84721904D01*
X188115533Y-84721904D02*
X188020295Y-84721904D01*
X188020295Y-84721904D02*
X187925057Y-84674285D01*
X187925057Y-84674285D02*
X187877438Y-84626666D01*
X187877438Y-84626666D02*
X187829819Y-84531428D01*
X187829819Y-84531428D02*
X187829819Y-84293333D01*
X187829819Y-84293333D02*
X187877438Y-84150476D01*
X187829819Y-83817142D02*
X187829819Y-83150476D01*
X187829819Y-83150476D02*
X188829819Y-83579047D01*
X172790476Y-104974819D02*
X172790476Y-105689104D01*
X172790476Y-105689104D02*
X172742857Y-105831961D01*
X172742857Y-105831961D02*
X172647619Y-105927200D01*
X172647619Y-105927200D02*
X172504762Y-105974819D01*
X172504762Y-105974819D02*
X172409524Y-105974819D01*
X173790476Y-105974819D02*
X173219048Y-105974819D01*
X173504762Y-105974819D02*
X173504762Y-104974819D01*
X173504762Y-104974819D02*
X173409524Y-105117676D01*
X173409524Y-105117676D02*
X173314286Y-105212914D01*
X173314286Y-105212914D02*
X173219048Y-105260533D01*
X174742857Y-105974819D02*
X174171429Y-105974819D01*
X174457143Y-105974819D02*
X174457143Y-104974819D01*
X174457143Y-104974819D02*
X174361905Y-105117676D01*
X174361905Y-105117676D02*
X174266667Y-105212914D01*
X174266667Y-105212914D02*
X174171429Y-105260533D01*
X148306009Y-85340952D02*
X148353628Y-85198095D01*
X148353628Y-85198095D02*
X148401247Y-85150476D01*
X148401247Y-85150476D02*
X148496485Y-85102857D01*
X148496485Y-85102857D02*
X148639342Y-85102857D01*
X148639342Y-85102857D02*
X148734580Y-85150476D01*
X148734580Y-85150476D02*
X148782200Y-85198095D01*
X148782200Y-85198095D02*
X148829819Y-85293333D01*
X148829819Y-85293333D02*
X148829819Y-85674285D01*
X148829819Y-85674285D02*
X147829819Y-85674285D01*
X147829819Y-85674285D02*
X147829819Y-85340952D01*
X147829819Y-85340952D02*
X147877438Y-85245714D01*
X147877438Y-85245714D02*
X147925057Y-85198095D01*
X147925057Y-85198095D02*
X148020295Y-85150476D01*
X148020295Y-85150476D02*
X148115533Y-85150476D01*
X148115533Y-85150476D02*
X148210771Y-85198095D01*
X148210771Y-85198095D02*
X148258390Y-85245714D01*
X148258390Y-85245714D02*
X148306009Y-85340952D01*
X148306009Y-85340952D02*
X148306009Y-85674285D01*
X148782200Y-84721904D02*
X148829819Y-84579047D01*
X148829819Y-84579047D02*
X148829819Y-84340952D01*
X148829819Y-84340952D02*
X148782200Y-84245714D01*
X148782200Y-84245714D02*
X148734580Y-84198095D01*
X148734580Y-84198095D02*
X148639342Y-84150476D01*
X148639342Y-84150476D02*
X148544104Y-84150476D01*
X148544104Y-84150476D02*
X148448866Y-84198095D01*
X148448866Y-84198095D02*
X148401247Y-84245714D01*
X148401247Y-84245714D02*
X148353628Y-84340952D01*
X148353628Y-84340952D02*
X148306009Y-84531428D01*
X148306009Y-84531428D02*
X148258390Y-84626666D01*
X148258390Y-84626666D02*
X148210771Y-84674285D01*
X148210771Y-84674285D02*
X148115533Y-84721904D01*
X148115533Y-84721904D02*
X148020295Y-84721904D01*
X148020295Y-84721904D02*
X147925057Y-84674285D01*
X147925057Y-84674285D02*
X147877438Y-84626666D01*
X147877438Y-84626666D02*
X147829819Y-84531428D01*
X147829819Y-84531428D02*
X147829819Y-84293333D01*
X147829819Y-84293333D02*
X147877438Y-84150476D01*
X147829819Y-83817142D02*
X147829819Y-83198095D01*
X147829819Y-83198095D02*
X148210771Y-83531428D01*
X148210771Y-83531428D02*
X148210771Y-83388571D01*
X148210771Y-83388571D02*
X148258390Y-83293333D01*
X148258390Y-83293333D02*
X148306009Y-83245714D01*
X148306009Y-83245714D02*
X148401247Y-83198095D01*
X148401247Y-83198095D02*
X148639342Y-83198095D01*
X148639342Y-83198095D02*
X148734580Y-83245714D01*
X148734580Y-83245714D02*
X148782200Y-83293333D01*
X148782200Y-83293333D02*
X148829819Y-83388571D01*
X148829819Y-83388571D02*
X148829819Y-83674285D01*
X148829819Y-83674285D02*
X148782200Y-83769523D01*
X148782200Y-83769523D02*
X148734580Y-83817142D01*
X153106666Y-104974819D02*
X153106666Y-105689104D01*
X153106666Y-105689104D02*
X153059047Y-105831961D01*
X153059047Y-105831961D02*
X152963809Y-105927200D01*
X152963809Y-105927200D02*
X152820952Y-105974819D01*
X152820952Y-105974819D02*
X152725714Y-105974819D01*
X153630476Y-105974819D02*
X153820952Y-105974819D01*
X153820952Y-105974819D02*
X153916190Y-105927200D01*
X153916190Y-105927200D02*
X153963809Y-105879580D01*
X153963809Y-105879580D02*
X154059047Y-105736723D01*
X154059047Y-105736723D02*
X154106666Y-105546247D01*
X154106666Y-105546247D02*
X154106666Y-105165295D01*
X154106666Y-105165295D02*
X154059047Y-105070057D01*
X154059047Y-105070057D02*
X154011428Y-105022438D01*
X154011428Y-105022438D02*
X153916190Y-104974819D01*
X153916190Y-104974819D02*
X153725714Y-104974819D01*
X153725714Y-104974819D02*
X153630476Y-105022438D01*
X153630476Y-105022438D02*
X153582857Y-105070057D01*
X153582857Y-105070057D02*
X153535238Y-105165295D01*
X153535238Y-105165295D02*
X153535238Y-105403390D01*
X153535238Y-105403390D02*
X153582857Y-105498628D01*
X153582857Y-105498628D02*
X153630476Y-105546247D01*
X153630476Y-105546247D02*
X153725714Y-105593866D01*
X153725714Y-105593866D02*
X153916190Y-105593866D01*
X153916190Y-105593866D02*
X154011428Y-105546247D01*
X154011428Y-105546247D02*
X154059047Y-105498628D01*
X154059047Y-105498628D02*
X154106666Y-105403390D01*
X182850476Y-104974819D02*
X182850476Y-105689104D01*
X182850476Y-105689104D02*
X182802857Y-105831961D01*
X182802857Y-105831961D02*
X182707619Y-105927200D01*
X182707619Y-105927200D02*
X182564762Y-105974819D01*
X182564762Y-105974819D02*
X182469524Y-105974819D01*
X183850476Y-105974819D02*
X183279048Y-105974819D01*
X183564762Y-105974819D02*
X183564762Y-104974819D01*
X183564762Y-104974819D02*
X183469524Y-105117676D01*
X183469524Y-105117676D02*
X183374286Y-105212914D01*
X183374286Y-105212914D02*
X183279048Y-105260533D01*
X184231429Y-105070057D02*
X184279048Y-105022438D01*
X184279048Y-105022438D02*
X184374286Y-104974819D01*
X184374286Y-104974819D02*
X184612381Y-104974819D01*
X184612381Y-104974819D02*
X184707619Y-105022438D01*
X184707619Y-105022438D02*
X184755238Y-105070057D01*
X184755238Y-105070057D02*
X184802857Y-105165295D01*
X184802857Y-105165295D02*
X184802857Y-105260533D01*
X184802857Y-105260533D02*
X184755238Y-105403390D01*
X184755238Y-105403390D02*
X184183810Y-105974819D01*
X184183810Y-105974819D02*
X184802857Y-105974819D01*
X83066666Y-104754819D02*
X83066666Y-105469104D01*
X83066666Y-105469104D02*
X83019047Y-105611961D01*
X83019047Y-105611961D02*
X82923809Y-105707200D01*
X82923809Y-105707200D02*
X82780952Y-105754819D01*
X82780952Y-105754819D02*
X82685714Y-105754819D01*
X84066666Y-105754819D02*
X83495238Y-105754819D01*
X83780952Y-105754819D02*
X83780952Y-104754819D01*
X83780952Y-104754819D02*
X83685714Y-104897676D01*
X83685714Y-104897676D02*
X83590476Y-104992914D01*
X83590476Y-104992914D02*
X83495238Y-105040533D01*
X198306009Y-85340952D02*
X198353628Y-85198095D01*
X198353628Y-85198095D02*
X198401247Y-85150476D01*
X198401247Y-85150476D02*
X198496485Y-85102857D01*
X198496485Y-85102857D02*
X198639342Y-85102857D01*
X198639342Y-85102857D02*
X198734580Y-85150476D01*
X198734580Y-85150476D02*
X198782200Y-85198095D01*
X198782200Y-85198095D02*
X198829819Y-85293333D01*
X198829819Y-85293333D02*
X198829819Y-85674285D01*
X198829819Y-85674285D02*
X197829819Y-85674285D01*
X197829819Y-85674285D02*
X197829819Y-85340952D01*
X197829819Y-85340952D02*
X197877438Y-85245714D01*
X197877438Y-85245714D02*
X197925057Y-85198095D01*
X197925057Y-85198095D02*
X198020295Y-85150476D01*
X198020295Y-85150476D02*
X198115533Y-85150476D01*
X198115533Y-85150476D02*
X198210771Y-85198095D01*
X198210771Y-85198095D02*
X198258390Y-85245714D01*
X198258390Y-85245714D02*
X198306009Y-85340952D01*
X198306009Y-85340952D02*
X198306009Y-85674285D01*
X198782200Y-84721904D02*
X198829819Y-84579047D01*
X198829819Y-84579047D02*
X198829819Y-84340952D01*
X198829819Y-84340952D02*
X198782200Y-84245714D01*
X198782200Y-84245714D02*
X198734580Y-84198095D01*
X198734580Y-84198095D02*
X198639342Y-84150476D01*
X198639342Y-84150476D02*
X198544104Y-84150476D01*
X198544104Y-84150476D02*
X198448866Y-84198095D01*
X198448866Y-84198095D02*
X198401247Y-84245714D01*
X198401247Y-84245714D02*
X198353628Y-84340952D01*
X198353628Y-84340952D02*
X198306009Y-84531428D01*
X198306009Y-84531428D02*
X198258390Y-84626666D01*
X198258390Y-84626666D02*
X198210771Y-84674285D01*
X198210771Y-84674285D02*
X198115533Y-84721904D01*
X198115533Y-84721904D02*
X198020295Y-84721904D01*
X198020295Y-84721904D02*
X197925057Y-84674285D01*
X197925057Y-84674285D02*
X197877438Y-84626666D01*
X197877438Y-84626666D02*
X197829819Y-84531428D01*
X197829819Y-84531428D02*
X197829819Y-84293333D01*
X197829819Y-84293333D02*
X197877438Y-84150476D01*
X198258390Y-83579047D02*
X198210771Y-83674285D01*
X198210771Y-83674285D02*
X198163152Y-83721904D01*
X198163152Y-83721904D02*
X198067914Y-83769523D01*
X198067914Y-83769523D02*
X198020295Y-83769523D01*
X198020295Y-83769523D02*
X197925057Y-83721904D01*
X197925057Y-83721904D02*
X197877438Y-83674285D01*
X197877438Y-83674285D02*
X197829819Y-83579047D01*
X197829819Y-83579047D02*
X197829819Y-83388571D01*
X197829819Y-83388571D02*
X197877438Y-83293333D01*
X197877438Y-83293333D02*
X197925057Y-83245714D01*
X197925057Y-83245714D02*
X198020295Y-83198095D01*
X198020295Y-83198095D02*
X198067914Y-83198095D01*
X198067914Y-83198095D02*
X198163152Y-83245714D01*
X198163152Y-83245714D02*
X198210771Y-83293333D01*
X198210771Y-83293333D02*
X198258390Y-83388571D01*
X198258390Y-83388571D02*
X198258390Y-83579047D01*
X198258390Y-83579047D02*
X198306009Y-83674285D01*
X198306009Y-83674285D02*
X198353628Y-83721904D01*
X198353628Y-83721904D02*
X198448866Y-83769523D01*
X198448866Y-83769523D02*
X198639342Y-83769523D01*
X198639342Y-83769523D02*
X198734580Y-83721904D01*
X198734580Y-83721904D02*
X198782200Y-83674285D01*
X198782200Y-83674285D02*
X198829819Y-83579047D01*
X198829819Y-83579047D02*
X198829819Y-83388571D01*
X198829819Y-83388571D02*
X198782200Y-83293333D01*
X198782200Y-83293333D02*
X198734580Y-83245714D01*
X198734580Y-83245714D02*
X198639342Y-83198095D01*
X198639342Y-83198095D02*
X198448866Y-83198095D01*
X198448866Y-83198095D02*
X198353628Y-83245714D01*
X198353628Y-83245714D02*
X198306009Y-83293333D01*
X198306009Y-83293333D02*
X198258390Y-83388571D01*
X178306009Y-85340952D02*
X178353628Y-85198095D01*
X178353628Y-85198095D02*
X178401247Y-85150476D01*
X178401247Y-85150476D02*
X178496485Y-85102857D01*
X178496485Y-85102857D02*
X178639342Y-85102857D01*
X178639342Y-85102857D02*
X178734580Y-85150476D01*
X178734580Y-85150476D02*
X178782200Y-85198095D01*
X178782200Y-85198095D02*
X178829819Y-85293333D01*
X178829819Y-85293333D02*
X178829819Y-85674285D01*
X178829819Y-85674285D02*
X177829819Y-85674285D01*
X177829819Y-85674285D02*
X177829819Y-85340952D01*
X177829819Y-85340952D02*
X177877438Y-85245714D01*
X177877438Y-85245714D02*
X177925057Y-85198095D01*
X177925057Y-85198095D02*
X178020295Y-85150476D01*
X178020295Y-85150476D02*
X178115533Y-85150476D01*
X178115533Y-85150476D02*
X178210771Y-85198095D01*
X178210771Y-85198095D02*
X178258390Y-85245714D01*
X178258390Y-85245714D02*
X178306009Y-85340952D01*
X178306009Y-85340952D02*
X178306009Y-85674285D01*
X178782200Y-84721904D02*
X178829819Y-84579047D01*
X178829819Y-84579047D02*
X178829819Y-84340952D01*
X178829819Y-84340952D02*
X178782200Y-84245714D01*
X178782200Y-84245714D02*
X178734580Y-84198095D01*
X178734580Y-84198095D02*
X178639342Y-84150476D01*
X178639342Y-84150476D02*
X178544104Y-84150476D01*
X178544104Y-84150476D02*
X178448866Y-84198095D01*
X178448866Y-84198095D02*
X178401247Y-84245714D01*
X178401247Y-84245714D02*
X178353628Y-84340952D01*
X178353628Y-84340952D02*
X178306009Y-84531428D01*
X178306009Y-84531428D02*
X178258390Y-84626666D01*
X178258390Y-84626666D02*
X178210771Y-84674285D01*
X178210771Y-84674285D02*
X178115533Y-84721904D01*
X178115533Y-84721904D02*
X178020295Y-84721904D01*
X178020295Y-84721904D02*
X177925057Y-84674285D01*
X177925057Y-84674285D02*
X177877438Y-84626666D01*
X177877438Y-84626666D02*
X177829819Y-84531428D01*
X177829819Y-84531428D02*
X177829819Y-84293333D01*
X177829819Y-84293333D02*
X177877438Y-84150476D01*
X177829819Y-83293333D02*
X177829819Y-83483809D01*
X177829819Y-83483809D02*
X177877438Y-83579047D01*
X177877438Y-83579047D02*
X177925057Y-83626666D01*
X177925057Y-83626666D02*
X178067914Y-83721904D01*
X178067914Y-83721904D02*
X178258390Y-83769523D01*
X178258390Y-83769523D02*
X178639342Y-83769523D01*
X178639342Y-83769523D02*
X178734580Y-83721904D01*
X178734580Y-83721904D02*
X178782200Y-83674285D01*
X178782200Y-83674285D02*
X178829819Y-83579047D01*
X178829819Y-83579047D02*
X178829819Y-83388571D01*
X178829819Y-83388571D02*
X178782200Y-83293333D01*
X178782200Y-83293333D02*
X178734580Y-83245714D01*
X178734580Y-83245714D02*
X178639342Y-83198095D01*
X178639342Y-83198095D02*
X178401247Y-83198095D01*
X178401247Y-83198095D02*
X178306009Y-83245714D01*
X178306009Y-83245714D02*
X178258390Y-83293333D01*
X178258390Y-83293333D02*
X178210771Y-83388571D01*
X178210771Y-83388571D02*
X178210771Y-83579047D01*
X178210771Y-83579047D02*
X178258390Y-83674285D01*
X178258390Y-83674285D02*
X178306009Y-83721904D01*
X178306009Y-83721904D02*
X178401247Y-83769523D01*
X208306009Y-85340952D02*
X208353628Y-85198095D01*
X208353628Y-85198095D02*
X208401247Y-85150476D01*
X208401247Y-85150476D02*
X208496485Y-85102857D01*
X208496485Y-85102857D02*
X208639342Y-85102857D01*
X208639342Y-85102857D02*
X208734580Y-85150476D01*
X208734580Y-85150476D02*
X208782200Y-85198095D01*
X208782200Y-85198095D02*
X208829819Y-85293333D01*
X208829819Y-85293333D02*
X208829819Y-85674285D01*
X208829819Y-85674285D02*
X207829819Y-85674285D01*
X207829819Y-85674285D02*
X207829819Y-85340952D01*
X207829819Y-85340952D02*
X207877438Y-85245714D01*
X207877438Y-85245714D02*
X207925057Y-85198095D01*
X207925057Y-85198095D02*
X208020295Y-85150476D01*
X208020295Y-85150476D02*
X208115533Y-85150476D01*
X208115533Y-85150476D02*
X208210771Y-85198095D01*
X208210771Y-85198095D02*
X208258390Y-85245714D01*
X208258390Y-85245714D02*
X208306009Y-85340952D01*
X208306009Y-85340952D02*
X208306009Y-85674285D01*
X208782200Y-84721904D02*
X208829819Y-84579047D01*
X208829819Y-84579047D02*
X208829819Y-84340952D01*
X208829819Y-84340952D02*
X208782200Y-84245714D01*
X208782200Y-84245714D02*
X208734580Y-84198095D01*
X208734580Y-84198095D02*
X208639342Y-84150476D01*
X208639342Y-84150476D02*
X208544104Y-84150476D01*
X208544104Y-84150476D02*
X208448866Y-84198095D01*
X208448866Y-84198095D02*
X208401247Y-84245714D01*
X208401247Y-84245714D02*
X208353628Y-84340952D01*
X208353628Y-84340952D02*
X208306009Y-84531428D01*
X208306009Y-84531428D02*
X208258390Y-84626666D01*
X208258390Y-84626666D02*
X208210771Y-84674285D01*
X208210771Y-84674285D02*
X208115533Y-84721904D01*
X208115533Y-84721904D02*
X208020295Y-84721904D01*
X208020295Y-84721904D02*
X207925057Y-84674285D01*
X207925057Y-84674285D02*
X207877438Y-84626666D01*
X207877438Y-84626666D02*
X207829819Y-84531428D01*
X207829819Y-84531428D02*
X207829819Y-84293333D01*
X207829819Y-84293333D02*
X207877438Y-84150476D01*
X208829819Y-83674285D02*
X208829819Y-83483809D01*
X208829819Y-83483809D02*
X208782200Y-83388571D01*
X208782200Y-83388571D02*
X208734580Y-83340952D01*
X208734580Y-83340952D02*
X208591723Y-83245714D01*
X208591723Y-83245714D02*
X208401247Y-83198095D01*
X208401247Y-83198095D02*
X208020295Y-83198095D01*
X208020295Y-83198095D02*
X207925057Y-83245714D01*
X207925057Y-83245714D02*
X207877438Y-83293333D01*
X207877438Y-83293333D02*
X207829819Y-83388571D01*
X207829819Y-83388571D02*
X207829819Y-83579047D01*
X207829819Y-83579047D02*
X207877438Y-83674285D01*
X207877438Y-83674285D02*
X207925057Y-83721904D01*
X207925057Y-83721904D02*
X208020295Y-83769523D01*
X208020295Y-83769523D02*
X208258390Y-83769523D01*
X208258390Y-83769523D02*
X208353628Y-83721904D01*
X208353628Y-83721904D02*
X208401247Y-83674285D01*
X208401247Y-83674285D02*
X208448866Y-83579047D01*
X208448866Y-83579047D02*
X208448866Y-83388571D01*
X208448866Y-83388571D02*
X208401247Y-83293333D01*
X208401247Y-83293333D02*
X208353628Y-83245714D01*
X208353628Y-83245714D02*
X208258390Y-83198095D01*
X121206666Y-103454819D02*
X121206666Y-104169104D01*
X121206666Y-104169104D02*
X121159047Y-104311961D01*
X121159047Y-104311961D02*
X121063809Y-104407200D01*
X121063809Y-104407200D02*
X120920952Y-104454819D01*
X120920952Y-104454819D02*
X120825714Y-104454819D01*
X122111428Y-103454819D02*
X121920952Y-103454819D01*
X121920952Y-103454819D02*
X121825714Y-103502438D01*
X121825714Y-103502438D02*
X121778095Y-103550057D01*
X121778095Y-103550057D02*
X121682857Y-103692914D01*
X121682857Y-103692914D02*
X121635238Y-103883390D01*
X121635238Y-103883390D02*
X121635238Y-104264342D01*
X121635238Y-104264342D02*
X121682857Y-104359580D01*
X121682857Y-104359580D02*
X121730476Y-104407200D01*
X121730476Y-104407200D02*
X121825714Y-104454819D01*
X121825714Y-104454819D02*
X122016190Y-104454819D01*
X122016190Y-104454819D02*
X122111428Y-104407200D01*
X122111428Y-104407200D02*
X122159047Y-104359580D01*
X122159047Y-104359580D02*
X122206666Y-104264342D01*
X122206666Y-104264342D02*
X122206666Y-104026247D01*
X122206666Y-104026247D02*
X122159047Y-103931009D01*
X122159047Y-103931009D02*
X122111428Y-103883390D01*
X122111428Y-103883390D02*
X122016190Y-103835771D01*
X122016190Y-103835771D02*
X121825714Y-103835771D01*
X121825714Y-103835771D02*
X121730476Y-103883390D01*
X121730476Y-103883390D02*
X121682857Y-103931009D01*
X121682857Y-103931009D02*
X121635238Y-104026247D01*
X133226666Y-104854819D02*
X133226666Y-105569104D01*
X133226666Y-105569104D02*
X133179047Y-105711961D01*
X133179047Y-105711961D02*
X133083809Y-105807200D01*
X133083809Y-105807200D02*
X132940952Y-105854819D01*
X132940952Y-105854819D02*
X132845714Y-105854819D01*
X133607619Y-104854819D02*
X134274285Y-104854819D01*
X134274285Y-104854819D02*
X133845714Y-105854819D01*
X90666666Y-106644819D02*
X90666666Y-107359104D01*
X90666666Y-107359104D02*
X90619047Y-107501961D01*
X90619047Y-107501961D02*
X90523809Y-107597200D01*
X90523809Y-107597200D02*
X90380952Y-107644819D01*
X90380952Y-107644819D02*
X90285714Y-107644819D01*
X91095238Y-106740057D02*
X91142857Y-106692438D01*
X91142857Y-106692438D02*
X91238095Y-106644819D01*
X91238095Y-106644819D02*
X91476190Y-106644819D01*
X91476190Y-106644819D02*
X91571428Y-106692438D01*
X91571428Y-106692438D02*
X91619047Y-106740057D01*
X91619047Y-106740057D02*
X91666666Y-106835295D01*
X91666666Y-106835295D02*
X91666666Y-106930533D01*
X91666666Y-106930533D02*
X91619047Y-107073390D01*
X91619047Y-107073390D02*
X91047619Y-107644819D01*
X91047619Y-107644819D02*
X91666666Y-107644819D01*
X212790476Y-105054819D02*
X212790476Y-105769104D01*
X212790476Y-105769104D02*
X212742857Y-105911961D01*
X212742857Y-105911961D02*
X212647619Y-106007200D01*
X212647619Y-106007200D02*
X212504762Y-106054819D01*
X212504762Y-106054819D02*
X212409524Y-106054819D01*
X213790476Y-106054819D02*
X213219048Y-106054819D01*
X213504762Y-106054819D02*
X213504762Y-105054819D01*
X213504762Y-105054819D02*
X213409524Y-105197676D01*
X213409524Y-105197676D02*
X213314286Y-105292914D01*
X213314286Y-105292914D02*
X213219048Y-105340533D01*
X214695238Y-105054819D02*
X214219048Y-105054819D01*
X214219048Y-105054819D02*
X214171429Y-105531009D01*
X214171429Y-105531009D02*
X214219048Y-105483390D01*
X214219048Y-105483390D02*
X214314286Y-105435771D01*
X214314286Y-105435771D02*
X214552381Y-105435771D01*
X214552381Y-105435771D02*
X214647619Y-105483390D01*
X214647619Y-105483390D02*
X214695238Y-105531009D01*
X214695238Y-105531009D02*
X214742857Y-105626247D01*
X214742857Y-105626247D02*
X214742857Y-105864342D01*
X214742857Y-105864342D02*
X214695238Y-105959580D01*
X214695238Y-105959580D02*
X214647619Y-106007200D01*
X214647619Y-106007200D02*
X214552381Y-106054819D01*
X214552381Y-106054819D02*
X214314286Y-106054819D01*
X214314286Y-106054819D02*
X214219048Y-106007200D01*
X214219048Y-106007200D02*
X214171429Y-105959580D01*
X202850476Y-104974819D02*
X202850476Y-105689104D01*
X202850476Y-105689104D02*
X202802857Y-105831961D01*
X202802857Y-105831961D02*
X202707619Y-105927200D01*
X202707619Y-105927200D02*
X202564762Y-105974819D01*
X202564762Y-105974819D02*
X202469524Y-105974819D01*
X203850476Y-105974819D02*
X203279048Y-105974819D01*
X203564762Y-105974819D02*
X203564762Y-104974819D01*
X203564762Y-104974819D02*
X203469524Y-105117676D01*
X203469524Y-105117676D02*
X203374286Y-105212914D01*
X203374286Y-105212914D02*
X203279048Y-105260533D01*
X204707619Y-105308152D02*
X204707619Y-105974819D01*
X204469524Y-104927200D02*
X204231429Y-105641485D01*
X204231429Y-105641485D02*
X204850476Y-105641485D01*
X192850476Y-104974819D02*
X192850476Y-105689104D01*
X192850476Y-105689104D02*
X192802857Y-105831961D01*
X192802857Y-105831961D02*
X192707619Y-105927200D01*
X192707619Y-105927200D02*
X192564762Y-105974819D01*
X192564762Y-105974819D02*
X192469524Y-105974819D01*
X193850476Y-105974819D02*
X193279048Y-105974819D01*
X193564762Y-105974819D02*
X193564762Y-104974819D01*
X193564762Y-104974819D02*
X193469524Y-105117676D01*
X193469524Y-105117676D02*
X193374286Y-105212914D01*
X193374286Y-105212914D02*
X193279048Y-105260533D01*
X194183810Y-104974819D02*
X194802857Y-104974819D01*
X194802857Y-104974819D02*
X194469524Y-105355771D01*
X194469524Y-105355771D02*
X194612381Y-105355771D01*
X194612381Y-105355771D02*
X194707619Y-105403390D01*
X194707619Y-105403390D02*
X194755238Y-105451009D01*
X194755238Y-105451009D02*
X194802857Y-105546247D01*
X194802857Y-105546247D02*
X194802857Y-105784342D01*
X194802857Y-105784342D02*
X194755238Y-105879580D01*
X194755238Y-105879580D02*
X194707619Y-105927200D01*
X194707619Y-105927200D02*
X194612381Y-105974819D01*
X194612381Y-105974819D02*
X194326667Y-105974819D01*
X194326667Y-105974819D02*
X194231429Y-105927200D01*
X194231429Y-105927200D02*
X194183810Y-105879580D01*
X74238095Y-104554819D02*
X74238095Y-103554819D01*
X74238095Y-104031009D02*
X74809523Y-104031009D01*
X74809523Y-104554819D02*
X74809523Y-103554819D01*
X75714285Y-103888152D02*
X75714285Y-104554819D01*
X75476190Y-103507200D02*
X75238095Y-104221485D01*
X75238095Y-104221485D02*
X75857142Y-104221485D01*
X162750476Y-104874819D02*
X162750476Y-105589104D01*
X162750476Y-105589104D02*
X162702857Y-105731961D01*
X162702857Y-105731961D02*
X162607619Y-105827200D01*
X162607619Y-105827200D02*
X162464762Y-105874819D01*
X162464762Y-105874819D02*
X162369524Y-105874819D01*
X163750476Y-105874819D02*
X163179048Y-105874819D01*
X163464762Y-105874819D02*
X163464762Y-104874819D01*
X163464762Y-104874819D02*
X163369524Y-105017676D01*
X163369524Y-105017676D02*
X163274286Y-105112914D01*
X163274286Y-105112914D02*
X163179048Y-105160533D01*
X164369524Y-104874819D02*
X164464762Y-104874819D01*
X164464762Y-104874819D02*
X164560000Y-104922438D01*
X164560000Y-104922438D02*
X164607619Y-104970057D01*
X164607619Y-104970057D02*
X164655238Y-105065295D01*
X164655238Y-105065295D02*
X164702857Y-105255771D01*
X164702857Y-105255771D02*
X164702857Y-105493866D01*
X164702857Y-105493866D02*
X164655238Y-105684342D01*
X164655238Y-105684342D02*
X164607619Y-105779580D01*
X164607619Y-105779580D02*
X164560000Y-105827200D01*
X164560000Y-105827200D02*
X164464762Y-105874819D01*
X164464762Y-105874819D02*
X164369524Y-105874819D01*
X164369524Y-105874819D02*
X164274286Y-105827200D01*
X164274286Y-105827200D02*
X164226667Y-105779580D01*
X164226667Y-105779580D02*
X164179048Y-105684342D01*
X164179048Y-105684342D02*
X164131429Y-105493866D01*
X164131429Y-105493866D02*
X164131429Y-105255771D01*
X164131429Y-105255771D02*
X164179048Y-105065295D01*
X164179048Y-105065295D02*
X164226667Y-104970057D01*
X164226667Y-104970057D02*
X164274286Y-104922438D01*
X164274286Y-104922438D02*
X164369524Y-104874819D01*
X114966666Y-106554819D02*
X114966666Y-107269104D01*
X114966666Y-107269104D02*
X114919047Y-107411961D01*
X114919047Y-107411961D02*
X114823809Y-107507200D01*
X114823809Y-107507200D02*
X114680952Y-107554819D01*
X114680952Y-107554819D02*
X114585714Y-107554819D01*
X115871428Y-106888152D02*
X115871428Y-107554819D01*
X115633333Y-106507200D02*
X115395238Y-107221485D01*
X115395238Y-107221485D02*
X116014285Y-107221485D01*
X138306009Y-85340952D02*
X138353628Y-85198095D01*
X138353628Y-85198095D02*
X138401247Y-85150476D01*
X138401247Y-85150476D02*
X138496485Y-85102857D01*
X138496485Y-85102857D02*
X138639342Y-85102857D01*
X138639342Y-85102857D02*
X138734580Y-85150476D01*
X138734580Y-85150476D02*
X138782200Y-85198095D01*
X138782200Y-85198095D02*
X138829819Y-85293333D01*
X138829819Y-85293333D02*
X138829819Y-85674285D01*
X138829819Y-85674285D02*
X137829819Y-85674285D01*
X137829819Y-85674285D02*
X137829819Y-85340952D01*
X137829819Y-85340952D02*
X137877438Y-85245714D01*
X137877438Y-85245714D02*
X137925057Y-85198095D01*
X137925057Y-85198095D02*
X138020295Y-85150476D01*
X138020295Y-85150476D02*
X138115533Y-85150476D01*
X138115533Y-85150476D02*
X138210771Y-85198095D01*
X138210771Y-85198095D02*
X138258390Y-85245714D01*
X138258390Y-85245714D02*
X138306009Y-85340952D01*
X138306009Y-85340952D02*
X138306009Y-85674285D01*
X138782200Y-84721904D02*
X138829819Y-84579047D01*
X138829819Y-84579047D02*
X138829819Y-84340952D01*
X138829819Y-84340952D02*
X138782200Y-84245714D01*
X138782200Y-84245714D02*
X138734580Y-84198095D01*
X138734580Y-84198095D02*
X138639342Y-84150476D01*
X138639342Y-84150476D02*
X138544104Y-84150476D01*
X138544104Y-84150476D02*
X138448866Y-84198095D01*
X138448866Y-84198095D02*
X138401247Y-84245714D01*
X138401247Y-84245714D02*
X138353628Y-84340952D01*
X138353628Y-84340952D02*
X138306009Y-84531428D01*
X138306009Y-84531428D02*
X138258390Y-84626666D01*
X138258390Y-84626666D02*
X138210771Y-84674285D01*
X138210771Y-84674285D02*
X138115533Y-84721904D01*
X138115533Y-84721904D02*
X138020295Y-84721904D01*
X138020295Y-84721904D02*
X137925057Y-84674285D01*
X137925057Y-84674285D02*
X137877438Y-84626666D01*
X137877438Y-84626666D02*
X137829819Y-84531428D01*
X137829819Y-84531428D02*
X137829819Y-84293333D01*
X137829819Y-84293333D02*
X137877438Y-84150476D01*
X137925057Y-83769523D02*
X137877438Y-83721904D01*
X137877438Y-83721904D02*
X137829819Y-83626666D01*
X137829819Y-83626666D02*
X137829819Y-83388571D01*
X137829819Y-83388571D02*
X137877438Y-83293333D01*
X137877438Y-83293333D02*
X137925057Y-83245714D01*
X137925057Y-83245714D02*
X138020295Y-83198095D01*
X138020295Y-83198095D02*
X138115533Y-83198095D01*
X138115533Y-83198095D02*
X138258390Y-83245714D01*
X138258390Y-83245714D02*
X138829819Y-83817142D01*
X138829819Y-83817142D02*
X138829819Y-83198095D01*
X74238095Y-85554819D02*
X74238095Y-84554819D01*
X74238095Y-85031009D02*
X74809523Y-85031009D01*
X74809523Y-85554819D02*
X74809523Y-84554819D01*
X75238095Y-84650057D02*
X75285714Y-84602438D01*
X75285714Y-84602438D02*
X75380952Y-84554819D01*
X75380952Y-84554819D02*
X75619047Y-84554819D01*
X75619047Y-84554819D02*
X75714285Y-84602438D01*
X75714285Y-84602438D02*
X75761904Y-84650057D01*
X75761904Y-84650057D02*
X75809523Y-84745295D01*
X75809523Y-84745295D02*
X75809523Y-84840533D01*
X75809523Y-84840533D02*
X75761904Y-84983390D01*
X75761904Y-84983390D02*
X75190476Y-85554819D01*
X75190476Y-85554819D02*
X75809523Y-85554819D01*
X143326666Y-105074819D02*
X143326666Y-105789104D01*
X143326666Y-105789104D02*
X143279047Y-105931961D01*
X143279047Y-105931961D02*
X143183809Y-106027200D01*
X143183809Y-106027200D02*
X143040952Y-106074819D01*
X143040952Y-106074819D02*
X142945714Y-106074819D01*
X143945714Y-105503390D02*
X143850476Y-105455771D01*
X143850476Y-105455771D02*
X143802857Y-105408152D01*
X143802857Y-105408152D02*
X143755238Y-105312914D01*
X143755238Y-105312914D02*
X143755238Y-105265295D01*
X143755238Y-105265295D02*
X143802857Y-105170057D01*
X143802857Y-105170057D02*
X143850476Y-105122438D01*
X143850476Y-105122438D02*
X143945714Y-105074819D01*
X143945714Y-105074819D02*
X144136190Y-105074819D01*
X144136190Y-105074819D02*
X144231428Y-105122438D01*
X144231428Y-105122438D02*
X144279047Y-105170057D01*
X144279047Y-105170057D02*
X144326666Y-105265295D01*
X144326666Y-105265295D02*
X144326666Y-105312914D01*
X144326666Y-105312914D02*
X144279047Y-105408152D01*
X144279047Y-105408152D02*
X144231428Y-105455771D01*
X144231428Y-105455771D02*
X144136190Y-105503390D01*
X144136190Y-105503390D02*
X143945714Y-105503390D01*
X143945714Y-105503390D02*
X143850476Y-105551009D01*
X143850476Y-105551009D02*
X143802857Y-105598628D01*
X143802857Y-105598628D02*
X143755238Y-105693866D01*
X143755238Y-105693866D02*
X143755238Y-105884342D01*
X143755238Y-105884342D02*
X143802857Y-105979580D01*
X143802857Y-105979580D02*
X143850476Y-106027200D01*
X143850476Y-106027200D02*
X143945714Y-106074819D01*
X143945714Y-106074819D02*
X144136190Y-106074819D01*
X144136190Y-106074819D02*
X144231428Y-106027200D01*
X144231428Y-106027200D02*
X144279047Y-105979580D01*
X144279047Y-105979580D02*
X144326666Y-105884342D01*
X144326666Y-105884342D02*
X144326666Y-105693866D01*
X144326666Y-105693866D02*
X144279047Y-105598628D01*
X144279047Y-105598628D02*
X144231428Y-105551009D01*
X144231428Y-105551009D02*
X144136190Y-105503390D01*
X94766666Y-106644819D02*
X94766666Y-107359104D01*
X94766666Y-107359104D02*
X94719047Y-107501961D01*
X94719047Y-107501961D02*
X94623809Y-107597200D01*
X94623809Y-107597200D02*
X94480952Y-107644819D01*
X94480952Y-107644819D02*
X94385714Y-107644819D01*
X95147619Y-106644819D02*
X95766666Y-106644819D01*
X95766666Y-106644819D02*
X95433333Y-107025771D01*
X95433333Y-107025771D02*
X95576190Y-107025771D01*
X95576190Y-107025771D02*
X95671428Y-107073390D01*
X95671428Y-107073390D02*
X95719047Y-107121009D01*
X95719047Y-107121009D02*
X95766666Y-107216247D01*
X95766666Y-107216247D02*
X95766666Y-107454342D01*
X95766666Y-107454342D02*
X95719047Y-107549580D01*
X95719047Y-107549580D02*
X95671428Y-107597200D01*
X95671428Y-107597200D02*
X95576190Y-107644819D01*
X95576190Y-107644819D02*
X95290476Y-107644819D01*
X95290476Y-107644819D02*
X95195238Y-107597200D01*
X95195238Y-107597200D02*
X95147619Y-107549580D01*
D14*
%TO.C,BS4*%
X157200000Y-81200000D02*
X157200000Y-92800000D01*
X153200000Y-81200000D02*
X157200000Y-81200000D01*
X157200000Y-92800000D02*
X153200000Y-92800000D01*
X153200000Y-92800000D02*
X153200000Y-81200000D01*
D15*
X152800000Y-84500000D02*
G75*
G03*
X152800000Y-84500000I-100000J0D01*
G01*
D14*
%TO.C,BS10*%
X217200000Y-81200000D02*
X217200000Y-92800000D01*
X213200000Y-81200000D02*
X217200000Y-81200000D01*
X217200000Y-92800000D02*
X213200000Y-92800000D01*
X213200000Y-92800000D02*
X213200000Y-81200000D01*
D15*
X212800000Y-84500000D02*
G75*
G03*
X212800000Y-84500000I-100000J0D01*
G01*
D14*
%TO.C,BS1*%
X127200000Y-81200000D02*
X127200000Y-92800000D01*
X123200000Y-81200000D02*
X127200000Y-81200000D01*
X127200000Y-92800000D02*
X123200000Y-92800000D01*
X123200000Y-92800000D02*
X123200000Y-81200000D01*
D15*
X122800000Y-84500000D02*
G75*
G03*
X122800000Y-84500000I-100000J0D01*
G01*
D14*
%TO.C,BS5*%
X167200000Y-81200000D02*
X167200000Y-92800000D01*
X163200000Y-81200000D02*
X167200000Y-81200000D01*
X167200000Y-92800000D02*
X163200000Y-92800000D01*
X163200000Y-92800000D02*
X163200000Y-81200000D01*
D15*
X162800000Y-84500000D02*
G75*
G03*
X162800000Y-84500000I-100000J0D01*
G01*
D16*
%TO.C,J5*%
X98310000Y-102212500D02*
X98310000Y-114432500D01*
X98310000Y-111132500D02*
X110690000Y-111132500D01*
X98310000Y-112932500D02*
X98310000Y-111132500D01*
X98310000Y-114432500D02*
X110690000Y-114432500D01*
X100960000Y-114432500D02*
X102960000Y-114432500D01*
X101210000Y-112932500D02*
X100960000Y-114432500D01*
X101660000Y-101412500D02*
X102260000Y-101412500D01*
X101960000Y-102012500D02*
X101660000Y-101412500D01*
X102260000Y-101412500D02*
X101960000Y-102012500D01*
X102710000Y-112932500D02*
X101210000Y-112932500D01*
X102960000Y-114432500D02*
X102710000Y-112932500D01*
X106040000Y-114432500D02*
X108040000Y-114432500D01*
X106290000Y-112932500D02*
X106040000Y-114432500D01*
X107790000Y-112932500D02*
X106290000Y-112932500D01*
X108040000Y-114432500D02*
X107790000Y-112932500D01*
X110690000Y-102212500D02*
X98310000Y-102212500D01*
X110690000Y-111132500D02*
X110690000Y-112932500D01*
X110690000Y-112932500D02*
X98310000Y-112932500D01*
X110690000Y-114432500D02*
X110690000Y-102212500D01*
D14*
%TO.C,BS7*%
X187200000Y-81200000D02*
X187200000Y-92800000D01*
X183200000Y-81200000D02*
X187200000Y-81200000D01*
X187200000Y-92800000D02*
X183200000Y-92800000D01*
X183200000Y-92800000D02*
X183200000Y-81200000D01*
D15*
X182800000Y-84500000D02*
G75*
G03*
X182800000Y-84500000I-100000J0D01*
G01*
D16*
%TO.C,J11*%
X177105200Y-109660000D02*
X177105200Y-111660000D01*
X174600000Y-114165200D02*
X172600000Y-114165200D01*
X172600000Y-107154800D02*
X174600000Y-107154800D01*
X170094800Y-111660000D02*
X170094800Y-109660000D01*
D14*
%TO.C,BS3*%
X147200000Y-81200000D02*
X147200000Y-92800000D01*
X143200000Y-81200000D02*
X147200000Y-81200000D01*
X147200000Y-92800000D02*
X143200000Y-92800000D01*
X143200000Y-92800000D02*
X143200000Y-81200000D01*
D15*
X142800000Y-84500000D02*
G75*
G03*
X142800000Y-84500000I-100000J0D01*
G01*
D16*
%TO.C,J9*%
X157165200Y-109660000D02*
X157165200Y-111660000D01*
X154660000Y-114165200D02*
X152660000Y-114165200D01*
X152660000Y-107154800D02*
X154660000Y-107154800D01*
X150154800Y-111660000D02*
X150154800Y-109660000D01*
%TO.C,J12*%
X187105200Y-109660000D02*
X187105200Y-111660000D01*
X184600000Y-114165200D02*
X182600000Y-114165200D01*
X182600000Y-107154800D02*
X184600000Y-107154800D01*
X180094800Y-111660000D02*
X180094800Y-109660000D01*
%TO.C,J1*%
X86745200Y-109640000D02*
X86745200Y-111640000D01*
X84240000Y-114145200D02*
X82240000Y-114145200D01*
X82240000Y-107134800D02*
X84240000Y-107134800D01*
X79734800Y-111640000D02*
X79734800Y-109640000D01*
D14*
%TO.C,BS8*%
X197200000Y-81200000D02*
X197200000Y-92800000D01*
X193200000Y-81200000D02*
X197200000Y-81200000D01*
X197200000Y-92800000D02*
X193200000Y-92800000D01*
X193200000Y-92800000D02*
X193200000Y-81200000D01*
D15*
X192800000Y-84500000D02*
G75*
G03*
X192800000Y-84500000I-100000J0D01*
G01*
D14*
%TO.C,BS6*%
X177200000Y-81200000D02*
X177200000Y-92800000D01*
X173200000Y-81200000D02*
X177200000Y-81200000D01*
X177200000Y-92800000D02*
X173200000Y-92800000D01*
X173200000Y-92800000D02*
X173200000Y-81200000D01*
D15*
X172800000Y-84500000D02*
G75*
G03*
X172800000Y-84500000I-100000J0D01*
G01*
D14*
%TO.C,BS9*%
X207200000Y-81200000D02*
X207200000Y-92800000D01*
X203200000Y-81200000D02*
X207200000Y-81200000D01*
X207200000Y-92800000D02*
X203200000Y-92800000D01*
X203200000Y-92800000D02*
X203200000Y-81200000D01*
D15*
X202800000Y-84500000D02*
G75*
G03*
X202800000Y-84500000I-100000J0D01*
G01*
D16*
%TO.C,J6*%
X127105200Y-109660000D02*
X127105200Y-111660000D01*
X124600000Y-114165200D02*
X122600000Y-114165200D01*
X122600000Y-107154800D02*
X124600000Y-107154800D01*
X120094800Y-111660000D02*
X120094800Y-109660000D01*
%TO.C,J7*%
X137105200Y-109660000D02*
X137105200Y-111660000D01*
X134600000Y-114165200D02*
X132600000Y-114165200D01*
X132600000Y-107154800D02*
X134600000Y-107154800D01*
X130094800Y-111660000D02*
X130094800Y-109660000D01*
%TO.C,J2*%
X89670000Y-111230000D02*
X89670000Y-113830000D01*
X89670000Y-111230000D02*
X92330000Y-111230000D01*
X89670000Y-113830000D02*
X92330000Y-113830000D01*
X91000000Y-108630000D02*
X92330000Y-108630000D01*
X92330000Y-108630000D02*
X92330000Y-109960000D01*
X92330000Y-111230000D02*
X92330000Y-113830000D01*
%TO.C,J15*%
X217105200Y-109660000D02*
X217105200Y-111660000D01*
X214600000Y-114165200D02*
X212600000Y-114165200D01*
X212600000Y-107154800D02*
X214600000Y-107154800D01*
X210094800Y-111660000D02*
X210094800Y-109660000D01*
%TO.C,J14*%
X207105200Y-109660000D02*
X207105200Y-111660000D01*
X204600000Y-114165200D02*
X202600000Y-114165200D01*
X202600000Y-107154800D02*
X204600000Y-107154800D01*
X200094800Y-111660000D02*
X200094800Y-109660000D01*
%TO.C,J13*%
X197105200Y-109660000D02*
X197105200Y-111660000D01*
X194600000Y-114165200D02*
X192600000Y-114165200D01*
X192600000Y-107154800D02*
X194600000Y-107154800D01*
X190094800Y-111660000D02*
X190094800Y-109660000D01*
%TO.C,J10*%
X167105200Y-109660000D02*
X167105200Y-111660000D01*
X164600000Y-114165200D02*
X162600000Y-114165200D01*
X162600000Y-107154800D02*
X164600000Y-107154800D01*
X160094800Y-111660000D02*
X160094800Y-109660000D01*
%TO.C,J4*%
X116630000Y-111180000D02*
X116630000Y-108580000D01*
X116630000Y-111180000D02*
X113970000Y-111180000D01*
X116630000Y-108580000D02*
X113970000Y-108580000D01*
X115300000Y-113780000D02*
X113970000Y-113780000D01*
X113970000Y-113780000D02*
X113970000Y-112450000D01*
X113970000Y-111180000D02*
X113970000Y-108580000D01*
D14*
%TO.C,BS2*%
X137200000Y-81200000D02*
X137200000Y-92800000D01*
X133200000Y-81200000D02*
X137200000Y-81200000D01*
X137200000Y-92800000D02*
X133200000Y-92800000D01*
X133200000Y-92800000D02*
X133200000Y-81200000D01*
D15*
X132800000Y-84500000D02*
G75*
G03*
X132800000Y-84500000I-100000J0D01*
G01*
D16*
%TO.C,J8*%
X147105200Y-109660000D02*
X147105200Y-111660000D01*
X144600000Y-114165200D02*
X142600000Y-114165200D01*
X142600000Y-107154800D02*
X144600000Y-107154800D01*
X140094800Y-111660000D02*
X140094800Y-109660000D01*
%TO.C,J3*%
X93770000Y-111230000D02*
X93770000Y-113830000D01*
X93770000Y-111230000D02*
X96430000Y-111230000D01*
X93770000Y-113830000D02*
X96430000Y-113830000D01*
X95100000Y-108630000D02*
X96430000Y-108630000D01*
X96430000Y-108630000D02*
X96430000Y-109960000D01*
X96430000Y-111230000D02*
X96430000Y-113830000D01*
%TD*%
M02*
