M48
; DRILL file {KiCad 7.0.8} date Tue Nov 14 16:13:26 2023
; FORMAT={-:-/ absolute / inch / decimal}
; #@! TF.CreationDate,2023-11-14T16:13:26-08:00
; #@! TF.GenerationSoftware,Kicad,Pcbnew,7.0.8
; #@! TF.FileFunction,Plated,1,2,PTH
FMAT,2
INCH
; #@! TA.AperFunction,Plated,PTH,ViaDrill
T1C0.0157
; #@! TA.AperFunction,Plated,PTH,ComponentDrill
T2C0.0394
; #@! TA.AperFunction,Plated,PTH,ComponentDrill
T3C0.0472
; #@! TA.AperFunction,Plated,PTH,ComponentDrill
T4C0.0551
; #@! TA.AperFunction,Plated,PTH,ComponentDrill
T5C0.0669
; #@! TA.AperFunction,Plated,PTH,ComponentDrill
T6C0.0866
; #@! TA.AperFunction,Plated,PTH,ComponentDrill
T7C0.1063
%
G90
G05
T1
X8.5094Y-3.9366
T2
X3.5827Y-4.3291
X3.5827Y-4.4291
X3.7441Y-4.3291
X3.7441Y-4.4291
X4.5394Y-4.3272
X4.5394Y-4.4272
X4.9291Y-3.3268
X4.9291Y-3.4252
X4.9291Y-3.5236
X5.3228Y-3.3268
X5.3228Y-3.4252
X5.3228Y-3.5236
X5.7165Y-3.3268
X5.7165Y-3.4252
X5.7165Y-3.5236
X6.1102Y-3.3268
X6.1102Y-3.4252
X6.1102Y-3.5236
X6.5039Y-3.3268
X6.5039Y-3.4252
X6.5039Y-3.5236
X6.8976Y-3.3268
X6.8976Y-3.4252
X6.8976Y-3.5236
X7.2913Y-3.3268
X7.2913Y-3.4252
X7.2913Y-3.5236
X7.685Y-3.3268
X7.685Y-3.4252
X7.685Y-3.5236
X8.0787Y-3.3268
X8.0787Y-3.4252
X8.0787Y-3.5236
X8.4724Y-3.3268
X8.4724Y-3.4252
X8.4724Y-3.5236
T3
X3.2772Y-4.3559
X4.8661Y-4.3567
X5.2598Y-4.3567
X5.6535Y-4.3567
X6.0496Y-4.3567
X6.4409Y-4.3567
X6.8346Y-4.3567
X7.2283Y-4.3567
X7.622Y-4.3567
X8.0157Y-4.3567
X8.4094Y-4.3567
T4
X4.0142Y-4.1072
X4.2142Y-4.1072
T5
X3.1772Y-4.2559
X3.1772Y-4.4559
X3.3772Y-4.2559
X3.3772Y-4.4559
X4.7661Y-4.2567
X4.7661Y-4.4567
X4.9661Y-4.2567
X4.9661Y-4.4567
X5.1598Y-4.2567
X5.1598Y-4.4567
X5.3598Y-4.2567
X5.3598Y-4.4567
X5.5535Y-4.2567
X5.5535Y-4.4567
X5.7535Y-4.2567
X5.7535Y-4.4567
X5.9496Y-4.2567
X5.9496Y-4.4567
X6.1496Y-4.2567
X6.1496Y-4.4567
X6.3409Y-4.2567
X6.3409Y-4.4567
X6.5409Y-4.2567
X6.5409Y-4.4567
X6.7346Y-4.2567
X6.7346Y-4.4567
X6.9346Y-4.2567
X6.9346Y-4.4567
X7.1283Y-4.2567
X7.1283Y-4.4567
X7.3283Y-4.2567
X7.3283Y-4.4567
X7.522Y-4.2567
X7.522Y-4.4567
X7.722Y-4.2567
X7.722Y-4.4567
X7.9157Y-4.2567
X7.9157Y-4.4567
X8.1157Y-4.2567
X8.1157Y-4.4567
X8.3094Y-4.2567
X8.3094Y-4.4567
X8.5094Y-4.2567
X8.5094Y-4.4567
T6
X2.9528Y-3.4646
X2.9528Y-4.2126
T7
X8.8583Y-3.4646
X8.8583Y-4.2126
T0
M30
