M48
; DRILL file {KiCad 7.0.8} date Fri Oct 10 12:28:28 2025
; FORMAT={-:-/ absolute / inch / decimal}
; #@! TF.CreationDate,2025-10-10T12:28:28-07:00
; #@! TF.GenerationSoftware,Kicad,Pcbnew,7.0.8
; #@! TF.FileFunction,Plated,1,2,PTH
FMAT,2
INCH
; #@! TA.AperFunction,Plated,PTH,ComponentDrill
T1C0.0394
; #@! TA.AperFunction,Plated,PTH,ComponentDrill
T2C0.0472
; #@! TA.AperFunction,Plated,PTH,ComponentDrill
T3C0.0551
; #@! TA.AperFunction,Plated,PTH,ComponentDrill
T4C0.0669
%
G90
G05
T1
X6.7392Y-9.1736
X6.7392Y-9.2736
X6.9453Y-9.1736
X6.9453Y-9.2736
X7.2766Y-8.9476
X7.3766Y-8.9476
X7.8112Y-8.6122
X7.9112Y-8.6122
X8.7638Y-8.1492
X8.7638Y-8.2476
X8.7638Y-8.3461
X9.1575Y-8.1492
X9.1575Y-8.2476
X9.1575Y-8.3461
X9.5512Y-8.1492
X9.5512Y-8.2476
X9.5512Y-8.3461
X9.9449Y-8.1492
X9.9449Y-8.2476
X9.9449Y-8.3461
X10.3386Y-8.1492
X10.3386Y-8.2476
X10.3386Y-8.3461
X10.7323Y-8.1492
X10.7323Y-8.2476
X10.7323Y-8.3461
X11.126Y-8.1492
X11.126Y-8.2476
X11.126Y-8.3461
X11.5197Y-8.1492
X11.5197Y-8.2476
X11.5197Y-8.3461
X11.9134Y-8.1492
X11.9134Y-8.2476
X11.9134Y-8.3461
X12.3071Y-8.1492
X12.3071Y-8.2476
X12.3071Y-8.3461
X12.6764Y-8.1571
X12.6764Y-8.2555
X12.6764Y-8.3539
X13.0457Y-8.1571
X13.0457Y-8.2555
X13.0457Y-8.3539
X13.415Y-8.1571
X13.415Y-8.2555
X13.415Y-8.3539
X13.7843Y-8.1571
X13.7843Y-8.2555
X13.7843Y-8.3539
X14.1535Y-8.1571
X14.1535Y-8.2555
X14.1535Y-8.3539
X14.5228Y-8.1571
X14.5228Y-8.2555
X14.5228Y-8.3539
X14.8921Y-8.1571
X14.8921Y-8.2555
X14.8921Y-8.3539
X15.2614Y-8.1571
X15.2614Y-8.2555
X15.2614Y-8.3539
X15.6307Y-8.1571
X15.6307Y-8.2555
X15.6307Y-8.3539
X16.0Y-8.1571
X16.0Y-8.2555
X16.0Y-8.3539
T2
X6.3654Y-9.1736
X9.0945Y-9.1736
X9.4882Y-9.1736
X9.8843Y-9.1736
X10.2756Y-9.1736
X10.6693Y-9.1736
X11.063Y-9.1736
X11.4567Y-9.1736
X11.8504Y-9.1736
X12.2441Y-9.1736
X12.6378Y-9.1736
X13.0315Y-9.1736
X13.4252Y-9.1736
X13.8189Y-9.1736
X14.2126Y-9.1736
X14.6063Y-9.1736
X15.0Y-9.1736
X15.3937Y-9.1736
X15.7874Y-9.1736
X16.1811Y-9.1736
X16.5748Y-9.1736
T3
X7.7713Y-8.9433
X7.9713Y-8.9433
T4
X6.2654Y-9.0736
X6.2654Y-9.2736
X6.4654Y-9.0736
X6.4654Y-9.2736
X8.9945Y-9.0736
X8.9945Y-9.2736
X9.1945Y-9.0736
X9.1945Y-9.2736
X9.3882Y-9.0736
X9.3882Y-9.2736
X9.5882Y-9.0736
X9.5882Y-9.2736
X9.7843Y-9.0736
X9.7843Y-9.2736
X9.9843Y-9.0736
X9.9843Y-9.2736
X10.1756Y-9.0736
X10.1756Y-9.2736
X10.3756Y-9.0736
X10.3756Y-9.2736
X10.5693Y-9.0736
X10.5693Y-9.2736
X10.7693Y-9.0736
X10.7693Y-9.2736
X10.963Y-9.0736
X10.963Y-9.2736
X11.163Y-9.0736
X11.163Y-9.2736
X11.3567Y-9.0736
X11.3567Y-9.2736
X11.5567Y-9.0736
X11.5567Y-9.2736
X11.7504Y-9.0736
X11.7504Y-9.2736
X11.9504Y-9.0736
X11.9504Y-9.2736
X12.1441Y-9.0736
X12.1441Y-9.2736
X12.3441Y-9.0736
X12.3441Y-9.2736
X12.5378Y-9.0736
X12.5378Y-9.2736
X12.7378Y-9.0736
X12.7378Y-9.2736
X12.9315Y-9.0736
X12.9315Y-9.2736
X13.1315Y-9.0736
X13.1315Y-9.2736
X13.3252Y-9.0736
X13.3252Y-9.2736
X13.5252Y-9.0736
X13.5252Y-9.2736
X13.7189Y-9.0736
X13.7189Y-9.2736
X13.9189Y-9.0736
X13.9189Y-9.2736
X14.1126Y-9.0736
X14.1126Y-9.2736
X14.3126Y-9.0736
X14.3126Y-9.2736
X14.5063Y-9.0736
X14.5063Y-9.2736
X14.7063Y-9.0736
X14.7063Y-9.2736
X14.9Y-9.0736
X14.9Y-9.2736
X15.1Y-9.0736
X15.1Y-9.2736
X15.2937Y-9.0736
X15.2937Y-9.2736
X15.4937Y-9.0736
X15.4937Y-9.2736
X15.6874Y-9.0736
X15.6874Y-9.2736
X15.8874Y-9.0736
X15.8874Y-9.2736
X16.0811Y-9.0736
X16.0811Y-9.2736
X16.2811Y-9.0736
X16.2811Y-9.2736
X16.4748Y-9.0736
X16.4748Y-9.2736
X16.6748Y-9.0736
X16.6748Y-9.2736
T0
M30
