%TF.GenerationSoftware,KiCad,Pcbnew,7.0.8*%
%TF.CreationDate,2025-10-10T12:25:51-07:00*%
%TF.ProjectId,HV_Safety_Loop,48565f53-6166-4657-9479-5f4c6f6f702e,rev?*%
%TF.SameCoordinates,Original*%
%TF.FileFunction,Legend,Top*%
%TF.FilePolarity,Positive*%
%FSLAX46Y46*%
G04 Gerber Fmt 4.6, Leading zero omitted, Abs format (unit mm)*
G04 Created by KiCad (PCBNEW 7.0.8) date 2025-10-10 12:25:51*
%MOMM*%
%LPD*%
G01*
G04 APERTURE LIST*
%ADD10C,0.150000*%
%ADD11C,0.127000*%
%ADD12C,0.200000*%
%ADD13C,0.120000*%
G04 APERTURE END LIST*
D10*
X255706009Y-207830952D02*
X255753628Y-207688095D01*
X255753628Y-207688095D02*
X255801247Y-207640476D01*
X255801247Y-207640476D02*
X255896485Y-207592857D01*
X255896485Y-207592857D02*
X256039342Y-207592857D01*
X256039342Y-207592857D02*
X256134580Y-207640476D01*
X256134580Y-207640476D02*
X256182200Y-207688095D01*
X256182200Y-207688095D02*
X256229819Y-207783333D01*
X256229819Y-207783333D02*
X256229819Y-208164285D01*
X256229819Y-208164285D02*
X255229819Y-208164285D01*
X255229819Y-208164285D02*
X255229819Y-207830952D01*
X255229819Y-207830952D02*
X255277438Y-207735714D01*
X255277438Y-207735714D02*
X255325057Y-207688095D01*
X255325057Y-207688095D02*
X255420295Y-207640476D01*
X255420295Y-207640476D02*
X255515533Y-207640476D01*
X255515533Y-207640476D02*
X255610771Y-207688095D01*
X255610771Y-207688095D02*
X255658390Y-207735714D01*
X255658390Y-207735714D02*
X255706009Y-207830952D01*
X255706009Y-207830952D02*
X255706009Y-208164285D01*
X256182200Y-207211904D02*
X256229819Y-207069047D01*
X256229819Y-207069047D02*
X256229819Y-206830952D01*
X256229819Y-206830952D02*
X256182200Y-206735714D01*
X256182200Y-206735714D02*
X256134580Y-206688095D01*
X256134580Y-206688095D02*
X256039342Y-206640476D01*
X256039342Y-206640476D02*
X255944104Y-206640476D01*
X255944104Y-206640476D02*
X255848866Y-206688095D01*
X255848866Y-206688095D02*
X255801247Y-206735714D01*
X255801247Y-206735714D02*
X255753628Y-206830952D01*
X255753628Y-206830952D02*
X255706009Y-207021428D01*
X255706009Y-207021428D02*
X255658390Y-207116666D01*
X255658390Y-207116666D02*
X255610771Y-207164285D01*
X255610771Y-207164285D02*
X255515533Y-207211904D01*
X255515533Y-207211904D02*
X255420295Y-207211904D01*
X255420295Y-207211904D02*
X255325057Y-207164285D01*
X255325057Y-207164285D02*
X255277438Y-207116666D01*
X255277438Y-207116666D02*
X255229819Y-207021428D01*
X255229819Y-207021428D02*
X255229819Y-206783333D01*
X255229819Y-206783333D02*
X255277438Y-206640476D01*
X255563152Y-205783333D02*
X256229819Y-205783333D01*
X255182200Y-206021428D02*
X255896485Y-206259523D01*
X255896485Y-206259523D02*
X255896485Y-205640476D01*
X315706009Y-208307142D02*
X315753628Y-208164285D01*
X315753628Y-208164285D02*
X315801247Y-208116666D01*
X315801247Y-208116666D02*
X315896485Y-208069047D01*
X315896485Y-208069047D02*
X316039342Y-208069047D01*
X316039342Y-208069047D02*
X316134580Y-208116666D01*
X316134580Y-208116666D02*
X316182200Y-208164285D01*
X316182200Y-208164285D02*
X316229819Y-208259523D01*
X316229819Y-208259523D02*
X316229819Y-208640475D01*
X316229819Y-208640475D02*
X315229819Y-208640475D01*
X315229819Y-208640475D02*
X315229819Y-208307142D01*
X315229819Y-208307142D02*
X315277438Y-208211904D01*
X315277438Y-208211904D02*
X315325057Y-208164285D01*
X315325057Y-208164285D02*
X315420295Y-208116666D01*
X315420295Y-208116666D02*
X315515533Y-208116666D01*
X315515533Y-208116666D02*
X315610771Y-208164285D01*
X315610771Y-208164285D02*
X315658390Y-208211904D01*
X315658390Y-208211904D02*
X315706009Y-208307142D01*
X315706009Y-208307142D02*
X315706009Y-208640475D01*
X316182200Y-207688094D02*
X316229819Y-207545237D01*
X316229819Y-207545237D02*
X316229819Y-207307142D01*
X316229819Y-207307142D02*
X316182200Y-207211904D01*
X316182200Y-207211904D02*
X316134580Y-207164285D01*
X316134580Y-207164285D02*
X316039342Y-207116666D01*
X316039342Y-207116666D02*
X315944104Y-207116666D01*
X315944104Y-207116666D02*
X315848866Y-207164285D01*
X315848866Y-207164285D02*
X315801247Y-207211904D01*
X315801247Y-207211904D02*
X315753628Y-207307142D01*
X315753628Y-207307142D02*
X315706009Y-207497618D01*
X315706009Y-207497618D02*
X315658390Y-207592856D01*
X315658390Y-207592856D02*
X315610771Y-207640475D01*
X315610771Y-207640475D02*
X315515533Y-207688094D01*
X315515533Y-207688094D02*
X315420295Y-207688094D01*
X315420295Y-207688094D02*
X315325057Y-207640475D01*
X315325057Y-207640475D02*
X315277438Y-207592856D01*
X315277438Y-207592856D02*
X315229819Y-207497618D01*
X315229819Y-207497618D02*
X315229819Y-207259523D01*
X315229819Y-207259523D02*
X315277438Y-207116666D01*
X316229819Y-206164285D02*
X316229819Y-206735713D01*
X316229819Y-206449999D02*
X315229819Y-206449999D01*
X315229819Y-206449999D02*
X315372676Y-206545237D01*
X315372676Y-206545237D02*
X315467914Y-206640475D01*
X315467914Y-206640475D02*
X315515533Y-206735713D01*
X315229819Y-205545237D02*
X315229819Y-205449999D01*
X315229819Y-205449999D02*
X315277438Y-205354761D01*
X315277438Y-205354761D02*
X315325057Y-205307142D01*
X315325057Y-205307142D02*
X315420295Y-205259523D01*
X315420295Y-205259523D02*
X315610771Y-205211904D01*
X315610771Y-205211904D02*
X315848866Y-205211904D01*
X315848866Y-205211904D02*
X316039342Y-205259523D01*
X316039342Y-205259523D02*
X316134580Y-205307142D01*
X316134580Y-205307142D02*
X316182200Y-205354761D01*
X316182200Y-205354761D02*
X316229819Y-205449999D01*
X316229819Y-205449999D02*
X316229819Y-205545237D01*
X316229819Y-205545237D02*
X316182200Y-205640475D01*
X316182200Y-205640475D02*
X316134580Y-205688094D01*
X316134580Y-205688094D02*
X316039342Y-205735713D01*
X316039342Y-205735713D02*
X315848866Y-205783332D01*
X315848866Y-205783332D02*
X315610771Y-205783332D01*
X315610771Y-205783332D02*
X315420295Y-205735713D01*
X315420295Y-205735713D02*
X315325057Y-205688094D01*
X315325057Y-205688094D02*
X315277438Y-205640475D01*
X315277438Y-205640475D02*
X315229819Y-205545237D01*
X543128095Y-234574819D02*
X543128095Y-233574819D01*
X543128095Y-234051009D02*
X543699523Y-234051009D01*
X543699523Y-234574819D02*
X543699523Y-233574819D01*
X544604285Y-233908152D02*
X544604285Y-234574819D01*
X544366190Y-233527200D02*
X544128095Y-234241485D01*
X544128095Y-234241485D02*
X544747142Y-234241485D01*
X420370476Y-227044819D02*
X420370476Y-227759104D01*
X420370476Y-227759104D02*
X420322857Y-227901961D01*
X420322857Y-227901961D02*
X420227619Y-227997200D01*
X420227619Y-227997200D02*
X420084762Y-228044819D01*
X420084762Y-228044819D02*
X419989524Y-228044819D01*
X420799048Y-227140057D02*
X420846667Y-227092438D01*
X420846667Y-227092438D02*
X420941905Y-227044819D01*
X420941905Y-227044819D02*
X421180000Y-227044819D01*
X421180000Y-227044819D02*
X421275238Y-227092438D01*
X421275238Y-227092438D02*
X421322857Y-227140057D01*
X421322857Y-227140057D02*
X421370476Y-227235295D01*
X421370476Y-227235295D02*
X421370476Y-227330533D01*
X421370476Y-227330533D02*
X421322857Y-227473390D01*
X421322857Y-227473390D02*
X420751429Y-228044819D01*
X420751429Y-228044819D02*
X421370476Y-228044819D01*
X422227619Y-227044819D02*
X422037143Y-227044819D01*
X422037143Y-227044819D02*
X421941905Y-227092438D01*
X421941905Y-227092438D02*
X421894286Y-227140057D01*
X421894286Y-227140057D02*
X421799048Y-227282914D01*
X421799048Y-227282914D02*
X421751429Y-227473390D01*
X421751429Y-227473390D02*
X421751429Y-227854342D01*
X421751429Y-227854342D02*
X421799048Y-227949580D01*
X421799048Y-227949580D02*
X421846667Y-227997200D01*
X421846667Y-227997200D02*
X421941905Y-228044819D01*
X421941905Y-228044819D02*
X422132381Y-228044819D01*
X422132381Y-228044819D02*
X422227619Y-227997200D01*
X422227619Y-227997200D02*
X422275238Y-227949580D01*
X422275238Y-227949580D02*
X422322857Y-227854342D01*
X422322857Y-227854342D02*
X422322857Y-227616247D01*
X422322857Y-227616247D02*
X422275238Y-227521009D01*
X422275238Y-227521009D02*
X422227619Y-227473390D01*
X422227619Y-227473390D02*
X422132381Y-227425771D01*
X422132381Y-227425771D02*
X421941905Y-227425771D01*
X421941905Y-227425771D02*
X421846667Y-227473390D01*
X421846667Y-227473390D02*
X421799048Y-227521009D01*
X421799048Y-227521009D02*
X421751429Y-227616247D01*
X320190476Y-227044819D02*
X320190476Y-227759104D01*
X320190476Y-227759104D02*
X320142857Y-227901961D01*
X320142857Y-227901961D02*
X320047619Y-227997200D01*
X320047619Y-227997200D02*
X319904762Y-228044819D01*
X319904762Y-228044819D02*
X319809524Y-228044819D01*
X321190476Y-228044819D02*
X320619048Y-228044819D01*
X320904762Y-228044819D02*
X320904762Y-227044819D01*
X320904762Y-227044819D02*
X320809524Y-227187676D01*
X320809524Y-227187676D02*
X320714286Y-227282914D01*
X320714286Y-227282914D02*
X320619048Y-227330533D01*
X322047619Y-227044819D02*
X321857143Y-227044819D01*
X321857143Y-227044819D02*
X321761905Y-227092438D01*
X321761905Y-227092438D02*
X321714286Y-227140057D01*
X321714286Y-227140057D02*
X321619048Y-227282914D01*
X321619048Y-227282914D02*
X321571429Y-227473390D01*
X321571429Y-227473390D02*
X321571429Y-227854342D01*
X321571429Y-227854342D02*
X321619048Y-227949580D01*
X321619048Y-227949580D02*
X321666667Y-227997200D01*
X321666667Y-227997200D02*
X321761905Y-228044819D01*
X321761905Y-228044819D02*
X321952381Y-228044819D01*
X321952381Y-228044819D02*
X322047619Y-227997200D01*
X322047619Y-227997200D02*
X322095238Y-227949580D01*
X322095238Y-227949580D02*
X322142857Y-227854342D01*
X322142857Y-227854342D02*
X322142857Y-227616247D01*
X322142857Y-227616247D02*
X322095238Y-227521009D01*
X322095238Y-227521009D02*
X322047619Y-227473390D01*
X322047619Y-227473390D02*
X321952381Y-227425771D01*
X321952381Y-227425771D02*
X321761905Y-227425771D01*
X321761905Y-227425771D02*
X321666667Y-227473390D01*
X321666667Y-227473390D02*
X321619048Y-227521009D01*
X321619048Y-227521009D02*
X321571429Y-227616247D01*
X371986009Y-208507142D02*
X372033628Y-208364285D01*
X372033628Y-208364285D02*
X372081247Y-208316666D01*
X372081247Y-208316666D02*
X372176485Y-208269047D01*
X372176485Y-208269047D02*
X372319342Y-208269047D01*
X372319342Y-208269047D02*
X372414580Y-208316666D01*
X372414580Y-208316666D02*
X372462200Y-208364285D01*
X372462200Y-208364285D02*
X372509819Y-208459523D01*
X372509819Y-208459523D02*
X372509819Y-208840475D01*
X372509819Y-208840475D02*
X371509819Y-208840475D01*
X371509819Y-208840475D02*
X371509819Y-208507142D01*
X371509819Y-208507142D02*
X371557438Y-208411904D01*
X371557438Y-208411904D02*
X371605057Y-208364285D01*
X371605057Y-208364285D02*
X371700295Y-208316666D01*
X371700295Y-208316666D02*
X371795533Y-208316666D01*
X371795533Y-208316666D02*
X371890771Y-208364285D01*
X371890771Y-208364285D02*
X371938390Y-208411904D01*
X371938390Y-208411904D02*
X371986009Y-208507142D01*
X371986009Y-208507142D02*
X371986009Y-208840475D01*
X372462200Y-207888094D02*
X372509819Y-207745237D01*
X372509819Y-207745237D02*
X372509819Y-207507142D01*
X372509819Y-207507142D02*
X372462200Y-207411904D01*
X372462200Y-207411904D02*
X372414580Y-207364285D01*
X372414580Y-207364285D02*
X372319342Y-207316666D01*
X372319342Y-207316666D02*
X372224104Y-207316666D01*
X372224104Y-207316666D02*
X372128866Y-207364285D01*
X372128866Y-207364285D02*
X372081247Y-207411904D01*
X372081247Y-207411904D02*
X372033628Y-207507142D01*
X372033628Y-207507142D02*
X371986009Y-207697618D01*
X371986009Y-207697618D02*
X371938390Y-207792856D01*
X371938390Y-207792856D02*
X371890771Y-207840475D01*
X371890771Y-207840475D02*
X371795533Y-207888094D01*
X371795533Y-207888094D02*
X371700295Y-207888094D01*
X371700295Y-207888094D02*
X371605057Y-207840475D01*
X371605057Y-207840475D02*
X371557438Y-207792856D01*
X371557438Y-207792856D02*
X371509819Y-207697618D01*
X371509819Y-207697618D02*
X371509819Y-207459523D01*
X371509819Y-207459523D02*
X371557438Y-207316666D01*
X372509819Y-206364285D02*
X372509819Y-206935713D01*
X372509819Y-206649999D02*
X371509819Y-206649999D01*
X371509819Y-206649999D02*
X371652676Y-206745237D01*
X371652676Y-206745237D02*
X371747914Y-206840475D01*
X371747914Y-206840475D02*
X371795533Y-206935713D01*
X371509819Y-205507142D02*
X371509819Y-205697618D01*
X371509819Y-205697618D02*
X371557438Y-205792856D01*
X371557438Y-205792856D02*
X371605057Y-205840475D01*
X371605057Y-205840475D02*
X371747914Y-205935713D01*
X371747914Y-205935713D02*
X371938390Y-205983332D01*
X371938390Y-205983332D02*
X372319342Y-205983332D01*
X372319342Y-205983332D02*
X372414580Y-205935713D01*
X372414580Y-205935713D02*
X372462200Y-205888094D01*
X372462200Y-205888094D02*
X372509819Y-205792856D01*
X372509819Y-205792856D02*
X372509819Y-205602380D01*
X372509819Y-205602380D02*
X372462200Y-205507142D01*
X372462200Y-205507142D02*
X372414580Y-205459523D01*
X372414580Y-205459523D02*
X372319342Y-205411904D01*
X372319342Y-205411904D02*
X372081247Y-205411904D01*
X372081247Y-205411904D02*
X371986009Y-205459523D01*
X371986009Y-205459523D02*
X371938390Y-205507142D01*
X371938390Y-205507142D02*
X371890771Y-205602380D01*
X371890771Y-205602380D02*
X371890771Y-205792856D01*
X371890771Y-205792856D02*
X371938390Y-205888094D01*
X371938390Y-205888094D02*
X371986009Y-205935713D01*
X371986009Y-205935713D02*
X372081247Y-205983332D01*
X330190476Y-227044819D02*
X330190476Y-227759104D01*
X330190476Y-227759104D02*
X330142857Y-227901961D01*
X330142857Y-227901961D02*
X330047619Y-227997200D01*
X330047619Y-227997200D02*
X329904762Y-228044819D01*
X329904762Y-228044819D02*
X329809524Y-228044819D01*
X331190476Y-228044819D02*
X330619048Y-228044819D01*
X330904762Y-228044819D02*
X330904762Y-227044819D01*
X330904762Y-227044819D02*
X330809524Y-227187676D01*
X330809524Y-227187676D02*
X330714286Y-227282914D01*
X330714286Y-227282914D02*
X330619048Y-227330533D01*
X331523810Y-227044819D02*
X332190476Y-227044819D01*
X332190476Y-227044819D02*
X331761905Y-228044819D01*
X78128095Y-202464819D02*
X78128095Y-201464819D01*
X78128095Y-201941009D02*
X78699523Y-201941009D01*
X78699523Y-202464819D02*
X78699523Y-201464819D01*
X79699523Y-202464819D02*
X79128095Y-202464819D01*
X79413809Y-202464819D02*
X79413809Y-201464819D01*
X79413809Y-201464819D02*
X79318571Y-201607676D01*
X79318571Y-201607676D02*
X79223333Y-201702914D01*
X79223333Y-201702914D02*
X79128095Y-201750533D01*
X400190476Y-227044819D02*
X400190476Y-227759104D01*
X400190476Y-227759104D02*
X400142857Y-227901961D01*
X400142857Y-227901961D02*
X400047619Y-227997200D01*
X400047619Y-227997200D02*
X399904762Y-228044819D01*
X399904762Y-228044819D02*
X399809524Y-228044819D01*
X400619048Y-227140057D02*
X400666667Y-227092438D01*
X400666667Y-227092438D02*
X400761905Y-227044819D01*
X400761905Y-227044819D02*
X401000000Y-227044819D01*
X401000000Y-227044819D02*
X401095238Y-227092438D01*
X401095238Y-227092438D02*
X401142857Y-227140057D01*
X401142857Y-227140057D02*
X401190476Y-227235295D01*
X401190476Y-227235295D02*
X401190476Y-227330533D01*
X401190476Y-227330533D02*
X401142857Y-227473390D01*
X401142857Y-227473390D02*
X400571429Y-228044819D01*
X400571429Y-228044819D02*
X401190476Y-228044819D01*
X402047619Y-227378152D02*
X402047619Y-228044819D01*
X401809524Y-226997200D02*
X401571429Y-227711485D01*
X401571429Y-227711485D02*
X402190476Y-227711485D01*
X225706009Y-207830952D02*
X225753628Y-207688095D01*
X225753628Y-207688095D02*
X225801247Y-207640476D01*
X225801247Y-207640476D02*
X225896485Y-207592857D01*
X225896485Y-207592857D02*
X226039342Y-207592857D01*
X226039342Y-207592857D02*
X226134580Y-207640476D01*
X226134580Y-207640476D02*
X226182200Y-207688095D01*
X226182200Y-207688095D02*
X226229819Y-207783333D01*
X226229819Y-207783333D02*
X226229819Y-208164285D01*
X226229819Y-208164285D02*
X225229819Y-208164285D01*
X225229819Y-208164285D02*
X225229819Y-207830952D01*
X225229819Y-207830952D02*
X225277438Y-207735714D01*
X225277438Y-207735714D02*
X225325057Y-207688095D01*
X225325057Y-207688095D02*
X225420295Y-207640476D01*
X225420295Y-207640476D02*
X225515533Y-207640476D01*
X225515533Y-207640476D02*
X225610771Y-207688095D01*
X225610771Y-207688095D02*
X225658390Y-207735714D01*
X225658390Y-207735714D02*
X225706009Y-207830952D01*
X225706009Y-207830952D02*
X225706009Y-208164285D01*
X226182200Y-207211904D02*
X226229819Y-207069047D01*
X226229819Y-207069047D02*
X226229819Y-206830952D01*
X226229819Y-206830952D02*
X226182200Y-206735714D01*
X226182200Y-206735714D02*
X226134580Y-206688095D01*
X226134580Y-206688095D02*
X226039342Y-206640476D01*
X226039342Y-206640476D02*
X225944104Y-206640476D01*
X225944104Y-206640476D02*
X225848866Y-206688095D01*
X225848866Y-206688095D02*
X225801247Y-206735714D01*
X225801247Y-206735714D02*
X225753628Y-206830952D01*
X225753628Y-206830952D02*
X225706009Y-207021428D01*
X225706009Y-207021428D02*
X225658390Y-207116666D01*
X225658390Y-207116666D02*
X225610771Y-207164285D01*
X225610771Y-207164285D02*
X225515533Y-207211904D01*
X225515533Y-207211904D02*
X225420295Y-207211904D01*
X225420295Y-207211904D02*
X225325057Y-207164285D01*
X225325057Y-207164285D02*
X225277438Y-207116666D01*
X225277438Y-207116666D02*
X225229819Y-207021428D01*
X225229819Y-207021428D02*
X225229819Y-206783333D01*
X225229819Y-206783333D02*
X225277438Y-206640476D01*
X226229819Y-205688095D02*
X226229819Y-206259523D01*
X226229819Y-205973809D02*
X225229819Y-205973809D01*
X225229819Y-205973809D02*
X225372676Y-206069047D01*
X225372676Y-206069047D02*
X225467914Y-206164285D01*
X225467914Y-206164285D02*
X225515533Y-206259523D01*
X265706009Y-207830952D02*
X265753628Y-207688095D01*
X265753628Y-207688095D02*
X265801247Y-207640476D01*
X265801247Y-207640476D02*
X265896485Y-207592857D01*
X265896485Y-207592857D02*
X266039342Y-207592857D01*
X266039342Y-207592857D02*
X266134580Y-207640476D01*
X266134580Y-207640476D02*
X266182200Y-207688095D01*
X266182200Y-207688095D02*
X266229819Y-207783333D01*
X266229819Y-207783333D02*
X266229819Y-208164285D01*
X266229819Y-208164285D02*
X265229819Y-208164285D01*
X265229819Y-208164285D02*
X265229819Y-207830952D01*
X265229819Y-207830952D02*
X265277438Y-207735714D01*
X265277438Y-207735714D02*
X265325057Y-207688095D01*
X265325057Y-207688095D02*
X265420295Y-207640476D01*
X265420295Y-207640476D02*
X265515533Y-207640476D01*
X265515533Y-207640476D02*
X265610771Y-207688095D01*
X265610771Y-207688095D02*
X265658390Y-207735714D01*
X265658390Y-207735714D02*
X265706009Y-207830952D01*
X265706009Y-207830952D02*
X265706009Y-208164285D01*
X266182200Y-207211904D02*
X266229819Y-207069047D01*
X266229819Y-207069047D02*
X266229819Y-206830952D01*
X266229819Y-206830952D02*
X266182200Y-206735714D01*
X266182200Y-206735714D02*
X266134580Y-206688095D01*
X266134580Y-206688095D02*
X266039342Y-206640476D01*
X266039342Y-206640476D02*
X265944104Y-206640476D01*
X265944104Y-206640476D02*
X265848866Y-206688095D01*
X265848866Y-206688095D02*
X265801247Y-206735714D01*
X265801247Y-206735714D02*
X265753628Y-206830952D01*
X265753628Y-206830952D02*
X265706009Y-207021428D01*
X265706009Y-207021428D02*
X265658390Y-207116666D01*
X265658390Y-207116666D02*
X265610771Y-207164285D01*
X265610771Y-207164285D02*
X265515533Y-207211904D01*
X265515533Y-207211904D02*
X265420295Y-207211904D01*
X265420295Y-207211904D02*
X265325057Y-207164285D01*
X265325057Y-207164285D02*
X265277438Y-207116666D01*
X265277438Y-207116666D02*
X265229819Y-207021428D01*
X265229819Y-207021428D02*
X265229819Y-206783333D01*
X265229819Y-206783333D02*
X265277438Y-206640476D01*
X265229819Y-205735714D02*
X265229819Y-206211904D01*
X265229819Y-206211904D02*
X265706009Y-206259523D01*
X265706009Y-206259523D02*
X265658390Y-206211904D01*
X265658390Y-206211904D02*
X265610771Y-206116666D01*
X265610771Y-206116666D02*
X265610771Y-205878571D01*
X265610771Y-205878571D02*
X265658390Y-205783333D01*
X265658390Y-205783333D02*
X265706009Y-205735714D01*
X265706009Y-205735714D02*
X265801247Y-205688095D01*
X265801247Y-205688095D02*
X266039342Y-205688095D01*
X266039342Y-205688095D02*
X266134580Y-205735714D01*
X266134580Y-205735714D02*
X266182200Y-205783333D01*
X266182200Y-205783333D02*
X266229819Y-205878571D01*
X266229819Y-205878571D02*
X266229819Y-206116666D01*
X266229819Y-206116666D02*
X266182200Y-206211904D01*
X266182200Y-206211904D02*
X266134580Y-206259523D01*
X198936666Y-214464819D02*
X198936666Y-215179104D01*
X198936666Y-215179104D02*
X198889047Y-215321961D01*
X198889047Y-215321961D02*
X198793809Y-215417200D01*
X198793809Y-215417200D02*
X198650952Y-215464819D01*
X198650952Y-215464819D02*
X198555714Y-215464819D01*
X199889047Y-214464819D02*
X199412857Y-214464819D01*
X199412857Y-214464819D02*
X199365238Y-214941009D01*
X199365238Y-214941009D02*
X199412857Y-214893390D01*
X199412857Y-214893390D02*
X199508095Y-214845771D01*
X199508095Y-214845771D02*
X199746190Y-214845771D01*
X199746190Y-214845771D02*
X199841428Y-214893390D01*
X199841428Y-214893390D02*
X199889047Y-214941009D01*
X199889047Y-214941009D02*
X199936666Y-215036247D01*
X199936666Y-215036247D02*
X199936666Y-215274342D01*
X199936666Y-215274342D02*
X199889047Y-215369580D01*
X199889047Y-215369580D02*
X199841428Y-215417200D01*
X199841428Y-215417200D02*
X199746190Y-215464819D01*
X199746190Y-215464819D02*
X199508095Y-215464819D01*
X199508095Y-215464819D02*
X199412857Y-215417200D01*
X199412857Y-215417200D02*
X199365238Y-215369580D01*
X285706009Y-207830952D02*
X285753628Y-207688095D01*
X285753628Y-207688095D02*
X285801247Y-207640476D01*
X285801247Y-207640476D02*
X285896485Y-207592857D01*
X285896485Y-207592857D02*
X286039342Y-207592857D01*
X286039342Y-207592857D02*
X286134580Y-207640476D01*
X286134580Y-207640476D02*
X286182200Y-207688095D01*
X286182200Y-207688095D02*
X286229819Y-207783333D01*
X286229819Y-207783333D02*
X286229819Y-208164285D01*
X286229819Y-208164285D02*
X285229819Y-208164285D01*
X285229819Y-208164285D02*
X285229819Y-207830952D01*
X285229819Y-207830952D02*
X285277438Y-207735714D01*
X285277438Y-207735714D02*
X285325057Y-207688095D01*
X285325057Y-207688095D02*
X285420295Y-207640476D01*
X285420295Y-207640476D02*
X285515533Y-207640476D01*
X285515533Y-207640476D02*
X285610771Y-207688095D01*
X285610771Y-207688095D02*
X285658390Y-207735714D01*
X285658390Y-207735714D02*
X285706009Y-207830952D01*
X285706009Y-207830952D02*
X285706009Y-208164285D01*
X286182200Y-207211904D02*
X286229819Y-207069047D01*
X286229819Y-207069047D02*
X286229819Y-206830952D01*
X286229819Y-206830952D02*
X286182200Y-206735714D01*
X286182200Y-206735714D02*
X286134580Y-206688095D01*
X286134580Y-206688095D02*
X286039342Y-206640476D01*
X286039342Y-206640476D02*
X285944104Y-206640476D01*
X285944104Y-206640476D02*
X285848866Y-206688095D01*
X285848866Y-206688095D02*
X285801247Y-206735714D01*
X285801247Y-206735714D02*
X285753628Y-206830952D01*
X285753628Y-206830952D02*
X285706009Y-207021428D01*
X285706009Y-207021428D02*
X285658390Y-207116666D01*
X285658390Y-207116666D02*
X285610771Y-207164285D01*
X285610771Y-207164285D02*
X285515533Y-207211904D01*
X285515533Y-207211904D02*
X285420295Y-207211904D01*
X285420295Y-207211904D02*
X285325057Y-207164285D01*
X285325057Y-207164285D02*
X285277438Y-207116666D01*
X285277438Y-207116666D02*
X285229819Y-207021428D01*
X285229819Y-207021428D02*
X285229819Y-206783333D01*
X285229819Y-206783333D02*
X285277438Y-206640476D01*
X285229819Y-206307142D02*
X285229819Y-205640476D01*
X285229819Y-205640476D02*
X286229819Y-206069047D01*
X410190476Y-227044819D02*
X410190476Y-227759104D01*
X410190476Y-227759104D02*
X410142857Y-227901961D01*
X410142857Y-227901961D02*
X410047619Y-227997200D01*
X410047619Y-227997200D02*
X409904762Y-228044819D01*
X409904762Y-228044819D02*
X409809524Y-228044819D01*
X410619048Y-227140057D02*
X410666667Y-227092438D01*
X410666667Y-227092438D02*
X410761905Y-227044819D01*
X410761905Y-227044819D02*
X411000000Y-227044819D01*
X411000000Y-227044819D02*
X411095238Y-227092438D01*
X411095238Y-227092438D02*
X411142857Y-227140057D01*
X411142857Y-227140057D02*
X411190476Y-227235295D01*
X411190476Y-227235295D02*
X411190476Y-227330533D01*
X411190476Y-227330533D02*
X411142857Y-227473390D01*
X411142857Y-227473390D02*
X410571429Y-228044819D01*
X410571429Y-228044819D02*
X411190476Y-228044819D01*
X412095238Y-227044819D02*
X411619048Y-227044819D01*
X411619048Y-227044819D02*
X411571429Y-227521009D01*
X411571429Y-227521009D02*
X411619048Y-227473390D01*
X411619048Y-227473390D02*
X411714286Y-227425771D01*
X411714286Y-227425771D02*
X411952381Y-227425771D01*
X411952381Y-227425771D02*
X412047619Y-227473390D01*
X412047619Y-227473390D02*
X412095238Y-227521009D01*
X412095238Y-227521009D02*
X412142857Y-227616247D01*
X412142857Y-227616247D02*
X412142857Y-227854342D01*
X412142857Y-227854342D02*
X412095238Y-227949580D01*
X412095238Y-227949580D02*
X412047619Y-227997200D01*
X412047619Y-227997200D02*
X411952381Y-228044819D01*
X411952381Y-228044819D02*
X411714286Y-228044819D01*
X411714286Y-228044819D02*
X411619048Y-227997200D01*
X411619048Y-227997200D02*
X411571429Y-227949580D01*
X409506009Y-208507142D02*
X409553628Y-208364285D01*
X409553628Y-208364285D02*
X409601247Y-208316666D01*
X409601247Y-208316666D02*
X409696485Y-208269047D01*
X409696485Y-208269047D02*
X409839342Y-208269047D01*
X409839342Y-208269047D02*
X409934580Y-208316666D01*
X409934580Y-208316666D02*
X409982200Y-208364285D01*
X409982200Y-208364285D02*
X410029819Y-208459523D01*
X410029819Y-208459523D02*
X410029819Y-208840475D01*
X410029819Y-208840475D02*
X409029819Y-208840475D01*
X409029819Y-208840475D02*
X409029819Y-208507142D01*
X409029819Y-208507142D02*
X409077438Y-208411904D01*
X409077438Y-208411904D02*
X409125057Y-208364285D01*
X409125057Y-208364285D02*
X409220295Y-208316666D01*
X409220295Y-208316666D02*
X409315533Y-208316666D01*
X409315533Y-208316666D02*
X409410771Y-208364285D01*
X409410771Y-208364285D02*
X409458390Y-208411904D01*
X409458390Y-208411904D02*
X409506009Y-208507142D01*
X409506009Y-208507142D02*
X409506009Y-208840475D01*
X409982200Y-207888094D02*
X410029819Y-207745237D01*
X410029819Y-207745237D02*
X410029819Y-207507142D01*
X410029819Y-207507142D02*
X409982200Y-207411904D01*
X409982200Y-207411904D02*
X409934580Y-207364285D01*
X409934580Y-207364285D02*
X409839342Y-207316666D01*
X409839342Y-207316666D02*
X409744104Y-207316666D01*
X409744104Y-207316666D02*
X409648866Y-207364285D01*
X409648866Y-207364285D02*
X409601247Y-207411904D01*
X409601247Y-207411904D02*
X409553628Y-207507142D01*
X409553628Y-207507142D02*
X409506009Y-207697618D01*
X409506009Y-207697618D02*
X409458390Y-207792856D01*
X409458390Y-207792856D02*
X409410771Y-207840475D01*
X409410771Y-207840475D02*
X409315533Y-207888094D01*
X409315533Y-207888094D02*
X409220295Y-207888094D01*
X409220295Y-207888094D02*
X409125057Y-207840475D01*
X409125057Y-207840475D02*
X409077438Y-207792856D01*
X409077438Y-207792856D02*
X409029819Y-207697618D01*
X409029819Y-207697618D02*
X409029819Y-207459523D01*
X409029819Y-207459523D02*
X409077438Y-207316666D01*
X409125057Y-206935713D02*
X409077438Y-206888094D01*
X409077438Y-206888094D02*
X409029819Y-206792856D01*
X409029819Y-206792856D02*
X409029819Y-206554761D01*
X409029819Y-206554761D02*
X409077438Y-206459523D01*
X409077438Y-206459523D02*
X409125057Y-206411904D01*
X409125057Y-206411904D02*
X409220295Y-206364285D01*
X409220295Y-206364285D02*
X409315533Y-206364285D01*
X409315533Y-206364285D02*
X409458390Y-206411904D01*
X409458390Y-206411904D02*
X410029819Y-206983332D01*
X410029819Y-206983332D02*
X410029819Y-206364285D01*
X409029819Y-205745237D02*
X409029819Y-205649999D01*
X409029819Y-205649999D02*
X409077438Y-205554761D01*
X409077438Y-205554761D02*
X409125057Y-205507142D01*
X409125057Y-205507142D02*
X409220295Y-205459523D01*
X409220295Y-205459523D02*
X409410771Y-205411904D01*
X409410771Y-205411904D02*
X409648866Y-205411904D01*
X409648866Y-205411904D02*
X409839342Y-205459523D01*
X409839342Y-205459523D02*
X409934580Y-205507142D01*
X409934580Y-205507142D02*
X409982200Y-205554761D01*
X409982200Y-205554761D02*
X410029819Y-205649999D01*
X410029819Y-205649999D02*
X410029819Y-205745237D01*
X410029819Y-205745237D02*
X409982200Y-205840475D01*
X409982200Y-205840475D02*
X409934580Y-205888094D01*
X409934580Y-205888094D02*
X409839342Y-205935713D01*
X409839342Y-205935713D02*
X409648866Y-205983332D01*
X409648866Y-205983332D02*
X409410771Y-205983332D01*
X409410771Y-205983332D02*
X409220295Y-205935713D01*
X409220295Y-205935713D02*
X409125057Y-205888094D01*
X409125057Y-205888094D02*
X409077438Y-205840475D01*
X409077438Y-205840475D02*
X409029819Y-205745237D01*
X270190476Y-227044819D02*
X270190476Y-227759104D01*
X270190476Y-227759104D02*
X270142857Y-227901961D01*
X270142857Y-227901961D02*
X270047619Y-227997200D01*
X270047619Y-227997200D02*
X269904762Y-228044819D01*
X269904762Y-228044819D02*
X269809524Y-228044819D01*
X271190476Y-228044819D02*
X270619048Y-228044819D01*
X270904762Y-228044819D02*
X270904762Y-227044819D01*
X270904762Y-227044819D02*
X270809524Y-227187676D01*
X270809524Y-227187676D02*
X270714286Y-227282914D01*
X270714286Y-227282914D02*
X270619048Y-227330533D01*
X272142857Y-228044819D02*
X271571429Y-228044819D01*
X271857143Y-228044819D02*
X271857143Y-227044819D01*
X271857143Y-227044819D02*
X271761905Y-227187676D01*
X271761905Y-227187676D02*
X271666667Y-227282914D01*
X271666667Y-227282914D02*
X271571429Y-227330533D01*
X245706009Y-207830952D02*
X245753628Y-207688095D01*
X245753628Y-207688095D02*
X245801247Y-207640476D01*
X245801247Y-207640476D02*
X245896485Y-207592857D01*
X245896485Y-207592857D02*
X246039342Y-207592857D01*
X246039342Y-207592857D02*
X246134580Y-207640476D01*
X246134580Y-207640476D02*
X246182200Y-207688095D01*
X246182200Y-207688095D02*
X246229819Y-207783333D01*
X246229819Y-207783333D02*
X246229819Y-208164285D01*
X246229819Y-208164285D02*
X245229819Y-208164285D01*
X245229819Y-208164285D02*
X245229819Y-207830952D01*
X245229819Y-207830952D02*
X245277438Y-207735714D01*
X245277438Y-207735714D02*
X245325057Y-207688095D01*
X245325057Y-207688095D02*
X245420295Y-207640476D01*
X245420295Y-207640476D02*
X245515533Y-207640476D01*
X245515533Y-207640476D02*
X245610771Y-207688095D01*
X245610771Y-207688095D02*
X245658390Y-207735714D01*
X245658390Y-207735714D02*
X245706009Y-207830952D01*
X245706009Y-207830952D02*
X245706009Y-208164285D01*
X246182200Y-207211904D02*
X246229819Y-207069047D01*
X246229819Y-207069047D02*
X246229819Y-206830952D01*
X246229819Y-206830952D02*
X246182200Y-206735714D01*
X246182200Y-206735714D02*
X246134580Y-206688095D01*
X246134580Y-206688095D02*
X246039342Y-206640476D01*
X246039342Y-206640476D02*
X245944104Y-206640476D01*
X245944104Y-206640476D02*
X245848866Y-206688095D01*
X245848866Y-206688095D02*
X245801247Y-206735714D01*
X245801247Y-206735714D02*
X245753628Y-206830952D01*
X245753628Y-206830952D02*
X245706009Y-207021428D01*
X245706009Y-207021428D02*
X245658390Y-207116666D01*
X245658390Y-207116666D02*
X245610771Y-207164285D01*
X245610771Y-207164285D02*
X245515533Y-207211904D01*
X245515533Y-207211904D02*
X245420295Y-207211904D01*
X245420295Y-207211904D02*
X245325057Y-207164285D01*
X245325057Y-207164285D02*
X245277438Y-207116666D01*
X245277438Y-207116666D02*
X245229819Y-207021428D01*
X245229819Y-207021428D02*
X245229819Y-206783333D01*
X245229819Y-206783333D02*
X245277438Y-206640476D01*
X245229819Y-206307142D02*
X245229819Y-205688095D01*
X245229819Y-205688095D02*
X245610771Y-206021428D01*
X245610771Y-206021428D02*
X245610771Y-205878571D01*
X245610771Y-205878571D02*
X245658390Y-205783333D01*
X245658390Y-205783333D02*
X245706009Y-205735714D01*
X245706009Y-205735714D02*
X245801247Y-205688095D01*
X245801247Y-205688095D02*
X246039342Y-205688095D01*
X246039342Y-205688095D02*
X246134580Y-205735714D01*
X246134580Y-205735714D02*
X246182200Y-205783333D01*
X246182200Y-205783333D02*
X246229819Y-205878571D01*
X246229819Y-205878571D02*
X246229819Y-206164285D01*
X246229819Y-206164285D02*
X246182200Y-206259523D01*
X246182200Y-206259523D02*
X246134580Y-206307142D01*
X250506666Y-227044819D02*
X250506666Y-227759104D01*
X250506666Y-227759104D02*
X250459047Y-227901961D01*
X250459047Y-227901961D02*
X250363809Y-227997200D01*
X250363809Y-227997200D02*
X250220952Y-228044819D01*
X250220952Y-228044819D02*
X250125714Y-228044819D01*
X251030476Y-228044819D02*
X251220952Y-228044819D01*
X251220952Y-228044819D02*
X251316190Y-227997200D01*
X251316190Y-227997200D02*
X251363809Y-227949580D01*
X251363809Y-227949580D02*
X251459047Y-227806723D01*
X251459047Y-227806723D02*
X251506666Y-227616247D01*
X251506666Y-227616247D02*
X251506666Y-227235295D01*
X251506666Y-227235295D02*
X251459047Y-227140057D01*
X251459047Y-227140057D02*
X251411428Y-227092438D01*
X251411428Y-227092438D02*
X251316190Y-227044819D01*
X251316190Y-227044819D02*
X251125714Y-227044819D01*
X251125714Y-227044819D02*
X251030476Y-227092438D01*
X251030476Y-227092438D02*
X250982857Y-227140057D01*
X250982857Y-227140057D02*
X250935238Y-227235295D01*
X250935238Y-227235295D02*
X250935238Y-227473390D01*
X250935238Y-227473390D02*
X250982857Y-227568628D01*
X250982857Y-227568628D02*
X251030476Y-227616247D01*
X251030476Y-227616247D02*
X251125714Y-227663866D01*
X251125714Y-227663866D02*
X251316190Y-227663866D01*
X251316190Y-227663866D02*
X251411428Y-227616247D01*
X251411428Y-227616247D02*
X251459047Y-227568628D01*
X251459047Y-227568628D02*
X251506666Y-227473390D01*
X280250476Y-227044819D02*
X280250476Y-227759104D01*
X280250476Y-227759104D02*
X280202857Y-227901961D01*
X280202857Y-227901961D02*
X280107619Y-227997200D01*
X280107619Y-227997200D02*
X279964762Y-228044819D01*
X279964762Y-228044819D02*
X279869524Y-228044819D01*
X281250476Y-228044819D02*
X280679048Y-228044819D01*
X280964762Y-228044819D02*
X280964762Y-227044819D01*
X280964762Y-227044819D02*
X280869524Y-227187676D01*
X280869524Y-227187676D02*
X280774286Y-227282914D01*
X280774286Y-227282914D02*
X280679048Y-227330533D01*
X281631429Y-227140057D02*
X281679048Y-227092438D01*
X281679048Y-227092438D02*
X281774286Y-227044819D01*
X281774286Y-227044819D02*
X282012381Y-227044819D01*
X282012381Y-227044819D02*
X282107619Y-227092438D01*
X282107619Y-227092438D02*
X282155238Y-227140057D01*
X282155238Y-227140057D02*
X282202857Y-227235295D01*
X282202857Y-227235295D02*
X282202857Y-227330533D01*
X282202857Y-227330533D02*
X282155238Y-227473390D01*
X282155238Y-227473390D02*
X281583810Y-228044819D01*
X281583810Y-228044819D02*
X282202857Y-228044819D01*
X334466009Y-208507142D02*
X334513628Y-208364285D01*
X334513628Y-208364285D02*
X334561247Y-208316666D01*
X334561247Y-208316666D02*
X334656485Y-208269047D01*
X334656485Y-208269047D02*
X334799342Y-208269047D01*
X334799342Y-208269047D02*
X334894580Y-208316666D01*
X334894580Y-208316666D02*
X334942200Y-208364285D01*
X334942200Y-208364285D02*
X334989819Y-208459523D01*
X334989819Y-208459523D02*
X334989819Y-208840475D01*
X334989819Y-208840475D02*
X333989819Y-208840475D01*
X333989819Y-208840475D02*
X333989819Y-208507142D01*
X333989819Y-208507142D02*
X334037438Y-208411904D01*
X334037438Y-208411904D02*
X334085057Y-208364285D01*
X334085057Y-208364285D02*
X334180295Y-208316666D01*
X334180295Y-208316666D02*
X334275533Y-208316666D01*
X334275533Y-208316666D02*
X334370771Y-208364285D01*
X334370771Y-208364285D02*
X334418390Y-208411904D01*
X334418390Y-208411904D02*
X334466009Y-208507142D01*
X334466009Y-208507142D02*
X334466009Y-208840475D01*
X334942200Y-207888094D02*
X334989819Y-207745237D01*
X334989819Y-207745237D02*
X334989819Y-207507142D01*
X334989819Y-207507142D02*
X334942200Y-207411904D01*
X334942200Y-207411904D02*
X334894580Y-207364285D01*
X334894580Y-207364285D02*
X334799342Y-207316666D01*
X334799342Y-207316666D02*
X334704104Y-207316666D01*
X334704104Y-207316666D02*
X334608866Y-207364285D01*
X334608866Y-207364285D02*
X334561247Y-207411904D01*
X334561247Y-207411904D02*
X334513628Y-207507142D01*
X334513628Y-207507142D02*
X334466009Y-207697618D01*
X334466009Y-207697618D02*
X334418390Y-207792856D01*
X334418390Y-207792856D02*
X334370771Y-207840475D01*
X334370771Y-207840475D02*
X334275533Y-207888094D01*
X334275533Y-207888094D02*
X334180295Y-207888094D01*
X334180295Y-207888094D02*
X334085057Y-207840475D01*
X334085057Y-207840475D02*
X334037438Y-207792856D01*
X334037438Y-207792856D02*
X333989819Y-207697618D01*
X333989819Y-207697618D02*
X333989819Y-207459523D01*
X333989819Y-207459523D02*
X334037438Y-207316666D01*
X334989819Y-206364285D02*
X334989819Y-206935713D01*
X334989819Y-206649999D02*
X333989819Y-206649999D01*
X333989819Y-206649999D02*
X334132676Y-206745237D01*
X334132676Y-206745237D02*
X334227914Y-206840475D01*
X334227914Y-206840475D02*
X334275533Y-206935713D01*
X334085057Y-205983332D02*
X334037438Y-205935713D01*
X334037438Y-205935713D02*
X333989819Y-205840475D01*
X333989819Y-205840475D02*
X333989819Y-205602380D01*
X333989819Y-205602380D02*
X334037438Y-205507142D01*
X334037438Y-205507142D02*
X334085057Y-205459523D01*
X334085057Y-205459523D02*
X334180295Y-205411904D01*
X334180295Y-205411904D02*
X334275533Y-205411904D01*
X334275533Y-205411904D02*
X334418390Y-205459523D01*
X334418390Y-205459523D02*
X334989819Y-206030951D01*
X334989819Y-206030951D02*
X334989819Y-205411904D01*
X161506666Y-227124819D02*
X161506666Y-227839104D01*
X161506666Y-227839104D02*
X161459047Y-227981961D01*
X161459047Y-227981961D02*
X161363809Y-228077200D01*
X161363809Y-228077200D02*
X161220952Y-228124819D01*
X161220952Y-228124819D02*
X161125714Y-228124819D01*
X162506666Y-228124819D02*
X161935238Y-228124819D01*
X162220952Y-228124819D02*
X162220952Y-227124819D01*
X162220952Y-227124819D02*
X162125714Y-227267676D01*
X162125714Y-227267676D02*
X162030476Y-227362914D01*
X162030476Y-227362914D02*
X161935238Y-227410533D01*
X295706009Y-207830952D02*
X295753628Y-207688095D01*
X295753628Y-207688095D02*
X295801247Y-207640476D01*
X295801247Y-207640476D02*
X295896485Y-207592857D01*
X295896485Y-207592857D02*
X296039342Y-207592857D01*
X296039342Y-207592857D02*
X296134580Y-207640476D01*
X296134580Y-207640476D02*
X296182200Y-207688095D01*
X296182200Y-207688095D02*
X296229819Y-207783333D01*
X296229819Y-207783333D02*
X296229819Y-208164285D01*
X296229819Y-208164285D02*
X295229819Y-208164285D01*
X295229819Y-208164285D02*
X295229819Y-207830952D01*
X295229819Y-207830952D02*
X295277438Y-207735714D01*
X295277438Y-207735714D02*
X295325057Y-207688095D01*
X295325057Y-207688095D02*
X295420295Y-207640476D01*
X295420295Y-207640476D02*
X295515533Y-207640476D01*
X295515533Y-207640476D02*
X295610771Y-207688095D01*
X295610771Y-207688095D02*
X295658390Y-207735714D01*
X295658390Y-207735714D02*
X295706009Y-207830952D01*
X295706009Y-207830952D02*
X295706009Y-208164285D01*
X296182200Y-207211904D02*
X296229819Y-207069047D01*
X296229819Y-207069047D02*
X296229819Y-206830952D01*
X296229819Y-206830952D02*
X296182200Y-206735714D01*
X296182200Y-206735714D02*
X296134580Y-206688095D01*
X296134580Y-206688095D02*
X296039342Y-206640476D01*
X296039342Y-206640476D02*
X295944104Y-206640476D01*
X295944104Y-206640476D02*
X295848866Y-206688095D01*
X295848866Y-206688095D02*
X295801247Y-206735714D01*
X295801247Y-206735714D02*
X295753628Y-206830952D01*
X295753628Y-206830952D02*
X295706009Y-207021428D01*
X295706009Y-207021428D02*
X295658390Y-207116666D01*
X295658390Y-207116666D02*
X295610771Y-207164285D01*
X295610771Y-207164285D02*
X295515533Y-207211904D01*
X295515533Y-207211904D02*
X295420295Y-207211904D01*
X295420295Y-207211904D02*
X295325057Y-207164285D01*
X295325057Y-207164285D02*
X295277438Y-207116666D01*
X295277438Y-207116666D02*
X295229819Y-207021428D01*
X295229819Y-207021428D02*
X295229819Y-206783333D01*
X295229819Y-206783333D02*
X295277438Y-206640476D01*
X295658390Y-206069047D02*
X295610771Y-206164285D01*
X295610771Y-206164285D02*
X295563152Y-206211904D01*
X295563152Y-206211904D02*
X295467914Y-206259523D01*
X295467914Y-206259523D02*
X295420295Y-206259523D01*
X295420295Y-206259523D02*
X295325057Y-206211904D01*
X295325057Y-206211904D02*
X295277438Y-206164285D01*
X295277438Y-206164285D02*
X295229819Y-206069047D01*
X295229819Y-206069047D02*
X295229819Y-205878571D01*
X295229819Y-205878571D02*
X295277438Y-205783333D01*
X295277438Y-205783333D02*
X295325057Y-205735714D01*
X295325057Y-205735714D02*
X295420295Y-205688095D01*
X295420295Y-205688095D02*
X295467914Y-205688095D01*
X295467914Y-205688095D02*
X295563152Y-205735714D01*
X295563152Y-205735714D02*
X295610771Y-205783333D01*
X295610771Y-205783333D02*
X295658390Y-205878571D01*
X295658390Y-205878571D02*
X295658390Y-206069047D01*
X295658390Y-206069047D02*
X295706009Y-206164285D01*
X295706009Y-206164285D02*
X295753628Y-206211904D01*
X295753628Y-206211904D02*
X295848866Y-206259523D01*
X295848866Y-206259523D02*
X296039342Y-206259523D01*
X296039342Y-206259523D02*
X296134580Y-206211904D01*
X296134580Y-206211904D02*
X296182200Y-206164285D01*
X296182200Y-206164285D02*
X296229819Y-206069047D01*
X296229819Y-206069047D02*
X296229819Y-205878571D01*
X296229819Y-205878571D02*
X296182200Y-205783333D01*
X296182200Y-205783333D02*
X296134580Y-205735714D01*
X296134580Y-205735714D02*
X296039342Y-205688095D01*
X296039342Y-205688095D02*
X295848866Y-205688095D01*
X295848866Y-205688095D02*
X295753628Y-205735714D01*
X295753628Y-205735714D02*
X295706009Y-205783333D01*
X295706009Y-205783333D02*
X295658390Y-205878571D01*
X185913333Y-230464819D02*
X185580000Y-229988628D01*
X185341905Y-230464819D02*
X185341905Y-229464819D01*
X185341905Y-229464819D02*
X185722857Y-229464819D01*
X185722857Y-229464819D02*
X185818095Y-229512438D01*
X185818095Y-229512438D02*
X185865714Y-229560057D01*
X185865714Y-229560057D02*
X185913333Y-229655295D01*
X185913333Y-229655295D02*
X185913333Y-229798152D01*
X185913333Y-229798152D02*
X185865714Y-229893390D01*
X185865714Y-229893390D02*
X185818095Y-229941009D01*
X185818095Y-229941009D02*
X185722857Y-229988628D01*
X185722857Y-229988628D02*
X185341905Y-229988628D01*
X186865714Y-230464819D02*
X186294286Y-230464819D01*
X186580000Y-230464819D02*
X186580000Y-229464819D01*
X186580000Y-229464819D02*
X186484762Y-229607676D01*
X186484762Y-229607676D02*
X186389524Y-229702914D01*
X186389524Y-229702914D02*
X186294286Y-229750533D01*
X340190476Y-227044819D02*
X340190476Y-227759104D01*
X340190476Y-227759104D02*
X340142857Y-227901961D01*
X340142857Y-227901961D02*
X340047619Y-227997200D01*
X340047619Y-227997200D02*
X339904762Y-228044819D01*
X339904762Y-228044819D02*
X339809524Y-228044819D01*
X341190476Y-228044819D02*
X340619048Y-228044819D01*
X340904762Y-228044819D02*
X340904762Y-227044819D01*
X340904762Y-227044819D02*
X340809524Y-227187676D01*
X340809524Y-227187676D02*
X340714286Y-227282914D01*
X340714286Y-227282914D02*
X340619048Y-227330533D01*
X341761905Y-227473390D02*
X341666667Y-227425771D01*
X341666667Y-227425771D02*
X341619048Y-227378152D01*
X341619048Y-227378152D02*
X341571429Y-227282914D01*
X341571429Y-227282914D02*
X341571429Y-227235295D01*
X341571429Y-227235295D02*
X341619048Y-227140057D01*
X341619048Y-227140057D02*
X341666667Y-227092438D01*
X341666667Y-227092438D02*
X341761905Y-227044819D01*
X341761905Y-227044819D02*
X341952381Y-227044819D01*
X341952381Y-227044819D02*
X342047619Y-227092438D01*
X342047619Y-227092438D02*
X342095238Y-227140057D01*
X342095238Y-227140057D02*
X342142857Y-227235295D01*
X342142857Y-227235295D02*
X342142857Y-227282914D01*
X342142857Y-227282914D02*
X342095238Y-227378152D01*
X342095238Y-227378152D02*
X342047619Y-227425771D01*
X342047619Y-227425771D02*
X341952381Y-227473390D01*
X341952381Y-227473390D02*
X341761905Y-227473390D01*
X341761905Y-227473390D02*
X341666667Y-227521009D01*
X341666667Y-227521009D02*
X341619048Y-227568628D01*
X341619048Y-227568628D02*
X341571429Y-227663866D01*
X341571429Y-227663866D02*
X341571429Y-227854342D01*
X341571429Y-227854342D02*
X341619048Y-227949580D01*
X341619048Y-227949580D02*
X341666667Y-227997200D01*
X341666667Y-227997200D02*
X341761905Y-228044819D01*
X341761905Y-228044819D02*
X341952381Y-228044819D01*
X341952381Y-228044819D02*
X342047619Y-227997200D01*
X342047619Y-227997200D02*
X342095238Y-227949580D01*
X342095238Y-227949580D02*
X342142857Y-227854342D01*
X342142857Y-227854342D02*
X342142857Y-227663866D01*
X342142857Y-227663866D02*
X342095238Y-227568628D01*
X342095238Y-227568628D02*
X342047619Y-227521009D01*
X342047619Y-227521009D02*
X341952381Y-227473390D01*
X275706009Y-207830952D02*
X275753628Y-207688095D01*
X275753628Y-207688095D02*
X275801247Y-207640476D01*
X275801247Y-207640476D02*
X275896485Y-207592857D01*
X275896485Y-207592857D02*
X276039342Y-207592857D01*
X276039342Y-207592857D02*
X276134580Y-207640476D01*
X276134580Y-207640476D02*
X276182200Y-207688095D01*
X276182200Y-207688095D02*
X276229819Y-207783333D01*
X276229819Y-207783333D02*
X276229819Y-208164285D01*
X276229819Y-208164285D02*
X275229819Y-208164285D01*
X275229819Y-208164285D02*
X275229819Y-207830952D01*
X275229819Y-207830952D02*
X275277438Y-207735714D01*
X275277438Y-207735714D02*
X275325057Y-207688095D01*
X275325057Y-207688095D02*
X275420295Y-207640476D01*
X275420295Y-207640476D02*
X275515533Y-207640476D01*
X275515533Y-207640476D02*
X275610771Y-207688095D01*
X275610771Y-207688095D02*
X275658390Y-207735714D01*
X275658390Y-207735714D02*
X275706009Y-207830952D01*
X275706009Y-207830952D02*
X275706009Y-208164285D01*
X276182200Y-207211904D02*
X276229819Y-207069047D01*
X276229819Y-207069047D02*
X276229819Y-206830952D01*
X276229819Y-206830952D02*
X276182200Y-206735714D01*
X276182200Y-206735714D02*
X276134580Y-206688095D01*
X276134580Y-206688095D02*
X276039342Y-206640476D01*
X276039342Y-206640476D02*
X275944104Y-206640476D01*
X275944104Y-206640476D02*
X275848866Y-206688095D01*
X275848866Y-206688095D02*
X275801247Y-206735714D01*
X275801247Y-206735714D02*
X275753628Y-206830952D01*
X275753628Y-206830952D02*
X275706009Y-207021428D01*
X275706009Y-207021428D02*
X275658390Y-207116666D01*
X275658390Y-207116666D02*
X275610771Y-207164285D01*
X275610771Y-207164285D02*
X275515533Y-207211904D01*
X275515533Y-207211904D02*
X275420295Y-207211904D01*
X275420295Y-207211904D02*
X275325057Y-207164285D01*
X275325057Y-207164285D02*
X275277438Y-207116666D01*
X275277438Y-207116666D02*
X275229819Y-207021428D01*
X275229819Y-207021428D02*
X275229819Y-206783333D01*
X275229819Y-206783333D02*
X275277438Y-206640476D01*
X275229819Y-205783333D02*
X275229819Y-205973809D01*
X275229819Y-205973809D02*
X275277438Y-206069047D01*
X275277438Y-206069047D02*
X275325057Y-206116666D01*
X275325057Y-206116666D02*
X275467914Y-206211904D01*
X275467914Y-206211904D02*
X275658390Y-206259523D01*
X275658390Y-206259523D02*
X276039342Y-206259523D01*
X276039342Y-206259523D02*
X276134580Y-206211904D01*
X276134580Y-206211904D02*
X276182200Y-206164285D01*
X276182200Y-206164285D02*
X276229819Y-206069047D01*
X276229819Y-206069047D02*
X276229819Y-205878571D01*
X276229819Y-205878571D02*
X276182200Y-205783333D01*
X276182200Y-205783333D02*
X276134580Y-205735714D01*
X276134580Y-205735714D02*
X276039342Y-205688095D01*
X276039342Y-205688095D02*
X275801247Y-205688095D01*
X275801247Y-205688095D02*
X275706009Y-205735714D01*
X275706009Y-205735714D02*
X275658390Y-205783333D01*
X275658390Y-205783333D02*
X275610771Y-205878571D01*
X275610771Y-205878571D02*
X275610771Y-206069047D01*
X275610771Y-206069047D02*
X275658390Y-206164285D01*
X275658390Y-206164285D02*
X275706009Y-206211904D01*
X275706009Y-206211904D02*
X275801247Y-206259523D01*
X305706009Y-207830952D02*
X305753628Y-207688095D01*
X305753628Y-207688095D02*
X305801247Y-207640476D01*
X305801247Y-207640476D02*
X305896485Y-207592857D01*
X305896485Y-207592857D02*
X306039342Y-207592857D01*
X306039342Y-207592857D02*
X306134580Y-207640476D01*
X306134580Y-207640476D02*
X306182200Y-207688095D01*
X306182200Y-207688095D02*
X306229819Y-207783333D01*
X306229819Y-207783333D02*
X306229819Y-208164285D01*
X306229819Y-208164285D02*
X305229819Y-208164285D01*
X305229819Y-208164285D02*
X305229819Y-207830952D01*
X305229819Y-207830952D02*
X305277438Y-207735714D01*
X305277438Y-207735714D02*
X305325057Y-207688095D01*
X305325057Y-207688095D02*
X305420295Y-207640476D01*
X305420295Y-207640476D02*
X305515533Y-207640476D01*
X305515533Y-207640476D02*
X305610771Y-207688095D01*
X305610771Y-207688095D02*
X305658390Y-207735714D01*
X305658390Y-207735714D02*
X305706009Y-207830952D01*
X305706009Y-207830952D02*
X305706009Y-208164285D01*
X306182200Y-207211904D02*
X306229819Y-207069047D01*
X306229819Y-207069047D02*
X306229819Y-206830952D01*
X306229819Y-206830952D02*
X306182200Y-206735714D01*
X306182200Y-206735714D02*
X306134580Y-206688095D01*
X306134580Y-206688095D02*
X306039342Y-206640476D01*
X306039342Y-206640476D02*
X305944104Y-206640476D01*
X305944104Y-206640476D02*
X305848866Y-206688095D01*
X305848866Y-206688095D02*
X305801247Y-206735714D01*
X305801247Y-206735714D02*
X305753628Y-206830952D01*
X305753628Y-206830952D02*
X305706009Y-207021428D01*
X305706009Y-207021428D02*
X305658390Y-207116666D01*
X305658390Y-207116666D02*
X305610771Y-207164285D01*
X305610771Y-207164285D02*
X305515533Y-207211904D01*
X305515533Y-207211904D02*
X305420295Y-207211904D01*
X305420295Y-207211904D02*
X305325057Y-207164285D01*
X305325057Y-207164285D02*
X305277438Y-207116666D01*
X305277438Y-207116666D02*
X305229819Y-207021428D01*
X305229819Y-207021428D02*
X305229819Y-206783333D01*
X305229819Y-206783333D02*
X305277438Y-206640476D01*
X306229819Y-206164285D02*
X306229819Y-205973809D01*
X306229819Y-205973809D02*
X306182200Y-205878571D01*
X306182200Y-205878571D02*
X306134580Y-205830952D01*
X306134580Y-205830952D02*
X305991723Y-205735714D01*
X305991723Y-205735714D02*
X305801247Y-205688095D01*
X305801247Y-205688095D02*
X305420295Y-205688095D01*
X305420295Y-205688095D02*
X305325057Y-205735714D01*
X305325057Y-205735714D02*
X305277438Y-205783333D01*
X305277438Y-205783333D02*
X305229819Y-205878571D01*
X305229819Y-205878571D02*
X305229819Y-206069047D01*
X305229819Y-206069047D02*
X305277438Y-206164285D01*
X305277438Y-206164285D02*
X305325057Y-206211904D01*
X305325057Y-206211904D02*
X305420295Y-206259523D01*
X305420295Y-206259523D02*
X305658390Y-206259523D01*
X305658390Y-206259523D02*
X305753628Y-206211904D01*
X305753628Y-206211904D02*
X305801247Y-206164285D01*
X305801247Y-206164285D02*
X305848866Y-206069047D01*
X305848866Y-206069047D02*
X305848866Y-205878571D01*
X305848866Y-205878571D02*
X305801247Y-205783333D01*
X305801247Y-205783333D02*
X305753628Y-205735714D01*
X305753628Y-205735714D02*
X305658390Y-205688095D01*
X199566666Y-223144819D02*
X199566666Y-223859104D01*
X199566666Y-223859104D02*
X199519047Y-224001961D01*
X199519047Y-224001961D02*
X199423809Y-224097200D01*
X199423809Y-224097200D02*
X199280952Y-224144819D01*
X199280952Y-224144819D02*
X199185714Y-224144819D01*
X200471428Y-223144819D02*
X200280952Y-223144819D01*
X200280952Y-223144819D02*
X200185714Y-223192438D01*
X200185714Y-223192438D02*
X200138095Y-223240057D01*
X200138095Y-223240057D02*
X200042857Y-223382914D01*
X200042857Y-223382914D02*
X199995238Y-223573390D01*
X199995238Y-223573390D02*
X199995238Y-223954342D01*
X199995238Y-223954342D02*
X200042857Y-224049580D01*
X200042857Y-224049580D02*
X200090476Y-224097200D01*
X200090476Y-224097200D02*
X200185714Y-224144819D01*
X200185714Y-224144819D02*
X200376190Y-224144819D01*
X200376190Y-224144819D02*
X200471428Y-224097200D01*
X200471428Y-224097200D02*
X200519047Y-224049580D01*
X200519047Y-224049580D02*
X200566666Y-223954342D01*
X200566666Y-223954342D02*
X200566666Y-223716247D01*
X200566666Y-223716247D02*
X200519047Y-223621009D01*
X200519047Y-223621009D02*
X200471428Y-223573390D01*
X200471428Y-223573390D02*
X200376190Y-223525771D01*
X200376190Y-223525771D02*
X200185714Y-223525771D01*
X200185714Y-223525771D02*
X200090476Y-223573390D01*
X200090476Y-223573390D02*
X200042857Y-223621009D01*
X200042857Y-223621009D02*
X199995238Y-223716247D01*
X350190476Y-227044819D02*
X350190476Y-227759104D01*
X350190476Y-227759104D02*
X350142857Y-227901961D01*
X350142857Y-227901961D02*
X350047619Y-227997200D01*
X350047619Y-227997200D02*
X349904762Y-228044819D01*
X349904762Y-228044819D02*
X349809524Y-228044819D01*
X351190476Y-228044819D02*
X350619048Y-228044819D01*
X350904762Y-228044819D02*
X350904762Y-227044819D01*
X350904762Y-227044819D02*
X350809524Y-227187676D01*
X350809524Y-227187676D02*
X350714286Y-227282914D01*
X350714286Y-227282914D02*
X350619048Y-227330533D01*
X351666667Y-228044819D02*
X351857143Y-228044819D01*
X351857143Y-228044819D02*
X351952381Y-227997200D01*
X351952381Y-227997200D02*
X352000000Y-227949580D01*
X352000000Y-227949580D02*
X352095238Y-227806723D01*
X352095238Y-227806723D02*
X352142857Y-227616247D01*
X352142857Y-227616247D02*
X352142857Y-227235295D01*
X352142857Y-227235295D02*
X352095238Y-227140057D01*
X352095238Y-227140057D02*
X352047619Y-227092438D01*
X352047619Y-227092438D02*
X351952381Y-227044819D01*
X351952381Y-227044819D02*
X351761905Y-227044819D01*
X351761905Y-227044819D02*
X351666667Y-227092438D01*
X351666667Y-227092438D02*
X351619048Y-227140057D01*
X351619048Y-227140057D02*
X351571429Y-227235295D01*
X351571429Y-227235295D02*
X351571429Y-227473390D01*
X351571429Y-227473390D02*
X351619048Y-227568628D01*
X351619048Y-227568628D02*
X351666667Y-227616247D01*
X351666667Y-227616247D02*
X351761905Y-227663866D01*
X351761905Y-227663866D02*
X351952381Y-227663866D01*
X351952381Y-227663866D02*
X352047619Y-227616247D01*
X352047619Y-227616247D02*
X352095238Y-227568628D01*
X352095238Y-227568628D02*
X352142857Y-227473390D01*
X543158095Y-202644819D02*
X543158095Y-201644819D01*
X543158095Y-202121009D02*
X543729523Y-202121009D01*
X543729523Y-202644819D02*
X543729523Y-201644819D01*
X544110476Y-201644819D02*
X544729523Y-201644819D01*
X544729523Y-201644819D02*
X544396190Y-202025771D01*
X544396190Y-202025771D02*
X544539047Y-202025771D01*
X544539047Y-202025771D02*
X544634285Y-202073390D01*
X544634285Y-202073390D02*
X544681904Y-202121009D01*
X544681904Y-202121009D02*
X544729523Y-202216247D01*
X544729523Y-202216247D02*
X544729523Y-202454342D01*
X544729523Y-202454342D02*
X544681904Y-202549580D01*
X544681904Y-202549580D02*
X544634285Y-202597200D01*
X544634285Y-202597200D02*
X544539047Y-202644819D01*
X544539047Y-202644819D02*
X544253333Y-202644819D01*
X544253333Y-202644819D02*
X544158095Y-202597200D01*
X544158095Y-202597200D02*
X544110476Y-202549580D01*
X230626666Y-227044819D02*
X230626666Y-227759104D01*
X230626666Y-227759104D02*
X230579047Y-227901961D01*
X230579047Y-227901961D02*
X230483809Y-227997200D01*
X230483809Y-227997200D02*
X230340952Y-228044819D01*
X230340952Y-228044819D02*
X230245714Y-228044819D01*
X231007619Y-227044819D02*
X231674285Y-227044819D01*
X231674285Y-227044819D02*
X231245714Y-228044819D01*
X186666666Y-223804819D02*
X186666666Y-224519104D01*
X186666666Y-224519104D02*
X186619047Y-224661961D01*
X186619047Y-224661961D02*
X186523809Y-224757200D01*
X186523809Y-224757200D02*
X186380952Y-224804819D01*
X186380952Y-224804819D02*
X186285714Y-224804819D01*
X187095238Y-223900057D02*
X187142857Y-223852438D01*
X187142857Y-223852438D02*
X187238095Y-223804819D01*
X187238095Y-223804819D02*
X187476190Y-223804819D01*
X187476190Y-223804819D02*
X187571428Y-223852438D01*
X187571428Y-223852438D02*
X187619047Y-223900057D01*
X187619047Y-223900057D02*
X187666666Y-223995295D01*
X187666666Y-223995295D02*
X187666666Y-224090533D01*
X187666666Y-224090533D02*
X187619047Y-224233390D01*
X187619047Y-224233390D02*
X187047619Y-224804819D01*
X187047619Y-224804819D02*
X187666666Y-224804819D01*
X381366009Y-208507142D02*
X381413628Y-208364285D01*
X381413628Y-208364285D02*
X381461247Y-208316666D01*
X381461247Y-208316666D02*
X381556485Y-208269047D01*
X381556485Y-208269047D02*
X381699342Y-208269047D01*
X381699342Y-208269047D02*
X381794580Y-208316666D01*
X381794580Y-208316666D02*
X381842200Y-208364285D01*
X381842200Y-208364285D02*
X381889819Y-208459523D01*
X381889819Y-208459523D02*
X381889819Y-208840475D01*
X381889819Y-208840475D02*
X380889819Y-208840475D01*
X380889819Y-208840475D02*
X380889819Y-208507142D01*
X380889819Y-208507142D02*
X380937438Y-208411904D01*
X380937438Y-208411904D02*
X380985057Y-208364285D01*
X380985057Y-208364285D02*
X381080295Y-208316666D01*
X381080295Y-208316666D02*
X381175533Y-208316666D01*
X381175533Y-208316666D02*
X381270771Y-208364285D01*
X381270771Y-208364285D02*
X381318390Y-208411904D01*
X381318390Y-208411904D02*
X381366009Y-208507142D01*
X381366009Y-208507142D02*
X381366009Y-208840475D01*
X381842200Y-207888094D02*
X381889819Y-207745237D01*
X381889819Y-207745237D02*
X381889819Y-207507142D01*
X381889819Y-207507142D02*
X381842200Y-207411904D01*
X381842200Y-207411904D02*
X381794580Y-207364285D01*
X381794580Y-207364285D02*
X381699342Y-207316666D01*
X381699342Y-207316666D02*
X381604104Y-207316666D01*
X381604104Y-207316666D02*
X381508866Y-207364285D01*
X381508866Y-207364285D02*
X381461247Y-207411904D01*
X381461247Y-207411904D02*
X381413628Y-207507142D01*
X381413628Y-207507142D02*
X381366009Y-207697618D01*
X381366009Y-207697618D02*
X381318390Y-207792856D01*
X381318390Y-207792856D02*
X381270771Y-207840475D01*
X381270771Y-207840475D02*
X381175533Y-207888094D01*
X381175533Y-207888094D02*
X381080295Y-207888094D01*
X381080295Y-207888094D02*
X380985057Y-207840475D01*
X380985057Y-207840475D02*
X380937438Y-207792856D01*
X380937438Y-207792856D02*
X380889819Y-207697618D01*
X380889819Y-207697618D02*
X380889819Y-207459523D01*
X380889819Y-207459523D02*
X380937438Y-207316666D01*
X381889819Y-206364285D02*
X381889819Y-206935713D01*
X381889819Y-206649999D02*
X380889819Y-206649999D01*
X380889819Y-206649999D02*
X381032676Y-206745237D01*
X381032676Y-206745237D02*
X381127914Y-206840475D01*
X381127914Y-206840475D02*
X381175533Y-206935713D01*
X380889819Y-206030951D02*
X380889819Y-205364285D01*
X380889819Y-205364285D02*
X381889819Y-205792856D01*
X310180476Y-227044819D02*
X310180476Y-227759104D01*
X310180476Y-227759104D02*
X310132857Y-227901961D01*
X310132857Y-227901961D02*
X310037619Y-227997200D01*
X310037619Y-227997200D02*
X309894762Y-228044819D01*
X309894762Y-228044819D02*
X309799524Y-228044819D01*
X311180476Y-228044819D02*
X310609048Y-228044819D01*
X310894762Y-228044819D02*
X310894762Y-227044819D01*
X310894762Y-227044819D02*
X310799524Y-227187676D01*
X310799524Y-227187676D02*
X310704286Y-227282914D01*
X310704286Y-227282914D02*
X310609048Y-227330533D01*
X312085238Y-227044819D02*
X311609048Y-227044819D01*
X311609048Y-227044819D02*
X311561429Y-227521009D01*
X311561429Y-227521009D02*
X311609048Y-227473390D01*
X311609048Y-227473390D02*
X311704286Y-227425771D01*
X311704286Y-227425771D02*
X311942381Y-227425771D01*
X311942381Y-227425771D02*
X312037619Y-227473390D01*
X312037619Y-227473390D02*
X312085238Y-227521009D01*
X312085238Y-227521009D02*
X312132857Y-227616247D01*
X312132857Y-227616247D02*
X312132857Y-227854342D01*
X312132857Y-227854342D02*
X312085238Y-227949580D01*
X312085238Y-227949580D02*
X312037619Y-227997200D01*
X312037619Y-227997200D02*
X311942381Y-228044819D01*
X311942381Y-228044819D02*
X311704286Y-228044819D01*
X311704286Y-228044819D02*
X311609048Y-227997200D01*
X311609048Y-227997200D02*
X311561429Y-227949580D01*
X360190476Y-227044819D02*
X360190476Y-227759104D01*
X360190476Y-227759104D02*
X360142857Y-227901961D01*
X360142857Y-227901961D02*
X360047619Y-227997200D01*
X360047619Y-227997200D02*
X359904762Y-228044819D01*
X359904762Y-228044819D02*
X359809524Y-228044819D01*
X360619048Y-227140057D02*
X360666667Y-227092438D01*
X360666667Y-227092438D02*
X360761905Y-227044819D01*
X360761905Y-227044819D02*
X361000000Y-227044819D01*
X361000000Y-227044819D02*
X361095238Y-227092438D01*
X361095238Y-227092438D02*
X361142857Y-227140057D01*
X361142857Y-227140057D02*
X361190476Y-227235295D01*
X361190476Y-227235295D02*
X361190476Y-227330533D01*
X361190476Y-227330533D02*
X361142857Y-227473390D01*
X361142857Y-227473390D02*
X360571429Y-228044819D01*
X360571429Y-228044819D02*
X361190476Y-228044819D01*
X361809524Y-227044819D02*
X361904762Y-227044819D01*
X361904762Y-227044819D02*
X362000000Y-227092438D01*
X362000000Y-227092438D02*
X362047619Y-227140057D01*
X362047619Y-227140057D02*
X362095238Y-227235295D01*
X362095238Y-227235295D02*
X362142857Y-227425771D01*
X362142857Y-227425771D02*
X362142857Y-227663866D01*
X362142857Y-227663866D02*
X362095238Y-227854342D01*
X362095238Y-227854342D02*
X362047619Y-227949580D01*
X362047619Y-227949580D02*
X362000000Y-227997200D01*
X362000000Y-227997200D02*
X361904762Y-228044819D01*
X361904762Y-228044819D02*
X361809524Y-228044819D01*
X361809524Y-228044819D02*
X361714286Y-227997200D01*
X361714286Y-227997200D02*
X361666667Y-227949580D01*
X361666667Y-227949580D02*
X361619048Y-227854342D01*
X361619048Y-227854342D02*
X361571429Y-227663866D01*
X361571429Y-227663866D02*
X361571429Y-227425771D01*
X361571429Y-227425771D02*
X361619048Y-227235295D01*
X361619048Y-227235295D02*
X361666667Y-227140057D01*
X361666667Y-227140057D02*
X361714286Y-227092438D01*
X361714286Y-227092438D02*
X361809524Y-227044819D01*
X300250476Y-227044819D02*
X300250476Y-227759104D01*
X300250476Y-227759104D02*
X300202857Y-227901961D01*
X300202857Y-227901961D02*
X300107619Y-227997200D01*
X300107619Y-227997200D02*
X299964762Y-228044819D01*
X299964762Y-228044819D02*
X299869524Y-228044819D01*
X301250476Y-228044819D02*
X300679048Y-228044819D01*
X300964762Y-228044819D02*
X300964762Y-227044819D01*
X300964762Y-227044819D02*
X300869524Y-227187676D01*
X300869524Y-227187676D02*
X300774286Y-227282914D01*
X300774286Y-227282914D02*
X300679048Y-227330533D01*
X302107619Y-227378152D02*
X302107619Y-228044819D01*
X301869524Y-226997200D02*
X301631429Y-227711485D01*
X301631429Y-227711485D02*
X302250476Y-227711485D01*
X390746009Y-208507142D02*
X390793628Y-208364285D01*
X390793628Y-208364285D02*
X390841247Y-208316666D01*
X390841247Y-208316666D02*
X390936485Y-208269047D01*
X390936485Y-208269047D02*
X391079342Y-208269047D01*
X391079342Y-208269047D02*
X391174580Y-208316666D01*
X391174580Y-208316666D02*
X391222200Y-208364285D01*
X391222200Y-208364285D02*
X391269819Y-208459523D01*
X391269819Y-208459523D02*
X391269819Y-208840475D01*
X391269819Y-208840475D02*
X390269819Y-208840475D01*
X390269819Y-208840475D02*
X390269819Y-208507142D01*
X390269819Y-208507142D02*
X390317438Y-208411904D01*
X390317438Y-208411904D02*
X390365057Y-208364285D01*
X390365057Y-208364285D02*
X390460295Y-208316666D01*
X390460295Y-208316666D02*
X390555533Y-208316666D01*
X390555533Y-208316666D02*
X390650771Y-208364285D01*
X390650771Y-208364285D02*
X390698390Y-208411904D01*
X390698390Y-208411904D02*
X390746009Y-208507142D01*
X390746009Y-208507142D02*
X390746009Y-208840475D01*
X391222200Y-207888094D02*
X391269819Y-207745237D01*
X391269819Y-207745237D02*
X391269819Y-207507142D01*
X391269819Y-207507142D02*
X391222200Y-207411904D01*
X391222200Y-207411904D02*
X391174580Y-207364285D01*
X391174580Y-207364285D02*
X391079342Y-207316666D01*
X391079342Y-207316666D02*
X390984104Y-207316666D01*
X390984104Y-207316666D02*
X390888866Y-207364285D01*
X390888866Y-207364285D02*
X390841247Y-207411904D01*
X390841247Y-207411904D02*
X390793628Y-207507142D01*
X390793628Y-207507142D02*
X390746009Y-207697618D01*
X390746009Y-207697618D02*
X390698390Y-207792856D01*
X390698390Y-207792856D02*
X390650771Y-207840475D01*
X390650771Y-207840475D02*
X390555533Y-207888094D01*
X390555533Y-207888094D02*
X390460295Y-207888094D01*
X390460295Y-207888094D02*
X390365057Y-207840475D01*
X390365057Y-207840475D02*
X390317438Y-207792856D01*
X390317438Y-207792856D02*
X390269819Y-207697618D01*
X390269819Y-207697618D02*
X390269819Y-207459523D01*
X390269819Y-207459523D02*
X390317438Y-207316666D01*
X391269819Y-206364285D02*
X391269819Y-206935713D01*
X391269819Y-206649999D02*
X390269819Y-206649999D01*
X390269819Y-206649999D02*
X390412676Y-206745237D01*
X390412676Y-206745237D02*
X390507914Y-206840475D01*
X390507914Y-206840475D02*
X390555533Y-206935713D01*
X390698390Y-205792856D02*
X390650771Y-205888094D01*
X390650771Y-205888094D02*
X390603152Y-205935713D01*
X390603152Y-205935713D02*
X390507914Y-205983332D01*
X390507914Y-205983332D02*
X390460295Y-205983332D01*
X390460295Y-205983332D02*
X390365057Y-205935713D01*
X390365057Y-205935713D02*
X390317438Y-205888094D01*
X390317438Y-205888094D02*
X390269819Y-205792856D01*
X390269819Y-205792856D02*
X390269819Y-205602380D01*
X390269819Y-205602380D02*
X390317438Y-205507142D01*
X390317438Y-205507142D02*
X390365057Y-205459523D01*
X390365057Y-205459523D02*
X390460295Y-205411904D01*
X390460295Y-205411904D02*
X390507914Y-205411904D01*
X390507914Y-205411904D02*
X390603152Y-205459523D01*
X390603152Y-205459523D02*
X390650771Y-205507142D01*
X390650771Y-205507142D02*
X390698390Y-205602380D01*
X390698390Y-205602380D02*
X390698390Y-205792856D01*
X390698390Y-205792856D02*
X390746009Y-205888094D01*
X390746009Y-205888094D02*
X390793628Y-205935713D01*
X390793628Y-205935713D02*
X390888866Y-205983332D01*
X390888866Y-205983332D02*
X391079342Y-205983332D01*
X391079342Y-205983332D02*
X391174580Y-205935713D01*
X391174580Y-205935713D02*
X391222200Y-205888094D01*
X391222200Y-205888094D02*
X391269819Y-205792856D01*
X391269819Y-205792856D02*
X391269819Y-205602380D01*
X391269819Y-205602380D02*
X391222200Y-205507142D01*
X391222200Y-205507142D02*
X391174580Y-205459523D01*
X391174580Y-205459523D02*
X391079342Y-205411904D01*
X391079342Y-205411904D02*
X390888866Y-205411904D01*
X390888866Y-205411904D02*
X390793628Y-205459523D01*
X390793628Y-205459523D02*
X390746009Y-205507142D01*
X390746009Y-205507142D02*
X390698390Y-205602380D01*
X290250476Y-227044819D02*
X290250476Y-227759104D01*
X290250476Y-227759104D02*
X290202857Y-227901961D01*
X290202857Y-227901961D02*
X290107619Y-227997200D01*
X290107619Y-227997200D02*
X289964762Y-228044819D01*
X289964762Y-228044819D02*
X289869524Y-228044819D01*
X291250476Y-228044819D02*
X290679048Y-228044819D01*
X290964762Y-228044819D02*
X290964762Y-227044819D01*
X290964762Y-227044819D02*
X290869524Y-227187676D01*
X290869524Y-227187676D02*
X290774286Y-227282914D01*
X290774286Y-227282914D02*
X290679048Y-227330533D01*
X291583810Y-227044819D02*
X292202857Y-227044819D01*
X292202857Y-227044819D02*
X291869524Y-227425771D01*
X291869524Y-227425771D02*
X292012381Y-227425771D01*
X292012381Y-227425771D02*
X292107619Y-227473390D01*
X292107619Y-227473390D02*
X292155238Y-227521009D01*
X292155238Y-227521009D02*
X292202857Y-227616247D01*
X292202857Y-227616247D02*
X292202857Y-227854342D01*
X292202857Y-227854342D02*
X292155238Y-227949580D01*
X292155238Y-227949580D02*
X292107619Y-227997200D01*
X292107619Y-227997200D02*
X292012381Y-228044819D01*
X292012381Y-228044819D02*
X291726667Y-228044819D01*
X291726667Y-228044819D02*
X291631429Y-227997200D01*
X291631429Y-227997200D02*
X291583810Y-227949580D01*
X370190476Y-227044819D02*
X370190476Y-227759104D01*
X370190476Y-227759104D02*
X370142857Y-227901961D01*
X370142857Y-227901961D02*
X370047619Y-227997200D01*
X370047619Y-227997200D02*
X369904762Y-228044819D01*
X369904762Y-228044819D02*
X369809524Y-228044819D01*
X370619048Y-227140057D02*
X370666667Y-227092438D01*
X370666667Y-227092438D02*
X370761905Y-227044819D01*
X370761905Y-227044819D02*
X371000000Y-227044819D01*
X371000000Y-227044819D02*
X371095238Y-227092438D01*
X371095238Y-227092438D02*
X371142857Y-227140057D01*
X371142857Y-227140057D02*
X371190476Y-227235295D01*
X371190476Y-227235295D02*
X371190476Y-227330533D01*
X371190476Y-227330533D02*
X371142857Y-227473390D01*
X371142857Y-227473390D02*
X370571429Y-228044819D01*
X370571429Y-228044819D02*
X371190476Y-228044819D01*
X372142857Y-228044819D02*
X371571429Y-228044819D01*
X371857143Y-228044819D02*
X371857143Y-227044819D01*
X371857143Y-227044819D02*
X371761905Y-227187676D01*
X371761905Y-227187676D02*
X371666667Y-227282914D01*
X371666667Y-227282914D02*
X371571429Y-227330533D01*
X260150476Y-227044819D02*
X260150476Y-227759104D01*
X260150476Y-227759104D02*
X260102857Y-227901961D01*
X260102857Y-227901961D02*
X260007619Y-227997200D01*
X260007619Y-227997200D02*
X259864762Y-228044819D01*
X259864762Y-228044819D02*
X259769524Y-228044819D01*
X261150476Y-228044819D02*
X260579048Y-228044819D01*
X260864762Y-228044819D02*
X260864762Y-227044819D01*
X260864762Y-227044819D02*
X260769524Y-227187676D01*
X260769524Y-227187676D02*
X260674286Y-227282914D01*
X260674286Y-227282914D02*
X260579048Y-227330533D01*
X261769524Y-227044819D02*
X261864762Y-227044819D01*
X261864762Y-227044819D02*
X261960000Y-227092438D01*
X261960000Y-227092438D02*
X262007619Y-227140057D01*
X262007619Y-227140057D02*
X262055238Y-227235295D01*
X262055238Y-227235295D02*
X262102857Y-227425771D01*
X262102857Y-227425771D02*
X262102857Y-227663866D01*
X262102857Y-227663866D02*
X262055238Y-227854342D01*
X262055238Y-227854342D02*
X262007619Y-227949580D01*
X262007619Y-227949580D02*
X261960000Y-227997200D01*
X261960000Y-227997200D02*
X261864762Y-228044819D01*
X261864762Y-228044819D02*
X261769524Y-228044819D01*
X261769524Y-228044819D02*
X261674286Y-227997200D01*
X261674286Y-227997200D02*
X261626667Y-227949580D01*
X261626667Y-227949580D02*
X261579048Y-227854342D01*
X261579048Y-227854342D02*
X261531429Y-227663866D01*
X261531429Y-227663866D02*
X261531429Y-227425771D01*
X261531429Y-227425771D02*
X261579048Y-227235295D01*
X261579048Y-227235295D02*
X261626667Y-227140057D01*
X261626667Y-227140057D02*
X261674286Y-227092438D01*
X261674286Y-227092438D02*
X261769524Y-227044819D01*
X400126009Y-208507142D02*
X400173628Y-208364285D01*
X400173628Y-208364285D02*
X400221247Y-208316666D01*
X400221247Y-208316666D02*
X400316485Y-208269047D01*
X400316485Y-208269047D02*
X400459342Y-208269047D01*
X400459342Y-208269047D02*
X400554580Y-208316666D01*
X400554580Y-208316666D02*
X400602200Y-208364285D01*
X400602200Y-208364285D02*
X400649819Y-208459523D01*
X400649819Y-208459523D02*
X400649819Y-208840475D01*
X400649819Y-208840475D02*
X399649819Y-208840475D01*
X399649819Y-208840475D02*
X399649819Y-208507142D01*
X399649819Y-208507142D02*
X399697438Y-208411904D01*
X399697438Y-208411904D02*
X399745057Y-208364285D01*
X399745057Y-208364285D02*
X399840295Y-208316666D01*
X399840295Y-208316666D02*
X399935533Y-208316666D01*
X399935533Y-208316666D02*
X400030771Y-208364285D01*
X400030771Y-208364285D02*
X400078390Y-208411904D01*
X400078390Y-208411904D02*
X400126009Y-208507142D01*
X400126009Y-208507142D02*
X400126009Y-208840475D01*
X400602200Y-207888094D02*
X400649819Y-207745237D01*
X400649819Y-207745237D02*
X400649819Y-207507142D01*
X400649819Y-207507142D02*
X400602200Y-207411904D01*
X400602200Y-207411904D02*
X400554580Y-207364285D01*
X400554580Y-207364285D02*
X400459342Y-207316666D01*
X400459342Y-207316666D02*
X400364104Y-207316666D01*
X400364104Y-207316666D02*
X400268866Y-207364285D01*
X400268866Y-207364285D02*
X400221247Y-207411904D01*
X400221247Y-207411904D02*
X400173628Y-207507142D01*
X400173628Y-207507142D02*
X400126009Y-207697618D01*
X400126009Y-207697618D02*
X400078390Y-207792856D01*
X400078390Y-207792856D02*
X400030771Y-207840475D01*
X400030771Y-207840475D02*
X399935533Y-207888094D01*
X399935533Y-207888094D02*
X399840295Y-207888094D01*
X399840295Y-207888094D02*
X399745057Y-207840475D01*
X399745057Y-207840475D02*
X399697438Y-207792856D01*
X399697438Y-207792856D02*
X399649819Y-207697618D01*
X399649819Y-207697618D02*
X399649819Y-207459523D01*
X399649819Y-207459523D02*
X399697438Y-207316666D01*
X400649819Y-206364285D02*
X400649819Y-206935713D01*
X400649819Y-206649999D02*
X399649819Y-206649999D01*
X399649819Y-206649999D02*
X399792676Y-206745237D01*
X399792676Y-206745237D02*
X399887914Y-206840475D01*
X399887914Y-206840475D02*
X399935533Y-206935713D01*
X400649819Y-205888094D02*
X400649819Y-205697618D01*
X400649819Y-205697618D02*
X400602200Y-205602380D01*
X400602200Y-205602380D02*
X400554580Y-205554761D01*
X400554580Y-205554761D02*
X400411723Y-205459523D01*
X400411723Y-205459523D02*
X400221247Y-205411904D01*
X400221247Y-205411904D02*
X399840295Y-205411904D01*
X399840295Y-205411904D02*
X399745057Y-205459523D01*
X399745057Y-205459523D02*
X399697438Y-205507142D01*
X399697438Y-205507142D02*
X399649819Y-205602380D01*
X399649819Y-205602380D02*
X399649819Y-205792856D01*
X399649819Y-205792856D02*
X399697438Y-205888094D01*
X399697438Y-205888094D02*
X399745057Y-205935713D01*
X399745057Y-205935713D02*
X399840295Y-205983332D01*
X399840295Y-205983332D02*
X400078390Y-205983332D01*
X400078390Y-205983332D02*
X400173628Y-205935713D01*
X400173628Y-205935713D02*
X400221247Y-205888094D01*
X400221247Y-205888094D02*
X400268866Y-205792856D01*
X400268866Y-205792856D02*
X400268866Y-205602380D01*
X400268866Y-205602380D02*
X400221247Y-205507142D01*
X400221247Y-205507142D02*
X400173628Y-205459523D01*
X400173628Y-205459523D02*
X400078390Y-205411904D01*
X170841666Y-229694819D02*
X170841666Y-230409104D01*
X170841666Y-230409104D02*
X170794047Y-230551961D01*
X170794047Y-230551961D02*
X170698809Y-230647200D01*
X170698809Y-230647200D02*
X170555952Y-230694819D01*
X170555952Y-230694819D02*
X170460714Y-230694819D01*
X171746428Y-230028152D02*
X171746428Y-230694819D01*
X171508333Y-229647200D02*
X171270238Y-230361485D01*
X171270238Y-230361485D02*
X171889285Y-230361485D01*
X380190476Y-227044819D02*
X380190476Y-227759104D01*
X380190476Y-227759104D02*
X380142857Y-227901961D01*
X380142857Y-227901961D02*
X380047619Y-227997200D01*
X380047619Y-227997200D02*
X379904762Y-228044819D01*
X379904762Y-228044819D02*
X379809524Y-228044819D01*
X380619048Y-227140057D02*
X380666667Y-227092438D01*
X380666667Y-227092438D02*
X380761905Y-227044819D01*
X380761905Y-227044819D02*
X381000000Y-227044819D01*
X381000000Y-227044819D02*
X381095238Y-227092438D01*
X381095238Y-227092438D02*
X381142857Y-227140057D01*
X381142857Y-227140057D02*
X381190476Y-227235295D01*
X381190476Y-227235295D02*
X381190476Y-227330533D01*
X381190476Y-227330533D02*
X381142857Y-227473390D01*
X381142857Y-227473390D02*
X380571429Y-228044819D01*
X380571429Y-228044819D02*
X381190476Y-228044819D01*
X381571429Y-227140057D02*
X381619048Y-227092438D01*
X381619048Y-227092438D02*
X381714286Y-227044819D01*
X381714286Y-227044819D02*
X381952381Y-227044819D01*
X381952381Y-227044819D02*
X382047619Y-227092438D01*
X382047619Y-227092438D02*
X382095238Y-227140057D01*
X382095238Y-227140057D02*
X382142857Y-227235295D01*
X382142857Y-227235295D02*
X382142857Y-227330533D01*
X382142857Y-227330533D02*
X382095238Y-227473390D01*
X382095238Y-227473390D02*
X381523810Y-228044819D01*
X381523810Y-228044819D02*
X382142857Y-228044819D01*
X235706009Y-207830952D02*
X235753628Y-207688095D01*
X235753628Y-207688095D02*
X235801247Y-207640476D01*
X235801247Y-207640476D02*
X235896485Y-207592857D01*
X235896485Y-207592857D02*
X236039342Y-207592857D01*
X236039342Y-207592857D02*
X236134580Y-207640476D01*
X236134580Y-207640476D02*
X236182200Y-207688095D01*
X236182200Y-207688095D02*
X236229819Y-207783333D01*
X236229819Y-207783333D02*
X236229819Y-208164285D01*
X236229819Y-208164285D02*
X235229819Y-208164285D01*
X235229819Y-208164285D02*
X235229819Y-207830952D01*
X235229819Y-207830952D02*
X235277438Y-207735714D01*
X235277438Y-207735714D02*
X235325057Y-207688095D01*
X235325057Y-207688095D02*
X235420295Y-207640476D01*
X235420295Y-207640476D02*
X235515533Y-207640476D01*
X235515533Y-207640476D02*
X235610771Y-207688095D01*
X235610771Y-207688095D02*
X235658390Y-207735714D01*
X235658390Y-207735714D02*
X235706009Y-207830952D01*
X235706009Y-207830952D02*
X235706009Y-208164285D01*
X236182200Y-207211904D02*
X236229819Y-207069047D01*
X236229819Y-207069047D02*
X236229819Y-206830952D01*
X236229819Y-206830952D02*
X236182200Y-206735714D01*
X236182200Y-206735714D02*
X236134580Y-206688095D01*
X236134580Y-206688095D02*
X236039342Y-206640476D01*
X236039342Y-206640476D02*
X235944104Y-206640476D01*
X235944104Y-206640476D02*
X235848866Y-206688095D01*
X235848866Y-206688095D02*
X235801247Y-206735714D01*
X235801247Y-206735714D02*
X235753628Y-206830952D01*
X235753628Y-206830952D02*
X235706009Y-207021428D01*
X235706009Y-207021428D02*
X235658390Y-207116666D01*
X235658390Y-207116666D02*
X235610771Y-207164285D01*
X235610771Y-207164285D02*
X235515533Y-207211904D01*
X235515533Y-207211904D02*
X235420295Y-207211904D01*
X235420295Y-207211904D02*
X235325057Y-207164285D01*
X235325057Y-207164285D02*
X235277438Y-207116666D01*
X235277438Y-207116666D02*
X235229819Y-207021428D01*
X235229819Y-207021428D02*
X235229819Y-206783333D01*
X235229819Y-206783333D02*
X235277438Y-206640476D01*
X235325057Y-206259523D02*
X235277438Y-206211904D01*
X235277438Y-206211904D02*
X235229819Y-206116666D01*
X235229819Y-206116666D02*
X235229819Y-205878571D01*
X235229819Y-205878571D02*
X235277438Y-205783333D01*
X235277438Y-205783333D02*
X235325057Y-205735714D01*
X235325057Y-205735714D02*
X235420295Y-205688095D01*
X235420295Y-205688095D02*
X235515533Y-205688095D01*
X235515533Y-205688095D02*
X235658390Y-205735714D01*
X235658390Y-205735714D02*
X236229819Y-206307142D01*
X236229819Y-206307142D02*
X236229819Y-205688095D01*
X390190476Y-227044819D02*
X390190476Y-227759104D01*
X390190476Y-227759104D02*
X390142857Y-227901961D01*
X390142857Y-227901961D02*
X390047619Y-227997200D01*
X390047619Y-227997200D02*
X389904762Y-228044819D01*
X389904762Y-228044819D02*
X389809524Y-228044819D01*
X390619048Y-227140057D02*
X390666667Y-227092438D01*
X390666667Y-227092438D02*
X390761905Y-227044819D01*
X390761905Y-227044819D02*
X391000000Y-227044819D01*
X391000000Y-227044819D02*
X391095238Y-227092438D01*
X391095238Y-227092438D02*
X391142857Y-227140057D01*
X391142857Y-227140057D02*
X391190476Y-227235295D01*
X391190476Y-227235295D02*
X391190476Y-227330533D01*
X391190476Y-227330533D02*
X391142857Y-227473390D01*
X391142857Y-227473390D02*
X390571429Y-228044819D01*
X390571429Y-228044819D02*
X391190476Y-228044819D01*
X391523810Y-227044819D02*
X392142857Y-227044819D01*
X392142857Y-227044819D02*
X391809524Y-227425771D01*
X391809524Y-227425771D02*
X391952381Y-227425771D01*
X391952381Y-227425771D02*
X392047619Y-227473390D01*
X392047619Y-227473390D02*
X392095238Y-227521009D01*
X392095238Y-227521009D02*
X392142857Y-227616247D01*
X392142857Y-227616247D02*
X392142857Y-227854342D01*
X392142857Y-227854342D02*
X392095238Y-227949580D01*
X392095238Y-227949580D02*
X392047619Y-227997200D01*
X392047619Y-227997200D02*
X391952381Y-228044819D01*
X391952381Y-228044819D02*
X391666667Y-228044819D01*
X391666667Y-228044819D02*
X391571429Y-227997200D01*
X391571429Y-227997200D02*
X391523810Y-227949580D01*
X362606009Y-208507142D02*
X362653628Y-208364285D01*
X362653628Y-208364285D02*
X362701247Y-208316666D01*
X362701247Y-208316666D02*
X362796485Y-208269047D01*
X362796485Y-208269047D02*
X362939342Y-208269047D01*
X362939342Y-208269047D02*
X363034580Y-208316666D01*
X363034580Y-208316666D02*
X363082200Y-208364285D01*
X363082200Y-208364285D02*
X363129819Y-208459523D01*
X363129819Y-208459523D02*
X363129819Y-208840475D01*
X363129819Y-208840475D02*
X362129819Y-208840475D01*
X362129819Y-208840475D02*
X362129819Y-208507142D01*
X362129819Y-208507142D02*
X362177438Y-208411904D01*
X362177438Y-208411904D02*
X362225057Y-208364285D01*
X362225057Y-208364285D02*
X362320295Y-208316666D01*
X362320295Y-208316666D02*
X362415533Y-208316666D01*
X362415533Y-208316666D02*
X362510771Y-208364285D01*
X362510771Y-208364285D02*
X362558390Y-208411904D01*
X362558390Y-208411904D02*
X362606009Y-208507142D01*
X362606009Y-208507142D02*
X362606009Y-208840475D01*
X363082200Y-207888094D02*
X363129819Y-207745237D01*
X363129819Y-207745237D02*
X363129819Y-207507142D01*
X363129819Y-207507142D02*
X363082200Y-207411904D01*
X363082200Y-207411904D02*
X363034580Y-207364285D01*
X363034580Y-207364285D02*
X362939342Y-207316666D01*
X362939342Y-207316666D02*
X362844104Y-207316666D01*
X362844104Y-207316666D02*
X362748866Y-207364285D01*
X362748866Y-207364285D02*
X362701247Y-207411904D01*
X362701247Y-207411904D02*
X362653628Y-207507142D01*
X362653628Y-207507142D02*
X362606009Y-207697618D01*
X362606009Y-207697618D02*
X362558390Y-207792856D01*
X362558390Y-207792856D02*
X362510771Y-207840475D01*
X362510771Y-207840475D02*
X362415533Y-207888094D01*
X362415533Y-207888094D02*
X362320295Y-207888094D01*
X362320295Y-207888094D02*
X362225057Y-207840475D01*
X362225057Y-207840475D02*
X362177438Y-207792856D01*
X362177438Y-207792856D02*
X362129819Y-207697618D01*
X362129819Y-207697618D02*
X362129819Y-207459523D01*
X362129819Y-207459523D02*
X362177438Y-207316666D01*
X363129819Y-206364285D02*
X363129819Y-206935713D01*
X363129819Y-206649999D02*
X362129819Y-206649999D01*
X362129819Y-206649999D02*
X362272676Y-206745237D01*
X362272676Y-206745237D02*
X362367914Y-206840475D01*
X362367914Y-206840475D02*
X362415533Y-206935713D01*
X362129819Y-205459523D02*
X362129819Y-205935713D01*
X362129819Y-205935713D02*
X362606009Y-205983332D01*
X362606009Y-205983332D02*
X362558390Y-205935713D01*
X362558390Y-205935713D02*
X362510771Y-205840475D01*
X362510771Y-205840475D02*
X362510771Y-205602380D01*
X362510771Y-205602380D02*
X362558390Y-205507142D01*
X362558390Y-205507142D02*
X362606009Y-205459523D01*
X362606009Y-205459523D02*
X362701247Y-205411904D01*
X362701247Y-205411904D02*
X362939342Y-205411904D01*
X362939342Y-205411904D02*
X363034580Y-205459523D01*
X363034580Y-205459523D02*
X363082200Y-205507142D01*
X363082200Y-205507142D02*
X363129819Y-205602380D01*
X363129819Y-205602380D02*
X363129819Y-205840475D01*
X363129819Y-205840475D02*
X363082200Y-205935713D01*
X363082200Y-205935713D02*
X363034580Y-205983332D01*
X353226009Y-208507142D02*
X353273628Y-208364285D01*
X353273628Y-208364285D02*
X353321247Y-208316666D01*
X353321247Y-208316666D02*
X353416485Y-208269047D01*
X353416485Y-208269047D02*
X353559342Y-208269047D01*
X353559342Y-208269047D02*
X353654580Y-208316666D01*
X353654580Y-208316666D02*
X353702200Y-208364285D01*
X353702200Y-208364285D02*
X353749819Y-208459523D01*
X353749819Y-208459523D02*
X353749819Y-208840475D01*
X353749819Y-208840475D02*
X352749819Y-208840475D01*
X352749819Y-208840475D02*
X352749819Y-208507142D01*
X352749819Y-208507142D02*
X352797438Y-208411904D01*
X352797438Y-208411904D02*
X352845057Y-208364285D01*
X352845057Y-208364285D02*
X352940295Y-208316666D01*
X352940295Y-208316666D02*
X353035533Y-208316666D01*
X353035533Y-208316666D02*
X353130771Y-208364285D01*
X353130771Y-208364285D02*
X353178390Y-208411904D01*
X353178390Y-208411904D02*
X353226009Y-208507142D01*
X353226009Y-208507142D02*
X353226009Y-208840475D01*
X353702200Y-207888094D02*
X353749819Y-207745237D01*
X353749819Y-207745237D02*
X353749819Y-207507142D01*
X353749819Y-207507142D02*
X353702200Y-207411904D01*
X353702200Y-207411904D02*
X353654580Y-207364285D01*
X353654580Y-207364285D02*
X353559342Y-207316666D01*
X353559342Y-207316666D02*
X353464104Y-207316666D01*
X353464104Y-207316666D02*
X353368866Y-207364285D01*
X353368866Y-207364285D02*
X353321247Y-207411904D01*
X353321247Y-207411904D02*
X353273628Y-207507142D01*
X353273628Y-207507142D02*
X353226009Y-207697618D01*
X353226009Y-207697618D02*
X353178390Y-207792856D01*
X353178390Y-207792856D02*
X353130771Y-207840475D01*
X353130771Y-207840475D02*
X353035533Y-207888094D01*
X353035533Y-207888094D02*
X352940295Y-207888094D01*
X352940295Y-207888094D02*
X352845057Y-207840475D01*
X352845057Y-207840475D02*
X352797438Y-207792856D01*
X352797438Y-207792856D02*
X352749819Y-207697618D01*
X352749819Y-207697618D02*
X352749819Y-207459523D01*
X352749819Y-207459523D02*
X352797438Y-207316666D01*
X353749819Y-206364285D02*
X353749819Y-206935713D01*
X353749819Y-206649999D02*
X352749819Y-206649999D01*
X352749819Y-206649999D02*
X352892676Y-206745237D01*
X352892676Y-206745237D02*
X352987914Y-206840475D01*
X352987914Y-206840475D02*
X353035533Y-206935713D01*
X353083152Y-205507142D02*
X353749819Y-205507142D01*
X352702200Y-205745237D02*
X353416485Y-205983332D01*
X353416485Y-205983332D02*
X353416485Y-205364285D01*
X240726666Y-227044819D02*
X240726666Y-227759104D01*
X240726666Y-227759104D02*
X240679047Y-227901961D01*
X240679047Y-227901961D02*
X240583809Y-227997200D01*
X240583809Y-227997200D02*
X240440952Y-228044819D01*
X240440952Y-228044819D02*
X240345714Y-228044819D01*
X241345714Y-227473390D02*
X241250476Y-227425771D01*
X241250476Y-227425771D02*
X241202857Y-227378152D01*
X241202857Y-227378152D02*
X241155238Y-227282914D01*
X241155238Y-227282914D02*
X241155238Y-227235295D01*
X241155238Y-227235295D02*
X241202857Y-227140057D01*
X241202857Y-227140057D02*
X241250476Y-227092438D01*
X241250476Y-227092438D02*
X241345714Y-227044819D01*
X241345714Y-227044819D02*
X241536190Y-227044819D01*
X241536190Y-227044819D02*
X241631428Y-227092438D01*
X241631428Y-227092438D02*
X241679047Y-227140057D01*
X241679047Y-227140057D02*
X241726666Y-227235295D01*
X241726666Y-227235295D02*
X241726666Y-227282914D01*
X241726666Y-227282914D02*
X241679047Y-227378152D01*
X241679047Y-227378152D02*
X241631428Y-227425771D01*
X241631428Y-227425771D02*
X241536190Y-227473390D01*
X241536190Y-227473390D02*
X241345714Y-227473390D01*
X241345714Y-227473390D02*
X241250476Y-227521009D01*
X241250476Y-227521009D02*
X241202857Y-227568628D01*
X241202857Y-227568628D02*
X241155238Y-227663866D01*
X241155238Y-227663866D02*
X241155238Y-227854342D01*
X241155238Y-227854342D02*
X241202857Y-227949580D01*
X241202857Y-227949580D02*
X241250476Y-227997200D01*
X241250476Y-227997200D02*
X241345714Y-228044819D01*
X241345714Y-228044819D02*
X241536190Y-228044819D01*
X241536190Y-228044819D02*
X241631428Y-227997200D01*
X241631428Y-227997200D02*
X241679047Y-227949580D01*
X241679047Y-227949580D02*
X241726666Y-227854342D01*
X241726666Y-227854342D02*
X241726666Y-227663866D01*
X241726666Y-227663866D02*
X241679047Y-227568628D01*
X241679047Y-227568628D02*
X241631428Y-227521009D01*
X241631428Y-227521009D02*
X241536190Y-227473390D01*
X325086009Y-208507142D02*
X325133628Y-208364285D01*
X325133628Y-208364285D02*
X325181247Y-208316666D01*
X325181247Y-208316666D02*
X325276485Y-208269047D01*
X325276485Y-208269047D02*
X325419342Y-208269047D01*
X325419342Y-208269047D02*
X325514580Y-208316666D01*
X325514580Y-208316666D02*
X325562200Y-208364285D01*
X325562200Y-208364285D02*
X325609819Y-208459523D01*
X325609819Y-208459523D02*
X325609819Y-208840475D01*
X325609819Y-208840475D02*
X324609819Y-208840475D01*
X324609819Y-208840475D02*
X324609819Y-208507142D01*
X324609819Y-208507142D02*
X324657438Y-208411904D01*
X324657438Y-208411904D02*
X324705057Y-208364285D01*
X324705057Y-208364285D02*
X324800295Y-208316666D01*
X324800295Y-208316666D02*
X324895533Y-208316666D01*
X324895533Y-208316666D02*
X324990771Y-208364285D01*
X324990771Y-208364285D02*
X325038390Y-208411904D01*
X325038390Y-208411904D02*
X325086009Y-208507142D01*
X325086009Y-208507142D02*
X325086009Y-208840475D01*
X325562200Y-207888094D02*
X325609819Y-207745237D01*
X325609819Y-207745237D02*
X325609819Y-207507142D01*
X325609819Y-207507142D02*
X325562200Y-207411904D01*
X325562200Y-207411904D02*
X325514580Y-207364285D01*
X325514580Y-207364285D02*
X325419342Y-207316666D01*
X325419342Y-207316666D02*
X325324104Y-207316666D01*
X325324104Y-207316666D02*
X325228866Y-207364285D01*
X325228866Y-207364285D02*
X325181247Y-207411904D01*
X325181247Y-207411904D02*
X325133628Y-207507142D01*
X325133628Y-207507142D02*
X325086009Y-207697618D01*
X325086009Y-207697618D02*
X325038390Y-207792856D01*
X325038390Y-207792856D02*
X324990771Y-207840475D01*
X324990771Y-207840475D02*
X324895533Y-207888094D01*
X324895533Y-207888094D02*
X324800295Y-207888094D01*
X324800295Y-207888094D02*
X324705057Y-207840475D01*
X324705057Y-207840475D02*
X324657438Y-207792856D01*
X324657438Y-207792856D02*
X324609819Y-207697618D01*
X324609819Y-207697618D02*
X324609819Y-207459523D01*
X324609819Y-207459523D02*
X324657438Y-207316666D01*
X325609819Y-206364285D02*
X325609819Y-206935713D01*
X325609819Y-206649999D02*
X324609819Y-206649999D01*
X324609819Y-206649999D02*
X324752676Y-206745237D01*
X324752676Y-206745237D02*
X324847914Y-206840475D01*
X324847914Y-206840475D02*
X324895533Y-206935713D01*
X325609819Y-205411904D02*
X325609819Y-205983332D01*
X325609819Y-205697618D02*
X324609819Y-205697618D01*
X324609819Y-205697618D02*
X324752676Y-205792856D01*
X324752676Y-205792856D02*
X324847914Y-205888094D01*
X324847914Y-205888094D02*
X324895533Y-205983332D01*
X78138095Y-234774819D02*
X78138095Y-233774819D01*
X78138095Y-234251009D02*
X78709523Y-234251009D01*
X78709523Y-234774819D02*
X78709523Y-233774819D01*
X79138095Y-233870057D02*
X79185714Y-233822438D01*
X79185714Y-233822438D02*
X79280952Y-233774819D01*
X79280952Y-233774819D02*
X79519047Y-233774819D01*
X79519047Y-233774819D02*
X79614285Y-233822438D01*
X79614285Y-233822438D02*
X79661904Y-233870057D01*
X79661904Y-233870057D02*
X79709523Y-233965295D01*
X79709523Y-233965295D02*
X79709523Y-234060533D01*
X79709523Y-234060533D02*
X79661904Y-234203390D01*
X79661904Y-234203390D02*
X79090476Y-234774819D01*
X79090476Y-234774819D02*
X79709523Y-234774819D01*
X343846009Y-208507142D02*
X343893628Y-208364285D01*
X343893628Y-208364285D02*
X343941247Y-208316666D01*
X343941247Y-208316666D02*
X344036485Y-208269047D01*
X344036485Y-208269047D02*
X344179342Y-208269047D01*
X344179342Y-208269047D02*
X344274580Y-208316666D01*
X344274580Y-208316666D02*
X344322200Y-208364285D01*
X344322200Y-208364285D02*
X344369819Y-208459523D01*
X344369819Y-208459523D02*
X344369819Y-208840475D01*
X344369819Y-208840475D02*
X343369819Y-208840475D01*
X343369819Y-208840475D02*
X343369819Y-208507142D01*
X343369819Y-208507142D02*
X343417438Y-208411904D01*
X343417438Y-208411904D02*
X343465057Y-208364285D01*
X343465057Y-208364285D02*
X343560295Y-208316666D01*
X343560295Y-208316666D02*
X343655533Y-208316666D01*
X343655533Y-208316666D02*
X343750771Y-208364285D01*
X343750771Y-208364285D02*
X343798390Y-208411904D01*
X343798390Y-208411904D02*
X343846009Y-208507142D01*
X343846009Y-208507142D02*
X343846009Y-208840475D01*
X344322200Y-207888094D02*
X344369819Y-207745237D01*
X344369819Y-207745237D02*
X344369819Y-207507142D01*
X344369819Y-207507142D02*
X344322200Y-207411904D01*
X344322200Y-207411904D02*
X344274580Y-207364285D01*
X344274580Y-207364285D02*
X344179342Y-207316666D01*
X344179342Y-207316666D02*
X344084104Y-207316666D01*
X344084104Y-207316666D02*
X343988866Y-207364285D01*
X343988866Y-207364285D02*
X343941247Y-207411904D01*
X343941247Y-207411904D02*
X343893628Y-207507142D01*
X343893628Y-207507142D02*
X343846009Y-207697618D01*
X343846009Y-207697618D02*
X343798390Y-207792856D01*
X343798390Y-207792856D02*
X343750771Y-207840475D01*
X343750771Y-207840475D02*
X343655533Y-207888094D01*
X343655533Y-207888094D02*
X343560295Y-207888094D01*
X343560295Y-207888094D02*
X343465057Y-207840475D01*
X343465057Y-207840475D02*
X343417438Y-207792856D01*
X343417438Y-207792856D02*
X343369819Y-207697618D01*
X343369819Y-207697618D02*
X343369819Y-207459523D01*
X343369819Y-207459523D02*
X343417438Y-207316666D01*
X344369819Y-206364285D02*
X344369819Y-206935713D01*
X344369819Y-206649999D02*
X343369819Y-206649999D01*
X343369819Y-206649999D02*
X343512676Y-206745237D01*
X343512676Y-206745237D02*
X343607914Y-206840475D01*
X343607914Y-206840475D02*
X343655533Y-206935713D01*
X343369819Y-206030951D02*
X343369819Y-205411904D01*
X343369819Y-205411904D02*
X343750771Y-205745237D01*
X343750771Y-205745237D02*
X343750771Y-205602380D01*
X343750771Y-205602380D02*
X343798390Y-205507142D01*
X343798390Y-205507142D02*
X343846009Y-205459523D01*
X343846009Y-205459523D02*
X343941247Y-205411904D01*
X343941247Y-205411904D02*
X344179342Y-205411904D01*
X344179342Y-205411904D02*
X344274580Y-205459523D01*
X344274580Y-205459523D02*
X344322200Y-205507142D01*
X344322200Y-205507142D02*
X344369819Y-205602380D01*
X344369819Y-205602380D02*
X344369819Y-205888094D01*
X344369819Y-205888094D02*
X344322200Y-205983332D01*
X344322200Y-205983332D02*
X344274580Y-206030951D01*
X176076666Y-229694819D02*
X176076666Y-230409104D01*
X176076666Y-230409104D02*
X176029047Y-230551961D01*
X176029047Y-230551961D02*
X175933809Y-230647200D01*
X175933809Y-230647200D02*
X175790952Y-230694819D01*
X175790952Y-230694819D02*
X175695714Y-230694819D01*
X176457619Y-229694819D02*
X177076666Y-229694819D01*
X177076666Y-229694819D02*
X176743333Y-230075771D01*
X176743333Y-230075771D02*
X176886190Y-230075771D01*
X176886190Y-230075771D02*
X176981428Y-230123390D01*
X176981428Y-230123390D02*
X177029047Y-230171009D01*
X177029047Y-230171009D02*
X177076666Y-230266247D01*
X177076666Y-230266247D02*
X177076666Y-230504342D01*
X177076666Y-230504342D02*
X177029047Y-230599580D01*
X177029047Y-230599580D02*
X176981428Y-230647200D01*
X176981428Y-230647200D02*
X176886190Y-230694819D01*
X176886190Y-230694819D02*
X176600476Y-230694819D01*
X176600476Y-230694819D02*
X176505238Y-230647200D01*
X176505238Y-230647200D02*
X176457619Y-230599580D01*
D11*
%TO.C,BS4*%
X254600000Y-203690000D02*
X254600000Y-215290000D01*
X250600000Y-203690000D02*
X254600000Y-203690000D01*
X254600000Y-215290000D02*
X250600000Y-215290000D01*
X250600000Y-215290000D02*
X250600000Y-203690000D01*
D12*
X250200000Y-206990000D02*
G75*
G03*
X250200000Y-206990000I-100000J0D01*
G01*
D11*
%TO.C,BS10*%
X314600000Y-203690000D02*
X314600000Y-215290000D01*
X310600000Y-203690000D02*
X314600000Y-203690000D01*
X314600000Y-215290000D02*
X310600000Y-215290000D01*
X310600000Y-215290000D02*
X310600000Y-203690000D01*
D12*
X310200000Y-206990000D02*
G75*
G03*
X310200000Y-206990000I-100000J0D01*
G01*
D13*
%TO.C,J26*%
X422000000Y-236515200D02*
X420000000Y-236515200D01*
X417494800Y-234010000D02*
X417494800Y-232010000D01*
X424505200Y-232010000D02*
X424505200Y-234010000D01*
X420000000Y-229504800D02*
X422000000Y-229504800D01*
%TO.C,J16*%
X317494800Y-234010000D02*
X317494800Y-232010000D01*
X320000000Y-229504800D02*
X322000000Y-229504800D01*
X322000000Y-236515200D02*
X320000000Y-236515200D01*
X324505200Y-232010000D02*
X324505200Y-234010000D01*
D11*
%TO.C,BS16*%
X370880000Y-203890000D02*
X370880000Y-215490000D01*
X366880000Y-203890000D02*
X370880000Y-203890000D01*
X370880000Y-215490000D02*
X366880000Y-215490000D01*
X366880000Y-215490000D02*
X366880000Y-203890000D01*
D12*
X366480000Y-207190000D02*
G75*
G03*
X366480000Y-207190000I-100000J0D01*
G01*
D13*
%TO.C,J17*%
X327494800Y-234010000D02*
X327494800Y-232010000D01*
X330000000Y-229504800D02*
X332000000Y-229504800D01*
X332000000Y-236515200D02*
X330000000Y-236515200D01*
X334505200Y-232010000D02*
X334505200Y-234010000D01*
%TO.C,J24*%
X397494800Y-234010000D02*
X397494800Y-232010000D01*
X400000000Y-229504800D02*
X402000000Y-229504800D01*
X402000000Y-236515200D02*
X400000000Y-236515200D01*
X404505200Y-232010000D02*
X404505200Y-234010000D01*
D11*
%TO.C,BS1*%
X224600000Y-203690000D02*
X224600000Y-215290000D01*
X220600000Y-203690000D02*
X224600000Y-203690000D01*
X224600000Y-215290000D02*
X220600000Y-215290000D01*
X220600000Y-215290000D02*
X220600000Y-203690000D01*
D12*
X220200000Y-206990000D02*
G75*
G03*
X220200000Y-206990000I-100000J0D01*
G01*
D11*
%TO.C,BS5*%
X264600000Y-203690000D02*
X264600000Y-215290000D01*
X260600000Y-203690000D02*
X264600000Y-203690000D01*
X264600000Y-215290000D02*
X260600000Y-215290000D01*
X260600000Y-215290000D02*
X260600000Y-203690000D01*
D12*
X260200000Y-206990000D02*
G75*
G03*
X260200000Y-206990000I-100000J0D01*
G01*
D13*
%TO.C,J5*%
X197075000Y-220080000D02*
X197075000Y-218750000D01*
X198405000Y-220080000D02*
X197075000Y-220080000D01*
X199675000Y-220080000D02*
X202275000Y-220080000D01*
X199675000Y-220080000D02*
X199675000Y-217420000D01*
X202275000Y-220080000D02*
X202275000Y-217420000D01*
X199675000Y-217420000D02*
X202275000Y-217420000D01*
D11*
%TO.C,BS7*%
X284600000Y-203690000D02*
X284600000Y-215290000D01*
X280600000Y-203690000D02*
X284600000Y-203690000D01*
X284600000Y-215290000D02*
X280600000Y-215290000D01*
X280600000Y-215290000D02*
X280600000Y-203690000D01*
D12*
X280200000Y-206990000D02*
G75*
G03*
X280200000Y-206990000I-100000J0D01*
G01*
D13*
%TO.C,J25*%
X407494800Y-234010000D02*
X407494800Y-232010000D01*
X410000000Y-229504800D02*
X412000000Y-229504800D01*
X412000000Y-236515200D02*
X410000000Y-236515200D01*
X414505200Y-232010000D02*
X414505200Y-234010000D01*
D11*
%TO.C,BS20*%
X408400000Y-203890000D02*
X408400000Y-215490000D01*
X404400000Y-203890000D02*
X408400000Y-203890000D01*
X408400000Y-215490000D02*
X404400000Y-215490000D01*
X404400000Y-215490000D02*
X404400000Y-203890000D01*
D12*
X404000000Y-207190000D02*
G75*
G03*
X404000000Y-207190000I-100000J0D01*
G01*
D13*
%TO.C,J11*%
X274505200Y-232010000D02*
X274505200Y-234010000D01*
X272000000Y-236515200D02*
X270000000Y-236515200D01*
X270000000Y-229504800D02*
X272000000Y-229504800D01*
X267494800Y-234010000D02*
X267494800Y-232010000D01*
D11*
%TO.C,BS3*%
X244600000Y-203690000D02*
X244600000Y-215290000D01*
X240600000Y-203690000D02*
X244600000Y-203690000D01*
X244600000Y-215290000D02*
X240600000Y-215290000D01*
X240600000Y-215290000D02*
X240600000Y-203690000D01*
D12*
X240200000Y-206990000D02*
G75*
G03*
X240200000Y-206990000I-100000J0D01*
G01*
D13*
%TO.C,J9*%
X254565200Y-232010000D02*
X254565200Y-234010000D01*
X252060000Y-236515200D02*
X250060000Y-236515200D01*
X250060000Y-229504800D02*
X252060000Y-229504800D01*
X247554800Y-234010000D02*
X247554800Y-232010000D01*
%TO.C,J12*%
X284505200Y-232010000D02*
X284505200Y-234010000D01*
X282000000Y-236515200D02*
X280000000Y-236515200D01*
X280000000Y-229504800D02*
X282000000Y-229504800D01*
X277494800Y-234010000D02*
X277494800Y-232010000D01*
D11*
%TO.C,BS12*%
X333360000Y-203890000D02*
X333360000Y-215490000D01*
X329360000Y-203890000D02*
X333360000Y-203890000D01*
X333360000Y-215490000D02*
X329360000Y-215490000D01*
X329360000Y-215490000D02*
X329360000Y-203890000D01*
D12*
X328960000Y-207190000D02*
G75*
G03*
X328960000Y-207190000I-100000J0D01*
G01*
D13*
%TO.C,J1*%
X165185200Y-232010000D02*
X165185200Y-234010000D01*
X162680000Y-236515200D02*
X160680000Y-236515200D01*
X160680000Y-229504800D02*
X162680000Y-229504800D01*
X158174800Y-234010000D02*
X158174800Y-232010000D01*
D11*
%TO.C,BS8*%
X294600000Y-203690000D02*
X294600000Y-215290000D01*
X290600000Y-203690000D02*
X294600000Y-203690000D01*
X294600000Y-215290000D02*
X290600000Y-215290000D01*
X290600000Y-215290000D02*
X290600000Y-203690000D01*
D12*
X290200000Y-206990000D02*
G75*
G03*
X290200000Y-206990000I-100000J0D01*
G01*
D13*
%TO.C,R1*%
X188197064Y-234710000D02*
X183842936Y-234710000D01*
X188197064Y-231290000D02*
X183842936Y-231290000D01*
%TO.C,J18*%
X337494800Y-234010000D02*
X337494800Y-232010000D01*
X340000000Y-229504800D02*
X342000000Y-229504800D01*
X342000000Y-236515200D02*
X340000000Y-236515200D01*
X344505200Y-232010000D02*
X344505200Y-234010000D01*
D11*
%TO.C,BS6*%
X274600000Y-203690000D02*
X274600000Y-215290000D01*
X270600000Y-203690000D02*
X274600000Y-203690000D01*
X274600000Y-215290000D02*
X270600000Y-215290000D01*
X270600000Y-215290000D02*
X270600000Y-203690000D01*
D12*
X270200000Y-206990000D02*
G75*
G03*
X270200000Y-206990000I-100000J0D01*
G01*
D11*
%TO.C,BS9*%
X304600000Y-203690000D02*
X304600000Y-215290000D01*
X300600000Y-203690000D02*
X304600000Y-203690000D01*
X304600000Y-215290000D02*
X300600000Y-215290000D01*
X300600000Y-215290000D02*
X300600000Y-203690000D01*
D12*
X300200000Y-206990000D02*
G75*
G03*
X300200000Y-206990000I-100000J0D01*
G01*
D13*
%TO.C,J6*%
X193740238Y-225049568D02*
X193740238Y-237269568D01*
X193740238Y-233969568D02*
X206120238Y-233969568D01*
X193740238Y-235769568D02*
X193740238Y-233969568D01*
X193740238Y-237269568D02*
X206120238Y-237269568D01*
X196390238Y-237269568D02*
X198390238Y-237269568D01*
X196640238Y-235769568D02*
X196390238Y-237269568D01*
X197090238Y-224249568D02*
X197690238Y-224249568D01*
X197390238Y-224849568D02*
X197090238Y-224249568D01*
X197690238Y-224249568D02*
X197390238Y-224849568D01*
X198140238Y-235769568D02*
X196640238Y-235769568D01*
X198390238Y-237269568D02*
X198140238Y-235769568D01*
X201470238Y-237269568D02*
X203470238Y-237269568D01*
X201720238Y-235769568D02*
X201470238Y-237269568D01*
X203220238Y-235769568D02*
X201720238Y-235769568D01*
X203470238Y-237269568D02*
X203220238Y-235769568D01*
X206120238Y-225049568D02*
X193740238Y-225049568D01*
X206120238Y-233969568D02*
X206120238Y-235769568D01*
X206120238Y-235769568D02*
X193740238Y-235769568D01*
X206120238Y-237269568D02*
X206120238Y-225049568D01*
%TO.C,J19*%
X347494800Y-234010000D02*
X347494800Y-232010000D01*
X350000000Y-229504800D02*
X352000000Y-229504800D01*
X352000000Y-236515200D02*
X350000000Y-236515200D01*
X354505200Y-232010000D02*
X354505200Y-234010000D01*
%TO.C,J7*%
X234505200Y-232010000D02*
X234505200Y-234010000D01*
X232000000Y-236515200D02*
X230000000Y-236515200D01*
X230000000Y-229504800D02*
X232000000Y-229504800D01*
X227494800Y-234010000D02*
X227494800Y-232010000D01*
%TO.C,J2*%
X183495000Y-228600000D02*
X183495000Y-227270000D01*
X184825000Y-228600000D02*
X183495000Y-228600000D01*
X186095000Y-228600000D02*
X188695000Y-228600000D01*
X186095000Y-228600000D02*
X186095000Y-225940000D01*
X188695000Y-228600000D02*
X188695000Y-225940000D01*
X186095000Y-225940000D02*
X188695000Y-225940000D01*
D11*
%TO.C,BS17*%
X380260000Y-203890000D02*
X380260000Y-215490000D01*
X376260000Y-203890000D02*
X380260000Y-203890000D01*
X380260000Y-215490000D02*
X376260000Y-215490000D01*
X376260000Y-215490000D02*
X376260000Y-203890000D01*
D12*
X375860000Y-207190000D02*
G75*
G03*
X375860000Y-207190000I-100000J0D01*
G01*
D13*
%TO.C,J15*%
X314505200Y-232010000D02*
X314505200Y-234010000D01*
X312000000Y-236515200D02*
X310000000Y-236515200D01*
X310000000Y-229504800D02*
X312000000Y-229504800D01*
X307494800Y-234010000D02*
X307494800Y-232010000D01*
%TO.C,J20*%
X357494800Y-234010000D02*
X357494800Y-232010000D01*
X360000000Y-229504800D02*
X362000000Y-229504800D01*
X362000000Y-236515200D02*
X360000000Y-236515200D01*
X364505200Y-232010000D02*
X364505200Y-234010000D01*
%TO.C,J14*%
X304505200Y-232010000D02*
X304505200Y-234010000D01*
X302000000Y-236515200D02*
X300000000Y-236515200D01*
X300000000Y-229504800D02*
X302000000Y-229504800D01*
X297494800Y-234010000D02*
X297494800Y-232010000D01*
D11*
%TO.C,BS18*%
X389640000Y-203890000D02*
X389640000Y-215490000D01*
X385640000Y-203890000D02*
X389640000Y-203890000D01*
X389640000Y-215490000D02*
X385640000Y-215490000D01*
X385640000Y-215490000D02*
X385640000Y-203890000D01*
D12*
X385240000Y-207190000D02*
G75*
G03*
X385240000Y-207190000I-100000J0D01*
G01*
D13*
%TO.C,J13*%
X294505200Y-232010000D02*
X294505200Y-234010000D01*
X292000000Y-236515200D02*
X290000000Y-236515200D01*
X290000000Y-229504800D02*
X292000000Y-229504800D01*
X287494800Y-234010000D02*
X287494800Y-232010000D01*
%TO.C,J21*%
X367494800Y-234010000D02*
X367494800Y-232010000D01*
X370000000Y-229504800D02*
X372000000Y-229504800D01*
X372000000Y-236515200D02*
X370000000Y-236515200D01*
X374505200Y-232010000D02*
X374505200Y-234010000D01*
%TO.C,J10*%
X264505200Y-232010000D02*
X264505200Y-234010000D01*
X262000000Y-236515200D02*
X260000000Y-236515200D01*
X260000000Y-229504800D02*
X262000000Y-229504800D01*
X257494800Y-234010000D02*
X257494800Y-232010000D01*
D11*
%TO.C,BS19*%
X399020000Y-203890000D02*
X399020000Y-215490000D01*
X395020000Y-203890000D02*
X399020000Y-203890000D01*
X399020000Y-215490000D02*
X395020000Y-215490000D01*
X395020000Y-215490000D02*
X395020000Y-203890000D01*
D12*
X394620000Y-207190000D02*
G75*
G03*
X394620000Y-207190000I-100000J0D01*
G01*
D13*
%TO.C,J4*%
X169845000Y-234280000D02*
X169845000Y-236880000D01*
X169845000Y-234280000D02*
X172505000Y-234280000D01*
X169845000Y-236880000D02*
X172505000Y-236880000D01*
X171175000Y-231680000D02*
X172505000Y-231680000D01*
X172505000Y-231680000D02*
X172505000Y-233010000D01*
X172505000Y-234280000D02*
X172505000Y-236880000D01*
%TO.C,J22*%
X377494800Y-234010000D02*
X377494800Y-232010000D01*
X380000000Y-229504800D02*
X382000000Y-229504800D01*
X382000000Y-236515200D02*
X380000000Y-236515200D01*
X384505200Y-232010000D02*
X384505200Y-234010000D01*
D11*
%TO.C,BS2*%
X234600000Y-203690000D02*
X234600000Y-215290000D01*
X230600000Y-203690000D02*
X234600000Y-203690000D01*
X234600000Y-215290000D02*
X230600000Y-215290000D01*
X230600000Y-215290000D02*
X230600000Y-203690000D01*
D12*
X230200000Y-206990000D02*
G75*
G03*
X230200000Y-206990000I-100000J0D01*
G01*
D13*
%TO.C,J23*%
X387494800Y-234010000D02*
X387494800Y-232010000D01*
X390000000Y-229504800D02*
X392000000Y-229504800D01*
X392000000Y-236515200D02*
X390000000Y-236515200D01*
X394505200Y-232010000D02*
X394505200Y-234010000D01*
D11*
%TO.C,BS15*%
X361500000Y-203890000D02*
X361500000Y-215490000D01*
X357500000Y-203890000D02*
X361500000Y-203890000D01*
X361500000Y-215490000D02*
X357500000Y-215490000D01*
X357500000Y-215490000D02*
X357500000Y-203890000D01*
D12*
X357100000Y-207190000D02*
G75*
G03*
X357100000Y-207190000I-100000J0D01*
G01*
D11*
%TO.C,BS14*%
X352120000Y-203890000D02*
X352120000Y-215490000D01*
X348120000Y-203890000D02*
X352120000Y-203890000D01*
X352120000Y-215490000D02*
X348120000Y-215490000D01*
X348120000Y-215490000D02*
X348120000Y-203890000D01*
D12*
X347720000Y-207190000D02*
G75*
G03*
X347720000Y-207190000I-100000J0D01*
G01*
D13*
%TO.C,J8*%
X244505200Y-232010000D02*
X244505200Y-234010000D01*
X242000000Y-236515200D02*
X240000000Y-236515200D01*
X240000000Y-229504800D02*
X242000000Y-229504800D01*
X237494800Y-234010000D02*
X237494800Y-232010000D01*
D11*
%TO.C,BS11*%
X323980000Y-203890000D02*
X323980000Y-215490000D01*
X319980000Y-203890000D02*
X323980000Y-203890000D01*
X323980000Y-215490000D02*
X319980000Y-215490000D01*
X319980000Y-215490000D02*
X319980000Y-203890000D01*
D12*
X319580000Y-207190000D02*
G75*
G03*
X319580000Y-207190000I-100000J0D01*
G01*
D11*
%TO.C,BS13*%
X342740000Y-203890000D02*
X342740000Y-215490000D01*
X338740000Y-203890000D02*
X342740000Y-203890000D01*
X342740000Y-215490000D02*
X338740000Y-215490000D01*
X338740000Y-215490000D02*
X338740000Y-203890000D01*
D12*
X338340000Y-207190000D02*
G75*
G03*
X338340000Y-207190000I-100000J0D01*
G01*
D13*
%TO.C,J3*%
X175080000Y-234280000D02*
X175080000Y-236880000D01*
X175080000Y-234280000D02*
X177740000Y-234280000D01*
X175080000Y-236880000D02*
X177740000Y-236880000D01*
X176410000Y-231680000D02*
X177740000Y-231680000D01*
X177740000Y-231680000D02*
X177740000Y-233010000D01*
X177740000Y-234280000D02*
X177740000Y-236880000D01*
%TD*%
M02*
