%TF.GenerationSoftware,KiCad,Pcbnew,7.0.8*%
%TF.CreationDate,2025-10-10T12:23:24-07:00*%
%TF.ProjectId,HV_Safety_Loop,48565f53-6166-4657-9479-5f4c6f6f702e,rev?*%
%TF.SameCoordinates,Original*%
%TF.FileFunction,Legend,Top*%
%TF.FilePolarity,Positive*%
%FSLAX46Y46*%
G04 Gerber Fmt 4.6, Leading zero omitted, Abs format (unit mm)*
G04 Created by KiCad (PCBNEW 7.0.8) date 2025-10-10 12:23:24*
%MOMM*%
%LPD*%
G01*
G04 APERTURE LIST*
%ADD10C,0.100000*%
%ADD11C,0.150000*%
%ADD12C,0.300000*%
%ADD13C,0.400000*%
%ADD14C,0.127000*%
%ADD15C,0.200000*%
%ADD16C,0.120000*%
%TA.AperFunction,Profile*%
%ADD17C,0.100000*%
%TD*%
G04 APERTURE END LIST*
D10*
D11*
X474004400Y-375989000D02*
X582004400Y-375989000D01*
X582004400Y-407989000D01*
X474004400Y-407989000D01*
X474004400Y-375989000D01*
D10*
D11*
X10000000Y-10000000D02*
X584004400Y-10000000D01*
X584004400Y-409989000D01*
X10000000Y-409989000D01*
X10000000Y-10000000D01*
D10*
D11*
X12000000Y-12000000D02*
X582004400Y-12000000D01*
X582004400Y-407989000D01*
X12000000Y-407989000D01*
X12000000Y-12000000D01*
D10*
D11*
X60000000Y-12000000D02*
X60000000Y-10000000D01*
D10*
D11*
X110000000Y-12000000D02*
X110000000Y-10000000D01*
D10*
D11*
X160000000Y-12000000D02*
X160000000Y-10000000D01*
D10*
D11*
X210000000Y-12000000D02*
X210000000Y-10000000D01*
D10*
D11*
X260000000Y-12000000D02*
X260000000Y-10000000D01*
D10*
D11*
X310000000Y-12000000D02*
X310000000Y-10000000D01*
D10*
D11*
X360000000Y-12000000D02*
X360000000Y-10000000D01*
D10*
D11*
X410000000Y-12000000D02*
X410000000Y-10000000D01*
D10*
D11*
X460000000Y-12000000D02*
X460000000Y-10000000D01*
D10*
D11*
X510000000Y-12000000D02*
X510000000Y-10000000D01*
D10*
D11*
X560000000Y-12000000D02*
X560000000Y-10000000D01*
D10*
D11*
X36089160Y-11593604D02*
X35346303Y-11593604D01*
X35717731Y-11593604D02*
X35717731Y-10293604D01*
X35717731Y-10293604D02*
X35593922Y-10479319D01*
X35593922Y-10479319D02*
X35470112Y-10603128D01*
X35470112Y-10603128D02*
X35346303Y-10665033D01*
D10*
D11*
X85346303Y-10417414D02*
X85408207Y-10355509D01*
X85408207Y-10355509D02*
X85532017Y-10293604D01*
X85532017Y-10293604D02*
X85841541Y-10293604D01*
X85841541Y-10293604D02*
X85965350Y-10355509D01*
X85965350Y-10355509D02*
X86027255Y-10417414D01*
X86027255Y-10417414D02*
X86089160Y-10541223D01*
X86089160Y-10541223D02*
X86089160Y-10665033D01*
X86089160Y-10665033D02*
X86027255Y-10850747D01*
X86027255Y-10850747D02*
X85284398Y-11593604D01*
X85284398Y-11593604D02*
X86089160Y-11593604D01*
D10*
D11*
X135284398Y-10293604D02*
X136089160Y-10293604D01*
X136089160Y-10293604D02*
X135655826Y-10788842D01*
X135655826Y-10788842D02*
X135841541Y-10788842D01*
X135841541Y-10788842D02*
X135965350Y-10850747D01*
X135965350Y-10850747D02*
X136027255Y-10912652D01*
X136027255Y-10912652D02*
X136089160Y-11036461D01*
X136089160Y-11036461D02*
X136089160Y-11345985D01*
X136089160Y-11345985D02*
X136027255Y-11469795D01*
X136027255Y-11469795D02*
X135965350Y-11531700D01*
X135965350Y-11531700D02*
X135841541Y-11593604D01*
X135841541Y-11593604D02*
X135470112Y-11593604D01*
X135470112Y-11593604D02*
X135346303Y-11531700D01*
X135346303Y-11531700D02*
X135284398Y-11469795D01*
D10*
D11*
X185965350Y-10726938D02*
X185965350Y-11593604D01*
X185655826Y-10231700D02*
X185346303Y-11160271D01*
X185346303Y-11160271D02*
X186151064Y-11160271D01*
D10*
D11*
X236027255Y-10293604D02*
X235408207Y-10293604D01*
X235408207Y-10293604D02*
X235346303Y-10912652D01*
X235346303Y-10912652D02*
X235408207Y-10850747D01*
X235408207Y-10850747D02*
X235532017Y-10788842D01*
X235532017Y-10788842D02*
X235841541Y-10788842D01*
X235841541Y-10788842D02*
X235965350Y-10850747D01*
X235965350Y-10850747D02*
X236027255Y-10912652D01*
X236027255Y-10912652D02*
X236089160Y-11036461D01*
X236089160Y-11036461D02*
X236089160Y-11345985D01*
X236089160Y-11345985D02*
X236027255Y-11469795D01*
X236027255Y-11469795D02*
X235965350Y-11531700D01*
X235965350Y-11531700D02*
X235841541Y-11593604D01*
X235841541Y-11593604D02*
X235532017Y-11593604D01*
X235532017Y-11593604D02*
X235408207Y-11531700D01*
X235408207Y-11531700D02*
X235346303Y-11469795D01*
D10*
D11*
X285965350Y-10293604D02*
X285717731Y-10293604D01*
X285717731Y-10293604D02*
X285593922Y-10355509D01*
X285593922Y-10355509D02*
X285532017Y-10417414D01*
X285532017Y-10417414D02*
X285408207Y-10603128D01*
X285408207Y-10603128D02*
X285346303Y-10850747D01*
X285346303Y-10850747D02*
X285346303Y-11345985D01*
X285346303Y-11345985D02*
X285408207Y-11469795D01*
X285408207Y-11469795D02*
X285470112Y-11531700D01*
X285470112Y-11531700D02*
X285593922Y-11593604D01*
X285593922Y-11593604D02*
X285841541Y-11593604D01*
X285841541Y-11593604D02*
X285965350Y-11531700D01*
X285965350Y-11531700D02*
X286027255Y-11469795D01*
X286027255Y-11469795D02*
X286089160Y-11345985D01*
X286089160Y-11345985D02*
X286089160Y-11036461D01*
X286089160Y-11036461D02*
X286027255Y-10912652D01*
X286027255Y-10912652D02*
X285965350Y-10850747D01*
X285965350Y-10850747D02*
X285841541Y-10788842D01*
X285841541Y-10788842D02*
X285593922Y-10788842D01*
X285593922Y-10788842D02*
X285470112Y-10850747D01*
X285470112Y-10850747D02*
X285408207Y-10912652D01*
X285408207Y-10912652D02*
X285346303Y-11036461D01*
D10*
D11*
X335284398Y-10293604D02*
X336151064Y-10293604D01*
X336151064Y-10293604D02*
X335593922Y-11593604D01*
D10*
D11*
X385593922Y-10850747D02*
X385470112Y-10788842D01*
X385470112Y-10788842D02*
X385408207Y-10726938D01*
X385408207Y-10726938D02*
X385346303Y-10603128D01*
X385346303Y-10603128D02*
X385346303Y-10541223D01*
X385346303Y-10541223D02*
X385408207Y-10417414D01*
X385408207Y-10417414D02*
X385470112Y-10355509D01*
X385470112Y-10355509D02*
X385593922Y-10293604D01*
X385593922Y-10293604D02*
X385841541Y-10293604D01*
X385841541Y-10293604D02*
X385965350Y-10355509D01*
X385965350Y-10355509D02*
X386027255Y-10417414D01*
X386027255Y-10417414D02*
X386089160Y-10541223D01*
X386089160Y-10541223D02*
X386089160Y-10603128D01*
X386089160Y-10603128D02*
X386027255Y-10726938D01*
X386027255Y-10726938D02*
X385965350Y-10788842D01*
X385965350Y-10788842D02*
X385841541Y-10850747D01*
X385841541Y-10850747D02*
X385593922Y-10850747D01*
X385593922Y-10850747D02*
X385470112Y-10912652D01*
X385470112Y-10912652D02*
X385408207Y-10974557D01*
X385408207Y-10974557D02*
X385346303Y-11098366D01*
X385346303Y-11098366D02*
X385346303Y-11345985D01*
X385346303Y-11345985D02*
X385408207Y-11469795D01*
X385408207Y-11469795D02*
X385470112Y-11531700D01*
X385470112Y-11531700D02*
X385593922Y-11593604D01*
X385593922Y-11593604D02*
X385841541Y-11593604D01*
X385841541Y-11593604D02*
X385965350Y-11531700D01*
X385965350Y-11531700D02*
X386027255Y-11469795D01*
X386027255Y-11469795D02*
X386089160Y-11345985D01*
X386089160Y-11345985D02*
X386089160Y-11098366D01*
X386089160Y-11098366D02*
X386027255Y-10974557D01*
X386027255Y-10974557D02*
X385965350Y-10912652D01*
X385965350Y-10912652D02*
X385841541Y-10850747D01*
D10*
D11*
X435470112Y-11593604D02*
X435717731Y-11593604D01*
X435717731Y-11593604D02*
X435841541Y-11531700D01*
X435841541Y-11531700D02*
X435903445Y-11469795D01*
X435903445Y-11469795D02*
X436027255Y-11284080D01*
X436027255Y-11284080D02*
X436089160Y-11036461D01*
X436089160Y-11036461D02*
X436089160Y-10541223D01*
X436089160Y-10541223D02*
X436027255Y-10417414D01*
X436027255Y-10417414D02*
X435965350Y-10355509D01*
X435965350Y-10355509D02*
X435841541Y-10293604D01*
X435841541Y-10293604D02*
X435593922Y-10293604D01*
X435593922Y-10293604D02*
X435470112Y-10355509D01*
X435470112Y-10355509D02*
X435408207Y-10417414D01*
X435408207Y-10417414D02*
X435346303Y-10541223D01*
X435346303Y-10541223D02*
X435346303Y-10850747D01*
X435346303Y-10850747D02*
X435408207Y-10974557D01*
X435408207Y-10974557D02*
X435470112Y-11036461D01*
X435470112Y-11036461D02*
X435593922Y-11098366D01*
X435593922Y-11098366D02*
X435841541Y-11098366D01*
X435841541Y-11098366D02*
X435965350Y-11036461D01*
X435965350Y-11036461D02*
X436027255Y-10974557D01*
X436027255Y-10974557D02*
X436089160Y-10850747D01*
D10*
D11*
X486089160Y-11593604D02*
X485346303Y-11593604D01*
X485717731Y-11593604D02*
X485717731Y-10293604D01*
X485717731Y-10293604D02*
X485593922Y-10479319D01*
X485593922Y-10479319D02*
X485470112Y-10603128D01*
X485470112Y-10603128D02*
X485346303Y-10665033D01*
X486893921Y-10293604D02*
X487017731Y-10293604D01*
X487017731Y-10293604D02*
X487141540Y-10355509D01*
X487141540Y-10355509D02*
X487203445Y-10417414D01*
X487203445Y-10417414D02*
X487265350Y-10541223D01*
X487265350Y-10541223D02*
X487327255Y-10788842D01*
X487327255Y-10788842D02*
X487327255Y-11098366D01*
X487327255Y-11098366D02*
X487265350Y-11345985D01*
X487265350Y-11345985D02*
X487203445Y-11469795D01*
X487203445Y-11469795D02*
X487141540Y-11531700D01*
X487141540Y-11531700D02*
X487017731Y-11593604D01*
X487017731Y-11593604D02*
X486893921Y-11593604D01*
X486893921Y-11593604D02*
X486770112Y-11531700D01*
X486770112Y-11531700D02*
X486708207Y-11469795D01*
X486708207Y-11469795D02*
X486646302Y-11345985D01*
X486646302Y-11345985D02*
X486584398Y-11098366D01*
X486584398Y-11098366D02*
X486584398Y-10788842D01*
X486584398Y-10788842D02*
X486646302Y-10541223D01*
X486646302Y-10541223D02*
X486708207Y-10417414D01*
X486708207Y-10417414D02*
X486770112Y-10355509D01*
X486770112Y-10355509D02*
X486893921Y-10293604D01*
D10*
D11*
X536089160Y-11593604D02*
X535346303Y-11593604D01*
X535717731Y-11593604D02*
X535717731Y-10293604D01*
X535717731Y-10293604D02*
X535593922Y-10479319D01*
X535593922Y-10479319D02*
X535470112Y-10603128D01*
X535470112Y-10603128D02*
X535346303Y-10665033D01*
X537327255Y-11593604D02*
X536584398Y-11593604D01*
X536955826Y-11593604D02*
X536955826Y-10293604D01*
X536955826Y-10293604D02*
X536832017Y-10479319D01*
X536832017Y-10479319D02*
X536708207Y-10603128D01*
X536708207Y-10603128D02*
X536584398Y-10665033D01*
D10*
D11*
X60000000Y-407989000D02*
X60000000Y-409989000D01*
D10*
D11*
X110000000Y-407989000D02*
X110000000Y-409989000D01*
D10*
D11*
X160000000Y-407989000D02*
X160000000Y-409989000D01*
D10*
D11*
X210000000Y-407989000D02*
X210000000Y-409989000D01*
D10*
D11*
X260000000Y-407989000D02*
X260000000Y-409989000D01*
D10*
D11*
X310000000Y-407989000D02*
X310000000Y-409989000D01*
D10*
D11*
X360000000Y-407989000D02*
X360000000Y-409989000D01*
D10*
D11*
X410000000Y-407989000D02*
X410000000Y-409989000D01*
D10*
D11*
X460000000Y-407989000D02*
X460000000Y-409989000D01*
D10*
D11*
X510000000Y-407989000D02*
X510000000Y-409989000D01*
D10*
D11*
X560000000Y-407989000D02*
X560000000Y-409989000D01*
D10*
D11*
X36089160Y-409582604D02*
X35346303Y-409582604D01*
X35717731Y-409582604D02*
X35717731Y-408282604D01*
X35717731Y-408282604D02*
X35593922Y-408468319D01*
X35593922Y-408468319D02*
X35470112Y-408592128D01*
X35470112Y-408592128D02*
X35346303Y-408654033D01*
D10*
D11*
X85346303Y-408406414D02*
X85408207Y-408344509D01*
X85408207Y-408344509D02*
X85532017Y-408282604D01*
X85532017Y-408282604D02*
X85841541Y-408282604D01*
X85841541Y-408282604D02*
X85965350Y-408344509D01*
X85965350Y-408344509D02*
X86027255Y-408406414D01*
X86027255Y-408406414D02*
X86089160Y-408530223D01*
X86089160Y-408530223D02*
X86089160Y-408654033D01*
X86089160Y-408654033D02*
X86027255Y-408839747D01*
X86027255Y-408839747D02*
X85284398Y-409582604D01*
X85284398Y-409582604D02*
X86089160Y-409582604D01*
D10*
D11*
X135284398Y-408282604D02*
X136089160Y-408282604D01*
X136089160Y-408282604D02*
X135655826Y-408777842D01*
X135655826Y-408777842D02*
X135841541Y-408777842D01*
X135841541Y-408777842D02*
X135965350Y-408839747D01*
X135965350Y-408839747D02*
X136027255Y-408901652D01*
X136027255Y-408901652D02*
X136089160Y-409025461D01*
X136089160Y-409025461D02*
X136089160Y-409334985D01*
X136089160Y-409334985D02*
X136027255Y-409458795D01*
X136027255Y-409458795D02*
X135965350Y-409520700D01*
X135965350Y-409520700D02*
X135841541Y-409582604D01*
X135841541Y-409582604D02*
X135470112Y-409582604D01*
X135470112Y-409582604D02*
X135346303Y-409520700D01*
X135346303Y-409520700D02*
X135284398Y-409458795D01*
D10*
D11*
X185965350Y-408715938D02*
X185965350Y-409582604D01*
X185655826Y-408220700D02*
X185346303Y-409149271D01*
X185346303Y-409149271D02*
X186151064Y-409149271D01*
D10*
D11*
X236027255Y-408282604D02*
X235408207Y-408282604D01*
X235408207Y-408282604D02*
X235346303Y-408901652D01*
X235346303Y-408901652D02*
X235408207Y-408839747D01*
X235408207Y-408839747D02*
X235532017Y-408777842D01*
X235532017Y-408777842D02*
X235841541Y-408777842D01*
X235841541Y-408777842D02*
X235965350Y-408839747D01*
X235965350Y-408839747D02*
X236027255Y-408901652D01*
X236027255Y-408901652D02*
X236089160Y-409025461D01*
X236089160Y-409025461D02*
X236089160Y-409334985D01*
X236089160Y-409334985D02*
X236027255Y-409458795D01*
X236027255Y-409458795D02*
X235965350Y-409520700D01*
X235965350Y-409520700D02*
X235841541Y-409582604D01*
X235841541Y-409582604D02*
X235532017Y-409582604D01*
X235532017Y-409582604D02*
X235408207Y-409520700D01*
X235408207Y-409520700D02*
X235346303Y-409458795D01*
D10*
D11*
X285965350Y-408282604D02*
X285717731Y-408282604D01*
X285717731Y-408282604D02*
X285593922Y-408344509D01*
X285593922Y-408344509D02*
X285532017Y-408406414D01*
X285532017Y-408406414D02*
X285408207Y-408592128D01*
X285408207Y-408592128D02*
X285346303Y-408839747D01*
X285346303Y-408839747D02*
X285346303Y-409334985D01*
X285346303Y-409334985D02*
X285408207Y-409458795D01*
X285408207Y-409458795D02*
X285470112Y-409520700D01*
X285470112Y-409520700D02*
X285593922Y-409582604D01*
X285593922Y-409582604D02*
X285841541Y-409582604D01*
X285841541Y-409582604D02*
X285965350Y-409520700D01*
X285965350Y-409520700D02*
X286027255Y-409458795D01*
X286027255Y-409458795D02*
X286089160Y-409334985D01*
X286089160Y-409334985D02*
X286089160Y-409025461D01*
X286089160Y-409025461D02*
X286027255Y-408901652D01*
X286027255Y-408901652D02*
X285965350Y-408839747D01*
X285965350Y-408839747D02*
X285841541Y-408777842D01*
X285841541Y-408777842D02*
X285593922Y-408777842D01*
X285593922Y-408777842D02*
X285470112Y-408839747D01*
X285470112Y-408839747D02*
X285408207Y-408901652D01*
X285408207Y-408901652D02*
X285346303Y-409025461D01*
D10*
D11*
X335284398Y-408282604D02*
X336151064Y-408282604D01*
X336151064Y-408282604D02*
X335593922Y-409582604D01*
D10*
D11*
X385593922Y-408839747D02*
X385470112Y-408777842D01*
X385470112Y-408777842D02*
X385408207Y-408715938D01*
X385408207Y-408715938D02*
X385346303Y-408592128D01*
X385346303Y-408592128D02*
X385346303Y-408530223D01*
X385346303Y-408530223D02*
X385408207Y-408406414D01*
X385408207Y-408406414D02*
X385470112Y-408344509D01*
X385470112Y-408344509D02*
X385593922Y-408282604D01*
X385593922Y-408282604D02*
X385841541Y-408282604D01*
X385841541Y-408282604D02*
X385965350Y-408344509D01*
X385965350Y-408344509D02*
X386027255Y-408406414D01*
X386027255Y-408406414D02*
X386089160Y-408530223D01*
X386089160Y-408530223D02*
X386089160Y-408592128D01*
X386089160Y-408592128D02*
X386027255Y-408715938D01*
X386027255Y-408715938D02*
X385965350Y-408777842D01*
X385965350Y-408777842D02*
X385841541Y-408839747D01*
X385841541Y-408839747D02*
X385593922Y-408839747D01*
X385593922Y-408839747D02*
X385470112Y-408901652D01*
X385470112Y-408901652D02*
X385408207Y-408963557D01*
X385408207Y-408963557D02*
X385346303Y-409087366D01*
X385346303Y-409087366D02*
X385346303Y-409334985D01*
X385346303Y-409334985D02*
X385408207Y-409458795D01*
X385408207Y-409458795D02*
X385470112Y-409520700D01*
X385470112Y-409520700D02*
X385593922Y-409582604D01*
X385593922Y-409582604D02*
X385841541Y-409582604D01*
X385841541Y-409582604D02*
X385965350Y-409520700D01*
X385965350Y-409520700D02*
X386027255Y-409458795D01*
X386027255Y-409458795D02*
X386089160Y-409334985D01*
X386089160Y-409334985D02*
X386089160Y-409087366D01*
X386089160Y-409087366D02*
X386027255Y-408963557D01*
X386027255Y-408963557D02*
X385965350Y-408901652D01*
X385965350Y-408901652D02*
X385841541Y-408839747D01*
D10*
D11*
X435470112Y-409582604D02*
X435717731Y-409582604D01*
X435717731Y-409582604D02*
X435841541Y-409520700D01*
X435841541Y-409520700D02*
X435903445Y-409458795D01*
X435903445Y-409458795D02*
X436027255Y-409273080D01*
X436027255Y-409273080D02*
X436089160Y-409025461D01*
X436089160Y-409025461D02*
X436089160Y-408530223D01*
X436089160Y-408530223D02*
X436027255Y-408406414D01*
X436027255Y-408406414D02*
X435965350Y-408344509D01*
X435965350Y-408344509D02*
X435841541Y-408282604D01*
X435841541Y-408282604D02*
X435593922Y-408282604D01*
X435593922Y-408282604D02*
X435470112Y-408344509D01*
X435470112Y-408344509D02*
X435408207Y-408406414D01*
X435408207Y-408406414D02*
X435346303Y-408530223D01*
X435346303Y-408530223D02*
X435346303Y-408839747D01*
X435346303Y-408839747D02*
X435408207Y-408963557D01*
X435408207Y-408963557D02*
X435470112Y-409025461D01*
X435470112Y-409025461D02*
X435593922Y-409087366D01*
X435593922Y-409087366D02*
X435841541Y-409087366D01*
X435841541Y-409087366D02*
X435965350Y-409025461D01*
X435965350Y-409025461D02*
X436027255Y-408963557D01*
X436027255Y-408963557D02*
X436089160Y-408839747D01*
D10*
D11*
X486089160Y-409582604D02*
X485346303Y-409582604D01*
X485717731Y-409582604D02*
X485717731Y-408282604D01*
X485717731Y-408282604D02*
X485593922Y-408468319D01*
X485593922Y-408468319D02*
X485470112Y-408592128D01*
X485470112Y-408592128D02*
X485346303Y-408654033D01*
X486893921Y-408282604D02*
X487017731Y-408282604D01*
X487017731Y-408282604D02*
X487141540Y-408344509D01*
X487141540Y-408344509D02*
X487203445Y-408406414D01*
X487203445Y-408406414D02*
X487265350Y-408530223D01*
X487265350Y-408530223D02*
X487327255Y-408777842D01*
X487327255Y-408777842D02*
X487327255Y-409087366D01*
X487327255Y-409087366D02*
X487265350Y-409334985D01*
X487265350Y-409334985D02*
X487203445Y-409458795D01*
X487203445Y-409458795D02*
X487141540Y-409520700D01*
X487141540Y-409520700D02*
X487017731Y-409582604D01*
X487017731Y-409582604D02*
X486893921Y-409582604D01*
X486893921Y-409582604D02*
X486770112Y-409520700D01*
X486770112Y-409520700D02*
X486708207Y-409458795D01*
X486708207Y-409458795D02*
X486646302Y-409334985D01*
X486646302Y-409334985D02*
X486584398Y-409087366D01*
X486584398Y-409087366D02*
X486584398Y-408777842D01*
X486584398Y-408777842D02*
X486646302Y-408530223D01*
X486646302Y-408530223D02*
X486708207Y-408406414D01*
X486708207Y-408406414D02*
X486770112Y-408344509D01*
X486770112Y-408344509D02*
X486893921Y-408282604D01*
D10*
D11*
X536089160Y-409582604D02*
X535346303Y-409582604D01*
X535717731Y-409582604D02*
X535717731Y-408282604D01*
X535717731Y-408282604D02*
X535593922Y-408468319D01*
X535593922Y-408468319D02*
X535470112Y-408592128D01*
X535470112Y-408592128D02*
X535346303Y-408654033D01*
X537327255Y-409582604D02*
X536584398Y-409582604D01*
X536955826Y-409582604D02*
X536955826Y-408282604D01*
X536955826Y-408282604D02*
X536832017Y-408468319D01*
X536832017Y-408468319D02*
X536708207Y-408592128D01*
X536708207Y-408592128D02*
X536584398Y-408654033D01*
D10*
D11*
X10000000Y-60000000D02*
X12000000Y-60000000D01*
D10*
D11*
X10000000Y-110000000D02*
X12000000Y-110000000D01*
D10*
D11*
X10000000Y-160000000D02*
X12000000Y-160000000D01*
D10*
D11*
X10000000Y-210000000D02*
X12000000Y-210000000D01*
D10*
D11*
X10000000Y-260000000D02*
X12000000Y-260000000D01*
D10*
D11*
X10000000Y-310000000D02*
X12000000Y-310000000D01*
D10*
D11*
X10000000Y-360000000D02*
X12000000Y-360000000D01*
D10*
D11*
X10690476Y-35222176D02*
X11309523Y-35222176D01*
X10566666Y-35593604D02*
X10999999Y-34293604D01*
X10999999Y-34293604D02*
X11433333Y-35593604D01*
D10*
D11*
X11092857Y-84912652D02*
X11278571Y-84974557D01*
X11278571Y-84974557D02*
X11340476Y-85036461D01*
X11340476Y-85036461D02*
X11402380Y-85160271D01*
X11402380Y-85160271D02*
X11402380Y-85345985D01*
X11402380Y-85345985D02*
X11340476Y-85469795D01*
X11340476Y-85469795D02*
X11278571Y-85531700D01*
X11278571Y-85531700D02*
X11154761Y-85593604D01*
X11154761Y-85593604D02*
X10659523Y-85593604D01*
X10659523Y-85593604D02*
X10659523Y-84293604D01*
X10659523Y-84293604D02*
X11092857Y-84293604D01*
X11092857Y-84293604D02*
X11216666Y-84355509D01*
X11216666Y-84355509D02*
X11278571Y-84417414D01*
X11278571Y-84417414D02*
X11340476Y-84541223D01*
X11340476Y-84541223D02*
X11340476Y-84665033D01*
X11340476Y-84665033D02*
X11278571Y-84788842D01*
X11278571Y-84788842D02*
X11216666Y-84850747D01*
X11216666Y-84850747D02*
X11092857Y-84912652D01*
X11092857Y-84912652D02*
X10659523Y-84912652D01*
D10*
D11*
X11402380Y-135469795D02*
X11340476Y-135531700D01*
X11340476Y-135531700D02*
X11154761Y-135593604D01*
X11154761Y-135593604D02*
X11030952Y-135593604D01*
X11030952Y-135593604D02*
X10845238Y-135531700D01*
X10845238Y-135531700D02*
X10721428Y-135407890D01*
X10721428Y-135407890D02*
X10659523Y-135284080D01*
X10659523Y-135284080D02*
X10597619Y-135036461D01*
X10597619Y-135036461D02*
X10597619Y-134850747D01*
X10597619Y-134850747D02*
X10659523Y-134603128D01*
X10659523Y-134603128D02*
X10721428Y-134479319D01*
X10721428Y-134479319D02*
X10845238Y-134355509D01*
X10845238Y-134355509D02*
X11030952Y-134293604D01*
X11030952Y-134293604D02*
X11154761Y-134293604D01*
X11154761Y-134293604D02*
X11340476Y-134355509D01*
X11340476Y-134355509D02*
X11402380Y-134417414D01*
D10*
D11*
X10659523Y-185593604D02*
X10659523Y-184293604D01*
X10659523Y-184293604D02*
X10969047Y-184293604D01*
X10969047Y-184293604D02*
X11154761Y-184355509D01*
X11154761Y-184355509D02*
X11278571Y-184479319D01*
X11278571Y-184479319D02*
X11340476Y-184603128D01*
X11340476Y-184603128D02*
X11402380Y-184850747D01*
X11402380Y-184850747D02*
X11402380Y-185036461D01*
X11402380Y-185036461D02*
X11340476Y-185284080D01*
X11340476Y-185284080D02*
X11278571Y-185407890D01*
X11278571Y-185407890D02*
X11154761Y-185531700D01*
X11154761Y-185531700D02*
X10969047Y-185593604D01*
X10969047Y-185593604D02*
X10659523Y-185593604D01*
D10*
D11*
X10721428Y-234912652D02*
X11154762Y-234912652D01*
X11340476Y-235593604D02*
X10721428Y-235593604D01*
X10721428Y-235593604D02*
X10721428Y-234293604D01*
X10721428Y-234293604D02*
X11340476Y-234293604D01*
D10*
D11*
X11185714Y-284912652D02*
X10752380Y-284912652D01*
X10752380Y-285593604D02*
X10752380Y-284293604D01*
X10752380Y-284293604D02*
X11371428Y-284293604D01*
D10*
D11*
X11340476Y-334355509D02*
X11216666Y-334293604D01*
X11216666Y-334293604D02*
X11030952Y-334293604D01*
X11030952Y-334293604D02*
X10845238Y-334355509D01*
X10845238Y-334355509D02*
X10721428Y-334479319D01*
X10721428Y-334479319D02*
X10659523Y-334603128D01*
X10659523Y-334603128D02*
X10597619Y-334850747D01*
X10597619Y-334850747D02*
X10597619Y-335036461D01*
X10597619Y-335036461D02*
X10659523Y-335284080D01*
X10659523Y-335284080D02*
X10721428Y-335407890D01*
X10721428Y-335407890D02*
X10845238Y-335531700D01*
X10845238Y-335531700D02*
X11030952Y-335593604D01*
X11030952Y-335593604D02*
X11154761Y-335593604D01*
X11154761Y-335593604D02*
X11340476Y-335531700D01*
X11340476Y-335531700D02*
X11402380Y-335469795D01*
X11402380Y-335469795D02*
X11402380Y-335036461D01*
X11402380Y-335036461D02*
X11154761Y-335036461D01*
D10*
D11*
X10628571Y-385593604D02*
X10628571Y-384293604D01*
X10628571Y-384912652D02*
X11371428Y-384912652D01*
X11371428Y-385593604D02*
X11371428Y-384293604D01*
D10*
D11*
X584004400Y-60000000D02*
X582004400Y-60000000D01*
D10*
D11*
X584004400Y-110000000D02*
X582004400Y-110000000D01*
D10*
D11*
X584004400Y-160000000D02*
X582004400Y-160000000D01*
D10*
D11*
X584004400Y-210000000D02*
X582004400Y-210000000D01*
D10*
D11*
X584004400Y-260000000D02*
X582004400Y-260000000D01*
D10*
D11*
X584004400Y-310000000D02*
X582004400Y-310000000D01*
D10*
D11*
X584004400Y-360000000D02*
X582004400Y-360000000D01*
D10*
D11*
X582694876Y-35222176D02*
X583313923Y-35222176D01*
X582571066Y-35593604D02*
X583004399Y-34293604D01*
X583004399Y-34293604D02*
X583437733Y-35593604D01*
D10*
D11*
X583097257Y-84912652D02*
X583282971Y-84974557D01*
X583282971Y-84974557D02*
X583344876Y-85036461D01*
X583344876Y-85036461D02*
X583406780Y-85160271D01*
X583406780Y-85160271D02*
X583406780Y-85345985D01*
X583406780Y-85345985D02*
X583344876Y-85469795D01*
X583344876Y-85469795D02*
X583282971Y-85531700D01*
X583282971Y-85531700D02*
X583159161Y-85593604D01*
X583159161Y-85593604D02*
X582663923Y-85593604D01*
X582663923Y-85593604D02*
X582663923Y-84293604D01*
X582663923Y-84293604D02*
X583097257Y-84293604D01*
X583097257Y-84293604D02*
X583221066Y-84355509D01*
X583221066Y-84355509D02*
X583282971Y-84417414D01*
X583282971Y-84417414D02*
X583344876Y-84541223D01*
X583344876Y-84541223D02*
X583344876Y-84665033D01*
X583344876Y-84665033D02*
X583282971Y-84788842D01*
X583282971Y-84788842D02*
X583221066Y-84850747D01*
X583221066Y-84850747D02*
X583097257Y-84912652D01*
X583097257Y-84912652D02*
X582663923Y-84912652D01*
D10*
D11*
X583406780Y-135469795D02*
X583344876Y-135531700D01*
X583344876Y-135531700D02*
X583159161Y-135593604D01*
X583159161Y-135593604D02*
X583035352Y-135593604D01*
X583035352Y-135593604D02*
X582849638Y-135531700D01*
X582849638Y-135531700D02*
X582725828Y-135407890D01*
X582725828Y-135407890D02*
X582663923Y-135284080D01*
X582663923Y-135284080D02*
X582602019Y-135036461D01*
X582602019Y-135036461D02*
X582602019Y-134850747D01*
X582602019Y-134850747D02*
X582663923Y-134603128D01*
X582663923Y-134603128D02*
X582725828Y-134479319D01*
X582725828Y-134479319D02*
X582849638Y-134355509D01*
X582849638Y-134355509D02*
X583035352Y-134293604D01*
X583035352Y-134293604D02*
X583159161Y-134293604D01*
X583159161Y-134293604D02*
X583344876Y-134355509D01*
X583344876Y-134355509D02*
X583406780Y-134417414D01*
D10*
D11*
X582663923Y-185593604D02*
X582663923Y-184293604D01*
X582663923Y-184293604D02*
X582973447Y-184293604D01*
X582973447Y-184293604D02*
X583159161Y-184355509D01*
X583159161Y-184355509D02*
X583282971Y-184479319D01*
X583282971Y-184479319D02*
X583344876Y-184603128D01*
X583344876Y-184603128D02*
X583406780Y-184850747D01*
X583406780Y-184850747D02*
X583406780Y-185036461D01*
X583406780Y-185036461D02*
X583344876Y-185284080D01*
X583344876Y-185284080D02*
X583282971Y-185407890D01*
X583282971Y-185407890D02*
X583159161Y-185531700D01*
X583159161Y-185531700D02*
X582973447Y-185593604D01*
X582973447Y-185593604D02*
X582663923Y-185593604D01*
D10*
D11*
X582725828Y-234912652D02*
X583159162Y-234912652D01*
X583344876Y-235593604D02*
X582725828Y-235593604D01*
X582725828Y-235593604D02*
X582725828Y-234293604D01*
X582725828Y-234293604D02*
X583344876Y-234293604D01*
D10*
D11*
X583190114Y-284912652D02*
X582756780Y-284912652D01*
X582756780Y-285593604D02*
X582756780Y-284293604D01*
X582756780Y-284293604D02*
X583375828Y-284293604D01*
D10*
D11*
X583344876Y-334355509D02*
X583221066Y-334293604D01*
X583221066Y-334293604D02*
X583035352Y-334293604D01*
X583035352Y-334293604D02*
X582849638Y-334355509D01*
X582849638Y-334355509D02*
X582725828Y-334479319D01*
X582725828Y-334479319D02*
X582663923Y-334603128D01*
X582663923Y-334603128D02*
X582602019Y-334850747D01*
X582602019Y-334850747D02*
X582602019Y-335036461D01*
X582602019Y-335036461D02*
X582663923Y-335284080D01*
X582663923Y-335284080D02*
X582725828Y-335407890D01*
X582725828Y-335407890D02*
X582849638Y-335531700D01*
X582849638Y-335531700D02*
X583035352Y-335593604D01*
X583035352Y-335593604D02*
X583159161Y-335593604D01*
X583159161Y-335593604D02*
X583344876Y-335531700D01*
X583344876Y-335531700D02*
X583406780Y-335469795D01*
X583406780Y-335469795D02*
X583406780Y-335036461D01*
X583406780Y-335036461D02*
X583159161Y-335036461D01*
D10*
D11*
X582632971Y-385593604D02*
X582632971Y-384293604D01*
X582632971Y-384912652D02*
X583375828Y-384912652D01*
X583375828Y-385593604D02*
X583375828Y-384293604D01*
D10*
D11*
X497460226Y-403775128D02*
X497460226Y-402275128D01*
X497460226Y-402275128D02*
X497817369Y-402275128D01*
X497817369Y-402275128D02*
X498031655Y-402346557D01*
X498031655Y-402346557D02*
X498174512Y-402489414D01*
X498174512Y-402489414D02*
X498245941Y-402632271D01*
X498245941Y-402632271D02*
X498317369Y-402917985D01*
X498317369Y-402917985D02*
X498317369Y-403132271D01*
X498317369Y-403132271D02*
X498245941Y-403417985D01*
X498245941Y-403417985D02*
X498174512Y-403560842D01*
X498174512Y-403560842D02*
X498031655Y-403703700D01*
X498031655Y-403703700D02*
X497817369Y-403775128D01*
X497817369Y-403775128D02*
X497460226Y-403775128D01*
X499603084Y-403775128D02*
X499603084Y-402989414D01*
X499603084Y-402989414D02*
X499531655Y-402846557D01*
X499531655Y-402846557D02*
X499388798Y-402775128D01*
X499388798Y-402775128D02*
X499103084Y-402775128D01*
X499103084Y-402775128D02*
X498960226Y-402846557D01*
X499603084Y-403703700D02*
X499460226Y-403775128D01*
X499460226Y-403775128D02*
X499103084Y-403775128D01*
X499103084Y-403775128D02*
X498960226Y-403703700D01*
X498960226Y-403703700D02*
X498888798Y-403560842D01*
X498888798Y-403560842D02*
X498888798Y-403417985D01*
X498888798Y-403417985D02*
X498960226Y-403275128D01*
X498960226Y-403275128D02*
X499103084Y-403203700D01*
X499103084Y-403203700D02*
X499460226Y-403203700D01*
X499460226Y-403203700D02*
X499603084Y-403132271D01*
X500103084Y-402775128D02*
X500674512Y-402775128D01*
X500317369Y-402275128D02*
X500317369Y-403560842D01*
X500317369Y-403560842D02*
X500388798Y-403703700D01*
X500388798Y-403703700D02*
X500531655Y-403775128D01*
X500531655Y-403775128D02*
X500674512Y-403775128D01*
X501745941Y-403703700D02*
X501603084Y-403775128D01*
X501603084Y-403775128D02*
X501317370Y-403775128D01*
X501317370Y-403775128D02*
X501174512Y-403703700D01*
X501174512Y-403703700D02*
X501103084Y-403560842D01*
X501103084Y-403560842D02*
X501103084Y-402989414D01*
X501103084Y-402989414D02*
X501174512Y-402846557D01*
X501174512Y-402846557D02*
X501317370Y-402775128D01*
X501317370Y-402775128D02*
X501603084Y-402775128D01*
X501603084Y-402775128D02*
X501745941Y-402846557D01*
X501745941Y-402846557D02*
X501817370Y-402989414D01*
X501817370Y-402989414D02*
X501817370Y-403132271D01*
X501817370Y-403132271D02*
X501103084Y-403275128D01*
X502460226Y-403632271D02*
X502531655Y-403703700D01*
X502531655Y-403703700D02*
X502460226Y-403775128D01*
X502460226Y-403775128D02*
X502388798Y-403703700D01*
X502388798Y-403703700D02*
X502460226Y-403632271D01*
X502460226Y-403632271D02*
X502460226Y-403775128D01*
X502460226Y-402846557D02*
X502531655Y-402917985D01*
X502531655Y-402917985D02*
X502460226Y-402989414D01*
X502460226Y-402989414D02*
X502388798Y-402917985D01*
X502388798Y-402917985D02*
X502460226Y-402846557D01*
X502460226Y-402846557D02*
X502460226Y-402989414D01*
D10*
D11*
X474004400Y-404489000D02*
X582004400Y-404489000D01*
D10*
D11*
X475460226Y-406575128D02*
X475460226Y-405075128D01*
X476317369Y-406575128D02*
X475674512Y-405717985D01*
X476317369Y-405075128D02*
X475460226Y-405932271D01*
X476960226Y-406575128D02*
X476960226Y-405575128D01*
X476960226Y-405075128D02*
X476888798Y-405146557D01*
X476888798Y-405146557D02*
X476960226Y-405217985D01*
X476960226Y-405217985D02*
X477031655Y-405146557D01*
X477031655Y-405146557D02*
X476960226Y-405075128D01*
X476960226Y-405075128D02*
X476960226Y-405217985D01*
X478531655Y-406432271D02*
X478460227Y-406503700D01*
X478460227Y-406503700D02*
X478245941Y-406575128D01*
X478245941Y-406575128D02*
X478103084Y-406575128D01*
X478103084Y-406575128D02*
X477888798Y-406503700D01*
X477888798Y-406503700D02*
X477745941Y-406360842D01*
X477745941Y-406360842D02*
X477674512Y-406217985D01*
X477674512Y-406217985D02*
X477603084Y-405932271D01*
X477603084Y-405932271D02*
X477603084Y-405717985D01*
X477603084Y-405717985D02*
X477674512Y-405432271D01*
X477674512Y-405432271D02*
X477745941Y-405289414D01*
X477745941Y-405289414D02*
X477888798Y-405146557D01*
X477888798Y-405146557D02*
X478103084Y-405075128D01*
X478103084Y-405075128D02*
X478245941Y-405075128D01*
X478245941Y-405075128D02*
X478460227Y-405146557D01*
X478460227Y-405146557D02*
X478531655Y-405217985D01*
X479817370Y-406575128D02*
X479817370Y-405789414D01*
X479817370Y-405789414D02*
X479745941Y-405646557D01*
X479745941Y-405646557D02*
X479603084Y-405575128D01*
X479603084Y-405575128D02*
X479317370Y-405575128D01*
X479317370Y-405575128D02*
X479174512Y-405646557D01*
X479817370Y-406503700D02*
X479674512Y-406575128D01*
X479674512Y-406575128D02*
X479317370Y-406575128D01*
X479317370Y-406575128D02*
X479174512Y-406503700D01*
X479174512Y-406503700D02*
X479103084Y-406360842D01*
X479103084Y-406360842D02*
X479103084Y-406217985D01*
X479103084Y-406217985D02*
X479174512Y-406075128D01*
X479174512Y-406075128D02*
X479317370Y-406003700D01*
X479317370Y-406003700D02*
X479674512Y-406003700D01*
X479674512Y-406003700D02*
X479817370Y-405932271D01*
X481174513Y-406575128D02*
X481174513Y-405075128D01*
X481174513Y-406503700D02*
X481031655Y-406575128D01*
X481031655Y-406575128D02*
X480745941Y-406575128D01*
X480745941Y-406575128D02*
X480603084Y-406503700D01*
X480603084Y-406503700D02*
X480531655Y-406432271D01*
X480531655Y-406432271D02*
X480460227Y-406289414D01*
X480460227Y-406289414D02*
X480460227Y-405860842D01*
X480460227Y-405860842D02*
X480531655Y-405717985D01*
X480531655Y-405717985D02*
X480603084Y-405646557D01*
X480603084Y-405646557D02*
X480745941Y-405575128D01*
X480745941Y-405575128D02*
X481031655Y-405575128D01*
X481031655Y-405575128D02*
X481174513Y-405646557D01*
X483031655Y-405789414D02*
X483531655Y-405789414D01*
X483745941Y-406575128D02*
X483031655Y-406575128D01*
X483031655Y-406575128D02*
X483031655Y-405075128D01*
X483031655Y-405075128D02*
X483745941Y-405075128D01*
X484388798Y-406432271D02*
X484460227Y-406503700D01*
X484460227Y-406503700D02*
X484388798Y-406575128D01*
X484388798Y-406575128D02*
X484317370Y-406503700D01*
X484317370Y-406503700D02*
X484388798Y-406432271D01*
X484388798Y-406432271D02*
X484388798Y-406575128D01*
X485103084Y-406575128D02*
X485103084Y-405075128D01*
X485103084Y-405075128D02*
X485460227Y-405075128D01*
X485460227Y-405075128D02*
X485674513Y-405146557D01*
X485674513Y-405146557D02*
X485817370Y-405289414D01*
X485817370Y-405289414D02*
X485888799Y-405432271D01*
X485888799Y-405432271D02*
X485960227Y-405717985D01*
X485960227Y-405717985D02*
X485960227Y-405932271D01*
X485960227Y-405932271D02*
X485888799Y-406217985D01*
X485888799Y-406217985D02*
X485817370Y-406360842D01*
X485817370Y-406360842D02*
X485674513Y-406503700D01*
X485674513Y-406503700D02*
X485460227Y-406575128D01*
X485460227Y-406575128D02*
X485103084Y-406575128D01*
X486603084Y-406432271D02*
X486674513Y-406503700D01*
X486674513Y-406503700D02*
X486603084Y-406575128D01*
X486603084Y-406575128D02*
X486531656Y-406503700D01*
X486531656Y-406503700D02*
X486603084Y-406432271D01*
X486603084Y-406432271D02*
X486603084Y-406575128D01*
X487245942Y-406146557D02*
X487960228Y-406146557D01*
X487103085Y-406575128D02*
X487603085Y-405075128D01*
X487603085Y-405075128D02*
X488103085Y-406575128D01*
X488603084Y-406432271D02*
X488674513Y-406503700D01*
X488674513Y-406503700D02*
X488603084Y-406575128D01*
X488603084Y-406575128D02*
X488531656Y-406503700D01*
X488531656Y-406503700D02*
X488603084Y-406432271D01*
X488603084Y-406432271D02*
X488603084Y-406575128D01*
X491603084Y-406575128D02*
X491603084Y-405075128D01*
X491745942Y-406003700D02*
X492174513Y-406575128D01*
X492174513Y-405575128D02*
X491603084Y-406146557D01*
X492817370Y-406575128D02*
X492817370Y-405575128D01*
X492817370Y-405075128D02*
X492745942Y-405146557D01*
X492745942Y-405146557D02*
X492817370Y-405217985D01*
X492817370Y-405217985D02*
X492888799Y-405146557D01*
X492888799Y-405146557D02*
X492817370Y-405075128D01*
X492817370Y-405075128D02*
X492817370Y-405217985D01*
X494174514Y-406503700D02*
X494031656Y-406575128D01*
X494031656Y-406575128D02*
X493745942Y-406575128D01*
X493745942Y-406575128D02*
X493603085Y-406503700D01*
X493603085Y-406503700D02*
X493531656Y-406432271D01*
X493531656Y-406432271D02*
X493460228Y-406289414D01*
X493460228Y-406289414D02*
X493460228Y-405860842D01*
X493460228Y-405860842D02*
X493531656Y-405717985D01*
X493531656Y-405717985D02*
X493603085Y-405646557D01*
X493603085Y-405646557D02*
X493745942Y-405575128D01*
X493745942Y-405575128D02*
X494031656Y-405575128D01*
X494031656Y-405575128D02*
X494174514Y-405646557D01*
X495460228Y-406575128D02*
X495460228Y-405789414D01*
X495460228Y-405789414D02*
X495388799Y-405646557D01*
X495388799Y-405646557D02*
X495245942Y-405575128D01*
X495245942Y-405575128D02*
X494960228Y-405575128D01*
X494960228Y-405575128D02*
X494817370Y-405646557D01*
X495460228Y-406503700D02*
X495317370Y-406575128D01*
X495317370Y-406575128D02*
X494960228Y-406575128D01*
X494960228Y-406575128D02*
X494817370Y-406503700D01*
X494817370Y-406503700D02*
X494745942Y-406360842D01*
X494745942Y-406360842D02*
X494745942Y-406217985D01*
X494745942Y-406217985D02*
X494817370Y-406075128D01*
X494817370Y-406075128D02*
X494960228Y-406003700D01*
X494960228Y-406003700D02*
X495317370Y-406003700D01*
X495317370Y-406003700D02*
X495460228Y-405932271D01*
X496817371Y-406575128D02*
X496817371Y-405075128D01*
X496817371Y-406503700D02*
X496674513Y-406575128D01*
X496674513Y-406575128D02*
X496388799Y-406575128D01*
X496388799Y-406575128D02*
X496245942Y-406503700D01*
X496245942Y-406503700D02*
X496174513Y-406432271D01*
X496174513Y-406432271D02*
X496103085Y-406289414D01*
X496103085Y-406289414D02*
X496103085Y-405860842D01*
X496103085Y-405860842D02*
X496174513Y-405717985D01*
X496174513Y-405717985D02*
X496245942Y-405646557D01*
X496245942Y-405646557D02*
X496388799Y-405575128D01*
X496388799Y-405575128D02*
X496674513Y-405575128D01*
X496674513Y-405575128D02*
X496817371Y-405646557D01*
X498531656Y-405075128D02*
X499531656Y-405075128D01*
X499531656Y-405075128D02*
X498888799Y-406575128D01*
X500103084Y-406432271D02*
X500174513Y-406503700D01*
X500174513Y-406503700D02*
X500103084Y-406575128D01*
X500103084Y-406575128D02*
X500031656Y-406503700D01*
X500031656Y-406503700D02*
X500103084Y-406432271D01*
X500103084Y-406432271D02*
X500103084Y-406575128D01*
X501103085Y-405075128D02*
X501245942Y-405075128D01*
X501245942Y-405075128D02*
X501388799Y-405146557D01*
X501388799Y-405146557D02*
X501460228Y-405217985D01*
X501460228Y-405217985D02*
X501531656Y-405360842D01*
X501531656Y-405360842D02*
X501603085Y-405646557D01*
X501603085Y-405646557D02*
X501603085Y-406003700D01*
X501603085Y-406003700D02*
X501531656Y-406289414D01*
X501531656Y-406289414D02*
X501460228Y-406432271D01*
X501460228Y-406432271D02*
X501388799Y-406503700D01*
X501388799Y-406503700D02*
X501245942Y-406575128D01*
X501245942Y-406575128D02*
X501103085Y-406575128D01*
X501103085Y-406575128D02*
X500960228Y-406503700D01*
X500960228Y-406503700D02*
X500888799Y-406432271D01*
X500888799Y-406432271D02*
X500817370Y-406289414D01*
X500817370Y-406289414D02*
X500745942Y-406003700D01*
X500745942Y-406003700D02*
X500745942Y-405646557D01*
X500745942Y-405646557D02*
X500817370Y-405360842D01*
X500817370Y-405360842D02*
X500888799Y-405217985D01*
X500888799Y-405217985D02*
X500960228Y-405146557D01*
X500960228Y-405146557D02*
X501103085Y-405075128D01*
X502245941Y-406432271D02*
X502317370Y-406503700D01*
X502317370Y-406503700D02*
X502245941Y-406575128D01*
X502245941Y-406575128D02*
X502174513Y-406503700D01*
X502174513Y-406503700D02*
X502245941Y-406432271D01*
X502245941Y-406432271D02*
X502245941Y-406575128D01*
X503174513Y-405717985D02*
X503031656Y-405646557D01*
X503031656Y-405646557D02*
X502960227Y-405575128D01*
X502960227Y-405575128D02*
X502888799Y-405432271D01*
X502888799Y-405432271D02*
X502888799Y-405360842D01*
X502888799Y-405360842D02*
X502960227Y-405217985D01*
X502960227Y-405217985D02*
X503031656Y-405146557D01*
X503031656Y-405146557D02*
X503174513Y-405075128D01*
X503174513Y-405075128D02*
X503460227Y-405075128D01*
X503460227Y-405075128D02*
X503603085Y-405146557D01*
X503603085Y-405146557D02*
X503674513Y-405217985D01*
X503674513Y-405217985D02*
X503745942Y-405360842D01*
X503745942Y-405360842D02*
X503745942Y-405432271D01*
X503745942Y-405432271D02*
X503674513Y-405575128D01*
X503674513Y-405575128D02*
X503603085Y-405646557D01*
X503603085Y-405646557D02*
X503460227Y-405717985D01*
X503460227Y-405717985D02*
X503174513Y-405717985D01*
X503174513Y-405717985D02*
X503031656Y-405789414D01*
X503031656Y-405789414D02*
X502960227Y-405860842D01*
X502960227Y-405860842D02*
X502888799Y-406003700D01*
X502888799Y-406003700D02*
X502888799Y-406289414D01*
X502888799Y-406289414D02*
X502960227Y-406432271D01*
X502960227Y-406432271D02*
X503031656Y-406503700D01*
X503031656Y-406503700D02*
X503174513Y-406575128D01*
X503174513Y-406575128D02*
X503460227Y-406575128D01*
X503460227Y-406575128D02*
X503603085Y-406503700D01*
X503603085Y-406503700D02*
X503674513Y-406432271D01*
X503674513Y-406432271D02*
X503745942Y-406289414D01*
X503745942Y-406289414D02*
X503745942Y-406003700D01*
X503745942Y-406003700D02*
X503674513Y-405860842D01*
X503674513Y-405860842D02*
X503603085Y-405789414D01*
X503603085Y-405789414D02*
X503460227Y-405717985D01*
D10*
D11*
X474004400Y-401489000D02*
X582004400Y-401489000D01*
D10*
D12*
X561416053Y-403767328D02*
X560916053Y-403053042D01*
X560558910Y-403767328D02*
X560558910Y-402267328D01*
X560558910Y-402267328D02*
X561130339Y-402267328D01*
X561130339Y-402267328D02*
X561273196Y-402338757D01*
X561273196Y-402338757D02*
X561344625Y-402410185D01*
X561344625Y-402410185D02*
X561416053Y-402553042D01*
X561416053Y-402553042D02*
X561416053Y-402767328D01*
X561416053Y-402767328D02*
X561344625Y-402910185D01*
X561344625Y-402910185D02*
X561273196Y-402981614D01*
X561273196Y-402981614D02*
X561130339Y-403053042D01*
X561130339Y-403053042D02*
X560558910Y-403053042D01*
X562630339Y-403695900D02*
X562487482Y-403767328D01*
X562487482Y-403767328D02*
X562201768Y-403767328D01*
X562201768Y-403767328D02*
X562058910Y-403695900D01*
X562058910Y-403695900D02*
X561987482Y-403553042D01*
X561987482Y-403553042D02*
X561987482Y-402981614D01*
X561987482Y-402981614D02*
X562058910Y-402838757D01*
X562058910Y-402838757D02*
X562201768Y-402767328D01*
X562201768Y-402767328D02*
X562487482Y-402767328D01*
X562487482Y-402767328D02*
X562630339Y-402838757D01*
X562630339Y-402838757D02*
X562701768Y-402981614D01*
X562701768Y-402981614D02*
X562701768Y-403124471D01*
X562701768Y-403124471D02*
X561987482Y-403267328D01*
X563201767Y-402767328D02*
X563558910Y-403767328D01*
X563558910Y-403767328D02*
X563916053Y-402767328D01*
X564487481Y-403624471D02*
X564558910Y-403695900D01*
X564558910Y-403695900D02*
X564487481Y-403767328D01*
X564487481Y-403767328D02*
X564416053Y-403695900D01*
X564416053Y-403695900D02*
X564487481Y-403624471D01*
X564487481Y-403624471D02*
X564487481Y-403767328D01*
X564487481Y-402838757D02*
X564558910Y-402910185D01*
X564558910Y-402910185D02*
X564487481Y-402981614D01*
X564487481Y-402981614D02*
X564416053Y-402910185D01*
X564416053Y-402910185D02*
X564487481Y-402838757D01*
X564487481Y-402838757D02*
X564487481Y-402981614D01*
D10*
D11*
X475388798Y-403703700D02*
X475603084Y-403775128D01*
X475603084Y-403775128D02*
X475960226Y-403775128D01*
X475960226Y-403775128D02*
X476103084Y-403703700D01*
X476103084Y-403703700D02*
X476174512Y-403632271D01*
X476174512Y-403632271D02*
X476245941Y-403489414D01*
X476245941Y-403489414D02*
X476245941Y-403346557D01*
X476245941Y-403346557D02*
X476174512Y-403203700D01*
X476174512Y-403203700D02*
X476103084Y-403132271D01*
X476103084Y-403132271D02*
X475960226Y-403060842D01*
X475960226Y-403060842D02*
X475674512Y-402989414D01*
X475674512Y-402989414D02*
X475531655Y-402917985D01*
X475531655Y-402917985D02*
X475460226Y-402846557D01*
X475460226Y-402846557D02*
X475388798Y-402703700D01*
X475388798Y-402703700D02*
X475388798Y-402560842D01*
X475388798Y-402560842D02*
X475460226Y-402417985D01*
X475460226Y-402417985D02*
X475531655Y-402346557D01*
X475531655Y-402346557D02*
X475674512Y-402275128D01*
X475674512Y-402275128D02*
X476031655Y-402275128D01*
X476031655Y-402275128D02*
X476245941Y-402346557D01*
X476888797Y-403775128D02*
X476888797Y-402775128D01*
X476888797Y-402275128D02*
X476817369Y-402346557D01*
X476817369Y-402346557D02*
X476888797Y-402417985D01*
X476888797Y-402417985D02*
X476960226Y-402346557D01*
X476960226Y-402346557D02*
X476888797Y-402275128D01*
X476888797Y-402275128D02*
X476888797Y-402417985D01*
X477460226Y-402775128D02*
X478245941Y-402775128D01*
X478245941Y-402775128D02*
X477460226Y-403775128D01*
X477460226Y-403775128D02*
X478245941Y-403775128D01*
X479388798Y-403703700D02*
X479245941Y-403775128D01*
X479245941Y-403775128D02*
X478960227Y-403775128D01*
X478960227Y-403775128D02*
X478817369Y-403703700D01*
X478817369Y-403703700D02*
X478745941Y-403560842D01*
X478745941Y-403560842D02*
X478745941Y-402989414D01*
X478745941Y-402989414D02*
X478817369Y-402846557D01*
X478817369Y-402846557D02*
X478960227Y-402775128D01*
X478960227Y-402775128D02*
X479245941Y-402775128D01*
X479245941Y-402775128D02*
X479388798Y-402846557D01*
X479388798Y-402846557D02*
X479460227Y-402989414D01*
X479460227Y-402989414D02*
X479460227Y-403132271D01*
X479460227Y-403132271D02*
X478745941Y-403275128D01*
X480103083Y-403632271D02*
X480174512Y-403703700D01*
X480174512Y-403703700D02*
X480103083Y-403775128D01*
X480103083Y-403775128D02*
X480031655Y-403703700D01*
X480031655Y-403703700D02*
X480103083Y-403632271D01*
X480103083Y-403632271D02*
X480103083Y-403775128D01*
X480103083Y-402846557D02*
X480174512Y-402917985D01*
X480174512Y-402917985D02*
X480103083Y-402989414D01*
X480103083Y-402989414D02*
X480031655Y-402917985D01*
X480031655Y-402917985D02*
X480103083Y-402846557D01*
X480103083Y-402846557D02*
X480103083Y-402989414D01*
X481888798Y-403346557D02*
X482603084Y-403346557D01*
X481745941Y-403775128D02*
X482245941Y-402275128D01*
X482245941Y-402275128D02*
X482745941Y-403775128D01*
X483174512Y-402417985D02*
X483245940Y-402346557D01*
X483245940Y-402346557D02*
X483388798Y-402275128D01*
X483388798Y-402275128D02*
X483745940Y-402275128D01*
X483745940Y-402275128D02*
X483888798Y-402346557D01*
X483888798Y-402346557D02*
X483960226Y-402417985D01*
X483960226Y-402417985D02*
X484031655Y-402560842D01*
X484031655Y-402560842D02*
X484031655Y-402703700D01*
X484031655Y-402703700D02*
X483960226Y-402917985D01*
X483960226Y-402917985D02*
X483103083Y-403775128D01*
X483103083Y-403775128D02*
X484031655Y-403775128D01*
D10*
D11*
X560460226Y-406575128D02*
X560460226Y-405075128D01*
X561817370Y-406575128D02*
X561817370Y-405075128D01*
X561817370Y-406503700D02*
X561674512Y-406575128D01*
X561674512Y-406575128D02*
X561388798Y-406575128D01*
X561388798Y-406575128D02*
X561245941Y-406503700D01*
X561245941Y-406503700D02*
X561174512Y-406432271D01*
X561174512Y-406432271D02*
X561103084Y-406289414D01*
X561103084Y-406289414D02*
X561103084Y-405860842D01*
X561103084Y-405860842D02*
X561174512Y-405717985D01*
X561174512Y-405717985D02*
X561245941Y-405646557D01*
X561245941Y-405646557D02*
X561388798Y-405575128D01*
X561388798Y-405575128D02*
X561674512Y-405575128D01*
X561674512Y-405575128D02*
X561817370Y-405646557D01*
X562531655Y-406432271D02*
X562603084Y-406503700D01*
X562603084Y-406503700D02*
X562531655Y-406575128D01*
X562531655Y-406575128D02*
X562460227Y-406503700D01*
X562460227Y-406503700D02*
X562531655Y-406432271D01*
X562531655Y-406432271D02*
X562531655Y-406575128D01*
X562531655Y-405646557D02*
X562603084Y-405717985D01*
X562603084Y-405717985D02*
X562531655Y-405789414D01*
X562531655Y-405789414D02*
X562460227Y-405717985D01*
X562460227Y-405717985D02*
X562531655Y-405646557D01*
X562531655Y-405646557D02*
X562531655Y-405789414D01*
X565174513Y-406575128D02*
X564317370Y-406575128D01*
X564745941Y-406575128D02*
X564745941Y-405075128D01*
X564745941Y-405075128D02*
X564603084Y-405289414D01*
X564603084Y-405289414D02*
X564460227Y-405432271D01*
X564460227Y-405432271D02*
X564317370Y-405503700D01*
X566888798Y-405003700D02*
X565603084Y-406932271D01*
X568174513Y-406575128D02*
X567317370Y-406575128D01*
X567745941Y-406575128D02*
X567745941Y-405075128D01*
X567745941Y-405075128D02*
X567603084Y-405289414D01*
X567603084Y-405289414D02*
X567460227Y-405432271D01*
X567460227Y-405432271D02*
X567317370Y-405503700D01*
D10*
D11*
X474004400Y-397489000D02*
X582004400Y-397489000D01*
D10*
D13*
X475696128Y-398193438D02*
X476838985Y-398193438D01*
X476017557Y-400193438D02*
X476267557Y-398193438D01*
X477255652Y-400193438D02*
X477422319Y-398860104D01*
X477505652Y-398193438D02*
X477398509Y-398288676D01*
X477398509Y-398288676D02*
X477481843Y-398383914D01*
X477481843Y-398383914D02*
X477588986Y-398288676D01*
X477588986Y-398288676D02*
X477505652Y-398193438D01*
X477505652Y-398193438D02*
X477481843Y-398383914D01*
X478088986Y-398860104D02*
X478850890Y-398860104D01*
X478458033Y-398193438D02*
X478243748Y-399907723D01*
X478243748Y-399907723D02*
X478315176Y-400098200D01*
X478315176Y-400098200D02*
X478493748Y-400193438D01*
X478493748Y-400193438D02*
X478684224Y-400193438D01*
X479636605Y-400193438D02*
X479458033Y-400098200D01*
X479458033Y-400098200D02*
X479386605Y-399907723D01*
X479386605Y-399907723D02*
X479600890Y-398193438D01*
X481172319Y-400098200D02*
X480969938Y-400193438D01*
X480969938Y-400193438D02*
X480588985Y-400193438D01*
X480588985Y-400193438D02*
X480410414Y-400098200D01*
X480410414Y-400098200D02*
X480338985Y-399907723D01*
X480338985Y-399907723D02*
X480434224Y-399145819D01*
X480434224Y-399145819D02*
X480553271Y-398955342D01*
X480553271Y-398955342D02*
X480755652Y-398860104D01*
X480755652Y-398860104D02*
X481136604Y-398860104D01*
X481136604Y-398860104D02*
X481315176Y-398955342D01*
X481315176Y-398955342D02*
X481386604Y-399145819D01*
X481386604Y-399145819D02*
X481362795Y-399336295D01*
X481362795Y-399336295D02*
X480386604Y-399526771D01*
X482136605Y-400002961D02*
X482219938Y-400098200D01*
X482219938Y-400098200D02*
X482112795Y-400193438D01*
X482112795Y-400193438D02*
X482029462Y-400098200D01*
X482029462Y-400098200D02*
X482136605Y-400002961D01*
X482136605Y-400002961D02*
X482112795Y-400193438D01*
X482267557Y-398955342D02*
X482350890Y-399050580D01*
X482350890Y-399050580D02*
X482243748Y-399145819D01*
X482243748Y-399145819D02*
X482160414Y-399050580D01*
X482160414Y-399050580D02*
X482267557Y-398955342D01*
X482267557Y-398955342D02*
X482243748Y-399145819D01*
D10*
D11*
X475960226Y-395589414D02*
X475460226Y-395589414D01*
X475460226Y-396375128D02*
X475460226Y-394875128D01*
X475460226Y-394875128D02*
X476174512Y-394875128D01*
X476745940Y-396375128D02*
X476745940Y-395375128D01*
X476745940Y-394875128D02*
X476674512Y-394946557D01*
X476674512Y-394946557D02*
X476745940Y-395017985D01*
X476745940Y-395017985D02*
X476817369Y-394946557D01*
X476817369Y-394946557D02*
X476745940Y-394875128D01*
X476745940Y-394875128D02*
X476745940Y-395017985D01*
X477674512Y-396375128D02*
X477531655Y-396303700D01*
X477531655Y-396303700D02*
X477460226Y-396160842D01*
X477460226Y-396160842D02*
X477460226Y-394875128D01*
X478817369Y-396303700D02*
X478674512Y-396375128D01*
X478674512Y-396375128D02*
X478388798Y-396375128D01*
X478388798Y-396375128D02*
X478245940Y-396303700D01*
X478245940Y-396303700D02*
X478174512Y-396160842D01*
X478174512Y-396160842D02*
X478174512Y-395589414D01*
X478174512Y-395589414D02*
X478245940Y-395446557D01*
X478245940Y-395446557D02*
X478388798Y-395375128D01*
X478388798Y-395375128D02*
X478674512Y-395375128D01*
X478674512Y-395375128D02*
X478817369Y-395446557D01*
X478817369Y-395446557D02*
X478888798Y-395589414D01*
X478888798Y-395589414D02*
X478888798Y-395732271D01*
X478888798Y-395732271D02*
X478174512Y-395875128D01*
X479531654Y-396232271D02*
X479603083Y-396303700D01*
X479603083Y-396303700D02*
X479531654Y-396375128D01*
X479531654Y-396375128D02*
X479460226Y-396303700D01*
X479460226Y-396303700D02*
X479531654Y-396232271D01*
X479531654Y-396232271D02*
X479531654Y-396375128D01*
X479531654Y-395446557D02*
X479603083Y-395517985D01*
X479603083Y-395517985D02*
X479531654Y-395589414D01*
X479531654Y-395589414D02*
X479460226Y-395517985D01*
X479460226Y-395517985D02*
X479531654Y-395446557D01*
X479531654Y-395446557D02*
X479531654Y-395589414D01*
X481388797Y-396375128D02*
X481388797Y-394875128D01*
X481388797Y-395589414D02*
X482245940Y-395589414D01*
X482245940Y-396375128D02*
X482245940Y-394875128D01*
X482745941Y-394875128D02*
X483245941Y-396375128D01*
X483245941Y-396375128D02*
X483745941Y-394875128D01*
X483888798Y-396517985D02*
X485031655Y-396517985D01*
X485317369Y-396303700D02*
X485531655Y-396375128D01*
X485531655Y-396375128D02*
X485888797Y-396375128D01*
X485888797Y-396375128D02*
X486031655Y-396303700D01*
X486031655Y-396303700D02*
X486103083Y-396232271D01*
X486103083Y-396232271D02*
X486174512Y-396089414D01*
X486174512Y-396089414D02*
X486174512Y-395946557D01*
X486174512Y-395946557D02*
X486103083Y-395803700D01*
X486103083Y-395803700D02*
X486031655Y-395732271D01*
X486031655Y-395732271D02*
X485888797Y-395660842D01*
X485888797Y-395660842D02*
X485603083Y-395589414D01*
X485603083Y-395589414D02*
X485460226Y-395517985D01*
X485460226Y-395517985D02*
X485388797Y-395446557D01*
X485388797Y-395446557D02*
X485317369Y-395303700D01*
X485317369Y-395303700D02*
X485317369Y-395160842D01*
X485317369Y-395160842D02*
X485388797Y-395017985D01*
X485388797Y-395017985D02*
X485460226Y-394946557D01*
X485460226Y-394946557D02*
X485603083Y-394875128D01*
X485603083Y-394875128D02*
X485960226Y-394875128D01*
X485960226Y-394875128D02*
X486174512Y-394946557D01*
X487460226Y-396375128D02*
X487460226Y-395589414D01*
X487460226Y-395589414D02*
X487388797Y-395446557D01*
X487388797Y-395446557D02*
X487245940Y-395375128D01*
X487245940Y-395375128D02*
X486960226Y-395375128D01*
X486960226Y-395375128D02*
X486817368Y-395446557D01*
X487460226Y-396303700D02*
X487317368Y-396375128D01*
X487317368Y-396375128D02*
X486960226Y-396375128D01*
X486960226Y-396375128D02*
X486817368Y-396303700D01*
X486817368Y-396303700D02*
X486745940Y-396160842D01*
X486745940Y-396160842D02*
X486745940Y-396017985D01*
X486745940Y-396017985D02*
X486817368Y-395875128D01*
X486817368Y-395875128D02*
X486960226Y-395803700D01*
X486960226Y-395803700D02*
X487317368Y-395803700D01*
X487317368Y-395803700D02*
X487460226Y-395732271D01*
X487960226Y-395375128D02*
X488531654Y-395375128D01*
X488174511Y-396375128D02*
X488174511Y-395089414D01*
X488174511Y-395089414D02*
X488245940Y-394946557D01*
X488245940Y-394946557D02*
X488388797Y-394875128D01*
X488388797Y-394875128D02*
X488531654Y-394875128D01*
X489603083Y-396303700D02*
X489460226Y-396375128D01*
X489460226Y-396375128D02*
X489174512Y-396375128D01*
X489174512Y-396375128D02*
X489031654Y-396303700D01*
X489031654Y-396303700D02*
X488960226Y-396160842D01*
X488960226Y-396160842D02*
X488960226Y-395589414D01*
X488960226Y-395589414D02*
X489031654Y-395446557D01*
X489031654Y-395446557D02*
X489174512Y-395375128D01*
X489174512Y-395375128D02*
X489460226Y-395375128D01*
X489460226Y-395375128D02*
X489603083Y-395446557D01*
X489603083Y-395446557D02*
X489674512Y-395589414D01*
X489674512Y-395589414D02*
X489674512Y-395732271D01*
X489674512Y-395732271D02*
X488960226Y-395875128D01*
X490103083Y-395375128D02*
X490674511Y-395375128D01*
X490317368Y-394875128D02*
X490317368Y-396160842D01*
X490317368Y-396160842D02*
X490388797Y-396303700D01*
X490388797Y-396303700D02*
X490531654Y-396375128D01*
X490531654Y-396375128D02*
X490674511Y-396375128D01*
X491031654Y-395375128D02*
X491388797Y-396375128D01*
X491745940Y-395375128D02*
X491388797Y-396375128D01*
X491388797Y-396375128D02*
X491245940Y-396732271D01*
X491245940Y-396732271D02*
X491174511Y-396803700D01*
X491174511Y-396803700D02*
X491031654Y-396875128D01*
X491960226Y-396517985D02*
X493103083Y-396517985D01*
X494174511Y-396375128D02*
X493460225Y-396375128D01*
X493460225Y-396375128D02*
X493460225Y-394875128D01*
X494888797Y-396375128D02*
X494745940Y-396303700D01*
X494745940Y-396303700D02*
X494674511Y-396232271D01*
X494674511Y-396232271D02*
X494603083Y-396089414D01*
X494603083Y-396089414D02*
X494603083Y-395660842D01*
X494603083Y-395660842D02*
X494674511Y-395517985D01*
X494674511Y-395517985D02*
X494745940Y-395446557D01*
X494745940Y-395446557D02*
X494888797Y-395375128D01*
X494888797Y-395375128D02*
X495103083Y-395375128D01*
X495103083Y-395375128D02*
X495245940Y-395446557D01*
X495245940Y-395446557D02*
X495317369Y-395517985D01*
X495317369Y-395517985D02*
X495388797Y-395660842D01*
X495388797Y-395660842D02*
X495388797Y-396089414D01*
X495388797Y-396089414D02*
X495317369Y-396232271D01*
X495317369Y-396232271D02*
X495245940Y-396303700D01*
X495245940Y-396303700D02*
X495103083Y-396375128D01*
X495103083Y-396375128D02*
X494888797Y-396375128D01*
X496245940Y-396375128D02*
X496103083Y-396303700D01*
X496103083Y-396303700D02*
X496031654Y-396232271D01*
X496031654Y-396232271D02*
X495960226Y-396089414D01*
X495960226Y-396089414D02*
X495960226Y-395660842D01*
X495960226Y-395660842D02*
X496031654Y-395517985D01*
X496031654Y-395517985D02*
X496103083Y-395446557D01*
X496103083Y-395446557D02*
X496245940Y-395375128D01*
X496245940Y-395375128D02*
X496460226Y-395375128D01*
X496460226Y-395375128D02*
X496603083Y-395446557D01*
X496603083Y-395446557D02*
X496674512Y-395517985D01*
X496674512Y-395517985D02*
X496745940Y-395660842D01*
X496745940Y-395660842D02*
X496745940Y-396089414D01*
X496745940Y-396089414D02*
X496674512Y-396232271D01*
X496674512Y-396232271D02*
X496603083Y-396303700D01*
X496603083Y-396303700D02*
X496460226Y-396375128D01*
X496460226Y-396375128D02*
X496245940Y-396375128D01*
X497388797Y-395375128D02*
X497388797Y-396875128D01*
X497388797Y-395446557D02*
X497531655Y-395375128D01*
X497531655Y-395375128D02*
X497817369Y-395375128D01*
X497817369Y-395375128D02*
X497960226Y-395446557D01*
X497960226Y-395446557D02*
X498031655Y-395517985D01*
X498031655Y-395517985D02*
X498103083Y-395660842D01*
X498103083Y-395660842D02*
X498103083Y-396089414D01*
X498103083Y-396089414D02*
X498031655Y-396232271D01*
X498031655Y-396232271D02*
X497960226Y-396303700D01*
X497960226Y-396303700D02*
X497817369Y-396375128D01*
X497817369Y-396375128D02*
X497531655Y-396375128D01*
X497531655Y-396375128D02*
X497388797Y-396303700D01*
X498745940Y-396232271D02*
X498817369Y-396303700D01*
X498817369Y-396303700D02*
X498745940Y-396375128D01*
X498745940Y-396375128D02*
X498674512Y-396303700D01*
X498674512Y-396303700D02*
X498745940Y-396232271D01*
X498745940Y-396232271D02*
X498745940Y-396375128D01*
X499460226Y-396375128D02*
X499460226Y-394875128D01*
X499603084Y-395803700D02*
X500031655Y-396375128D01*
X500031655Y-395375128D02*
X499460226Y-395946557D01*
X500674512Y-396375128D02*
X500674512Y-395375128D01*
X500674512Y-394875128D02*
X500603084Y-394946557D01*
X500603084Y-394946557D02*
X500674512Y-395017985D01*
X500674512Y-395017985D02*
X500745941Y-394946557D01*
X500745941Y-394946557D02*
X500674512Y-394875128D01*
X500674512Y-394875128D02*
X500674512Y-395017985D01*
X502031656Y-396303700D02*
X501888798Y-396375128D01*
X501888798Y-396375128D02*
X501603084Y-396375128D01*
X501603084Y-396375128D02*
X501460227Y-396303700D01*
X501460227Y-396303700D02*
X501388798Y-396232271D01*
X501388798Y-396232271D02*
X501317370Y-396089414D01*
X501317370Y-396089414D02*
X501317370Y-395660842D01*
X501317370Y-395660842D02*
X501388798Y-395517985D01*
X501388798Y-395517985D02*
X501460227Y-395446557D01*
X501460227Y-395446557D02*
X501603084Y-395375128D01*
X501603084Y-395375128D02*
X501888798Y-395375128D01*
X501888798Y-395375128D02*
X502031656Y-395446557D01*
X503317370Y-396375128D02*
X503317370Y-395589414D01*
X503317370Y-395589414D02*
X503245941Y-395446557D01*
X503245941Y-395446557D02*
X503103084Y-395375128D01*
X503103084Y-395375128D02*
X502817370Y-395375128D01*
X502817370Y-395375128D02*
X502674512Y-395446557D01*
X503317370Y-396303700D02*
X503174512Y-396375128D01*
X503174512Y-396375128D02*
X502817370Y-396375128D01*
X502817370Y-396375128D02*
X502674512Y-396303700D01*
X502674512Y-396303700D02*
X502603084Y-396160842D01*
X502603084Y-396160842D02*
X502603084Y-396017985D01*
X502603084Y-396017985D02*
X502674512Y-395875128D01*
X502674512Y-395875128D02*
X502817370Y-395803700D01*
X502817370Y-395803700D02*
X503174512Y-395803700D01*
X503174512Y-395803700D02*
X503317370Y-395732271D01*
X504674513Y-396375128D02*
X504674513Y-394875128D01*
X504674513Y-396303700D02*
X504531655Y-396375128D01*
X504531655Y-396375128D02*
X504245941Y-396375128D01*
X504245941Y-396375128D02*
X504103084Y-396303700D01*
X504103084Y-396303700D02*
X504031655Y-396232271D01*
X504031655Y-396232271D02*
X503960227Y-396089414D01*
X503960227Y-396089414D02*
X503960227Y-395660842D01*
X503960227Y-395660842D02*
X504031655Y-395517985D01*
X504031655Y-395517985D02*
X504103084Y-395446557D01*
X504103084Y-395446557D02*
X504245941Y-395375128D01*
X504245941Y-395375128D02*
X504531655Y-395375128D01*
X504531655Y-395375128D02*
X504674513Y-395446557D01*
X505031656Y-396517985D02*
X506174513Y-396517985D01*
X506531655Y-395375128D02*
X506531655Y-396875128D01*
X506531655Y-395446557D02*
X506674513Y-395375128D01*
X506674513Y-395375128D02*
X506960227Y-395375128D01*
X506960227Y-395375128D02*
X507103084Y-395446557D01*
X507103084Y-395446557D02*
X507174513Y-395517985D01*
X507174513Y-395517985D02*
X507245941Y-395660842D01*
X507245941Y-395660842D02*
X507245941Y-396089414D01*
X507245941Y-396089414D02*
X507174513Y-396232271D01*
X507174513Y-396232271D02*
X507103084Y-396303700D01*
X507103084Y-396303700D02*
X506960227Y-396375128D01*
X506960227Y-396375128D02*
X506674513Y-396375128D01*
X506674513Y-396375128D02*
X506531655Y-396303700D01*
X508531656Y-396303700D02*
X508388798Y-396375128D01*
X508388798Y-396375128D02*
X508103084Y-396375128D01*
X508103084Y-396375128D02*
X507960227Y-396303700D01*
X507960227Y-396303700D02*
X507888798Y-396232271D01*
X507888798Y-396232271D02*
X507817370Y-396089414D01*
X507817370Y-396089414D02*
X507817370Y-395660842D01*
X507817370Y-395660842D02*
X507888798Y-395517985D01*
X507888798Y-395517985D02*
X507960227Y-395446557D01*
X507960227Y-395446557D02*
X508103084Y-395375128D01*
X508103084Y-395375128D02*
X508388798Y-395375128D01*
X508388798Y-395375128D02*
X508531656Y-395446557D01*
X509174512Y-396375128D02*
X509174512Y-394875128D01*
X509174512Y-395446557D02*
X509317370Y-395375128D01*
X509317370Y-395375128D02*
X509603084Y-395375128D01*
X509603084Y-395375128D02*
X509745941Y-395446557D01*
X509745941Y-395446557D02*
X509817370Y-395517985D01*
X509817370Y-395517985D02*
X509888798Y-395660842D01*
X509888798Y-395660842D02*
X509888798Y-396089414D01*
X509888798Y-396089414D02*
X509817370Y-396232271D01*
X509817370Y-396232271D02*
X509745941Y-396303700D01*
X509745941Y-396303700D02*
X509603084Y-396375128D01*
X509603084Y-396375128D02*
X509317370Y-396375128D01*
X509317370Y-396375128D02*
X509174512Y-396303700D01*
D10*
D11*
X474004400Y-391489000D02*
X582004400Y-391489000D01*
D10*
D11*
X475388798Y-393603700D02*
X475603084Y-393675128D01*
X475603084Y-393675128D02*
X475960226Y-393675128D01*
X475960226Y-393675128D02*
X476103084Y-393603700D01*
X476103084Y-393603700D02*
X476174512Y-393532271D01*
X476174512Y-393532271D02*
X476245941Y-393389414D01*
X476245941Y-393389414D02*
X476245941Y-393246557D01*
X476245941Y-393246557D02*
X476174512Y-393103700D01*
X476174512Y-393103700D02*
X476103084Y-393032271D01*
X476103084Y-393032271D02*
X475960226Y-392960842D01*
X475960226Y-392960842D02*
X475674512Y-392889414D01*
X475674512Y-392889414D02*
X475531655Y-392817985D01*
X475531655Y-392817985D02*
X475460226Y-392746557D01*
X475460226Y-392746557D02*
X475388798Y-392603700D01*
X475388798Y-392603700D02*
X475388798Y-392460842D01*
X475388798Y-392460842D02*
X475460226Y-392317985D01*
X475460226Y-392317985D02*
X475531655Y-392246557D01*
X475531655Y-392246557D02*
X475674512Y-392175128D01*
X475674512Y-392175128D02*
X476031655Y-392175128D01*
X476031655Y-392175128D02*
X476245941Y-392246557D01*
X476888797Y-393675128D02*
X476888797Y-392175128D01*
X477531655Y-393675128D02*
X477531655Y-392889414D01*
X477531655Y-392889414D02*
X477460226Y-392746557D01*
X477460226Y-392746557D02*
X477317369Y-392675128D01*
X477317369Y-392675128D02*
X477103083Y-392675128D01*
X477103083Y-392675128D02*
X476960226Y-392746557D01*
X476960226Y-392746557D02*
X476888797Y-392817985D01*
X478817369Y-393603700D02*
X478674512Y-393675128D01*
X478674512Y-393675128D02*
X478388798Y-393675128D01*
X478388798Y-393675128D02*
X478245940Y-393603700D01*
X478245940Y-393603700D02*
X478174512Y-393460842D01*
X478174512Y-393460842D02*
X478174512Y-392889414D01*
X478174512Y-392889414D02*
X478245940Y-392746557D01*
X478245940Y-392746557D02*
X478388798Y-392675128D01*
X478388798Y-392675128D02*
X478674512Y-392675128D01*
X478674512Y-392675128D02*
X478817369Y-392746557D01*
X478817369Y-392746557D02*
X478888798Y-392889414D01*
X478888798Y-392889414D02*
X478888798Y-393032271D01*
X478888798Y-393032271D02*
X478174512Y-393175128D01*
X480103083Y-393603700D02*
X479960226Y-393675128D01*
X479960226Y-393675128D02*
X479674512Y-393675128D01*
X479674512Y-393675128D02*
X479531654Y-393603700D01*
X479531654Y-393603700D02*
X479460226Y-393460842D01*
X479460226Y-393460842D02*
X479460226Y-392889414D01*
X479460226Y-392889414D02*
X479531654Y-392746557D01*
X479531654Y-392746557D02*
X479674512Y-392675128D01*
X479674512Y-392675128D02*
X479960226Y-392675128D01*
X479960226Y-392675128D02*
X480103083Y-392746557D01*
X480103083Y-392746557D02*
X480174512Y-392889414D01*
X480174512Y-392889414D02*
X480174512Y-393032271D01*
X480174512Y-393032271D02*
X479460226Y-393175128D01*
X480603083Y-392675128D02*
X481174511Y-392675128D01*
X480817368Y-392175128D02*
X480817368Y-393460842D01*
X480817368Y-393460842D02*
X480888797Y-393603700D01*
X480888797Y-393603700D02*
X481031654Y-393675128D01*
X481031654Y-393675128D02*
X481174511Y-393675128D01*
X481674511Y-393532271D02*
X481745940Y-393603700D01*
X481745940Y-393603700D02*
X481674511Y-393675128D01*
X481674511Y-393675128D02*
X481603083Y-393603700D01*
X481603083Y-393603700D02*
X481674511Y-393532271D01*
X481674511Y-393532271D02*
X481674511Y-393675128D01*
X481674511Y-392746557D02*
X481745940Y-392817985D01*
X481745940Y-392817985D02*
X481674511Y-392889414D01*
X481674511Y-392889414D02*
X481603083Y-392817985D01*
X481603083Y-392817985D02*
X481674511Y-392746557D01*
X481674511Y-392746557D02*
X481674511Y-392889414D01*
D10*
D12*
D10*
D11*
D10*
D11*
D10*
D11*
D10*
D11*
D10*
D11*
X494004400Y-401489000D02*
X494004400Y-404489000D01*
D10*
D11*
X558004400Y-401489000D02*
X558004400Y-407989000D01*
X255706009Y-207830952D02*
X255753628Y-207688095D01*
X255753628Y-207688095D02*
X255801247Y-207640476D01*
X255801247Y-207640476D02*
X255896485Y-207592857D01*
X255896485Y-207592857D02*
X256039342Y-207592857D01*
X256039342Y-207592857D02*
X256134580Y-207640476D01*
X256134580Y-207640476D02*
X256182200Y-207688095D01*
X256182200Y-207688095D02*
X256229819Y-207783333D01*
X256229819Y-207783333D02*
X256229819Y-208164285D01*
X256229819Y-208164285D02*
X255229819Y-208164285D01*
X255229819Y-208164285D02*
X255229819Y-207830952D01*
X255229819Y-207830952D02*
X255277438Y-207735714D01*
X255277438Y-207735714D02*
X255325057Y-207688095D01*
X255325057Y-207688095D02*
X255420295Y-207640476D01*
X255420295Y-207640476D02*
X255515533Y-207640476D01*
X255515533Y-207640476D02*
X255610771Y-207688095D01*
X255610771Y-207688095D02*
X255658390Y-207735714D01*
X255658390Y-207735714D02*
X255706009Y-207830952D01*
X255706009Y-207830952D02*
X255706009Y-208164285D01*
X256182200Y-207211904D02*
X256229819Y-207069047D01*
X256229819Y-207069047D02*
X256229819Y-206830952D01*
X256229819Y-206830952D02*
X256182200Y-206735714D01*
X256182200Y-206735714D02*
X256134580Y-206688095D01*
X256134580Y-206688095D02*
X256039342Y-206640476D01*
X256039342Y-206640476D02*
X255944104Y-206640476D01*
X255944104Y-206640476D02*
X255848866Y-206688095D01*
X255848866Y-206688095D02*
X255801247Y-206735714D01*
X255801247Y-206735714D02*
X255753628Y-206830952D01*
X255753628Y-206830952D02*
X255706009Y-207021428D01*
X255706009Y-207021428D02*
X255658390Y-207116666D01*
X255658390Y-207116666D02*
X255610771Y-207164285D01*
X255610771Y-207164285D02*
X255515533Y-207211904D01*
X255515533Y-207211904D02*
X255420295Y-207211904D01*
X255420295Y-207211904D02*
X255325057Y-207164285D01*
X255325057Y-207164285D02*
X255277438Y-207116666D01*
X255277438Y-207116666D02*
X255229819Y-207021428D01*
X255229819Y-207021428D02*
X255229819Y-206783333D01*
X255229819Y-206783333D02*
X255277438Y-206640476D01*
X255563152Y-205783333D02*
X256229819Y-205783333D01*
X255182200Y-206021428D02*
X255896485Y-206259523D01*
X255896485Y-206259523D02*
X255896485Y-205640476D01*
X315706009Y-208307142D02*
X315753628Y-208164285D01*
X315753628Y-208164285D02*
X315801247Y-208116666D01*
X315801247Y-208116666D02*
X315896485Y-208069047D01*
X315896485Y-208069047D02*
X316039342Y-208069047D01*
X316039342Y-208069047D02*
X316134580Y-208116666D01*
X316134580Y-208116666D02*
X316182200Y-208164285D01*
X316182200Y-208164285D02*
X316229819Y-208259523D01*
X316229819Y-208259523D02*
X316229819Y-208640475D01*
X316229819Y-208640475D02*
X315229819Y-208640475D01*
X315229819Y-208640475D02*
X315229819Y-208307142D01*
X315229819Y-208307142D02*
X315277438Y-208211904D01*
X315277438Y-208211904D02*
X315325057Y-208164285D01*
X315325057Y-208164285D02*
X315420295Y-208116666D01*
X315420295Y-208116666D02*
X315515533Y-208116666D01*
X315515533Y-208116666D02*
X315610771Y-208164285D01*
X315610771Y-208164285D02*
X315658390Y-208211904D01*
X315658390Y-208211904D02*
X315706009Y-208307142D01*
X315706009Y-208307142D02*
X315706009Y-208640475D01*
X316182200Y-207688094D02*
X316229819Y-207545237D01*
X316229819Y-207545237D02*
X316229819Y-207307142D01*
X316229819Y-207307142D02*
X316182200Y-207211904D01*
X316182200Y-207211904D02*
X316134580Y-207164285D01*
X316134580Y-207164285D02*
X316039342Y-207116666D01*
X316039342Y-207116666D02*
X315944104Y-207116666D01*
X315944104Y-207116666D02*
X315848866Y-207164285D01*
X315848866Y-207164285D02*
X315801247Y-207211904D01*
X315801247Y-207211904D02*
X315753628Y-207307142D01*
X315753628Y-207307142D02*
X315706009Y-207497618D01*
X315706009Y-207497618D02*
X315658390Y-207592856D01*
X315658390Y-207592856D02*
X315610771Y-207640475D01*
X315610771Y-207640475D02*
X315515533Y-207688094D01*
X315515533Y-207688094D02*
X315420295Y-207688094D01*
X315420295Y-207688094D02*
X315325057Y-207640475D01*
X315325057Y-207640475D02*
X315277438Y-207592856D01*
X315277438Y-207592856D02*
X315229819Y-207497618D01*
X315229819Y-207497618D02*
X315229819Y-207259523D01*
X315229819Y-207259523D02*
X315277438Y-207116666D01*
X316229819Y-206164285D02*
X316229819Y-206735713D01*
X316229819Y-206449999D02*
X315229819Y-206449999D01*
X315229819Y-206449999D02*
X315372676Y-206545237D01*
X315372676Y-206545237D02*
X315467914Y-206640475D01*
X315467914Y-206640475D02*
X315515533Y-206735713D01*
X315229819Y-205545237D02*
X315229819Y-205449999D01*
X315229819Y-205449999D02*
X315277438Y-205354761D01*
X315277438Y-205354761D02*
X315325057Y-205307142D01*
X315325057Y-205307142D02*
X315420295Y-205259523D01*
X315420295Y-205259523D02*
X315610771Y-205211904D01*
X315610771Y-205211904D02*
X315848866Y-205211904D01*
X315848866Y-205211904D02*
X316039342Y-205259523D01*
X316039342Y-205259523D02*
X316134580Y-205307142D01*
X316134580Y-205307142D02*
X316182200Y-205354761D01*
X316182200Y-205354761D02*
X316229819Y-205449999D01*
X316229819Y-205449999D02*
X316229819Y-205545237D01*
X316229819Y-205545237D02*
X316182200Y-205640475D01*
X316182200Y-205640475D02*
X316134580Y-205688094D01*
X316134580Y-205688094D02*
X316039342Y-205735713D01*
X316039342Y-205735713D02*
X315848866Y-205783332D01*
X315848866Y-205783332D02*
X315610771Y-205783332D01*
X315610771Y-205783332D02*
X315420295Y-205735713D01*
X315420295Y-205735713D02*
X315325057Y-205688094D01*
X315325057Y-205688094D02*
X315277438Y-205640475D01*
X315277438Y-205640475D02*
X315229819Y-205545237D01*
X543128095Y-234574819D02*
X543128095Y-233574819D01*
X543128095Y-234051009D02*
X543699523Y-234051009D01*
X543699523Y-234574819D02*
X543699523Y-233574819D01*
X544604285Y-233908152D02*
X544604285Y-234574819D01*
X544366190Y-233527200D02*
X544128095Y-234241485D01*
X544128095Y-234241485D02*
X544747142Y-234241485D01*
X420370476Y-227044819D02*
X420370476Y-227759104D01*
X420370476Y-227759104D02*
X420322857Y-227901961D01*
X420322857Y-227901961D02*
X420227619Y-227997200D01*
X420227619Y-227997200D02*
X420084762Y-228044819D01*
X420084762Y-228044819D02*
X419989524Y-228044819D01*
X420799048Y-227140057D02*
X420846667Y-227092438D01*
X420846667Y-227092438D02*
X420941905Y-227044819D01*
X420941905Y-227044819D02*
X421180000Y-227044819D01*
X421180000Y-227044819D02*
X421275238Y-227092438D01*
X421275238Y-227092438D02*
X421322857Y-227140057D01*
X421322857Y-227140057D02*
X421370476Y-227235295D01*
X421370476Y-227235295D02*
X421370476Y-227330533D01*
X421370476Y-227330533D02*
X421322857Y-227473390D01*
X421322857Y-227473390D02*
X420751429Y-228044819D01*
X420751429Y-228044819D02*
X421370476Y-228044819D01*
X422227619Y-227044819D02*
X422037143Y-227044819D01*
X422037143Y-227044819D02*
X421941905Y-227092438D01*
X421941905Y-227092438D02*
X421894286Y-227140057D01*
X421894286Y-227140057D02*
X421799048Y-227282914D01*
X421799048Y-227282914D02*
X421751429Y-227473390D01*
X421751429Y-227473390D02*
X421751429Y-227854342D01*
X421751429Y-227854342D02*
X421799048Y-227949580D01*
X421799048Y-227949580D02*
X421846667Y-227997200D01*
X421846667Y-227997200D02*
X421941905Y-228044819D01*
X421941905Y-228044819D02*
X422132381Y-228044819D01*
X422132381Y-228044819D02*
X422227619Y-227997200D01*
X422227619Y-227997200D02*
X422275238Y-227949580D01*
X422275238Y-227949580D02*
X422322857Y-227854342D01*
X422322857Y-227854342D02*
X422322857Y-227616247D01*
X422322857Y-227616247D02*
X422275238Y-227521009D01*
X422275238Y-227521009D02*
X422227619Y-227473390D01*
X422227619Y-227473390D02*
X422132381Y-227425771D01*
X422132381Y-227425771D02*
X421941905Y-227425771D01*
X421941905Y-227425771D02*
X421846667Y-227473390D01*
X421846667Y-227473390D02*
X421799048Y-227521009D01*
X421799048Y-227521009D02*
X421751429Y-227616247D01*
X320190476Y-227044819D02*
X320190476Y-227759104D01*
X320190476Y-227759104D02*
X320142857Y-227901961D01*
X320142857Y-227901961D02*
X320047619Y-227997200D01*
X320047619Y-227997200D02*
X319904762Y-228044819D01*
X319904762Y-228044819D02*
X319809524Y-228044819D01*
X321190476Y-228044819D02*
X320619048Y-228044819D01*
X320904762Y-228044819D02*
X320904762Y-227044819D01*
X320904762Y-227044819D02*
X320809524Y-227187676D01*
X320809524Y-227187676D02*
X320714286Y-227282914D01*
X320714286Y-227282914D02*
X320619048Y-227330533D01*
X322047619Y-227044819D02*
X321857143Y-227044819D01*
X321857143Y-227044819D02*
X321761905Y-227092438D01*
X321761905Y-227092438D02*
X321714286Y-227140057D01*
X321714286Y-227140057D02*
X321619048Y-227282914D01*
X321619048Y-227282914D02*
X321571429Y-227473390D01*
X321571429Y-227473390D02*
X321571429Y-227854342D01*
X321571429Y-227854342D02*
X321619048Y-227949580D01*
X321619048Y-227949580D02*
X321666667Y-227997200D01*
X321666667Y-227997200D02*
X321761905Y-228044819D01*
X321761905Y-228044819D02*
X321952381Y-228044819D01*
X321952381Y-228044819D02*
X322047619Y-227997200D01*
X322047619Y-227997200D02*
X322095238Y-227949580D01*
X322095238Y-227949580D02*
X322142857Y-227854342D01*
X322142857Y-227854342D02*
X322142857Y-227616247D01*
X322142857Y-227616247D02*
X322095238Y-227521009D01*
X322095238Y-227521009D02*
X322047619Y-227473390D01*
X322047619Y-227473390D02*
X321952381Y-227425771D01*
X321952381Y-227425771D02*
X321761905Y-227425771D01*
X321761905Y-227425771D02*
X321666667Y-227473390D01*
X321666667Y-227473390D02*
X321619048Y-227521009D01*
X321619048Y-227521009D02*
X321571429Y-227616247D01*
X371986009Y-208507142D02*
X372033628Y-208364285D01*
X372033628Y-208364285D02*
X372081247Y-208316666D01*
X372081247Y-208316666D02*
X372176485Y-208269047D01*
X372176485Y-208269047D02*
X372319342Y-208269047D01*
X372319342Y-208269047D02*
X372414580Y-208316666D01*
X372414580Y-208316666D02*
X372462200Y-208364285D01*
X372462200Y-208364285D02*
X372509819Y-208459523D01*
X372509819Y-208459523D02*
X372509819Y-208840475D01*
X372509819Y-208840475D02*
X371509819Y-208840475D01*
X371509819Y-208840475D02*
X371509819Y-208507142D01*
X371509819Y-208507142D02*
X371557438Y-208411904D01*
X371557438Y-208411904D02*
X371605057Y-208364285D01*
X371605057Y-208364285D02*
X371700295Y-208316666D01*
X371700295Y-208316666D02*
X371795533Y-208316666D01*
X371795533Y-208316666D02*
X371890771Y-208364285D01*
X371890771Y-208364285D02*
X371938390Y-208411904D01*
X371938390Y-208411904D02*
X371986009Y-208507142D01*
X371986009Y-208507142D02*
X371986009Y-208840475D01*
X372462200Y-207888094D02*
X372509819Y-207745237D01*
X372509819Y-207745237D02*
X372509819Y-207507142D01*
X372509819Y-207507142D02*
X372462200Y-207411904D01*
X372462200Y-207411904D02*
X372414580Y-207364285D01*
X372414580Y-207364285D02*
X372319342Y-207316666D01*
X372319342Y-207316666D02*
X372224104Y-207316666D01*
X372224104Y-207316666D02*
X372128866Y-207364285D01*
X372128866Y-207364285D02*
X372081247Y-207411904D01*
X372081247Y-207411904D02*
X372033628Y-207507142D01*
X372033628Y-207507142D02*
X371986009Y-207697618D01*
X371986009Y-207697618D02*
X371938390Y-207792856D01*
X371938390Y-207792856D02*
X371890771Y-207840475D01*
X371890771Y-207840475D02*
X371795533Y-207888094D01*
X371795533Y-207888094D02*
X371700295Y-207888094D01*
X371700295Y-207888094D02*
X371605057Y-207840475D01*
X371605057Y-207840475D02*
X371557438Y-207792856D01*
X371557438Y-207792856D02*
X371509819Y-207697618D01*
X371509819Y-207697618D02*
X371509819Y-207459523D01*
X371509819Y-207459523D02*
X371557438Y-207316666D01*
X372509819Y-206364285D02*
X372509819Y-206935713D01*
X372509819Y-206649999D02*
X371509819Y-206649999D01*
X371509819Y-206649999D02*
X371652676Y-206745237D01*
X371652676Y-206745237D02*
X371747914Y-206840475D01*
X371747914Y-206840475D02*
X371795533Y-206935713D01*
X371509819Y-205507142D02*
X371509819Y-205697618D01*
X371509819Y-205697618D02*
X371557438Y-205792856D01*
X371557438Y-205792856D02*
X371605057Y-205840475D01*
X371605057Y-205840475D02*
X371747914Y-205935713D01*
X371747914Y-205935713D02*
X371938390Y-205983332D01*
X371938390Y-205983332D02*
X372319342Y-205983332D01*
X372319342Y-205983332D02*
X372414580Y-205935713D01*
X372414580Y-205935713D02*
X372462200Y-205888094D01*
X372462200Y-205888094D02*
X372509819Y-205792856D01*
X372509819Y-205792856D02*
X372509819Y-205602380D01*
X372509819Y-205602380D02*
X372462200Y-205507142D01*
X372462200Y-205507142D02*
X372414580Y-205459523D01*
X372414580Y-205459523D02*
X372319342Y-205411904D01*
X372319342Y-205411904D02*
X372081247Y-205411904D01*
X372081247Y-205411904D02*
X371986009Y-205459523D01*
X371986009Y-205459523D02*
X371938390Y-205507142D01*
X371938390Y-205507142D02*
X371890771Y-205602380D01*
X371890771Y-205602380D02*
X371890771Y-205792856D01*
X371890771Y-205792856D02*
X371938390Y-205888094D01*
X371938390Y-205888094D02*
X371986009Y-205935713D01*
X371986009Y-205935713D02*
X372081247Y-205983332D01*
X330190476Y-227044819D02*
X330190476Y-227759104D01*
X330190476Y-227759104D02*
X330142857Y-227901961D01*
X330142857Y-227901961D02*
X330047619Y-227997200D01*
X330047619Y-227997200D02*
X329904762Y-228044819D01*
X329904762Y-228044819D02*
X329809524Y-228044819D01*
X331190476Y-228044819D02*
X330619048Y-228044819D01*
X330904762Y-228044819D02*
X330904762Y-227044819D01*
X330904762Y-227044819D02*
X330809524Y-227187676D01*
X330809524Y-227187676D02*
X330714286Y-227282914D01*
X330714286Y-227282914D02*
X330619048Y-227330533D01*
X331523810Y-227044819D02*
X332190476Y-227044819D01*
X332190476Y-227044819D02*
X331761905Y-228044819D01*
X78128095Y-202464819D02*
X78128095Y-201464819D01*
X78128095Y-201941009D02*
X78699523Y-201941009D01*
X78699523Y-202464819D02*
X78699523Y-201464819D01*
X79699523Y-202464819D02*
X79128095Y-202464819D01*
X79413809Y-202464819D02*
X79413809Y-201464819D01*
X79413809Y-201464819D02*
X79318571Y-201607676D01*
X79318571Y-201607676D02*
X79223333Y-201702914D01*
X79223333Y-201702914D02*
X79128095Y-201750533D01*
X400190476Y-227044819D02*
X400190476Y-227759104D01*
X400190476Y-227759104D02*
X400142857Y-227901961D01*
X400142857Y-227901961D02*
X400047619Y-227997200D01*
X400047619Y-227997200D02*
X399904762Y-228044819D01*
X399904762Y-228044819D02*
X399809524Y-228044819D01*
X400619048Y-227140057D02*
X400666667Y-227092438D01*
X400666667Y-227092438D02*
X400761905Y-227044819D01*
X400761905Y-227044819D02*
X401000000Y-227044819D01*
X401000000Y-227044819D02*
X401095238Y-227092438D01*
X401095238Y-227092438D02*
X401142857Y-227140057D01*
X401142857Y-227140057D02*
X401190476Y-227235295D01*
X401190476Y-227235295D02*
X401190476Y-227330533D01*
X401190476Y-227330533D02*
X401142857Y-227473390D01*
X401142857Y-227473390D02*
X400571429Y-228044819D01*
X400571429Y-228044819D02*
X401190476Y-228044819D01*
X402047619Y-227378152D02*
X402047619Y-228044819D01*
X401809524Y-226997200D02*
X401571429Y-227711485D01*
X401571429Y-227711485D02*
X402190476Y-227711485D01*
X225706009Y-207830952D02*
X225753628Y-207688095D01*
X225753628Y-207688095D02*
X225801247Y-207640476D01*
X225801247Y-207640476D02*
X225896485Y-207592857D01*
X225896485Y-207592857D02*
X226039342Y-207592857D01*
X226039342Y-207592857D02*
X226134580Y-207640476D01*
X226134580Y-207640476D02*
X226182200Y-207688095D01*
X226182200Y-207688095D02*
X226229819Y-207783333D01*
X226229819Y-207783333D02*
X226229819Y-208164285D01*
X226229819Y-208164285D02*
X225229819Y-208164285D01*
X225229819Y-208164285D02*
X225229819Y-207830952D01*
X225229819Y-207830952D02*
X225277438Y-207735714D01*
X225277438Y-207735714D02*
X225325057Y-207688095D01*
X225325057Y-207688095D02*
X225420295Y-207640476D01*
X225420295Y-207640476D02*
X225515533Y-207640476D01*
X225515533Y-207640476D02*
X225610771Y-207688095D01*
X225610771Y-207688095D02*
X225658390Y-207735714D01*
X225658390Y-207735714D02*
X225706009Y-207830952D01*
X225706009Y-207830952D02*
X225706009Y-208164285D01*
X226182200Y-207211904D02*
X226229819Y-207069047D01*
X226229819Y-207069047D02*
X226229819Y-206830952D01*
X226229819Y-206830952D02*
X226182200Y-206735714D01*
X226182200Y-206735714D02*
X226134580Y-206688095D01*
X226134580Y-206688095D02*
X226039342Y-206640476D01*
X226039342Y-206640476D02*
X225944104Y-206640476D01*
X225944104Y-206640476D02*
X225848866Y-206688095D01*
X225848866Y-206688095D02*
X225801247Y-206735714D01*
X225801247Y-206735714D02*
X225753628Y-206830952D01*
X225753628Y-206830952D02*
X225706009Y-207021428D01*
X225706009Y-207021428D02*
X225658390Y-207116666D01*
X225658390Y-207116666D02*
X225610771Y-207164285D01*
X225610771Y-207164285D02*
X225515533Y-207211904D01*
X225515533Y-207211904D02*
X225420295Y-207211904D01*
X225420295Y-207211904D02*
X225325057Y-207164285D01*
X225325057Y-207164285D02*
X225277438Y-207116666D01*
X225277438Y-207116666D02*
X225229819Y-207021428D01*
X225229819Y-207021428D02*
X225229819Y-206783333D01*
X225229819Y-206783333D02*
X225277438Y-206640476D01*
X226229819Y-205688095D02*
X226229819Y-206259523D01*
X226229819Y-205973809D02*
X225229819Y-205973809D01*
X225229819Y-205973809D02*
X225372676Y-206069047D01*
X225372676Y-206069047D02*
X225467914Y-206164285D01*
X225467914Y-206164285D02*
X225515533Y-206259523D01*
X265706009Y-207830952D02*
X265753628Y-207688095D01*
X265753628Y-207688095D02*
X265801247Y-207640476D01*
X265801247Y-207640476D02*
X265896485Y-207592857D01*
X265896485Y-207592857D02*
X266039342Y-207592857D01*
X266039342Y-207592857D02*
X266134580Y-207640476D01*
X266134580Y-207640476D02*
X266182200Y-207688095D01*
X266182200Y-207688095D02*
X266229819Y-207783333D01*
X266229819Y-207783333D02*
X266229819Y-208164285D01*
X266229819Y-208164285D02*
X265229819Y-208164285D01*
X265229819Y-208164285D02*
X265229819Y-207830952D01*
X265229819Y-207830952D02*
X265277438Y-207735714D01*
X265277438Y-207735714D02*
X265325057Y-207688095D01*
X265325057Y-207688095D02*
X265420295Y-207640476D01*
X265420295Y-207640476D02*
X265515533Y-207640476D01*
X265515533Y-207640476D02*
X265610771Y-207688095D01*
X265610771Y-207688095D02*
X265658390Y-207735714D01*
X265658390Y-207735714D02*
X265706009Y-207830952D01*
X265706009Y-207830952D02*
X265706009Y-208164285D01*
X266182200Y-207211904D02*
X266229819Y-207069047D01*
X266229819Y-207069047D02*
X266229819Y-206830952D01*
X266229819Y-206830952D02*
X266182200Y-206735714D01*
X266182200Y-206735714D02*
X266134580Y-206688095D01*
X266134580Y-206688095D02*
X266039342Y-206640476D01*
X266039342Y-206640476D02*
X265944104Y-206640476D01*
X265944104Y-206640476D02*
X265848866Y-206688095D01*
X265848866Y-206688095D02*
X265801247Y-206735714D01*
X265801247Y-206735714D02*
X265753628Y-206830952D01*
X265753628Y-206830952D02*
X265706009Y-207021428D01*
X265706009Y-207021428D02*
X265658390Y-207116666D01*
X265658390Y-207116666D02*
X265610771Y-207164285D01*
X265610771Y-207164285D02*
X265515533Y-207211904D01*
X265515533Y-207211904D02*
X265420295Y-207211904D01*
X265420295Y-207211904D02*
X265325057Y-207164285D01*
X265325057Y-207164285D02*
X265277438Y-207116666D01*
X265277438Y-207116666D02*
X265229819Y-207021428D01*
X265229819Y-207021428D02*
X265229819Y-206783333D01*
X265229819Y-206783333D02*
X265277438Y-206640476D01*
X265229819Y-205735714D02*
X265229819Y-206211904D01*
X265229819Y-206211904D02*
X265706009Y-206259523D01*
X265706009Y-206259523D02*
X265658390Y-206211904D01*
X265658390Y-206211904D02*
X265610771Y-206116666D01*
X265610771Y-206116666D02*
X265610771Y-205878571D01*
X265610771Y-205878571D02*
X265658390Y-205783333D01*
X265658390Y-205783333D02*
X265706009Y-205735714D01*
X265706009Y-205735714D02*
X265801247Y-205688095D01*
X265801247Y-205688095D02*
X266039342Y-205688095D01*
X266039342Y-205688095D02*
X266134580Y-205735714D01*
X266134580Y-205735714D02*
X266182200Y-205783333D01*
X266182200Y-205783333D02*
X266229819Y-205878571D01*
X266229819Y-205878571D02*
X266229819Y-206116666D01*
X266229819Y-206116666D02*
X266182200Y-206211904D01*
X266182200Y-206211904D02*
X266134580Y-206259523D01*
X198936666Y-214464819D02*
X198936666Y-215179104D01*
X198936666Y-215179104D02*
X198889047Y-215321961D01*
X198889047Y-215321961D02*
X198793809Y-215417200D01*
X198793809Y-215417200D02*
X198650952Y-215464819D01*
X198650952Y-215464819D02*
X198555714Y-215464819D01*
X199889047Y-214464819D02*
X199412857Y-214464819D01*
X199412857Y-214464819D02*
X199365238Y-214941009D01*
X199365238Y-214941009D02*
X199412857Y-214893390D01*
X199412857Y-214893390D02*
X199508095Y-214845771D01*
X199508095Y-214845771D02*
X199746190Y-214845771D01*
X199746190Y-214845771D02*
X199841428Y-214893390D01*
X199841428Y-214893390D02*
X199889047Y-214941009D01*
X199889047Y-214941009D02*
X199936666Y-215036247D01*
X199936666Y-215036247D02*
X199936666Y-215274342D01*
X199936666Y-215274342D02*
X199889047Y-215369580D01*
X199889047Y-215369580D02*
X199841428Y-215417200D01*
X199841428Y-215417200D02*
X199746190Y-215464819D01*
X199746190Y-215464819D02*
X199508095Y-215464819D01*
X199508095Y-215464819D02*
X199412857Y-215417200D01*
X199412857Y-215417200D02*
X199365238Y-215369580D01*
X285706009Y-207830952D02*
X285753628Y-207688095D01*
X285753628Y-207688095D02*
X285801247Y-207640476D01*
X285801247Y-207640476D02*
X285896485Y-207592857D01*
X285896485Y-207592857D02*
X286039342Y-207592857D01*
X286039342Y-207592857D02*
X286134580Y-207640476D01*
X286134580Y-207640476D02*
X286182200Y-207688095D01*
X286182200Y-207688095D02*
X286229819Y-207783333D01*
X286229819Y-207783333D02*
X286229819Y-208164285D01*
X286229819Y-208164285D02*
X285229819Y-208164285D01*
X285229819Y-208164285D02*
X285229819Y-207830952D01*
X285229819Y-207830952D02*
X285277438Y-207735714D01*
X285277438Y-207735714D02*
X285325057Y-207688095D01*
X285325057Y-207688095D02*
X285420295Y-207640476D01*
X285420295Y-207640476D02*
X285515533Y-207640476D01*
X285515533Y-207640476D02*
X285610771Y-207688095D01*
X285610771Y-207688095D02*
X285658390Y-207735714D01*
X285658390Y-207735714D02*
X285706009Y-207830952D01*
X285706009Y-207830952D02*
X285706009Y-208164285D01*
X286182200Y-207211904D02*
X286229819Y-207069047D01*
X286229819Y-207069047D02*
X286229819Y-206830952D01*
X286229819Y-206830952D02*
X286182200Y-206735714D01*
X286182200Y-206735714D02*
X286134580Y-206688095D01*
X286134580Y-206688095D02*
X286039342Y-206640476D01*
X286039342Y-206640476D02*
X285944104Y-206640476D01*
X285944104Y-206640476D02*
X285848866Y-206688095D01*
X285848866Y-206688095D02*
X285801247Y-206735714D01*
X285801247Y-206735714D02*
X285753628Y-206830952D01*
X285753628Y-206830952D02*
X285706009Y-207021428D01*
X285706009Y-207021428D02*
X285658390Y-207116666D01*
X285658390Y-207116666D02*
X285610771Y-207164285D01*
X285610771Y-207164285D02*
X285515533Y-207211904D01*
X285515533Y-207211904D02*
X285420295Y-207211904D01*
X285420295Y-207211904D02*
X285325057Y-207164285D01*
X285325057Y-207164285D02*
X285277438Y-207116666D01*
X285277438Y-207116666D02*
X285229819Y-207021428D01*
X285229819Y-207021428D02*
X285229819Y-206783333D01*
X285229819Y-206783333D02*
X285277438Y-206640476D01*
X285229819Y-206307142D02*
X285229819Y-205640476D01*
X285229819Y-205640476D02*
X286229819Y-206069047D01*
X410190476Y-227044819D02*
X410190476Y-227759104D01*
X410190476Y-227759104D02*
X410142857Y-227901961D01*
X410142857Y-227901961D02*
X410047619Y-227997200D01*
X410047619Y-227997200D02*
X409904762Y-228044819D01*
X409904762Y-228044819D02*
X409809524Y-228044819D01*
X410619048Y-227140057D02*
X410666667Y-227092438D01*
X410666667Y-227092438D02*
X410761905Y-227044819D01*
X410761905Y-227044819D02*
X411000000Y-227044819D01*
X411000000Y-227044819D02*
X411095238Y-227092438D01*
X411095238Y-227092438D02*
X411142857Y-227140057D01*
X411142857Y-227140057D02*
X411190476Y-227235295D01*
X411190476Y-227235295D02*
X411190476Y-227330533D01*
X411190476Y-227330533D02*
X411142857Y-227473390D01*
X411142857Y-227473390D02*
X410571429Y-228044819D01*
X410571429Y-228044819D02*
X411190476Y-228044819D01*
X412095238Y-227044819D02*
X411619048Y-227044819D01*
X411619048Y-227044819D02*
X411571429Y-227521009D01*
X411571429Y-227521009D02*
X411619048Y-227473390D01*
X411619048Y-227473390D02*
X411714286Y-227425771D01*
X411714286Y-227425771D02*
X411952381Y-227425771D01*
X411952381Y-227425771D02*
X412047619Y-227473390D01*
X412047619Y-227473390D02*
X412095238Y-227521009D01*
X412095238Y-227521009D02*
X412142857Y-227616247D01*
X412142857Y-227616247D02*
X412142857Y-227854342D01*
X412142857Y-227854342D02*
X412095238Y-227949580D01*
X412095238Y-227949580D02*
X412047619Y-227997200D01*
X412047619Y-227997200D02*
X411952381Y-228044819D01*
X411952381Y-228044819D02*
X411714286Y-228044819D01*
X411714286Y-228044819D02*
X411619048Y-227997200D01*
X411619048Y-227997200D02*
X411571429Y-227949580D01*
X409506009Y-208507142D02*
X409553628Y-208364285D01*
X409553628Y-208364285D02*
X409601247Y-208316666D01*
X409601247Y-208316666D02*
X409696485Y-208269047D01*
X409696485Y-208269047D02*
X409839342Y-208269047D01*
X409839342Y-208269047D02*
X409934580Y-208316666D01*
X409934580Y-208316666D02*
X409982200Y-208364285D01*
X409982200Y-208364285D02*
X410029819Y-208459523D01*
X410029819Y-208459523D02*
X410029819Y-208840475D01*
X410029819Y-208840475D02*
X409029819Y-208840475D01*
X409029819Y-208840475D02*
X409029819Y-208507142D01*
X409029819Y-208507142D02*
X409077438Y-208411904D01*
X409077438Y-208411904D02*
X409125057Y-208364285D01*
X409125057Y-208364285D02*
X409220295Y-208316666D01*
X409220295Y-208316666D02*
X409315533Y-208316666D01*
X409315533Y-208316666D02*
X409410771Y-208364285D01*
X409410771Y-208364285D02*
X409458390Y-208411904D01*
X409458390Y-208411904D02*
X409506009Y-208507142D01*
X409506009Y-208507142D02*
X409506009Y-208840475D01*
X409982200Y-207888094D02*
X410029819Y-207745237D01*
X410029819Y-207745237D02*
X410029819Y-207507142D01*
X410029819Y-207507142D02*
X409982200Y-207411904D01*
X409982200Y-207411904D02*
X409934580Y-207364285D01*
X409934580Y-207364285D02*
X409839342Y-207316666D01*
X409839342Y-207316666D02*
X409744104Y-207316666D01*
X409744104Y-207316666D02*
X409648866Y-207364285D01*
X409648866Y-207364285D02*
X409601247Y-207411904D01*
X409601247Y-207411904D02*
X409553628Y-207507142D01*
X409553628Y-207507142D02*
X409506009Y-207697618D01*
X409506009Y-207697618D02*
X409458390Y-207792856D01*
X409458390Y-207792856D02*
X409410771Y-207840475D01*
X409410771Y-207840475D02*
X409315533Y-207888094D01*
X409315533Y-207888094D02*
X409220295Y-207888094D01*
X409220295Y-207888094D02*
X409125057Y-207840475D01*
X409125057Y-207840475D02*
X409077438Y-207792856D01*
X409077438Y-207792856D02*
X409029819Y-207697618D01*
X409029819Y-207697618D02*
X409029819Y-207459523D01*
X409029819Y-207459523D02*
X409077438Y-207316666D01*
X409125057Y-206935713D02*
X409077438Y-206888094D01*
X409077438Y-206888094D02*
X409029819Y-206792856D01*
X409029819Y-206792856D02*
X409029819Y-206554761D01*
X409029819Y-206554761D02*
X409077438Y-206459523D01*
X409077438Y-206459523D02*
X409125057Y-206411904D01*
X409125057Y-206411904D02*
X409220295Y-206364285D01*
X409220295Y-206364285D02*
X409315533Y-206364285D01*
X409315533Y-206364285D02*
X409458390Y-206411904D01*
X409458390Y-206411904D02*
X410029819Y-206983332D01*
X410029819Y-206983332D02*
X410029819Y-206364285D01*
X409029819Y-205745237D02*
X409029819Y-205649999D01*
X409029819Y-205649999D02*
X409077438Y-205554761D01*
X409077438Y-205554761D02*
X409125057Y-205507142D01*
X409125057Y-205507142D02*
X409220295Y-205459523D01*
X409220295Y-205459523D02*
X409410771Y-205411904D01*
X409410771Y-205411904D02*
X409648866Y-205411904D01*
X409648866Y-205411904D02*
X409839342Y-205459523D01*
X409839342Y-205459523D02*
X409934580Y-205507142D01*
X409934580Y-205507142D02*
X409982200Y-205554761D01*
X409982200Y-205554761D02*
X410029819Y-205649999D01*
X410029819Y-205649999D02*
X410029819Y-205745237D01*
X410029819Y-205745237D02*
X409982200Y-205840475D01*
X409982200Y-205840475D02*
X409934580Y-205888094D01*
X409934580Y-205888094D02*
X409839342Y-205935713D01*
X409839342Y-205935713D02*
X409648866Y-205983332D01*
X409648866Y-205983332D02*
X409410771Y-205983332D01*
X409410771Y-205983332D02*
X409220295Y-205935713D01*
X409220295Y-205935713D02*
X409125057Y-205888094D01*
X409125057Y-205888094D02*
X409077438Y-205840475D01*
X409077438Y-205840475D02*
X409029819Y-205745237D01*
X270190476Y-227044819D02*
X270190476Y-227759104D01*
X270190476Y-227759104D02*
X270142857Y-227901961D01*
X270142857Y-227901961D02*
X270047619Y-227997200D01*
X270047619Y-227997200D02*
X269904762Y-228044819D01*
X269904762Y-228044819D02*
X269809524Y-228044819D01*
X271190476Y-228044819D02*
X270619048Y-228044819D01*
X270904762Y-228044819D02*
X270904762Y-227044819D01*
X270904762Y-227044819D02*
X270809524Y-227187676D01*
X270809524Y-227187676D02*
X270714286Y-227282914D01*
X270714286Y-227282914D02*
X270619048Y-227330533D01*
X272142857Y-228044819D02*
X271571429Y-228044819D01*
X271857143Y-228044819D02*
X271857143Y-227044819D01*
X271857143Y-227044819D02*
X271761905Y-227187676D01*
X271761905Y-227187676D02*
X271666667Y-227282914D01*
X271666667Y-227282914D02*
X271571429Y-227330533D01*
X245706009Y-207830952D02*
X245753628Y-207688095D01*
X245753628Y-207688095D02*
X245801247Y-207640476D01*
X245801247Y-207640476D02*
X245896485Y-207592857D01*
X245896485Y-207592857D02*
X246039342Y-207592857D01*
X246039342Y-207592857D02*
X246134580Y-207640476D01*
X246134580Y-207640476D02*
X246182200Y-207688095D01*
X246182200Y-207688095D02*
X246229819Y-207783333D01*
X246229819Y-207783333D02*
X246229819Y-208164285D01*
X246229819Y-208164285D02*
X245229819Y-208164285D01*
X245229819Y-208164285D02*
X245229819Y-207830952D01*
X245229819Y-207830952D02*
X245277438Y-207735714D01*
X245277438Y-207735714D02*
X245325057Y-207688095D01*
X245325057Y-207688095D02*
X245420295Y-207640476D01*
X245420295Y-207640476D02*
X245515533Y-207640476D01*
X245515533Y-207640476D02*
X245610771Y-207688095D01*
X245610771Y-207688095D02*
X245658390Y-207735714D01*
X245658390Y-207735714D02*
X245706009Y-207830952D01*
X245706009Y-207830952D02*
X245706009Y-208164285D01*
X246182200Y-207211904D02*
X246229819Y-207069047D01*
X246229819Y-207069047D02*
X246229819Y-206830952D01*
X246229819Y-206830952D02*
X246182200Y-206735714D01*
X246182200Y-206735714D02*
X246134580Y-206688095D01*
X246134580Y-206688095D02*
X246039342Y-206640476D01*
X246039342Y-206640476D02*
X245944104Y-206640476D01*
X245944104Y-206640476D02*
X245848866Y-206688095D01*
X245848866Y-206688095D02*
X245801247Y-206735714D01*
X245801247Y-206735714D02*
X245753628Y-206830952D01*
X245753628Y-206830952D02*
X245706009Y-207021428D01*
X245706009Y-207021428D02*
X245658390Y-207116666D01*
X245658390Y-207116666D02*
X245610771Y-207164285D01*
X245610771Y-207164285D02*
X245515533Y-207211904D01*
X245515533Y-207211904D02*
X245420295Y-207211904D01*
X245420295Y-207211904D02*
X245325057Y-207164285D01*
X245325057Y-207164285D02*
X245277438Y-207116666D01*
X245277438Y-207116666D02*
X245229819Y-207021428D01*
X245229819Y-207021428D02*
X245229819Y-206783333D01*
X245229819Y-206783333D02*
X245277438Y-206640476D01*
X245229819Y-206307142D02*
X245229819Y-205688095D01*
X245229819Y-205688095D02*
X245610771Y-206021428D01*
X245610771Y-206021428D02*
X245610771Y-205878571D01*
X245610771Y-205878571D02*
X245658390Y-205783333D01*
X245658390Y-205783333D02*
X245706009Y-205735714D01*
X245706009Y-205735714D02*
X245801247Y-205688095D01*
X245801247Y-205688095D02*
X246039342Y-205688095D01*
X246039342Y-205688095D02*
X246134580Y-205735714D01*
X246134580Y-205735714D02*
X246182200Y-205783333D01*
X246182200Y-205783333D02*
X246229819Y-205878571D01*
X246229819Y-205878571D02*
X246229819Y-206164285D01*
X246229819Y-206164285D02*
X246182200Y-206259523D01*
X246182200Y-206259523D02*
X246134580Y-206307142D01*
X250506666Y-227044819D02*
X250506666Y-227759104D01*
X250506666Y-227759104D02*
X250459047Y-227901961D01*
X250459047Y-227901961D02*
X250363809Y-227997200D01*
X250363809Y-227997200D02*
X250220952Y-228044819D01*
X250220952Y-228044819D02*
X250125714Y-228044819D01*
X251030476Y-228044819D02*
X251220952Y-228044819D01*
X251220952Y-228044819D02*
X251316190Y-227997200D01*
X251316190Y-227997200D02*
X251363809Y-227949580D01*
X251363809Y-227949580D02*
X251459047Y-227806723D01*
X251459047Y-227806723D02*
X251506666Y-227616247D01*
X251506666Y-227616247D02*
X251506666Y-227235295D01*
X251506666Y-227235295D02*
X251459047Y-227140057D01*
X251459047Y-227140057D02*
X251411428Y-227092438D01*
X251411428Y-227092438D02*
X251316190Y-227044819D01*
X251316190Y-227044819D02*
X251125714Y-227044819D01*
X251125714Y-227044819D02*
X251030476Y-227092438D01*
X251030476Y-227092438D02*
X250982857Y-227140057D01*
X250982857Y-227140057D02*
X250935238Y-227235295D01*
X250935238Y-227235295D02*
X250935238Y-227473390D01*
X250935238Y-227473390D02*
X250982857Y-227568628D01*
X250982857Y-227568628D02*
X251030476Y-227616247D01*
X251030476Y-227616247D02*
X251125714Y-227663866D01*
X251125714Y-227663866D02*
X251316190Y-227663866D01*
X251316190Y-227663866D02*
X251411428Y-227616247D01*
X251411428Y-227616247D02*
X251459047Y-227568628D01*
X251459047Y-227568628D02*
X251506666Y-227473390D01*
X280250476Y-227044819D02*
X280250476Y-227759104D01*
X280250476Y-227759104D02*
X280202857Y-227901961D01*
X280202857Y-227901961D02*
X280107619Y-227997200D01*
X280107619Y-227997200D02*
X279964762Y-228044819D01*
X279964762Y-228044819D02*
X279869524Y-228044819D01*
X281250476Y-228044819D02*
X280679048Y-228044819D01*
X280964762Y-228044819D02*
X280964762Y-227044819D01*
X280964762Y-227044819D02*
X280869524Y-227187676D01*
X280869524Y-227187676D02*
X280774286Y-227282914D01*
X280774286Y-227282914D02*
X280679048Y-227330533D01*
X281631429Y-227140057D02*
X281679048Y-227092438D01*
X281679048Y-227092438D02*
X281774286Y-227044819D01*
X281774286Y-227044819D02*
X282012381Y-227044819D01*
X282012381Y-227044819D02*
X282107619Y-227092438D01*
X282107619Y-227092438D02*
X282155238Y-227140057D01*
X282155238Y-227140057D02*
X282202857Y-227235295D01*
X282202857Y-227235295D02*
X282202857Y-227330533D01*
X282202857Y-227330533D02*
X282155238Y-227473390D01*
X282155238Y-227473390D02*
X281583810Y-228044819D01*
X281583810Y-228044819D02*
X282202857Y-228044819D01*
X334466009Y-208507142D02*
X334513628Y-208364285D01*
X334513628Y-208364285D02*
X334561247Y-208316666D01*
X334561247Y-208316666D02*
X334656485Y-208269047D01*
X334656485Y-208269047D02*
X334799342Y-208269047D01*
X334799342Y-208269047D02*
X334894580Y-208316666D01*
X334894580Y-208316666D02*
X334942200Y-208364285D01*
X334942200Y-208364285D02*
X334989819Y-208459523D01*
X334989819Y-208459523D02*
X334989819Y-208840475D01*
X334989819Y-208840475D02*
X333989819Y-208840475D01*
X333989819Y-208840475D02*
X333989819Y-208507142D01*
X333989819Y-208507142D02*
X334037438Y-208411904D01*
X334037438Y-208411904D02*
X334085057Y-208364285D01*
X334085057Y-208364285D02*
X334180295Y-208316666D01*
X334180295Y-208316666D02*
X334275533Y-208316666D01*
X334275533Y-208316666D02*
X334370771Y-208364285D01*
X334370771Y-208364285D02*
X334418390Y-208411904D01*
X334418390Y-208411904D02*
X334466009Y-208507142D01*
X334466009Y-208507142D02*
X334466009Y-208840475D01*
X334942200Y-207888094D02*
X334989819Y-207745237D01*
X334989819Y-207745237D02*
X334989819Y-207507142D01*
X334989819Y-207507142D02*
X334942200Y-207411904D01*
X334942200Y-207411904D02*
X334894580Y-207364285D01*
X334894580Y-207364285D02*
X334799342Y-207316666D01*
X334799342Y-207316666D02*
X334704104Y-207316666D01*
X334704104Y-207316666D02*
X334608866Y-207364285D01*
X334608866Y-207364285D02*
X334561247Y-207411904D01*
X334561247Y-207411904D02*
X334513628Y-207507142D01*
X334513628Y-207507142D02*
X334466009Y-207697618D01*
X334466009Y-207697618D02*
X334418390Y-207792856D01*
X334418390Y-207792856D02*
X334370771Y-207840475D01*
X334370771Y-207840475D02*
X334275533Y-207888094D01*
X334275533Y-207888094D02*
X334180295Y-207888094D01*
X334180295Y-207888094D02*
X334085057Y-207840475D01*
X334085057Y-207840475D02*
X334037438Y-207792856D01*
X334037438Y-207792856D02*
X333989819Y-207697618D01*
X333989819Y-207697618D02*
X333989819Y-207459523D01*
X333989819Y-207459523D02*
X334037438Y-207316666D01*
X334989819Y-206364285D02*
X334989819Y-206935713D01*
X334989819Y-206649999D02*
X333989819Y-206649999D01*
X333989819Y-206649999D02*
X334132676Y-206745237D01*
X334132676Y-206745237D02*
X334227914Y-206840475D01*
X334227914Y-206840475D02*
X334275533Y-206935713D01*
X334085057Y-205983332D02*
X334037438Y-205935713D01*
X334037438Y-205935713D02*
X333989819Y-205840475D01*
X333989819Y-205840475D02*
X333989819Y-205602380D01*
X333989819Y-205602380D02*
X334037438Y-205507142D01*
X334037438Y-205507142D02*
X334085057Y-205459523D01*
X334085057Y-205459523D02*
X334180295Y-205411904D01*
X334180295Y-205411904D02*
X334275533Y-205411904D01*
X334275533Y-205411904D02*
X334418390Y-205459523D01*
X334418390Y-205459523D02*
X334989819Y-206030951D01*
X334989819Y-206030951D02*
X334989819Y-205411904D01*
X161506666Y-227124819D02*
X161506666Y-227839104D01*
X161506666Y-227839104D02*
X161459047Y-227981961D01*
X161459047Y-227981961D02*
X161363809Y-228077200D01*
X161363809Y-228077200D02*
X161220952Y-228124819D01*
X161220952Y-228124819D02*
X161125714Y-228124819D01*
X162506666Y-228124819D02*
X161935238Y-228124819D01*
X162220952Y-228124819D02*
X162220952Y-227124819D01*
X162220952Y-227124819D02*
X162125714Y-227267676D01*
X162125714Y-227267676D02*
X162030476Y-227362914D01*
X162030476Y-227362914D02*
X161935238Y-227410533D01*
X295706009Y-207830952D02*
X295753628Y-207688095D01*
X295753628Y-207688095D02*
X295801247Y-207640476D01*
X295801247Y-207640476D02*
X295896485Y-207592857D01*
X295896485Y-207592857D02*
X296039342Y-207592857D01*
X296039342Y-207592857D02*
X296134580Y-207640476D01*
X296134580Y-207640476D02*
X296182200Y-207688095D01*
X296182200Y-207688095D02*
X296229819Y-207783333D01*
X296229819Y-207783333D02*
X296229819Y-208164285D01*
X296229819Y-208164285D02*
X295229819Y-208164285D01*
X295229819Y-208164285D02*
X295229819Y-207830952D01*
X295229819Y-207830952D02*
X295277438Y-207735714D01*
X295277438Y-207735714D02*
X295325057Y-207688095D01*
X295325057Y-207688095D02*
X295420295Y-207640476D01*
X295420295Y-207640476D02*
X295515533Y-207640476D01*
X295515533Y-207640476D02*
X295610771Y-207688095D01*
X295610771Y-207688095D02*
X295658390Y-207735714D01*
X295658390Y-207735714D02*
X295706009Y-207830952D01*
X295706009Y-207830952D02*
X295706009Y-208164285D01*
X296182200Y-207211904D02*
X296229819Y-207069047D01*
X296229819Y-207069047D02*
X296229819Y-206830952D01*
X296229819Y-206830952D02*
X296182200Y-206735714D01*
X296182200Y-206735714D02*
X296134580Y-206688095D01*
X296134580Y-206688095D02*
X296039342Y-206640476D01*
X296039342Y-206640476D02*
X295944104Y-206640476D01*
X295944104Y-206640476D02*
X295848866Y-206688095D01*
X295848866Y-206688095D02*
X295801247Y-206735714D01*
X295801247Y-206735714D02*
X295753628Y-206830952D01*
X295753628Y-206830952D02*
X295706009Y-207021428D01*
X295706009Y-207021428D02*
X295658390Y-207116666D01*
X295658390Y-207116666D02*
X295610771Y-207164285D01*
X295610771Y-207164285D02*
X295515533Y-207211904D01*
X295515533Y-207211904D02*
X295420295Y-207211904D01*
X295420295Y-207211904D02*
X295325057Y-207164285D01*
X295325057Y-207164285D02*
X295277438Y-207116666D01*
X295277438Y-207116666D02*
X295229819Y-207021428D01*
X295229819Y-207021428D02*
X295229819Y-206783333D01*
X295229819Y-206783333D02*
X295277438Y-206640476D01*
X295658390Y-206069047D02*
X295610771Y-206164285D01*
X295610771Y-206164285D02*
X295563152Y-206211904D01*
X295563152Y-206211904D02*
X295467914Y-206259523D01*
X295467914Y-206259523D02*
X295420295Y-206259523D01*
X295420295Y-206259523D02*
X295325057Y-206211904D01*
X295325057Y-206211904D02*
X295277438Y-206164285D01*
X295277438Y-206164285D02*
X295229819Y-206069047D01*
X295229819Y-206069047D02*
X295229819Y-205878571D01*
X295229819Y-205878571D02*
X295277438Y-205783333D01*
X295277438Y-205783333D02*
X295325057Y-205735714D01*
X295325057Y-205735714D02*
X295420295Y-205688095D01*
X295420295Y-205688095D02*
X295467914Y-205688095D01*
X295467914Y-205688095D02*
X295563152Y-205735714D01*
X295563152Y-205735714D02*
X295610771Y-205783333D01*
X295610771Y-205783333D02*
X295658390Y-205878571D01*
X295658390Y-205878571D02*
X295658390Y-206069047D01*
X295658390Y-206069047D02*
X295706009Y-206164285D01*
X295706009Y-206164285D02*
X295753628Y-206211904D01*
X295753628Y-206211904D02*
X295848866Y-206259523D01*
X295848866Y-206259523D02*
X296039342Y-206259523D01*
X296039342Y-206259523D02*
X296134580Y-206211904D01*
X296134580Y-206211904D02*
X296182200Y-206164285D01*
X296182200Y-206164285D02*
X296229819Y-206069047D01*
X296229819Y-206069047D02*
X296229819Y-205878571D01*
X296229819Y-205878571D02*
X296182200Y-205783333D01*
X296182200Y-205783333D02*
X296134580Y-205735714D01*
X296134580Y-205735714D02*
X296039342Y-205688095D01*
X296039342Y-205688095D02*
X295848866Y-205688095D01*
X295848866Y-205688095D02*
X295753628Y-205735714D01*
X295753628Y-205735714D02*
X295706009Y-205783333D01*
X295706009Y-205783333D02*
X295658390Y-205878571D01*
X185913333Y-230464819D02*
X185580000Y-229988628D01*
X185341905Y-230464819D02*
X185341905Y-229464819D01*
X185341905Y-229464819D02*
X185722857Y-229464819D01*
X185722857Y-229464819D02*
X185818095Y-229512438D01*
X185818095Y-229512438D02*
X185865714Y-229560057D01*
X185865714Y-229560057D02*
X185913333Y-229655295D01*
X185913333Y-229655295D02*
X185913333Y-229798152D01*
X185913333Y-229798152D02*
X185865714Y-229893390D01*
X185865714Y-229893390D02*
X185818095Y-229941009D01*
X185818095Y-229941009D02*
X185722857Y-229988628D01*
X185722857Y-229988628D02*
X185341905Y-229988628D01*
X186865714Y-230464819D02*
X186294286Y-230464819D01*
X186580000Y-230464819D02*
X186580000Y-229464819D01*
X186580000Y-229464819D02*
X186484762Y-229607676D01*
X186484762Y-229607676D02*
X186389524Y-229702914D01*
X186389524Y-229702914D02*
X186294286Y-229750533D01*
X340190476Y-227044819D02*
X340190476Y-227759104D01*
X340190476Y-227759104D02*
X340142857Y-227901961D01*
X340142857Y-227901961D02*
X340047619Y-227997200D01*
X340047619Y-227997200D02*
X339904762Y-228044819D01*
X339904762Y-228044819D02*
X339809524Y-228044819D01*
X341190476Y-228044819D02*
X340619048Y-228044819D01*
X340904762Y-228044819D02*
X340904762Y-227044819D01*
X340904762Y-227044819D02*
X340809524Y-227187676D01*
X340809524Y-227187676D02*
X340714286Y-227282914D01*
X340714286Y-227282914D02*
X340619048Y-227330533D01*
X341761905Y-227473390D02*
X341666667Y-227425771D01*
X341666667Y-227425771D02*
X341619048Y-227378152D01*
X341619048Y-227378152D02*
X341571429Y-227282914D01*
X341571429Y-227282914D02*
X341571429Y-227235295D01*
X341571429Y-227235295D02*
X341619048Y-227140057D01*
X341619048Y-227140057D02*
X341666667Y-227092438D01*
X341666667Y-227092438D02*
X341761905Y-227044819D01*
X341761905Y-227044819D02*
X341952381Y-227044819D01*
X341952381Y-227044819D02*
X342047619Y-227092438D01*
X342047619Y-227092438D02*
X342095238Y-227140057D01*
X342095238Y-227140057D02*
X342142857Y-227235295D01*
X342142857Y-227235295D02*
X342142857Y-227282914D01*
X342142857Y-227282914D02*
X342095238Y-227378152D01*
X342095238Y-227378152D02*
X342047619Y-227425771D01*
X342047619Y-227425771D02*
X341952381Y-227473390D01*
X341952381Y-227473390D02*
X341761905Y-227473390D01*
X341761905Y-227473390D02*
X341666667Y-227521009D01*
X341666667Y-227521009D02*
X341619048Y-227568628D01*
X341619048Y-227568628D02*
X341571429Y-227663866D01*
X341571429Y-227663866D02*
X341571429Y-227854342D01*
X341571429Y-227854342D02*
X341619048Y-227949580D01*
X341619048Y-227949580D02*
X341666667Y-227997200D01*
X341666667Y-227997200D02*
X341761905Y-228044819D01*
X341761905Y-228044819D02*
X341952381Y-228044819D01*
X341952381Y-228044819D02*
X342047619Y-227997200D01*
X342047619Y-227997200D02*
X342095238Y-227949580D01*
X342095238Y-227949580D02*
X342142857Y-227854342D01*
X342142857Y-227854342D02*
X342142857Y-227663866D01*
X342142857Y-227663866D02*
X342095238Y-227568628D01*
X342095238Y-227568628D02*
X342047619Y-227521009D01*
X342047619Y-227521009D02*
X341952381Y-227473390D01*
X275706009Y-207830952D02*
X275753628Y-207688095D01*
X275753628Y-207688095D02*
X275801247Y-207640476D01*
X275801247Y-207640476D02*
X275896485Y-207592857D01*
X275896485Y-207592857D02*
X276039342Y-207592857D01*
X276039342Y-207592857D02*
X276134580Y-207640476D01*
X276134580Y-207640476D02*
X276182200Y-207688095D01*
X276182200Y-207688095D02*
X276229819Y-207783333D01*
X276229819Y-207783333D02*
X276229819Y-208164285D01*
X276229819Y-208164285D02*
X275229819Y-208164285D01*
X275229819Y-208164285D02*
X275229819Y-207830952D01*
X275229819Y-207830952D02*
X275277438Y-207735714D01*
X275277438Y-207735714D02*
X275325057Y-207688095D01*
X275325057Y-207688095D02*
X275420295Y-207640476D01*
X275420295Y-207640476D02*
X275515533Y-207640476D01*
X275515533Y-207640476D02*
X275610771Y-207688095D01*
X275610771Y-207688095D02*
X275658390Y-207735714D01*
X275658390Y-207735714D02*
X275706009Y-207830952D01*
X275706009Y-207830952D02*
X275706009Y-208164285D01*
X276182200Y-207211904D02*
X276229819Y-207069047D01*
X276229819Y-207069047D02*
X276229819Y-206830952D01*
X276229819Y-206830952D02*
X276182200Y-206735714D01*
X276182200Y-206735714D02*
X276134580Y-206688095D01*
X276134580Y-206688095D02*
X276039342Y-206640476D01*
X276039342Y-206640476D02*
X275944104Y-206640476D01*
X275944104Y-206640476D02*
X275848866Y-206688095D01*
X275848866Y-206688095D02*
X275801247Y-206735714D01*
X275801247Y-206735714D02*
X275753628Y-206830952D01*
X275753628Y-206830952D02*
X275706009Y-207021428D01*
X275706009Y-207021428D02*
X275658390Y-207116666D01*
X275658390Y-207116666D02*
X275610771Y-207164285D01*
X275610771Y-207164285D02*
X275515533Y-207211904D01*
X275515533Y-207211904D02*
X275420295Y-207211904D01*
X275420295Y-207211904D02*
X275325057Y-207164285D01*
X275325057Y-207164285D02*
X275277438Y-207116666D01*
X275277438Y-207116666D02*
X275229819Y-207021428D01*
X275229819Y-207021428D02*
X275229819Y-206783333D01*
X275229819Y-206783333D02*
X275277438Y-206640476D01*
X275229819Y-205783333D02*
X275229819Y-205973809D01*
X275229819Y-205973809D02*
X275277438Y-206069047D01*
X275277438Y-206069047D02*
X275325057Y-206116666D01*
X275325057Y-206116666D02*
X275467914Y-206211904D01*
X275467914Y-206211904D02*
X275658390Y-206259523D01*
X275658390Y-206259523D02*
X276039342Y-206259523D01*
X276039342Y-206259523D02*
X276134580Y-206211904D01*
X276134580Y-206211904D02*
X276182200Y-206164285D01*
X276182200Y-206164285D02*
X276229819Y-206069047D01*
X276229819Y-206069047D02*
X276229819Y-205878571D01*
X276229819Y-205878571D02*
X276182200Y-205783333D01*
X276182200Y-205783333D02*
X276134580Y-205735714D01*
X276134580Y-205735714D02*
X276039342Y-205688095D01*
X276039342Y-205688095D02*
X275801247Y-205688095D01*
X275801247Y-205688095D02*
X275706009Y-205735714D01*
X275706009Y-205735714D02*
X275658390Y-205783333D01*
X275658390Y-205783333D02*
X275610771Y-205878571D01*
X275610771Y-205878571D02*
X275610771Y-206069047D01*
X275610771Y-206069047D02*
X275658390Y-206164285D01*
X275658390Y-206164285D02*
X275706009Y-206211904D01*
X275706009Y-206211904D02*
X275801247Y-206259523D01*
X305706009Y-207830952D02*
X305753628Y-207688095D01*
X305753628Y-207688095D02*
X305801247Y-207640476D01*
X305801247Y-207640476D02*
X305896485Y-207592857D01*
X305896485Y-207592857D02*
X306039342Y-207592857D01*
X306039342Y-207592857D02*
X306134580Y-207640476D01*
X306134580Y-207640476D02*
X306182200Y-207688095D01*
X306182200Y-207688095D02*
X306229819Y-207783333D01*
X306229819Y-207783333D02*
X306229819Y-208164285D01*
X306229819Y-208164285D02*
X305229819Y-208164285D01*
X305229819Y-208164285D02*
X305229819Y-207830952D01*
X305229819Y-207830952D02*
X305277438Y-207735714D01*
X305277438Y-207735714D02*
X305325057Y-207688095D01*
X305325057Y-207688095D02*
X305420295Y-207640476D01*
X305420295Y-207640476D02*
X305515533Y-207640476D01*
X305515533Y-207640476D02*
X305610771Y-207688095D01*
X305610771Y-207688095D02*
X305658390Y-207735714D01*
X305658390Y-207735714D02*
X305706009Y-207830952D01*
X305706009Y-207830952D02*
X305706009Y-208164285D01*
X306182200Y-207211904D02*
X306229819Y-207069047D01*
X306229819Y-207069047D02*
X306229819Y-206830952D01*
X306229819Y-206830952D02*
X306182200Y-206735714D01*
X306182200Y-206735714D02*
X306134580Y-206688095D01*
X306134580Y-206688095D02*
X306039342Y-206640476D01*
X306039342Y-206640476D02*
X305944104Y-206640476D01*
X305944104Y-206640476D02*
X305848866Y-206688095D01*
X305848866Y-206688095D02*
X305801247Y-206735714D01*
X305801247Y-206735714D02*
X305753628Y-206830952D01*
X305753628Y-206830952D02*
X305706009Y-207021428D01*
X305706009Y-207021428D02*
X305658390Y-207116666D01*
X305658390Y-207116666D02*
X305610771Y-207164285D01*
X305610771Y-207164285D02*
X305515533Y-207211904D01*
X305515533Y-207211904D02*
X305420295Y-207211904D01*
X305420295Y-207211904D02*
X305325057Y-207164285D01*
X305325057Y-207164285D02*
X305277438Y-207116666D01*
X305277438Y-207116666D02*
X305229819Y-207021428D01*
X305229819Y-207021428D02*
X305229819Y-206783333D01*
X305229819Y-206783333D02*
X305277438Y-206640476D01*
X306229819Y-206164285D02*
X306229819Y-205973809D01*
X306229819Y-205973809D02*
X306182200Y-205878571D01*
X306182200Y-205878571D02*
X306134580Y-205830952D01*
X306134580Y-205830952D02*
X305991723Y-205735714D01*
X305991723Y-205735714D02*
X305801247Y-205688095D01*
X305801247Y-205688095D02*
X305420295Y-205688095D01*
X305420295Y-205688095D02*
X305325057Y-205735714D01*
X305325057Y-205735714D02*
X305277438Y-205783333D01*
X305277438Y-205783333D02*
X305229819Y-205878571D01*
X305229819Y-205878571D02*
X305229819Y-206069047D01*
X305229819Y-206069047D02*
X305277438Y-206164285D01*
X305277438Y-206164285D02*
X305325057Y-206211904D01*
X305325057Y-206211904D02*
X305420295Y-206259523D01*
X305420295Y-206259523D02*
X305658390Y-206259523D01*
X305658390Y-206259523D02*
X305753628Y-206211904D01*
X305753628Y-206211904D02*
X305801247Y-206164285D01*
X305801247Y-206164285D02*
X305848866Y-206069047D01*
X305848866Y-206069047D02*
X305848866Y-205878571D01*
X305848866Y-205878571D02*
X305801247Y-205783333D01*
X305801247Y-205783333D02*
X305753628Y-205735714D01*
X305753628Y-205735714D02*
X305658390Y-205688095D01*
X199566666Y-223144819D02*
X199566666Y-223859104D01*
X199566666Y-223859104D02*
X199519047Y-224001961D01*
X199519047Y-224001961D02*
X199423809Y-224097200D01*
X199423809Y-224097200D02*
X199280952Y-224144819D01*
X199280952Y-224144819D02*
X199185714Y-224144819D01*
X200471428Y-223144819D02*
X200280952Y-223144819D01*
X200280952Y-223144819D02*
X200185714Y-223192438D01*
X200185714Y-223192438D02*
X200138095Y-223240057D01*
X200138095Y-223240057D02*
X200042857Y-223382914D01*
X200042857Y-223382914D02*
X199995238Y-223573390D01*
X199995238Y-223573390D02*
X199995238Y-223954342D01*
X199995238Y-223954342D02*
X200042857Y-224049580D01*
X200042857Y-224049580D02*
X200090476Y-224097200D01*
X200090476Y-224097200D02*
X200185714Y-224144819D01*
X200185714Y-224144819D02*
X200376190Y-224144819D01*
X200376190Y-224144819D02*
X200471428Y-224097200D01*
X200471428Y-224097200D02*
X200519047Y-224049580D01*
X200519047Y-224049580D02*
X200566666Y-223954342D01*
X200566666Y-223954342D02*
X200566666Y-223716247D01*
X200566666Y-223716247D02*
X200519047Y-223621009D01*
X200519047Y-223621009D02*
X200471428Y-223573390D01*
X200471428Y-223573390D02*
X200376190Y-223525771D01*
X200376190Y-223525771D02*
X200185714Y-223525771D01*
X200185714Y-223525771D02*
X200090476Y-223573390D01*
X200090476Y-223573390D02*
X200042857Y-223621009D01*
X200042857Y-223621009D02*
X199995238Y-223716247D01*
X350190476Y-227044819D02*
X350190476Y-227759104D01*
X350190476Y-227759104D02*
X350142857Y-227901961D01*
X350142857Y-227901961D02*
X350047619Y-227997200D01*
X350047619Y-227997200D02*
X349904762Y-228044819D01*
X349904762Y-228044819D02*
X349809524Y-228044819D01*
X351190476Y-228044819D02*
X350619048Y-228044819D01*
X350904762Y-228044819D02*
X350904762Y-227044819D01*
X350904762Y-227044819D02*
X350809524Y-227187676D01*
X350809524Y-227187676D02*
X350714286Y-227282914D01*
X350714286Y-227282914D02*
X350619048Y-227330533D01*
X351666667Y-228044819D02*
X351857143Y-228044819D01*
X351857143Y-228044819D02*
X351952381Y-227997200D01*
X351952381Y-227997200D02*
X352000000Y-227949580D01*
X352000000Y-227949580D02*
X352095238Y-227806723D01*
X352095238Y-227806723D02*
X352142857Y-227616247D01*
X352142857Y-227616247D02*
X352142857Y-227235295D01*
X352142857Y-227235295D02*
X352095238Y-227140057D01*
X352095238Y-227140057D02*
X352047619Y-227092438D01*
X352047619Y-227092438D02*
X351952381Y-227044819D01*
X351952381Y-227044819D02*
X351761905Y-227044819D01*
X351761905Y-227044819D02*
X351666667Y-227092438D01*
X351666667Y-227092438D02*
X351619048Y-227140057D01*
X351619048Y-227140057D02*
X351571429Y-227235295D01*
X351571429Y-227235295D02*
X351571429Y-227473390D01*
X351571429Y-227473390D02*
X351619048Y-227568628D01*
X351619048Y-227568628D02*
X351666667Y-227616247D01*
X351666667Y-227616247D02*
X351761905Y-227663866D01*
X351761905Y-227663866D02*
X351952381Y-227663866D01*
X351952381Y-227663866D02*
X352047619Y-227616247D01*
X352047619Y-227616247D02*
X352095238Y-227568628D01*
X352095238Y-227568628D02*
X352142857Y-227473390D01*
X543158095Y-202644819D02*
X543158095Y-201644819D01*
X543158095Y-202121009D02*
X543729523Y-202121009D01*
X543729523Y-202644819D02*
X543729523Y-201644819D01*
X544110476Y-201644819D02*
X544729523Y-201644819D01*
X544729523Y-201644819D02*
X544396190Y-202025771D01*
X544396190Y-202025771D02*
X544539047Y-202025771D01*
X544539047Y-202025771D02*
X544634285Y-202073390D01*
X544634285Y-202073390D02*
X544681904Y-202121009D01*
X544681904Y-202121009D02*
X544729523Y-202216247D01*
X544729523Y-202216247D02*
X544729523Y-202454342D01*
X544729523Y-202454342D02*
X544681904Y-202549580D01*
X544681904Y-202549580D02*
X544634285Y-202597200D01*
X544634285Y-202597200D02*
X544539047Y-202644819D01*
X544539047Y-202644819D02*
X544253333Y-202644819D01*
X544253333Y-202644819D02*
X544158095Y-202597200D01*
X544158095Y-202597200D02*
X544110476Y-202549580D01*
X230626666Y-227044819D02*
X230626666Y-227759104D01*
X230626666Y-227759104D02*
X230579047Y-227901961D01*
X230579047Y-227901961D02*
X230483809Y-227997200D01*
X230483809Y-227997200D02*
X230340952Y-228044819D01*
X230340952Y-228044819D02*
X230245714Y-228044819D01*
X231007619Y-227044819D02*
X231674285Y-227044819D01*
X231674285Y-227044819D02*
X231245714Y-228044819D01*
X186666666Y-223804819D02*
X186666666Y-224519104D01*
X186666666Y-224519104D02*
X186619047Y-224661961D01*
X186619047Y-224661961D02*
X186523809Y-224757200D01*
X186523809Y-224757200D02*
X186380952Y-224804819D01*
X186380952Y-224804819D02*
X186285714Y-224804819D01*
X187095238Y-223900057D02*
X187142857Y-223852438D01*
X187142857Y-223852438D02*
X187238095Y-223804819D01*
X187238095Y-223804819D02*
X187476190Y-223804819D01*
X187476190Y-223804819D02*
X187571428Y-223852438D01*
X187571428Y-223852438D02*
X187619047Y-223900057D01*
X187619047Y-223900057D02*
X187666666Y-223995295D01*
X187666666Y-223995295D02*
X187666666Y-224090533D01*
X187666666Y-224090533D02*
X187619047Y-224233390D01*
X187619047Y-224233390D02*
X187047619Y-224804819D01*
X187047619Y-224804819D02*
X187666666Y-224804819D01*
X381366009Y-208507142D02*
X381413628Y-208364285D01*
X381413628Y-208364285D02*
X381461247Y-208316666D01*
X381461247Y-208316666D02*
X381556485Y-208269047D01*
X381556485Y-208269047D02*
X381699342Y-208269047D01*
X381699342Y-208269047D02*
X381794580Y-208316666D01*
X381794580Y-208316666D02*
X381842200Y-208364285D01*
X381842200Y-208364285D02*
X381889819Y-208459523D01*
X381889819Y-208459523D02*
X381889819Y-208840475D01*
X381889819Y-208840475D02*
X380889819Y-208840475D01*
X380889819Y-208840475D02*
X380889819Y-208507142D01*
X380889819Y-208507142D02*
X380937438Y-208411904D01*
X380937438Y-208411904D02*
X380985057Y-208364285D01*
X380985057Y-208364285D02*
X381080295Y-208316666D01*
X381080295Y-208316666D02*
X381175533Y-208316666D01*
X381175533Y-208316666D02*
X381270771Y-208364285D01*
X381270771Y-208364285D02*
X381318390Y-208411904D01*
X381318390Y-208411904D02*
X381366009Y-208507142D01*
X381366009Y-208507142D02*
X381366009Y-208840475D01*
X381842200Y-207888094D02*
X381889819Y-207745237D01*
X381889819Y-207745237D02*
X381889819Y-207507142D01*
X381889819Y-207507142D02*
X381842200Y-207411904D01*
X381842200Y-207411904D02*
X381794580Y-207364285D01*
X381794580Y-207364285D02*
X381699342Y-207316666D01*
X381699342Y-207316666D02*
X381604104Y-207316666D01*
X381604104Y-207316666D02*
X381508866Y-207364285D01*
X381508866Y-207364285D02*
X381461247Y-207411904D01*
X381461247Y-207411904D02*
X381413628Y-207507142D01*
X381413628Y-207507142D02*
X381366009Y-207697618D01*
X381366009Y-207697618D02*
X381318390Y-207792856D01*
X381318390Y-207792856D02*
X381270771Y-207840475D01*
X381270771Y-207840475D02*
X381175533Y-207888094D01*
X381175533Y-207888094D02*
X381080295Y-207888094D01*
X381080295Y-207888094D02*
X380985057Y-207840475D01*
X380985057Y-207840475D02*
X380937438Y-207792856D01*
X380937438Y-207792856D02*
X380889819Y-207697618D01*
X380889819Y-207697618D02*
X380889819Y-207459523D01*
X380889819Y-207459523D02*
X380937438Y-207316666D01*
X381889819Y-206364285D02*
X381889819Y-206935713D01*
X381889819Y-206649999D02*
X380889819Y-206649999D01*
X380889819Y-206649999D02*
X381032676Y-206745237D01*
X381032676Y-206745237D02*
X381127914Y-206840475D01*
X381127914Y-206840475D02*
X381175533Y-206935713D01*
X380889819Y-206030951D02*
X380889819Y-205364285D01*
X380889819Y-205364285D02*
X381889819Y-205792856D01*
X310180476Y-227044819D02*
X310180476Y-227759104D01*
X310180476Y-227759104D02*
X310132857Y-227901961D01*
X310132857Y-227901961D02*
X310037619Y-227997200D01*
X310037619Y-227997200D02*
X309894762Y-228044819D01*
X309894762Y-228044819D02*
X309799524Y-228044819D01*
X311180476Y-228044819D02*
X310609048Y-228044819D01*
X310894762Y-228044819D02*
X310894762Y-227044819D01*
X310894762Y-227044819D02*
X310799524Y-227187676D01*
X310799524Y-227187676D02*
X310704286Y-227282914D01*
X310704286Y-227282914D02*
X310609048Y-227330533D01*
X312085238Y-227044819D02*
X311609048Y-227044819D01*
X311609048Y-227044819D02*
X311561429Y-227521009D01*
X311561429Y-227521009D02*
X311609048Y-227473390D01*
X311609048Y-227473390D02*
X311704286Y-227425771D01*
X311704286Y-227425771D02*
X311942381Y-227425771D01*
X311942381Y-227425771D02*
X312037619Y-227473390D01*
X312037619Y-227473390D02*
X312085238Y-227521009D01*
X312085238Y-227521009D02*
X312132857Y-227616247D01*
X312132857Y-227616247D02*
X312132857Y-227854342D01*
X312132857Y-227854342D02*
X312085238Y-227949580D01*
X312085238Y-227949580D02*
X312037619Y-227997200D01*
X312037619Y-227997200D02*
X311942381Y-228044819D01*
X311942381Y-228044819D02*
X311704286Y-228044819D01*
X311704286Y-228044819D02*
X311609048Y-227997200D01*
X311609048Y-227997200D02*
X311561429Y-227949580D01*
X360190476Y-227044819D02*
X360190476Y-227759104D01*
X360190476Y-227759104D02*
X360142857Y-227901961D01*
X360142857Y-227901961D02*
X360047619Y-227997200D01*
X360047619Y-227997200D02*
X359904762Y-228044819D01*
X359904762Y-228044819D02*
X359809524Y-228044819D01*
X360619048Y-227140057D02*
X360666667Y-227092438D01*
X360666667Y-227092438D02*
X360761905Y-227044819D01*
X360761905Y-227044819D02*
X361000000Y-227044819D01*
X361000000Y-227044819D02*
X361095238Y-227092438D01*
X361095238Y-227092438D02*
X361142857Y-227140057D01*
X361142857Y-227140057D02*
X361190476Y-227235295D01*
X361190476Y-227235295D02*
X361190476Y-227330533D01*
X361190476Y-227330533D02*
X361142857Y-227473390D01*
X361142857Y-227473390D02*
X360571429Y-228044819D01*
X360571429Y-228044819D02*
X361190476Y-228044819D01*
X361809524Y-227044819D02*
X361904762Y-227044819D01*
X361904762Y-227044819D02*
X362000000Y-227092438D01*
X362000000Y-227092438D02*
X362047619Y-227140057D01*
X362047619Y-227140057D02*
X362095238Y-227235295D01*
X362095238Y-227235295D02*
X362142857Y-227425771D01*
X362142857Y-227425771D02*
X362142857Y-227663866D01*
X362142857Y-227663866D02*
X362095238Y-227854342D01*
X362095238Y-227854342D02*
X362047619Y-227949580D01*
X362047619Y-227949580D02*
X362000000Y-227997200D01*
X362000000Y-227997200D02*
X361904762Y-228044819D01*
X361904762Y-228044819D02*
X361809524Y-228044819D01*
X361809524Y-228044819D02*
X361714286Y-227997200D01*
X361714286Y-227997200D02*
X361666667Y-227949580D01*
X361666667Y-227949580D02*
X361619048Y-227854342D01*
X361619048Y-227854342D02*
X361571429Y-227663866D01*
X361571429Y-227663866D02*
X361571429Y-227425771D01*
X361571429Y-227425771D02*
X361619048Y-227235295D01*
X361619048Y-227235295D02*
X361666667Y-227140057D01*
X361666667Y-227140057D02*
X361714286Y-227092438D01*
X361714286Y-227092438D02*
X361809524Y-227044819D01*
X300250476Y-227044819D02*
X300250476Y-227759104D01*
X300250476Y-227759104D02*
X300202857Y-227901961D01*
X300202857Y-227901961D02*
X300107619Y-227997200D01*
X300107619Y-227997200D02*
X299964762Y-228044819D01*
X299964762Y-228044819D02*
X299869524Y-228044819D01*
X301250476Y-228044819D02*
X300679048Y-228044819D01*
X300964762Y-228044819D02*
X300964762Y-227044819D01*
X300964762Y-227044819D02*
X300869524Y-227187676D01*
X300869524Y-227187676D02*
X300774286Y-227282914D01*
X300774286Y-227282914D02*
X300679048Y-227330533D01*
X302107619Y-227378152D02*
X302107619Y-228044819D01*
X301869524Y-226997200D02*
X301631429Y-227711485D01*
X301631429Y-227711485D02*
X302250476Y-227711485D01*
X390746009Y-208507142D02*
X390793628Y-208364285D01*
X390793628Y-208364285D02*
X390841247Y-208316666D01*
X390841247Y-208316666D02*
X390936485Y-208269047D01*
X390936485Y-208269047D02*
X391079342Y-208269047D01*
X391079342Y-208269047D02*
X391174580Y-208316666D01*
X391174580Y-208316666D02*
X391222200Y-208364285D01*
X391222200Y-208364285D02*
X391269819Y-208459523D01*
X391269819Y-208459523D02*
X391269819Y-208840475D01*
X391269819Y-208840475D02*
X390269819Y-208840475D01*
X390269819Y-208840475D02*
X390269819Y-208507142D01*
X390269819Y-208507142D02*
X390317438Y-208411904D01*
X390317438Y-208411904D02*
X390365057Y-208364285D01*
X390365057Y-208364285D02*
X390460295Y-208316666D01*
X390460295Y-208316666D02*
X390555533Y-208316666D01*
X390555533Y-208316666D02*
X390650771Y-208364285D01*
X390650771Y-208364285D02*
X390698390Y-208411904D01*
X390698390Y-208411904D02*
X390746009Y-208507142D01*
X390746009Y-208507142D02*
X390746009Y-208840475D01*
X391222200Y-207888094D02*
X391269819Y-207745237D01*
X391269819Y-207745237D02*
X391269819Y-207507142D01*
X391269819Y-207507142D02*
X391222200Y-207411904D01*
X391222200Y-207411904D02*
X391174580Y-207364285D01*
X391174580Y-207364285D02*
X391079342Y-207316666D01*
X391079342Y-207316666D02*
X390984104Y-207316666D01*
X390984104Y-207316666D02*
X390888866Y-207364285D01*
X390888866Y-207364285D02*
X390841247Y-207411904D01*
X390841247Y-207411904D02*
X390793628Y-207507142D01*
X390793628Y-207507142D02*
X390746009Y-207697618D01*
X390746009Y-207697618D02*
X390698390Y-207792856D01*
X390698390Y-207792856D02*
X390650771Y-207840475D01*
X390650771Y-207840475D02*
X390555533Y-207888094D01*
X390555533Y-207888094D02*
X390460295Y-207888094D01*
X390460295Y-207888094D02*
X390365057Y-207840475D01*
X390365057Y-207840475D02*
X390317438Y-207792856D01*
X390317438Y-207792856D02*
X390269819Y-207697618D01*
X390269819Y-207697618D02*
X390269819Y-207459523D01*
X390269819Y-207459523D02*
X390317438Y-207316666D01*
X391269819Y-206364285D02*
X391269819Y-206935713D01*
X391269819Y-206649999D02*
X390269819Y-206649999D01*
X390269819Y-206649999D02*
X390412676Y-206745237D01*
X390412676Y-206745237D02*
X390507914Y-206840475D01*
X390507914Y-206840475D02*
X390555533Y-206935713D01*
X390698390Y-205792856D02*
X390650771Y-205888094D01*
X390650771Y-205888094D02*
X390603152Y-205935713D01*
X390603152Y-205935713D02*
X390507914Y-205983332D01*
X390507914Y-205983332D02*
X390460295Y-205983332D01*
X390460295Y-205983332D02*
X390365057Y-205935713D01*
X390365057Y-205935713D02*
X390317438Y-205888094D01*
X390317438Y-205888094D02*
X390269819Y-205792856D01*
X390269819Y-205792856D02*
X390269819Y-205602380D01*
X390269819Y-205602380D02*
X390317438Y-205507142D01*
X390317438Y-205507142D02*
X390365057Y-205459523D01*
X390365057Y-205459523D02*
X390460295Y-205411904D01*
X390460295Y-205411904D02*
X390507914Y-205411904D01*
X390507914Y-205411904D02*
X390603152Y-205459523D01*
X390603152Y-205459523D02*
X390650771Y-205507142D01*
X390650771Y-205507142D02*
X390698390Y-205602380D01*
X390698390Y-205602380D02*
X390698390Y-205792856D01*
X390698390Y-205792856D02*
X390746009Y-205888094D01*
X390746009Y-205888094D02*
X390793628Y-205935713D01*
X390793628Y-205935713D02*
X390888866Y-205983332D01*
X390888866Y-205983332D02*
X391079342Y-205983332D01*
X391079342Y-205983332D02*
X391174580Y-205935713D01*
X391174580Y-205935713D02*
X391222200Y-205888094D01*
X391222200Y-205888094D02*
X391269819Y-205792856D01*
X391269819Y-205792856D02*
X391269819Y-205602380D01*
X391269819Y-205602380D02*
X391222200Y-205507142D01*
X391222200Y-205507142D02*
X391174580Y-205459523D01*
X391174580Y-205459523D02*
X391079342Y-205411904D01*
X391079342Y-205411904D02*
X390888866Y-205411904D01*
X390888866Y-205411904D02*
X390793628Y-205459523D01*
X390793628Y-205459523D02*
X390746009Y-205507142D01*
X390746009Y-205507142D02*
X390698390Y-205602380D01*
X290250476Y-227044819D02*
X290250476Y-227759104D01*
X290250476Y-227759104D02*
X290202857Y-227901961D01*
X290202857Y-227901961D02*
X290107619Y-227997200D01*
X290107619Y-227997200D02*
X289964762Y-228044819D01*
X289964762Y-228044819D02*
X289869524Y-228044819D01*
X291250476Y-228044819D02*
X290679048Y-228044819D01*
X290964762Y-228044819D02*
X290964762Y-227044819D01*
X290964762Y-227044819D02*
X290869524Y-227187676D01*
X290869524Y-227187676D02*
X290774286Y-227282914D01*
X290774286Y-227282914D02*
X290679048Y-227330533D01*
X291583810Y-227044819D02*
X292202857Y-227044819D01*
X292202857Y-227044819D02*
X291869524Y-227425771D01*
X291869524Y-227425771D02*
X292012381Y-227425771D01*
X292012381Y-227425771D02*
X292107619Y-227473390D01*
X292107619Y-227473390D02*
X292155238Y-227521009D01*
X292155238Y-227521009D02*
X292202857Y-227616247D01*
X292202857Y-227616247D02*
X292202857Y-227854342D01*
X292202857Y-227854342D02*
X292155238Y-227949580D01*
X292155238Y-227949580D02*
X292107619Y-227997200D01*
X292107619Y-227997200D02*
X292012381Y-228044819D01*
X292012381Y-228044819D02*
X291726667Y-228044819D01*
X291726667Y-228044819D02*
X291631429Y-227997200D01*
X291631429Y-227997200D02*
X291583810Y-227949580D01*
X370190476Y-227044819D02*
X370190476Y-227759104D01*
X370190476Y-227759104D02*
X370142857Y-227901961D01*
X370142857Y-227901961D02*
X370047619Y-227997200D01*
X370047619Y-227997200D02*
X369904762Y-228044819D01*
X369904762Y-228044819D02*
X369809524Y-228044819D01*
X370619048Y-227140057D02*
X370666667Y-227092438D01*
X370666667Y-227092438D02*
X370761905Y-227044819D01*
X370761905Y-227044819D02*
X371000000Y-227044819D01*
X371000000Y-227044819D02*
X371095238Y-227092438D01*
X371095238Y-227092438D02*
X371142857Y-227140057D01*
X371142857Y-227140057D02*
X371190476Y-227235295D01*
X371190476Y-227235295D02*
X371190476Y-227330533D01*
X371190476Y-227330533D02*
X371142857Y-227473390D01*
X371142857Y-227473390D02*
X370571429Y-228044819D01*
X370571429Y-228044819D02*
X371190476Y-228044819D01*
X372142857Y-228044819D02*
X371571429Y-228044819D01*
X371857143Y-228044819D02*
X371857143Y-227044819D01*
X371857143Y-227044819D02*
X371761905Y-227187676D01*
X371761905Y-227187676D02*
X371666667Y-227282914D01*
X371666667Y-227282914D02*
X371571429Y-227330533D01*
X260150476Y-227044819D02*
X260150476Y-227759104D01*
X260150476Y-227759104D02*
X260102857Y-227901961D01*
X260102857Y-227901961D02*
X260007619Y-227997200D01*
X260007619Y-227997200D02*
X259864762Y-228044819D01*
X259864762Y-228044819D02*
X259769524Y-228044819D01*
X261150476Y-228044819D02*
X260579048Y-228044819D01*
X260864762Y-228044819D02*
X260864762Y-227044819D01*
X260864762Y-227044819D02*
X260769524Y-227187676D01*
X260769524Y-227187676D02*
X260674286Y-227282914D01*
X260674286Y-227282914D02*
X260579048Y-227330533D01*
X261769524Y-227044819D02*
X261864762Y-227044819D01*
X261864762Y-227044819D02*
X261960000Y-227092438D01*
X261960000Y-227092438D02*
X262007619Y-227140057D01*
X262007619Y-227140057D02*
X262055238Y-227235295D01*
X262055238Y-227235295D02*
X262102857Y-227425771D01*
X262102857Y-227425771D02*
X262102857Y-227663866D01*
X262102857Y-227663866D02*
X262055238Y-227854342D01*
X262055238Y-227854342D02*
X262007619Y-227949580D01*
X262007619Y-227949580D02*
X261960000Y-227997200D01*
X261960000Y-227997200D02*
X261864762Y-228044819D01*
X261864762Y-228044819D02*
X261769524Y-228044819D01*
X261769524Y-228044819D02*
X261674286Y-227997200D01*
X261674286Y-227997200D02*
X261626667Y-227949580D01*
X261626667Y-227949580D02*
X261579048Y-227854342D01*
X261579048Y-227854342D02*
X261531429Y-227663866D01*
X261531429Y-227663866D02*
X261531429Y-227425771D01*
X261531429Y-227425771D02*
X261579048Y-227235295D01*
X261579048Y-227235295D02*
X261626667Y-227140057D01*
X261626667Y-227140057D02*
X261674286Y-227092438D01*
X261674286Y-227092438D02*
X261769524Y-227044819D01*
X400126009Y-208507142D02*
X400173628Y-208364285D01*
X400173628Y-208364285D02*
X400221247Y-208316666D01*
X400221247Y-208316666D02*
X400316485Y-208269047D01*
X400316485Y-208269047D02*
X400459342Y-208269047D01*
X400459342Y-208269047D02*
X400554580Y-208316666D01*
X400554580Y-208316666D02*
X400602200Y-208364285D01*
X400602200Y-208364285D02*
X400649819Y-208459523D01*
X400649819Y-208459523D02*
X400649819Y-208840475D01*
X400649819Y-208840475D02*
X399649819Y-208840475D01*
X399649819Y-208840475D02*
X399649819Y-208507142D01*
X399649819Y-208507142D02*
X399697438Y-208411904D01*
X399697438Y-208411904D02*
X399745057Y-208364285D01*
X399745057Y-208364285D02*
X399840295Y-208316666D01*
X399840295Y-208316666D02*
X399935533Y-208316666D01*
X399935533Y-208316666D02*
X400030771Y-208364285D01*
X400030771Y-208364285D02*
X400078390Y-208411904D01*
X400078390Y-208411904D02*
X400126009Y-208507142D01*
X400126009Y-208507142D02*
X400126009Y-208840475D01*
X400602200Y-207888094D02*
X400649819Y-207745237D01*
X400649819Y-207745237D02*
X400649819Y-207507142D01*
X400649819Y-207507142D02*
X400602200Y-207411904D01*
X400602200Y-207411904D02*
X400554580Y-207364285D01*
X400554580Y-207364285D02*
X400459342Y-207316666D01*
X400459342Y-207316666D02*
X400364104Y-207316666D01*
X400364104Y-207316666D02*
X400268866Y-207364285D01*
X400268866Y-207364285D02*
X400221247Y-207411904D01*
X400221247Y-207411904D02*
X400173628Y-207507142D01*
X400173628Y-207507142D02*
X400126009Y-207697618D01*
X400126009Y-207697618D02*
X400078390Y-207792856D01*
X400078390Y-207792856D02*
X400030771Y-207840475D01*
X400030771Y-207840475D02*
X399935533Y-207888094D01*
X399935533Y-207888094D02*
X399840295Y-207888094D01*
X399840295Y-207888094D02*
X399745057Y-207840475D01*
X399745057Y-207840475D02*
X399697438Y-207792856D01*
X399697438Y-207792856D02*
X399649819Y-207697618D01*
X399649819Y-207697618D02*
X399649819Y-207459523D01*
X399649819Y-207459523D02*
X399697438Y-207316666D01*
X400649819Y-206364285D02*
X400649819Y-206935713D01*
X400649819Y-206649999D02*
X399649819Y-206649999D01*
X399649819Y-206649999D02*
X399792676Y-206745237D01*
X399792676Y-206745237D02*
X399887914Y-206840475D01*
X399887914Y-206840475D02*
X399935533Y-206935713D01*
X400649819Y-205888094D02*
X400649819Y-205697618D01*
X400649819Y-205697618D02*
X400602200Y-205602380D01*
X400602200Y-205602380D02*
X400554580Y-205554761D01*
X400554580Y-205554761D02*
X400411723Y-205459523D01*
X400411723Y-205459523D02*
X400221247Y-205411904D01*
X400221247Y-205411904D02*
X399840295Y-205411904D01*
X399840295Y-205411904D02*
X399745057Y-205459523D01*
X399745057Y-205459523D02*
X399697438Y-205507142D01*
X399697438Y-205507142D02*
X399649819Y-205602380D01*
X399649819Y-205602380D02*
X399649819Y-205792856D01*
X399649819Y-205792856D02*
X399697438Y-205888094D01*
X399697438Y-205888094D02*
X399745057Y-205935713D01*
X399745057Y-205935713D02*
X399840295Y-205983332D01*
X399840295Y-205983332D02*
X400078390Y-205983332D01*
X400078390Y-205983332D02*
X400173628Y-205935713D01*
X400173628Y-205935713D02*
X400221247Y-205888094D01*
X400221247Y-205888094D02*
X400268866Y-205792856D01*
X400268866Y-205792856D02*
X400268866Y-205602380D01*
X400268866Y-205602380D02*
X400221247Y-205507142D01*
X400221247Y-205507142D02*
X400173628Y-205459523D01*
X400173628Y-205459523D02*
X400078390Y-205411904D01*
X170841666Y-229694819D02*
X170841666Y-230409104D01*
X170841666Y-230409104D02*
X170794047Y-230551961D01*
X170794047Y-230551961D02*
X170698809Y-230647200D01*
X170698809Y-230647200D02*
X170555952Y-230694819D01*
X170555952Y-230694819D02*
X170460714Y-230694819D01*
X171746428Y-230028152D02*
X171746428Y-230694819D01*
X171508333Y-229647200D02*
X171270238Y-230361485D01*
X171270238Y-230361485D02*
X171889285Y-230361485D01*
X380190476Y-227044819D02*
X380190476Y-227759104D01*
X380190476Y-227759104D02*
X380142857Y-227901961D01*
X380142857Y-227901961D02*
X380047619Y-227997200D01*
X380047619Y-227997200D02*
X379904762Y-228044819D01*
X379904762Y-228044819D02*
X379809524Y-228044819D01*
X380619048Y-227140057D02*
X380666667Y-227092438D01*
X380666667Y-227092438D02*
X380761905Y-227044819D01*
X380761905Y-227044819D02*
X381000000Y-227044819D01*
X381000000Y-227044819D02*
X381095238Y-227092438D01*
X381095238Y-227092438D02*
X381142857Y-227140057D01*
X381142857Y-227140057D02*
X381190476Y-227235295D01*
X381190476Y-227235295D02*
X381190476Y-227330533D01*
X381190476Y-227330533D02*
X381142857Y-227473390D01*
X381142857Y-227473390D02*
X380571429Y-228044819D01*
X380571429Y-228044819D02*
X381190476Y-228044819D01*
X381571429Y-227140057D02*
X381619048Y-227092438D01*
X381619048Y-227092438D02*
X381714286Y-227044819D01*
X381714286Y-227044819D02*
X381952381Y-227044819D01*
X381952381Y-227044819D02*
X382047619Y-227092438D01*
X382047619Y-227092438D02*
X382095238Y-227140057D01*
X382095238Y-227140057D02*
X382142857Y-227235295D01*
X382142857Y-227235295D02*
X382142857Y-227330533D01*
X382142857Y-227330533D02*
X382095238Y-227473390D01*
X382095238Y-227473390D02*
X381523810Y-228044819D01*
X381523810Y-228044819D02*
X382142857Y-228044819D01*
X235706009Y-207830952D02*
X235753628Y-207688095D01*
X235753628Y-207688095D02*
X235801247Y-207640476D01*
X235801247Y-207640476D02*
X235896485Y-207592857D01*
X235896485Y-207592857D02*
X236039342Y-207592857D01*
X236039342Y-207592857D02*
X236134580Y-207640476D01*
X236134580Y-207640476D02*
X236182200Y-207688095D01*
X236182200Y-207688095D02*
X236229819Y-207783333D01*
X236229819Y-207783333D02*
X236229819Y-208164285D01*
X236229819Y-208164285D02*
X235229819Y-208164285D01*
X235229819Y-208164285D02*
X235229819Y-207830952D01*
X235229819Y-207830952D02*
X235277438Y-207735714D01*
X235277438Y-207735714D02*
X235325057Y-207688095D01*
X235325057Y-207688095D02*
X235420295Y-207640476D01*
X235420295Y-207640476D02*
X235515533Y-207640476D01*
X235515533Y-207640476D02*
X235610771Y-207688095D01*
X235610771Y-207688095D02*
X235658390Y-207735714D01*
X235658390Y-207735714D02*
X235706009Y-207830952D01*
X235706009Y-207830952D02*
X235706009Y-208164285D01*
X236182200Y-207211904D02*
X236229819Y-207069047D01*
X236229819Y-207069047D02*
X236229819Y-206830952D01*
X236229819Y-206830952D02*
X236182200Y-206735714D01*
X236182200Y-206735714D02*
X236134580Y-206688095D01*
X236134580Y-206688095D02*
X236039342Y-206640476D01*
X236039342Y-206640476D02*
X235944104Y-206640476D01*
X235944104Y-206640476D02*
X235848866Y-206688095D01*
X235848866Y-206688095D02*
X235801247Y-206735714D01*
X235801247Y-206735714D02*
X235753628Y-206830952D01*
X235753628Y-206830952D02*
X235706009Y-207021428D01*
X235706009Y-207021428D02*
X235658390Y-207116666D01*
X235658390Y-207116666D02*
X235610771Y-207164285D01*
X235610771Y-207164285D02*
X235515533Y-207211904D01*
X235515533Y-207211904D02*
X235420295Y-207211904D01*
X235420295Y-207211904D02*
X235325057Y-207164285D01*
X235325057Y-207164285D02*
X235277438Y-207116666D01*
X235277438Y-207116666D02*
X235229819Y-207021428D01*
X235229819Y-207021428D02*
X235229819Y-206783333D01*
X235229819Y-206783333D02*
X235277438Y-206640476D01*
X235325057Y-206259523D02*
X235277438Y-206211904D01*
X235277438Y-206211904D02*
X235229819Y-206116666D01*
X235229819Y-206116666D02*
X235229819Y-205878571D01*
X235229819Y-205878571D02*
X235277438Y-205783333D01*
X235277438Y-205783333D02*
X235325057Y-205735714D01*
X235325057Y-205735714D02*
X235420295Y-205688095D01*
X235420295Y-205688095D02*
X235515533Y-205688095D01*
X235515533Y-205688095D02*
X235658390Y-205735714D01*
X235658390Y-205735714D02*
X236229819Y-206307142D01*
X236229819Y-206307142D02*
X236229819Y-205688095D01*
X390190476Y-227044819D02*
X390190476Y-227759104D01*
X390190476Y-227759104D02*
X390142857Y-227901961D01*
X390142857Y-227901961D02*
X390047619Y-227997200D01*
X390047619Y-227997200D02*
X389904762Y-228044819D01*
X389904762Y-228044819D02*
X389809524Y-228044819D01*
X390619048Y-227140057D02*
X390666667Y-227092438D01*
X390666667Y-227092438D02*
X390761905Y-227044819D01*
X390761905Y-227044819D02*
X391000000Y-227044819D01*
X391000000Y-227044819D02*
X391095238Y-227092438D01*
X391095238Y-227092438D02*
X391142857Y-227140057D01*
X391142857Y-227140057D02*
X391190476Y-227235295D01*
X391190476Y-227235295D02*
X391190476Y-227330533D01*
X391190476Y-227330533D02*
X391142857Y-227473390D01*
X391142857Y-227473390D02*
X390571429Y-228044819D01*
X390571429Y-228044819D02*
X391190476Y-228044819D01*
X391523810Y-227044819D02*
X392142857Y-227044819D01*
X392142857Y-227044819D02*
X391809524Y-227425771D01*
X391809524Y-227425771D02*
X391952381Y-227425771D01*
X391952381Y-227425771D02*
X392047619Y-227473390D01*
X392047619Y-227473390D02*
X392095238Y-227521009D01*
X392095238Y-227521009D02*
X392142857Y-227616247D01*
X392142857Y-227616247D02*
X392142857Y-227854342D01*
X392142857Y-227854342D02*
X392095238Y-227949580D01*
X392095238Y-227949580D02*
X392047619Y-227997200D01*
X392047619Y-227997200D02*
X391952381Y-228044819D01*
X391952381Y-228044819D02*
X391666667Y-228044819D01*
X391666667Y-228044819D02*
X391571429Y-227997200D01*
X391571429Y-227997200D02*
X391523810Y-227949580D01*
X362606009Y-208507142D02*
X362653628Y-208364285D01*
X362653628Y-208364285D02*
X362701247Y-208316666D01*
X362701247Y-208316666D02*
X362796485Y-208269047D01*
X362796485Y-208269047D02*
X362939342Y-208269047D01*
X362939342Y-208269047D02*
X363034580Y-208316666D01*
X363034580Y-208316666D02*
X363082200Y-208364285D01*
X363082200Y-208364285D02*
X363129819Y-208459523D01*
X363129819Y-208459523D02*
X363129819Y-208840475D01*
X363129819Y-208840475D02*
X362129819Y-208840475D01*
X362129819Y-208840475D02*
X362129819Y-208507142D01*
X362129819Y-208507142D02*
X362177438Y-208411904D01*
X362177438Y-208411904D02*
X362225057Y-208364285D01*
X362225057Y-208364285D02*
X362320295Y-208316666D01*
X362320295Y-208316666D02*
X362415533Y-208316666D01*
X362415533Y-208316666D02*
X362510771Y-208364285D01*
X362510771Y-208364285D02*
X362558390Y-208411904D01*
X362558390Y-208411904D02*
X362606009Y-208507142D01*
X362606009Y-208507142D02*
X362606009Y-208840475D01*
X363082200Y-207888094D02*
X363129819Y-207745237D01*
X363129819Y-207745237D02*
X363129819Y-207507142D01*
X363129819Y-207507142D02*
X363082200Y-207411904D01*
X363082200Y-207411904D02*
X363034580Y-207364285D01*
X363034580Y-207364285D02*
X362939342Y-207316666D01*
X362939342Y-207316666D02*
X362844104Y-207316666D01*
X362844104Y-207316666D02*
X362748866Y-207364285D01*
X362748866Y-207364285D02*
X362701247Y-207411904D01*
X362701247Y-207411904D02*
X362653628Y-207507142D01*
X362653628Y-207507142D02*
X362606009Y-207697618D01*
X362606009Y-207697618D02*
X362558390Y-207792856D01*
X362558390Y-207792856D02*
X362510771Y-207840475D01*
X362510771Y-207840475D02*
X362415533Y-207888094D01*
X362415533Y-207888094D02*
X362320295Y-207888094D01*
X362320295Y-207888094D02*
X362225057Y-207840475D01*
X362225057Y-207840475D02*
X362177438Y-207792856D01*
X362177438Y-207792856D02*
X362129819Y-207697618D01*
X362129819Y-207697618D02*
X362129819Y-207459523D01*
X362129819Y-207459523D02*
X362177438Y-207316666D01*
X363129819Y-206364285D02*
X363129819Y-206935713D01*
X363129819Y-206649999D02*
X362129819Y-206649999D01*
X362129819Y-206649999D02*
X362272676Y-206745237D01*
X362272676Y-206745237D02*
X362367914Y-206840475D01*
X362367914Y-206840475D02*
X362415533Y-206935713D01*
X362129819Y-205459523D02*
X362129819Y-205935713D01*
X362129819Y-205935713D02*
X362606009Y-205983332D01*
X362606009Y-205983332D02*
X362558390Y-205935713D01*
X362558390Y-205935713D02*
X362510771Y-205840475D01*
X362510771Y-205840475D02*
X362510771Y-205602380D01*
X362510771Y-205602380D02*
X362558390Y-205507142D01*
X362558390Y-205507142D02*
X362606009Y-205459523D01*
X362606009Y-205459523D02*
X362701247Y-205411904D01*
X362701247Y-205411904D02*
X362939342Y-205411904D01*
X362939342Y-205411904D02*
X363034580Y-205459523D01*
X363034580Y-205459523D02*
X363082200Y-205507142D01*
X363082200Y-205507142D02*
X363129819Y-205602380D01*
X363129819Y-205602380D02*
X363129819Y-205840475D01*
X363129819Y-205840475D02*
X363082200Y-205935713D01*
X363082200Y-205935713D02*
X363034580Y-205983332D01*
X353226009Y-208507142D02*
X353273628Y-208364285D01*
X353273628Y-208364285D02*
X353321247Y-208316666D01*
X353321247Y-208316666D02*
X353416485Y-208269047D01*
X353416485Y-208269047D02*
X353559342Y-208269047D01*
X353559342Y-208269047D02*
X353654580Y-208316666D01*
X353654580Y-208316666D02*
X353702200Y-208364285D01*
X353702200Y-208364285D02*
X353749819Y-208459523D01*
X353749819Y-208459523D02*
X353749819Y-208840475D01*
X353749819Y-208840475D02*
X352749819Y-208840475D01*
X352749819Y-208840475D02*
X352749819Y-208507142D01*
X352749819Y-208507142D02*
X352797438Y-208411904D01*
X352797438Y-208411904D02*
X352845057Y-208364285D01*
X352845057Y-208364285D02*
X352940295Y-208316666D01*
X352940295Y-208316666D02*
X353035533Y-208316666D01*
X353035533Y-208316666D02*
X353130771Y-208364285D01*
X353130771Y-208364285D02*
X353178390Y-208411904D01*
X353178390Y-208411904D02*
X353226009Y-208507142D01*
X353226009Y-208507142D02*
X353226009Y-208840475D01*
X353702200Y-207888094D02*
X353749819Y-207745237D01*
X353749819Y-207745237D02*
X353749819Y-207507142D01*
X353749819Y-207507142D02*
X353702200Y-207411904D01*
X353702200Y-207411904D02*
X353654580Y-207364285D01*
X353654580Y-207364285D02*
X353559342Y-207316666D01*
X353559342Y-207316666D02*
X353464104Y-207316666D01*
X353464104Y-207316666D02*
X353368866Y-207364285D01*
X353368866Y-207364285D02*
X353321247Y-207411904D01*
X353321247Y-207411904D02*
X353273628Y-207507142D01*
X353273628Y-207507142D02*
X353226009Y-207697618D01*
X353226009Y-207697618D02*
X353178390Y-207792856D01*
X353178390Y-207792856D02*
X353130771Y-207840475D01*
X353130771Y-207840475D02*
X353035533Y-207888094D01*
X353035533Y-207888094D02*
X352940295Y-207888094D01*
X352940295Y-207888094D02*
X352845057Y-207840475D01*
X352845057Y-207840475D02*
X352797438Y-207792856D01*
X352797438Y-207792856D02*
X352749819Y-207697618D01*
X352749819Y-207697618D02*
X352749819Y-207459523D01*
X352749819Y-207459523D02*
X352797438Y-207316666D01*
X353749819Y-206364285D02*
X353749819Y-206935713D01*
X353749819Y-206649999D02*
X352749819Y-206649999D01*
X352749819Y-206649999D02*
X352892676Y-206745237D01*
X352892676Y-206745237D02*
X352987914Y-206840475D01*
X352987914Y-206840475D02*
X353035533Y-206935713D01*
X353083152Y-205507142D02*
X353749819Y-205507142D01*
X352702200Y-205745237D02*
X353416485Y-205983332D01*
X353416485Y-205983332D02*
X353416485Y-205364285D01*
X240726666Y-227044819D02*
X240726666Y-227759104D01*
X240726666Y-227759104D02*
X240679047Y-227901961D01*
X240679047Y-227901961D02*
X240583809Y-227997200D01*
X240583809Y-227997200D02*
X240440952Y-228044819D01*
X240440952Y-228044819D02*
X240345714Y-228044819D01*
X241345714Y-227473390D02*
X241250476Y-227425771D01*
X241250476Y-227425771D02*
X241202857Y-227378152D01*
X241202857Y-227378152D02*
X241155238Y-227282914D01*
X241155238Y-227282914D02*
X241155238Y-227235295D01*
X241155238Y-227235295D02*
X241202857Y-227140057D01*
X241202857Y-227140057D02*
X241250476Y-227092438D01*
X241250476Y-227092438D02*
X241345714Y-227044819D01*
X241345714Y-227044819D02*
X241536190Y-227044819D01*
X241536190Y-227044819D02*
X241631428Y-227092438D01*
X241631428Y-227092438D02*
X241679047Y-227140057D01*
X241679047Y-227140057D02*
X241726666Y-227235295D01*
X241726666Y-227235295D02*
X241726666Y-227282914D01*
X241726666Y-227282914D02*
X241679047Y-227378152D01*
X241679047Y-227378152D02*
X241631428Y-227425771D01*
X241631428Y-227425771D02*
X241536190Y-227473390D01*
X241536190Y-227473390D02*
X241345714Y-227473390D01*
X241345714Y-227473390D02*
X241250476Y-227521009D01*
X241250476Y-227521009D02*
X241202857Y-227568628D01*
X241202857Y-227568628D02*
X241155238Y-227663866D01*
X241155238Y-227663866D02*
X241155238Y-227854342D01*
X241155238Y-227854342D02*
X241202857Y-227949580D01*
X241202857Y-227949580D02*
X241250476Y-227997200D01*
X241250476Y-227997200D02*
X241345714Y-228044819D01*
X241345714Y-228044819D02*
X241536190Y-228044819D01*
X241536190Y-228044819D02*
X241631428Y-227997200D01*
X241631428Y-227997200D02*
X241679047Y-227949580D01*
X241679047Y-227949580D02*
X241726666Y-227854342D01*
X241726666Y-227854342D02*
X241726666Y-227663866D01*
X241726666Y-227663866D02*
X241679047Y-227568628D01*
X241679047Y-227568628D02*
X241631428Y-227521009D01*
X241631428Y-227521009D02*
X241536190Y-227473390D01*
X325086009Y-208507142D02*
X325133628Y-208364285D01*
X325133628Y-208364285D02*
X325181247Y-208316666D01*
X325181247Y-208316666D02*
X325276485Y-208269047D01*
X325276485Y-208269047D02*
X325419342Y-208269047D01*
X325419342Y-208269047D02*
X325514580Y-208316666D01*
X325514580Y-208316666D02*
X325562200Y-208364285D01*
X325562200Y-208364285D02*
X325609819Y-208459523D01*
X325609819Y-208459523D02*
X325609819Y-208840475D01*
X325609819Y-208840475D02*
X324609819Y-208840475D01*
X324609819Y-208840475D02*
X324609819Y-208507142D01*
X324609819Y-208507142D02*
X324657438Y-208411904D01*
X324657438Y-208411904D02*
X324705057Y-208364285D01*
X324705057Y-208364285D02*
X324800295Y-208316666D01*
X324800295Y-208316666D02*
X324895533Y-208316666D01*
X324895533Y-208316666D02*
X324990771Y-208364285D01*
X324990771Y-208364285D02*
X325038390Y-208411904D01*
X325038390Y-208411904D02*
X325086009Y-208507142D01*
X325086009Y-208507142D02*
X325086009Y-208840475D01*
X325562200Y-207888094D02*
X325609819Y-207745237D01*
X325609819Y-207745237D02*
X325609819Y-207507142D01*
X325609819Y-207507142D02*
X325562200Y-207411904D01*
X325562200Y-207411904D02*
X325514580Y-207364285D01*
X325514580Y-207364285D02*
X325419342Y-207316666D01*
X325419342Y-207316666D02*
X325324104Y-207316666D01*
X325324104Y-207316666D02*
X325228866Y-207364285D01*
X325228866Y-207364285D02*
X325181247Y-207411904D01*
X325181247Y-207411904D02*
X325133628Y-207507142D01*
X325133628Y-207507142D02*
X325086009Y-207697618D01*
X325086009Y-207697618D02*
X325038390Y-207792856D01*
X325038390Y-207792856D02*
X324990771Y-207840475D01*
X324990771Y-207840475D02*
X324895533Y-207888094D01*
X324895533Y-207888094D02*
X324800295Y-207888094D01*
X324800295Y-207888094D02*
X324705057Y-207840475D01*
X324705057Y-207840475D02*
X324657438Y-207792856D01*
X324657438Y-207792856D02*
X324609819Y-207697618D01*
X324609819Y-207697618D02*
X324609819Y-207459523D01*
X324609819Y-207459523D02*
X324657438Y-207316666D01*
X325609819Y-206364285D02*
X325609819Y-206935713D01*
X325609819Y-206649999D02*
X324609819Y-206649999D01*
X324609819Y-206649999D02*
X324752676Y-206745237D01*
X324752676Y-206745237D02*
X324847914Y-206840475D01*
X324847914Y-206840475D02*
X324895533Y-206935713D01*
X325609819Y-205411904D02*
X325609819Y-205983332D01*
X325609819Y-205697618D02*
X324609819Y-205697618D01*
X324609819Y-205697618D02*
X324752676Y-205792856D01*
X324752676Y-205792856D02*
X324847914Y-205888094D01*
X324847914Y-205888094D02*
X324895533Y-205983332D01*
X78138095Y-234774819D02*
X78138095Y-233774819D01*
X78138095Y-234251009D02*
X78709523Y-234251009D01*
X78709523Y-234774819D02*
X78709523Y-233774819D01*
X79138095Y-233870057D02*
X79185714Y-233822438D01*
X79185714Y-233822438D02*
X79280952Y-233774819D01*
X79280952Y-233774819D02*
X79519047Y-233774819D01*
X79519047Y-233774819D02*
X79614285Y-233822438D01*
X79614285Y-233822438D02*
X79661904Y-233870057D01*
X79661904Y-233870057D02*
X79709523Y-233965295D01*
X79709523Y-233965295D02*
X79709523Y-234060533D01*
X79709523Y-234060533D02*
X79661904Y-234203390D01*
X79661904Y-234203390D02*
X79090476Y-234774819D01*
X79090476Y-234774819D02*
X79709523Y-234774819D01*
X343846009Y-208507142D02*
X343893628Y-208364285D01*
X343893628Y-208364285D02*
X343941247Y-208316666D01*
X343941247Y-208316666D02*
X344036485Y-208269047D01*
X344036485Y-208269047D02*
X344179342Y-208269047D01*
X344179342Y-208269047D02*
X344274580Y-208316666D01*
X344274580Y-208316666D02*
X344322200Y-208364285D01*
X344322200Y-208364285D02*
X344369819Y-208459523D01*
X344369819Y-208459523D02*
X344369819Y-208840475D01*
X344369819Y-208840475D02*
X343369819Y-208840475D01*
X343369819Y-208840475D02*
X343369819Y-208507142D01*
X343369819Y-208507142D02*
X343417438Y-208411904D01*
X343417438Y-208411904D02*
X343465057Y-208364285D01*
X343465057Y-208364285D02*
X343560295Y-208316666D01*
X343560295Y-208316666D02*
X343655533Y-208316666D01*
X343655533Y-208316666D02*
X343750771Y-208364285D01*
X343750771Y-208364285D02*
X343798390Y-208411904D01*
X343798390Y-208411904D02*
X343846009Y-208507142D01*
X343846009Y-208507142D02*
X343846009Y-208840475D01*
X344322200Y-207888094D02*
X344369819Y-207745237D01*
X344369819Y-207745237D02*
X344369819Y-207507142D01*
X344369819Y-207507142D02*
X344322200Y-207411904D01*
X344322200Y-207411904D02*
X344274580Y-207364285D01*
X344274580Y-207364285D02*
X344179342Y-207316666D01*
X344179342Y-207316666D02*
X344084104Y-207316666D01*
X344084104Y-207316666D02*
X343988866Y-207364285D01*
X343988866Y-207364285D02*
X343941247Y-207411904D01*
X343941247Y-207411904D02*
X343893628Y-207507142D01*
X343893628Y-207507142D02*
X343846009Y-207697618D01*
X343846009Y-207697618D02*
X343798390Y-207792856D01*
X343798390Y-207792856D02*
X343750771Y-207840475D01*
X343750771Y-207840475D02*
X343655533Y-207888094D01*
X343655533Y-207888094D02*
X343560295Y-207888094D01*
X343560295Y-207888094D02*
X343465057Y-207840475D01*
X343465057Y-207840475D02*
X343417438Y-207792856D01*
X343417438Y-207792856D02*
X343369819Y-207697618D01*
X343369819Y-207697618D02*
X343369819Y-207459523D01*
X343369819Y-207459523D02*
X343417438Y-207316666D01*
X344369819Y-206364285D02*
X344369819Y-206935713D01*
X344369819Y-206649999D02*
X343369819Y-206649999D01*
X343369819Y-206649999D02*
X343512676Y-206745237D01*
X343512676Y-206745237D02*
X343607914Y-206840475D01*
X343607914Y-206840475D02*
X343655533Y-206935713D01*
X343369819Y-206030951D02*
X343369819Y-205411904D01*
X343369819Y-205411904D02*
X343750771Y-205745237D01*
X343750771Y-205745237D02*
X343750771Y-205602380D01*
X343750771Y-205602380D02*
X343798390Y-205507142D01*
X343798390Y-205507142D02*
X343846009Y-205459523D01*
X343846009Y-205459523D02*
X343941247Y-205411904D01*
X343941247Y-205411904D02*
X344179342Y-205411904D01*
X344179342Y-205411904D02*
X344274580Y-205459523D01*
X344274580Y-205459523D02*
X344322200Y-205507142D01*
X344322200Y-205507142D02*
X344369819Y-205602380D01*
X344369819Y-205602380D02*
X344369819Y-205888094D01*
X344369819Y-205888094D02*
X344322200Y-205983332D01*
X344322200Y-205983332D02*
X344274580Y-206030951D01*
X176076666Y-229694819D02*
X176076666Y-230409104D01*
X176076666Y-230409104D02*
X176029047Y-230551961D01*
X176029047Y-230551961D02*
X175933809Y-230647200D01*
X175933809Y-230647200D02*
X175790952Y-230694819D01*
X175790952Y-230694819D02*
X175695714Y-230694819D01*
X176457619Y-229694819D02*
X177076666Y-229694819D01*
X177076666Y-229694819D02*
X176743333Y-230075771D01*
X176743333Y-230075771D02*
X176886190Y-230075771D01*
X176886190Y-230075771D02*
X176981428Y-230123390D01*
X176981428Y-230123390D02*
X177029047Y-230171009D01*
X177029047Y-230171009D02*
X177076666Y-230266247D01*
X177076666Y-230266247D02*
X177076666Y-230504342D01*
X177076666Y-230504342D02*
X177029047Y-230599580D01*
X177029047Y-230599580D02*
X176981428Y-230647200D01*
X176981428Y-230647200D02*
X176886190Y-230694819D01*
X176886190Y-230694819D02*
X176600476Y-230694819D01*
X176600476Y-230694819D02*
X176505238Y-230647200D01*
X176505238Y-230647200D02*
X176457619Y-230599580D01*
D14*
%TO.C,BS4*%
X254600000Y-203690000D02*
X254600000Y-215290000D01*
X250600000Y-203690000D02*
X254600000Y-203690000D01*
X254600000Y-215290000D02*
X250600000Y-215290000D01*
X250600000Y-215290000D02*
X250600000Y-203690000D01*
D15*
X250200000Y-206990000D02*
G75*
G03*
X250200000Y-206990000I-100000J0D01*
G01*
D14*
%TO.C,BS10*%
X314600000Y-203690000D02*
X314600000Y-215290000D01*
X310600000Y-203690000D02*
X314600000Y-203690000D01*
X314600000Y-215290000D02*
X310600000Y-215290000D01*
X310600000Y-215290000D02*
X310600000Y-203690000D01*
D15*
X310200000Y-206990000D02*
G75*
G03*
X310200000Y-206990000I-100000J0D01*
G01*
D16*
%TO.C,J26*%
X422000000Y-236515200D02*
X420000000Y-236515200D01*
X417494800Y-234010000D02*
X417494800Y-232010000D01*
X424505200Y-232010000D02*
X424505200Y-234010000D01*
X420000000Y-229504800D02*
X422000000Y-229504800D01*
%TO.C,J16*%
X317494800Y-234010000D02*
X317494800Y-232010000D01*
X320000000Y-229504800D02*
X322000000Y-229504800D01*
X322000000Y-236515200D02*
X320000000Y-236515200D01*
X324505200Y-232010000D02*
X324505200Y-234010000D01*
D14*
%TO.C,BS16*%
X370880000Y-203890000D02*
X370880000Y-215490000D01*
X366880000Y-203890000D02*
X370880000Y-203890000D01*
X370880000Y-215490000D02*
X366880000Y-215490000D01*
X366880000Y-215490000D02*
X366880000Y-203890000D01*
D15*
X366480000Y-207190000D02*
G75*
G03*
X366480000Y-207190000I-100000J0D01*
G01*
D16*
%TO.C,J17*%
X327494800Y-234010000D02*
X327494800Y-232010000D01*
X330000000Y-229504800D02*
X332000000Y-229504800D01*
X332000000Y-236515200D02*
X330000000Y-236515200D01*
X334505200Y-232010000D02*
X334505200Y-234010000D01*
%TO.C,J24*%
X397494800Y-234010000D02*
X397494800Y-232010000D01*
X400000000Y-229504800D02*
X402000000Y-229504800D01*
X402000000Y-236515200D02*
X400000000Y-236515200D01*
X404505200Y-232010000D02*
X404505200Y-234010000D01*
D14*
%TO.C,BS1*%
X224600000Y-203690000D02*
X224600000Y-215290000D01*
X220600000Y-203690000D02*
X224600000Y-203690000D01*
X224600000Y-215290000D02*
X220600000Y-215290000D01*
X220600000Y-215290000D02*
X220600000Y-203690000D01*
D15*
X220200000Y-206990000D02*
G75*
G03*
X220200000Y-206990000I-100000J0D01*
G01*
D14*
%TO.C,BS5*%
X264600000Y-203690000D02*
X264600000Y-215290000D01*
X260600000Y-203690000D02*
X264600000Y-203690000D01*
X264600000Y-215290000D02*
X260600000Y-215290000D01*
X260600000Y-215290000D02*
X260600000Y-203690000D01*
D15*
X260200000Y-206990000D02*
G75*
G03*
X260200000Y-206990000I-100000J0D01*
G01*
D16*
%TO.C,J5*%
X197075000Y-220080000D02*
X197075000Y-218750000D01*
X198405000Y-220080000D02*
X197075000Y-220080000D01*
X199675000Y-220080000D02*
X202275000Y-220080000D01*
X199675000Y-220080000D02*
X199675000Y-217420000D01*
X202275000Y-220080000D02*
X202275000Y-217420000D01*
X199675000Y-217420000D02*
X202275000Y-217420000D01*
D14*
%TO.C,BS7*%
X284600000Y-203690000D02*
X284600000Y-215290000D01*
X280600000Y-203690000D02*
X284600000Y-203690000D01*
X284600000Y-215290000D02*
X280600000Y-215290000D01*
X280600000Y-215290000D02*
X280600000Y-203690000D01*
D15*
X280200000Y-206990000D02*
G75*
G03*
X280200000Y-206990000I-100000J0D01*
G01*
D16*
%TO.C,J25*%
X407494800Y-234010000D02*
X407494800Y-232010000D01*
X410000000Y-229504800D02*
X412000000Y-229504800D01*
X412000000Y-236515200D02*
X410000000Y-236515200D01*
X414505200Y-232010000D02*
X414505200Y-234010000D01*
D14*
%TO.C,BS20*%
X408400000Y-203890000D02*
X408400000Y-215490000D01*
X404400000Y-203890000D02*
X408400000Y-203890000D01*
X408400000Y-215490000D02*
X404400000Y-215490000D01*
X404400000Y-215490000D02*
X404400000Y-203890000D01*
D15*
X404000000Y-207190000D02*
G75*
G03*
X404000000Y-207190000I-100000J0D01*
G01*
D16*
%TO.C,J11*%
X274505200Y-232010000D02*
X274505200Y-234010000D01*
X272000000Y-236515200D02*
X270000000Y-236515200D01*
X270000000Y-229504800D02*
X272000000Y-229504800D01*
X267494800Y-234010000D02*
X267494800Y-232010000D01*
D14*
%TO.C,BS3*%
X244600000Y-203690000D02*
X244600000Y-215290000D01*
X240600000Y-203690000D02*
X244600000Y-203690000D01*
X244600000Y-215290000D02*
X240600000Y-215290000D01*
X240600000Y-215290000D02*
X240600000Y-203690000D01*
D15*
X240200000Y-206990000D02*
G75*
G03*
X240200000Y-206990000I-100000J0D01*
G01*
D16*
%TO.C,J9*%
X254565200Y-232010000D02*
X254565200Y-234010000D01*
X252060000Y-236515200D02*
X250060000Y-236515200D01*
X250060000Y-229504800D02*
X252060000Y-229504800D01*
X247554800Y-234010000D02*
X247554800Y-232010000D01*
%TO.C,J12*%
X284505200Y-232010000D02*
X284505200Y-234010000D01*
X282000000Y-236515200D02*
X280000000Y-236515200D01*
X280000000Y-229504800D02*
X282000000Y-229504800D01*
X277494800Y-234010000D02*
X277494800Y-232010000D01*
D14*
%TO.C,BS12*%
X333360000Y-203890000D02*
X333360000Y-215490000D01*
X329360000Y-203890000D02*
X333360000Y-203890000D01*
X333360000Y-215490000D02*
X329360000Y-215490000D01*
X329360000Y-215490000D02*
X329360000Y-203890000D01*
D15*
X328960000Y-207190000D02*
G75*
G03*
X328960000Y-207190000I-100000J0D01*
G01*
D16*
%TO.C,J1*%
X165185200Y-232010000D02*
X165185200Y-234010000D01*
X162680000Y-236515200D02*
X160680000Y-236515200D01*
X160680000Y-229504800D02*
X162680000Y-229504800D01*
X158174800Y-234010000D02*
X158174800Y-232010000D01*
D14*
%TO.C,BS8*%
X294600000Y-203690000D02*
X294600000Y-215290000D01*
X290600000Y-203690000D02*
X294600000Y-203690000D01*
X294600000Y-215290000D02*
X290600000Y-215290000D01*
X290600000Y-215290000D02*
X290600000Y-203690000D01*
D15*
X290200000Y-206990000D02*
G75*
G03*
X290200000Y-206990000I-100000J0D01*
G01*
D16*
%TO.C,R1*%
X188197064Y-234710000D02*
X183842936Y-234710000D01*
X188197064Y-231290000D02*
X183842936Y-231290000D01*
%TO.C,J18*%
X337494800Y-234010000D02*
X337494800Y-232010000D01*
X340000000Y-229504800D02*
X342000000Y-229504800D01*
X342000000Y-236515200D02*
X340000000Y-236515200D01*
X344505200Y-232010000D02*
X344505200Y-234010000D01*
D14*
%TO.C,BS6*%
X274600000Y-203690000D02*
X274600000Y-215290000D01*
X270600000Y-203690000D02*
X274600000Y-203690000D01*
X274600000Y-215290000D02*
X270600000Y-215290000D01*
X270600000Y-215290000D02*
X270600000Y-203690000D01*
D15*
X270200000Y-206990000D02*
G75*
G03*
X270200000Y-206990000I-100000J0D01*
G01*
D14*
%TO.C,BS9*%
X304600000Y-203690000D02*
X304600000Y-215290000D01*
X300600000Y-203690000D02*
X304600000Y-203690000D01*
X304600000Y-215290000D02*
X300600000Y-215290000D01*
X300600000Y-215290000D02*
X300600000Y-203690000D01*
D15*
X300200000Y-206990000D02*
G75*
G03*
X300200000Y-206990000I-100000J0D01*
G01*
D16*
%TO.C,J6*%
X193740238Y-225049568D02*
X193740238Y-237269568D01*
X193740238Y-233969568D02*
X206120238Y-233969568D01*
X193740238Y-235769568D02*
X193740238Y-233969568D01*
X193740238Y-237269568D02*
X206120238Y-237269568D01*
X196390238Y-237269568D02*
X198390238Y-237269568D01*
X196640238Y-235769568D02*
X196390238Y-237269568D01*
X197090238Y-224249568D02*
X197690238Y-224249568D01*
X197390238Y-224849568D02*
X197090238Y-224249568D01*
X197690238Y-224249568D02*
X197390238Y-224849568D01*
X198140238Y-235769568D02*
X196640238Y-235769568D01*
X198390238Y-237269568D02*
X198140238Y-235769568D01*
X201470238Y-237269568D02*
X203470238Y-237269568D01*
X201720238Y-235769568D02*
X201470238Y-237269568D01*
X203220238Y-235769568D02*
X201720238Y-235769568D01*
X203470238Y-237269568D02*
X203220238Y-235769568D01*
X206120238Y-225049568D02*
X193740238Y-225049568D01*
X206120238Y-233969568D02*
X206120238Y-235769568D01*
X206120238Y-235769568D02*
X193740238Y-235769568D01*
X206120238Y-237269568D02*
X206120238Y-225049568D01*
%TO.C,J19*%
X347494800Y-234010000D02*
X347494800Y-232010000D01*
X350000000Y-229504800D02*
X352000000Y-229504800D01*
X352000000Y-236515200D02*
X350000000Y-236515200D01*
X354505200Y-232010000D02*
X354505200Y-234010000D01*
%TO.C,J7*%
X234505200Y-232010000D02*
X234505200Y-234010000D01*
X232000000Y-236515200D02*
X230000000Y-236515200D01*
X230000000Y-229504800D02*
X232000000Y-229504800D01*
X227494800Y-234010000D02*
X227494800Y-232010000D01*
%TO.C,J2*%
X183495000Y-228600000D02*
X183495000Y-227270000D01*
X184825000Y-228600000D02*
X183495000Y-228600000D01*
X186095000Y-228600000D02*
X188695000Y-228600000D01*
X186095000Y-228600000D02*
X186095000Y-225940000D01*
X188695000Y-228600000D02*
X188695000Y-225940000D01*
X186095000Y-225940000D02*
X188695000Y-225940000D01*
D14*
%TO.C,BS17*%
X380260000Y-203890000D02*
X380260000Y-215490000D01*
X376260000Y-203890000D02*
X380260000Y-203890000D01*
X380260000Y-215490000D02*
X376260000Y-215490000D01*
X376260000Y-215490000D02*
X376260000Y-203890000D01*
D15*
X375860000Y-207190000D02*
G75*
G03*
X375860000Y-207190000I-100000J0D01*
G01*
D16*
%TO.C,J15*%
X314505200Y-232010000D02*
X314505200Y-234010000D01*
X312000000Y-236515200D02*
X310000000Y-236515200D01*
X310000000Y-229504800D02*
X312000000Y-229504800D01*
X307494800Y-234010000D02*
X307494800Y-232010000D01*
%TO.C,J20*%
X357494800Y-234010000D02*
X357494800Y-232010000D01*
X360000000Y-229504800D02*
X362000000Y-229504800D01*
X362000000Y-236515200D02*
X360000000Y-236515200D01*
X364505200Y-232010000D02*
X364505200Y-234010000D01*
%TO.C,J14*%
X304505200Y-232010000D02*
X304505200Y-234010000D01*
X302000000Y-236515200D02*
X300000000Y-236515200D01*
X300000000Y-229504800D02*
X302000000Y-229504800D01*
X297494800Y-234010000D02*
X297494800Y-232010000D01*
D14*
%TO.C,BS18*%
X389640000Y-203890000D02*
X389640000Y-215490000D01*
X385640000Y-203890000D02*
X389640000Y-203890000D01*
X389640000Y-215490000D02*
X385640000Y-215490000D01*
X385640000Y-215490000D02*
X385640000Y-203890000D01*
D15*
X385240000Y-207190000D02*
G75*
G03*
X385240000Y-207190000I-100000J0D01*
G01*
D16*
%TO.C,J13*%
X294505200Y-232010000D02*
X294505200Y-234010000D01*
X292000000Y-236515200D02*
X290000000Y-236515200D01*
X290000000Y-229504800D02*
X292000000Y-229504800D01*
X287494800Y-234010000D02*
X287494800Y-232010000D01*
%TO.C,J21*%
X367494800Y-234010000D02*
X367494800Y-232010000D01*
X370000000Y-229504800D02*
X372000000Y-229504800D01*
X372000000Y-236515200D02*
X370000000Y-236515200D01*
X374505200Y-232010000D02*
X374505200Y-234010000D01*
%TO.C,J10*%
X264505200Y-232010000D02*
X264505200Y-234010000D01*
X262000000Y-236515200D02*
X260000000Y-236515200D01*
X260000000Y-229504800D02*
X262000000Y-229504800D01*
X257494800Y-234010000D02*
X257494800Y-232010000D01*
D14*
%TO.C,BS19*%
X399020000Y-203890000D02*
X399020000Y-215490000D01*
X395020000Y-203890000D02*
X399020000Y-203890000D01*
X399020000Y-215490000D02*
X395020000Y-215490000D01*
X395020000Y-215490000D02*
X395020000Y-203890000D01*
D15*
X394620000Y-207190000D02*
G75*
G03*
X394620000Y-207190000I-100000J0D01*
G01*
D16*
%TO.C,J4*%
X169845000Y-234280000D02*
X169845000Y-236880000D01*
X169845000Y-234280000D02*
X172505000Y-234280000D01*
X169845000Y-236880000D02*
X172505000Y-236880000D01*
X171175000Y-231680000D02*
X172505000Y-231680000D01*
X172505000Y-231680000D02*
X172505000Y-233010000D01*
X172505000Y-234280000D02*
X172505000Y-236880000D01*
%TO.C,J22*%
X377494800Y-234010000D02*
X377494800Y-232010000D01*
X380000000Y-229504800D02*
X382000000Y-229504800D01*
X382000000Y-236515200D02*
X380000000Y-236515200D01*
X384505200Y-232010000D02*
X384505200Y-234010000D01*
D14*
%TO.C,BS2*%
X234600000Y-203690000D02*
X234600000Y-215290000D01*
X230600000Y-203690000D02*
X234600000Y-203690000D01*
X234600000Y-215290000D02*
X230600000Y-215290000D01*
X230600000Y-215290000D02*
X230600000Y-203690000D01*
D15*
X230200000Y-206990000D02*
G75*
G03*
X230200000Y-206990000I-100000J0D01*
G01*
D16*
%TO.C,J23*%
X387494800Y-234010000D02*
X387494800Y-232010000D01*
X390000000Y-229504800D02*
X392000000Y-229504800D01*
X392000000Y-236515200D02*
X390000000Y-236515200D01*
X394505200Y-232010000D02*
X394505200Y-234010000D01*
D14*
%TO.C,BS15*%
X361500000Y-203890000D02*
X361500000Y-215490000D01*
X357500000Y-203890000D02*
X361500000Y-203890000D01*
X361500000Y-215490000D02*
X357500000Y-215490000D01*
X357500000Y-215490000D02*
X357500000Y-203890000D01*
D15*
X357100000Y-207190000D02*
G75*
G03*
X357100000Y-207190000I-100000J0D01*
G01*
D14*
%TO.C,BS14*%
X352120000Y-203890000D02*
X352120000Y-215490000D01*
X348120000Y-203890000D02*
X352120000Y-203890000D01*
X352120000Y-215490000D02*
X348120000Y-215490000D01*
X348120000Y-215490000D02*
X348120000Y-203890000D01*
D15*
X347720000Y-207190000D02*
G75*
G03*
X347720000Y-207190000I-100000J0D01*
G01*
D16*
%TO.C,J8*%
X244505200Y-232010000D02*
X244505200Y-234010000D01*
X242000000Y-236515200D02*
X240000000Y-236515200D01*
X240000000Y-229504800D02*
X242000000Y-229504800D01*
X237494800Y-234010000D02*
X237494800Y-232010000D01*
D14*
%TO.C,BS11*%
X323980000Y-203890000D02*
X323980000Y-215490000D01*
X319980000Y-203890000D02*
X323980000Y-203890000D01*
X323980000Y-215490000D02*
X319980000Y-215490000D01*
X319980000Y-215490000D02*
X319980000Y-203890000D01*
D15*
X319580000Y-207190000D02*
G75*
G03*
X319580000Y-207190000I-100000J0D01*
G01*
D14*
%TO.C,BS13*%
X342740000Y-203890000D02*
X342740000Y-215490000D01*
X338740000Y-203890000D02*
X342740000Y-203890000D01*
X342740000Y-215490000D02*
X338740000Y-215490000D01*
X338740000Y-215490000D02*
X338740000Y-203890000D01*
D15*
X338340000Y-207190000D02*
G75*
G03*
X338340000Y-207190000I-100000J0D01*
G01*
D16*
%TO.C,J3*%
X175080000Y-234280000D02*
X175080000Y-236880000D01*
X175080000Y-234280000D02*
X177740000Y-234280000D01*
X175080000Y-236880000D02*
X177740000Y-236880000D01*
X176410000Y-231680000D02*
X177740000Y-231680000D01*
X177740000Y-231680000D02*
X177740000Y-233010000D01*
X177740000Y-234280000D02*
X177740000Y-236880000D01*
%TD*%
D17*
X552660000Y-199910000D02*
X552660000Y-244360000D01*
X552660000Y-244360000D02*
X70060000Y-244360000D01*
X70060000Y-244360000D02*
X70060000Y-199910000D01*
X70060000Y-199910000D02*
X552660000Y-199910000D01*
M02*
