%TF.GenerationSoftware,KiCad,Pcbnew,7.0.8*%
%TF.CreationDate,2025-10-10T12:28:29-07:00*%
%TF.ProjectId,HV_Safety_Loop,48565f53-6166-4657-9479-5f4c6f6f702e,rev?*%
%TF.SameCoordinates,Original*%
%TF.FileFunction,Drillmap*%
%TF.FilePolarity,Positive*%
%FSLAX45Y45*%
G04 Gerber Fmt 4.5, Leading zero omitted, Abs format (unit mm)*
G04 Created by KiCad (PCBNEW 7.0.8) date 2025-10-10 12:28:29*
%MOMM*%
%LPD*%
G01*
G04 APERTURE LIST*
%ADD10C,0.100000*%
%ADD11C,0.200000*%
%ADD12C,0.120000*%
%ADD13C,0.140000*%
%ADD14C,0.170000*%
G04 APERTURE END LIST*
D10*
X55266000Y-19991000D02*
X55266000Y-24436000D01*
X55266000Y-24436000D02*
X7006000Y-24436000D01*
X7006000Y-24436000D02*
X7006000Y-19991000D01*
X7006000Y-19991000D02*
X55266000Y-19991000D01*
D11*
D10*
X17067500Y-23251000D02*
X17167500Y-23351000D01*
X17167500Y-23251000D02*
X17067500Y-23351000D01*
X17067500Y-23505000D02*
X17167500Y-23605000D01*
X17167500Y-23505000D02*
X17067500Y-23605000D01*
X17591000Y-23251000D02*
X17691000Y-23351000D01*
X17691000Y-23251000D02*
X17591000Y-23351000D01*
X17591000Y-23505000D02*
X17691000Y-23605000D01*
X17691000Y-23505000D02*
X17591000Y-23605000D01*
X18432500Y-22677000D02*
X18532500Y-22777000D01*
X18532500Y-22677000D02*
X18432500Y-22777000D01*
X18686500Y-22677000D02*
X18786500Y-22777000D01*
X18786500Y-22677000D02*
X18686500Y-22777000D01*
X19790500Y-21825000D02*
X19890500Y-21925000D01*
X19890500Y-21825000D02*
X19790500Y-21925000D01*
X20044500Y-21825000D02*
X20144500Y-21925000D01*
X20144500Y-21825000D02*
X20044500Y-21925000D01*
X22210000Y-20649000D02*
X22310000Y-20749000D01*
X22310000Y-20649000D02*
X22210000Y-20749000D01*
X22210000Y-20899000D02*
X22310000Y-20999000D01*
X22310000Y-20899000D02*
X22210000Y-20999000D01*
X22210000Y-21149000D02*
X22310000Y-21249000D01*
X22310000Y-21149000D02*
X22210000Y-21249000D01*
X23210000Y-20649000D02*
X23310000Y-20749000D01*
X23310000Y-20649000D02*
X23210000Y-20749000D01*
X23210000Y-20899000D02*
X23310000Y-20999000D01*
X23310000Y-20899000D02*
X23210000Y-20999000D01*
X23210000Y-21149000D02*
X23310000Y-21249000D01*
X23310000Y-21149000D02*
X23210000Y-21249000D01*
X24210000Y-20649000D02*
X24310000Y-20749000D01*
X24310000Y-20649000D02*
X24210000Y-20749000D01*
X24210000Y-20899000D02*
X24310000Y-20999000D01*
X24310000Y-20899000D02*
X24210000Y-20999000D01*
X24210000Y-21149000D02*
X24310000Y-21249000D01*
X24310000Y-21149000D02*
X24210000Y-21249000D01*
X25210000Y-20649000D02*
X25310000Y-20749000D01*
X25310000Y-20649000D02*
X25210000Y-20749000D01*
X25210000Y-20899000D02*
X25310000Y-20999000D01*
X25310000Y-20899000D02*
X25210000Y-20999000D01*
X25210000Y-21149000D02*
X25310000Y-21249000D01*
X25310000Y-21149000D02*
X25210000Y-21249000D01*
X26210000Y-20649000D02*
X26310000Y-20749000D01*
X26310000Y-20649000D02*
X26210000Y-20749000D01*
X26210000Y-20899000D02*
X26310000Y-20999000D01*
X26310000Y-20899000D02*
X26210000Y-20999000D01*
X26210000Y-21149000D02*
X26310000Y-21249000D01*
X26310000Y-21149000D02*
X26210000Y-21249000D01*
X27210000Y-20649000D02*
X27310000Y-20749000D01*
X27310000Y-20649000D02*
X27210000Y-20749000D01*
X27210000Y-20899000D02*
X27310000Y-20999000D01*
X27310000Y-20899000D02*
X27210000Y-20999000D01*
X27210000Y-21149000D02*
X27310000Y-21249000D01*
X27310000Y-21149000D02*
X27210000Y-21249000D01*
X28210000Y-20649000D02*
X28310000Y-20749000D01*
X28310000Y-20649000D02*
X28210000Y-20749000D01*
X28210000Y-20899000D02*
X28310000Y-20999000D01*
X28310000Y-20899000D02*
X28210000Y-20999000D01*
X28210000Y-21149000D02*
X28310000Y-21249000D01*
X28310000Y-21149000D02*
X28210000Y-21249000D01*
X29210000Y-20649000D02*
X29310000Y-20749000D01*
X29310000Y-20649000D02*
X29210000Y-20749000D01*
X29210000Y-20899000D02*
X29310000Y-20999000D01*
X29310000Y-20899000D02*
X29210000Y-20999000D01*
X29210000Y-21149000D02*
X29310000Y-21249000D01*
X29310000Y-21149000D02*
X29210000Y-21249000D01*
X30210000Y-20649000D02*
X30310000Y-20749000D01*
X30310000Y-20649000D02*
X30210000Y-20749000D01*
X30210000Y-20899000D02*
X30310000Y-20999000D01*
X30310000Y-20899000D02*
X30210000Y-20999000D01*
X30210000Y-21149000D02*
X30310000Y-21249000D01*
X30310000Y-21149000D02*
X30210000Y-21249000D01*
X31210000Y-20649000D02*
X31310000Y-20749000D01*
X31310000Y-20649000D02*
X31210000Y-20749000D01*
X31210000Y-20899000D02*
X31310000Y-20999000D01*
X31310000Y-20899000D02*
X31210000Y-20999000D01*
X31210000Y-21149000D02*
X31310000Y-21249000D01*
X31310000Y-21149000D02*
X31210000Y-21249000D01*
X32148000Y-20669000D02*
X32248000Y-20769000D01*
X32248000Y-20669000D02*
X32148000Y-20769000D01*
X32148000Y-20919000D02*
X32248000Y-21019000D01*
X32248000Y-20919000D02*
X32148000Y-21019000D01*
X32148000Y-21169000D02*
X32248000Y-21269000D01*
X32248000Y-21169000D02*
X32148000Y-21269000D01*
X33086000Y-20669000D02*
X33186000Y-20769000D01*
X33186000Y-20669000D02*
X33086000Y-20769000D01*
X33086000Y-20919000D02*
X33186000Y-21019000D01*
X33186000Y-20919000D02*
X33086000Y-21019000D01*
X33086000Y-21169000D02*
X33186000Y-21269000D01*
X33186000Y-21169000D02*
X33086000Y-21269000D01*
X34024000Y-20669000D02*
X34124000Y-20769000D01*
X34124000Y-20669000D02*
X34024000Y-20769000D01*
X34024000Y-20919000D02*
X34124000Y-21019000D01*
X34124000Y-20919000D02*
X34024000Y-21019000D01*
X34024000Y-21169000D02*
X34124000Y-21269000D01*
X34124000Y-21169000D02*
X34024000Y-21269000D01*
X34962000Y-20669000D02*
X35062000Y-20769000D01*
X35062000Y-20669000D02*
X34962000Y-20769000D01*
X34962000Y-20919000D02*
X35062000Y-21019000D01*
X35062000Y-20919000D02*
X34962000Y-21019000D01*
X34962000Y-21169000D02*
X35062000Y-21269000D01*
X35062000Y-21169000D02*
X34962000Y-21269000D01*
X35900000Y-20669000D02*
X36000000Y-20769000D01*
X36000000Y-20669000D02*
X35900000Y-20769000D01*
X35900000Y-20919000D02*
X36000000Y-21019000D01*
X36000000Y-20919000D02*
X35900000Y-21019000D01*
X35900000Y-21169000D02*
X36000000Y-21269000D01*
X36000000Y-21169000D02*
X35900000Y-21269000D01*
X36838000Y-20669000D02*
X36938000Y-20769000D01*
X36938000Y-20669000D02*
X36838000Y-20769000D01*
X36838000Y-20919000D02*
X36938000Y-21019000D01*
X36938000Y-20919000D02*
X36838000Y-21019000D01*
X36838000Y-21169000D02*
X36938000Y-21269000D01*
X36938000Y-21169000D02*
X36838000Y-21269000D01*
X37776000Y-20669000D02*
X37876000Y-20769000D01*
X37876000Y-20669000D02*
X37776000Y-20769000D01*
X37776000Y-20919000D02*
X37876000Y-21019000D01*
X37876000Y-20919000D02*
X37776000Y-21019000D01*
X37776000Y-21169000D02*
X37876000Y-21269000D01*
X37876000Y-21169000D02*
X37776000Y-21269000D01*
X38714000Y-20669000D02*
X38814000Y-20769000D01*
X38814000Y-20669000D02*
X38714000Y-20769000D01*
X38714000Y-20919000D02*
X38814000Y-21019000D01*
X38814000Y-20919000D02*
X38714000Y-21019000D01*
X38714000Y-21169000D02*
X38814000Y-21269000D01*
X38814000Y-21169000D02*
X38714000Y-21269000D01*
X39652000Y-20669000D02*
X39752000Y-20769000D01*
X39752000Y-20669000D02*
X39652000Y-20769000D01*
X39652000Y-20919000D02*
X39752000Y-21019000D01*
X39752000Y-20919000D02*
X39652000Y-21019000D01*
X39652000Y-21169000D02*
X39752000Y-21269000D01*
X39752000Y-21169000D02*
X39652000Y-21269000D01*
X40590000Y-20669000D02*
X40690000Y-20769000D01*
X40690000Y-20669000D02*
X40590000Y-20769000D01*
X40590000Y-20919000D02*
X40690000Y-21019000D01*
X40690000Y-20919000D02*
X40590000Y-21019000D01*
X40590000Y-21169000D02*
X40690000Y-21269000D01*
X40690000Y-21169000D02*
X40590000Y-21269000D01*
D12*
X16228000Y-23301000D02*
G75*
G03*
X16228000Y-23301000I-60000J0D01*
G01*
X23160000Y-23301000D02*
G75*
G03*
X23160000Y-23301000I-60000J0D01*
G01*
X24160000Y-23301000D02*
G75*
G03*
X24160000Y-23301000I-60000J0D01*
G01*
X25166000Y-23301000D02*
G75*
G03*
X25166000Y-23301000I-60000J0D01*
G01*
X26160000Y-23301000D02*
G75*
G03*
X26160000Y-23301000I-60000J0D01*
G01*
X27160000Y-23301000D02*
G75*
G03*
X27160000Y-23301000I-60000J0D01*
G01*
X28160000Y-23301000D02*
G75*
G03*
X28160000Y-23301000I-60000J0D01*
G01*
X29160000Y-23301000D02*
G75*
G03*
X29160000Y-23301000I-60000J0D01*
G01*
X30160000Y-23301000D02*
G75*
G03*
X30160000Y-23301000I-60000J0D01*
G01*
X31160000Y-23301000D02*
G75*
G03*
X31160000Y-23301000I-60000J0D01*
G01*
X32160000Y-23301000D02*
G75*
G03*
X32160000Y-23301000I-60000J0D01*
G01*
X33160000Y-23301000D02*
G75*
G03*
X33160000Y-23301000I-60000J0D01*
G01*
X34160000Y-23301000D02*
G75*
G03*
X34160000Y-23301000I-60000J0D01*
G01*
X35160000Y-23301000D02*
G75*
G03*
X35160000Y-23301000I-60000J0D01*
G01*
X36160000Y-23301000D02*
G75*
G03*
X36160000Y-23301000I-60000J0D01*
G01*
X37160000Y-23301000D02*
G75*
G03*
X37160000Y-23301000I-60000J0D01*
G01*
X38160000Y-23301000D02*
G75*
G03*
X38160000Y-23301000I-60000J0D01*
G01*
X39160000Y-23301000D02*
G75*
G03*
X39160000Y-23301000I-60000J0D01*
G01*
X40160000Y-23301000D02*
G75*
G03*
X40160000Y-23301000I-60000J0D01*
G01*
X41160000Y-23301000D02*
G75*
G03*
X41160000Y-23301000I-60000J0D01*
G01*
X42160000Y-23301000D02*
G75*
G03*
X42160000Y-23301000I-60000J0D01*
G01*
D13*
X19739024Y-22645957D02*
X19739024Y-22785957D01*
X19669024Y-22715957D02*
X19809024Y-22715957D01*
X20247024Y-22645957D02*
X20247024Y-22785957D01*
X20177024Y-22715957D02*
X20317024Y-22715957D01*
D14*
X15974105Y-23107105D02*
X15974105Y-22986895D01*
X15853895Y-22986895D01*
X15853895Y-23107105D01*
X15974105Y-23107105D01*
X15974105Y-23615105D02*
X15974105Y-23494895D01*
X15853895Y-23494895D01*
X15853895Y-23615105D01*
X15974105Y-23615105D01*
X16482105Y-23107105D02*
X16482105Y-22986895D01*
X16361895Y-22986895D01*
X16361895Y-23107105D01*
X16482105Y-23107105D01*
X16482105Y-23615105D02*
X16482105Y-23494895D01*
X16361895Y-23494895D01*
X16361895Y-23615105D01*
X16482105Y-23615105D01*
X22906105Y-23107105D02*
X22906105Y-22986895D01*
X22785895Y-22986895D01*
X22785895Y-23107105D01*
X22906105Y-23107105D01*
X22906105Y-23615105D02*
X22906105Y-23494895D01*
X22785895Y-23494895D01*
X22785895Y-23615105D01*
X22906105Y-23615105D01*
X23414105Y-23107105D02*
X23414105Y-22986895D01*
X23293895Y-22986895D01*
X23293895Y-23107105D01*
X23414105Y-23107105D01*
X23414105Y-23615105D02*
X23414105Y-23494895D01*
X23293895Y-23494895D01*
X23293895Y-23615105D01*
X23414105Y-23615105D01*
X23906105Y-23107105D02*
X23906105Y-22986895D01*
X23785895Y-22986895D01*
X23785895Y-23107105D01*
X23906105Y-23107105D01*
X23906105Y-23615105D02*
X23906105Y-23494895D01*
X23785895Y-23494895D01*
X23785895Y-23615105D01*
X23906105Y-23615105D01*
X24414105Y-23107105D02*
X24414105Y-22986895D01*
X24293895Y-22986895D01*
X24293895Y-23107105D01*
X24414105Y-23107105D01*
X24414105Y-23615105D02*
X24414105Y-23494895D01*
X24293895Y-23494895D01*
X24293895Y-23615105D01*
X24414105Y-23615105D01*
X24912105Y-23107105D02*
X24912105Y-22986895D01*
X24791895Y-22986895D01*
X24791895Y-23107105D01*
X24912105Y-23107105D01*
X24912105Y-23615105D02*
X24912105Y-23494895D01*
X24791895Y-23494895D01*
X24791895Y-23615105D01*
X24912105Y-23615105D01*
X25420105Y-23107105D02*
X25420105Y-22986895D01*
X25299895Y-22986895D01*
X25299895Y-23107105D01*
X25420105Y-23107105D01*
X25420105Y-23615105D02*
X25420105Y-23494895D01*
X25299895Y-23494895D01*
X25299895Y-23615105D01*
X25420105Y-23615105D01*
X25906105Y-23107105D02*
X25906105Y-22986895D01*
X25785895Y-22986895D01*
X25785895Y-23107105D01*
X25906105Y-23107105D01*
X25906105Y-23615105D02*
X25906105Y-23494895D01*
X25785895Y-23494895D01*
X25785895Y-23615105D01*
X25906105Y-23615105D01*
X26414105Y-23107105D02*
X26414105Y-22986895D01*
X26293895Y-22986895D01*
X26293895Y-23107105D01*
X26414105Y-23107105D01*
X26414105Y-23615105D02*
X26414105Y-23494895D01*
X26293895Y-23494895D01*
X26293895Y-23615105D01*
X26414105Y-23615105D01*
X26906105Y-23107105D02*
X26906105Y-22986895D01*
X26785895Y-22986895D01*
X26785895Y-23107105D01*
X26906105Y-23107105D01*
X26906105Y-23615105D02*
X26906105Y-23494895D01*
X26785895Y-23494895D01*
X26785895Y-23615105D01*
X26906105Y-23615105D01*
X27414105Y-23107105D02*
X27414105Y-22986895D01*
X27293895Y-22986895D01*
X27293895Y-23107105D01*
X27414105Y-23107105D01*
X27414105Y-23615105D02*
X27414105Y-23494895D01*
X27293895Y-23494895D01*
X27293895Y-23615105D01*
X27414105Y-23615105D01*
X27906105Y-23107105D02*
X27906105Y-22986895D01*
X27785895Y-22986895D01*
X27785895Y-23107105D01*
X27906105Y-23107105D01*
X27906105Y-23615105D02*
X27906105Y-23494895D01*
X27785895Y-23494895D01*
X27785895Y-23615105D01*
X27906105Y-23615105D01*
X28414105Y-23107105D02*
X28414105Y-22986895D01*
X28293895Y-22986895D01*
X28293895Y-23107105D01*
X28414105Y-23107105D01*
X28414105Y-23615105D02*
X28414105Y-23494895D01*
X28293895Y-23494895D01*
X28293895Y-23615105D01*
X28414105Y-23615105D01*
X28906105Y-23107105D02*
X28906105Y-22986895D01*
X28785895Y-22986895D01*
X28785895Y-23107105D01*
X28906105Y-23107105D01*
X28906105Y-23615105D02*
X28906105Y-23494895D01*
X28785895Y-23494895D01*
X28785895Y-23615105D01*
X28906105Y-23615105D01*
X29414105Y-23107105D02*
X29414105Y-22986895D01*
X29293895Y-22986895D01*
X29293895Y-23107105D01*
X29414105Y-23107105D01*
X29414105Y-23615105D02*
X29414105Y-23494895D01*
X29293895Y-23494895D01*
X29293895Y-23615105D01*
X29414105Y-23615105D01*
X29906105Y-23107105D02*
X29906105Y-22986895D01*
X29785895Y-22986895D01*
X29785895Y-23107105D01*
X29906105Y-23107105D01*
X29906105Y-23615105D02*
X29906105Y-23494895D01*
X29785895Y-23494895D01*
X29785895Y-23615105D01*
X29906105Y-23615105D01*
X30414105Y-23107105D02*
X30414105Y-22986895D01*
X30293895Y-22986895D01*
X30293895Y-23107105D01*
X30414105Y-23107105D01*
X30414105Y-23615105D02*
X30414105Y-23494895D01*
X30293895Y-23494895D01*
X30293895Y-23615105D01*
X30414105Y-23615105D01*
X30906105Y-23107105D02*
X30906105Y-22986895D01*
X30785895Y-22986895D01*
X30785895Y-23107105D01*
X30906105Y-23107105D01*
X30906105Y-23615105D02*
X30906105Y-23494895D01*
X30785895Y-23494895D01*
X30785895Y-23615105D01*
X30906105Y-23615105D01*
X31414105Y-23107105D02*
X31414105Y-22986895D01*
X31293895Y-22986895D01*
X31293895Y-23107105D01*
X31414105Y-23107105D01*
X31414105Y-23615105D02*
X31414105Y-23494895D01*
X31293895Y-23494895D01*
X31293895Y-23615105D01*
X31414105Y-23615105D01*
X31906105Y-23107105D02*
X31906105Y-22986895D01*
X31785895Y-22986895D01*
X31785895Y-23107105D01*
X31906105Y-23107105D01*
X31906105Y-23615105D02*
X31906105Y-23494895D01*
X31785895Y-23494895D01*
X31785895Y-23615105D01*
X31906105Y-23615105D01*
X32414105Y-23107105D02*
X32414105Y-22986895D01*
X32293895Y-22986895D01*
X32293895Y-23107105D01*
X32414105Y-23107105D01*
X32414105Y-23615105D02*
X32414105Y-23494895D01*
X32293895Y-23494895D01*
X32293895Y-23615105D01*
X32414105Y-23615105D01*
X32906105Y-23107105D02*
X32906105Y-22986895D01*
X32785895Y-22986895D01*
X32785895Y-23107105D01*
X32906105Y-23107105D01*
X32906105Y-23615105D02*
X32906105Y-23494895D01*
X32785895Y-23494895D01*
X32785895Y-23615105D01*
X32906105Y-23615105D01*
X33414105Y-23107105D02*
X33414105Y-22986895D01*
X33293895Y-22986895D01*
X33293895Y-23107105D01*
X33414105Y-23107105D01*
X33414105Y-23615105D02*
X33414105Y-23494895D01*
X33293895Y-23494895D01*
X33293895Y-23615105D01*
X33414105Y-23615105D01*
X33906105Y-23107105D02*
X33906105Y-22986895D01*
X33785895Y-22986895D01*
X33785895Y-23107105D01*
X33906105Y-23107105D01*
X33906105Y-23615105D02*
X33906105Y-23494895D01*
X33785895Y-23494895D01*
X33785895Y-23615105D01*
X33906105Y-23615105D01*
X34414105Y-23107105D02*
X34414105Y-22986895D01*
X34293895Y-22986895D01*
X34293895Y-23107105D01*
X34414105Y-23107105D01*
X34414105Y-23615105D02*
X34414105Y-23494895D01*
X34293895Y-23494895D01*
X34293895Y-23615105D01*
X34414105Y-23615105D01*
X34906105Y-23107105D02*
X34906105Y-22986895D01*
X34785895Y-22986895D01*
X34785895Y-23107105D01*
X34906105Y-23107105D01*
X34906105Y-23615105D02*
X34906105Y-23494895D01*
X34785895Y-23494895D01*
X34785895Y-23615105D01*
X34906105Y-23615105D01*
X35414105Y-23107105D02*
X35414105Y-22986895D01*
X35293895Y-22986895D01*
X35293895Y-23107105D01*
X35414105Y-23107105D01*
X35414105Y-23615105D02*
X35414105Y-23494895D01*
X35293895Y-23494895D01*
X35293895Y-23615105D01*
X35414105Y-23615105D01*
X35906105Y-23107105D02*
X35906105Y-22986895D01*
X35785895Y-22986895D01*
X35785895Y-23107105D01*
X35906105Y-23107105D01*
X35906105Y-23615105D02*
X35906105Y-23494895D01*
X35785895Y-23494895D01*
X35785895Y-23615105D01*
X35906105Y-23615105D01*
X36414105Y-23107105D02*
X36414105Y-22986895D01*
X36293895Y-22986895D01*
X36293895Y-23107105D01*
X36414105Y-23107105D01*
X36414105Y-23615105D02*
X36414105Y-23494895D01*
X36293895Y-23494895D01*
X36293895Y-23615105D01*
X36414105Y-23615105D01*
X36906105Y-23107105D02*
X36906105Y-22986895D01*
X36785895Y-22986895D01*
X36785895Y-23107105D01*
X36906105Y-23107105D01*
X36906105Y-23615105D02*
X36906105Y-23494895D01*
X36785895Y-23494895D01*
X36785895Y-23615105D01*
X36906105Y-23615105D01*
X37414105Y-23107105D02*
X37414105Y-22986895D01*
X37293895Y-22986895D01*
X37293895Y-23107105D01*
X37414105Y-23107105D01*
X37414105Y-23615105D02*
X37414105Y-23494895D01*
X37293895Y-23494895D01*
X37293895Y-23615105D01*
X37414105Y-23615105D01*
X37906105Y-23107105D02*
X37906105Y-22986895D01*
X37785895Y-22986895D01*
X37785895Y-23107105D01*
X37906105Y-23107105D01*
X37906105Y-23615105D02*
X37906105Y-23494895D01*
X37785895Y-23494895D01*
X37785895Y-23615105D01*
X37906105Y-23615105D01*
X38414105Y-23107105D02*
X38414105Y-22986895D01*
X38293895Y-22986895D01*
X38293895Y-23107105D01*
X38414105Y-23107105D01*
X38414105Y-23615105D02*
X38414105Y-23494895D01*
X38293895Y-23494895D01*
X38293895Y-23615105D01*
X38414105Y-23615105D01*
X38906105Y-23107105D02*
X38906105Y-22986895D01*
X38785895Y-22986895D01*
X38785895Y-23107105D01*
X38906105Y-23107105D01*
X38906105Y-23615105D02*
X38906105Y-23494895D01*
X38785895Y-23494895D01*
X38785895Y-23615105D01*
X38906105Y-23615105D01*
X39414105Y-23107105D02*
X39414105Y-22986895D01*
X39293895Y-22986895D01*
X39293895Y-23107105D01*
X39414105Y-23107105D01*
X39414105Y-23615105D02*
X39414105Y-23494895D01*
X39293895Y-23494895D01*
X39293895Y-23615105D01*
X39414105Y-23615105D01*
X39906105Y-23107105D02*
X39906105Y-22986895D01*
X39785895Y-22986895D01*
X39785895Y-23107105D01*
X39906105Y-23107105D01*
X39906105Y-23615105D02*
X39906105Y-23494895D01*
X39785895Y-23494895D01*
X39785895Y-23615105D01*
X39906105Y-23615105D01*
X40414105Y-23107105D02*
X40414105Y-22986895D01*
X40293895Y-22986895D01*
X40293895Y-23107105D01*
X40414105Y-23107105D01*
X40414105Y-23615105D02*
X40414105Y-23494895D01*
X40293895Y-23494895D01*
X40293895Y-23615105D01*
X40414105Y-23615105D01*
X40906105Y-23107105D02*
X40906105Y-22986895D01*
X40785895Y-22986895D01*
X40785895Y-23107105D01*
X40906105Y-23107105D01*
X40906105Y-23615105D02*
X40906105Y-23494895D01*
X40785895Y-23494895D01*
X40785895Y-23615105D01*
X40906105Y-23615105D01*
X41414105Y-23107105D02*
X41414105Y-22986895D01*
X41293895Y-22986895D01*
X41293895Y-23107105D01*
X41414105Y-23107105D01*
X41414105Y-23615105D02*
X41414105Y-23494895D01*
X41293895Y-23494895D01*
X41293895Y-23615105D01*
X41414105Y-23615105D01*
X41906105Y-23107105D02*
X41906105Y-22986895D01*
X41785895Y-22986895D01*
X41785895Y-23107105D01*
X41906105Y-23107105D01*
X41906105Y-23615105D02*
X41906105Y-23494895D01*
X41785895Y-23494895D01*
X41785895Y-23615105D01*
X41906105Y-23615105D01*
X42414105Y-23107105D02*
X42414105Y-22986895D01*
X42293895Y-22986895D01*
X42293895Y-23107105D01*
X42414105Y-23107105D01*
X42414105Y-23615105D02*
X42414105Y-23494895D01*
X42293895Y-23494895D01*
X42293895Y-23615105D01*
X42414105Y-23615105D01*
D11*
X7261777Y-24752484D02*
X7261777Y-24552484D01*
X7261777Y-24552484D02*
X7309396Y-24552484D01*
X7309396Y-24552484D02*
X7337967Y-24562008D01*
X7337967Y-24562008D02*
X7357015Y-24581055D01*
X7357015Y-24581055D02*
X7366539Y-24600103D01*
X7366539Y-24600103D02*
X7376062Y-24638198D01*
X7376062Y-24638198D02*
X7376062Y-24666769D01*
X7376062Y-24666769D02*
X7366539Y-24704865D01*
X7366539Y-24704865D02*
X7357015Y-24723912D01*
X7357015Y-24723912D02*
X7337967Y-24742960D01*
X7337967Y-24742960D02*
X7309396Y-24752484D01*
X7309396Y-24752484D02*
X7261777Y-24752484D01*
X7461777Y-24752484D02*
X7461777Y-24619150D01*
X7461777Y-24657246D02*
X7471301Y-24638198D01*
X7471301Y-24638198D02*
X7480824Y-24628674D01*
X7480824Y-24628674D02*
X7499872Y-24619150D01*
X7499872Y-24619150D02*
X7518920Y-24619150D01*
X7585586Y-24752484D02*
X7585586Y-24619150D01*
X7585586Y-24552484D02*
X7576062Y-24562008D01*
X7576062Y-24562008D02*
X7585586Y-24571531D01*
X7585586Y-24571531D02*
X7595110Y-24562008D01*
X7595110Y-24562008D02*
X7585586Y-24552484D01*
X7585586Y-24552484D02*
X7585586Y-24571531D01*
X7709396Y-24752484D02*
X7690348Y-24742960D01*
X7690348Y-24742960D02*
X7680824Y-24723912D01*
X7680824Y-24723912D02*
X7680824Y-24552484D01*
X7814158Y-24752484D02*
X7795110Y-24742960D01*
X7795110Y-24742960D02*
X7785586Y-24723912D01*
X7785586Y-24723912D02*
X7785586Y-24552484D01*
X8042729Y-24752484D02*
X8042729Y-24552484D01*
X8042729Y-24552484D02*
X8109396Y-24695341D01*
X8109396Y-24695341D02*
X8176062Y-24552484D01*
X8176062Y-24552484D02*
X8176062Y-24752484D01*
X8357015Y-24752484D02*
X8357015Y-24647722D01*
X8357015Y-24647722D02*
X8347491Y-24628674D01*
X8347491Y-24628674D02*
X8328443Y-24619150D01*
X8328443Y-24619150D02*
X8290348Y-24619150D01*
X8290348Y-24619150D02*
X8271301Y-24628674D01*
X8357015Y-24742960D02*
X8337967Y-24752484D01*
X8337967Y-24752484D02*
X8290348Y-24752484D01*
X8290348Y-24752484D02*
X8271301Y-24742960D01*
X8271301Y-24742960D02*
X8261777Y-24723912D01*
X8261777Y-24723912D02*
X8261777Y-24704865D01*
X8261777Y-24704865D02*
X8271301Y-24685817D01*
X8271301Y-24685817D02*
X8290348Y-24676293D01*
X8290348Y-24676293D02*
X8337967Y-24676293D01*
X8337967Y-24676293D02*
X8357015Y-24666769D01*
X8452253Y-24619150D02*
X8452253Y-24819150D01*
X8452253Y-24628674D02*
X8471301Y-24619150D01*
X8471301Y-24619150D02*
X8509396Y-24619150D01*
X8509396Y-24619150D02*
X8528444Y-24628674D01*
X8528444Y-24628674D02*
X8537967Y-24638198D01*
X8537967Y-24638198D02*
X8547491Y-24657246D01*
X8547491Y-24657246D02*
X8547491Y-24714388D01*
X8547491Y-24714388D02*
X8537967Y-24733436D01*
X8537967Y-24733436D02*
X8528444Y-24742960D01*
X8528444Y-24742960D02*
X8509396Y-24752484D01*
X8509396Y-24752484D02*
X8471301Y-24752484D01*
X8471301Y-24752484D02*
X8452253Y-24742960D01*
X8633205Y-24733436D02*
X8642729Y-24742960D01*
X8642729Y-24742960D02*
X8633205Y-24752484D01*
X8633205Y-24752484D02*
X8623682Y-24742960D01*
X8623682Y-24742960D02*
X8633205Y-24733436D01*
X8633205Y-24733436D02*
X8633205Y-24752484D01*
X8633205Y-24628674D02*
X8642729Y-24638198D01*
X8642729Y-24638198D02*
X8633205Y-24647722D01*
X8633205Y-24647722D02*
X8623682Y-24638198D01*
X8623682Y-24638198D02*
X8633205Y-24628674D01*
X8633205Y-24628674D02*
X8633205Y-24647722D01*
D10*
X6901000Y-25031000D02*
X7001000Y-25131000D01*
X7001000Y-25031000D02*
X6901000Y-25131000D01*
D11*
X7366539Y-25172484D02*
X7252253Y-25172484D01*
X7309396Y-25172484D02*
X7309396Y-24972484D01*
X7309396Y-24972484D02*
X7290348Y-25001055D01*
X7290348Y-25001055D02*
X7271301Y-25020103D01*
X7271301Y-25020103D02*
X7252253Y-25029627D01*
X7452253Y-25153436D02*
X7461777Y-25162960D01*
X7461777Y-25162960D02*
X7452253Y-25172484D01*
X7452253Y-25172484D02*
X7442729Y-25162960D01*
X7442729Y-25162960D02*
X7452253Y-25153436D01*
X7452253Y-25153436D02*
X7452253Y-25172484D01*
X7585586Y-24972484D02*
X7604634Y-24972484D01*
X7604634Y-24972484D02*
X7623682Y-24982008D01*
X7623682Y-24982008D02*
X7633205Y-24991531D01*
X7633205Y-24991531D02*
X7642729Y-25010579D01*
X7642729Y-25010579D02*
X7652253Y-25048674D01*
X7652253Y-25048674D02*
X7652253Y-25096293D01*
X7652253Y-25096293D02*
X7642729Y-25134388D01*
X7642729Y-25134388D02*
X7633205Y-25153436D01*
X7633205Y-25153436D02*
X7623682Y-25162960D01*
X7623682Y-25162960D02*
X7604634Y-25172484D01*
X7604634Y-25172484D02*
X7585586Y-25172484D01*
X7585586Y-25172484D02*
X7566539Y-25162960D01*
X7566539Y-25162960D02*
X7557015Y-25153436D01*
X7557015Y-25153436D02*
X7547491Y-25134388D01*
X7547491Y-25134388D02*
X7537967Y-25096293D01*
X7537967Y-25096293D02*
X7537967Y-25048674D01*
X7537967Y-25048674D02*
X7547491Y-25010579D01*
X7547491Y-25010579D02*
X7557015Y-24991531D01*
X7557015Y-24991531D02*
X7566539Y-24982008D01*
X7566539Y-24982008D02*
X7585586Y-24972484D01*
X7776062Y-24972484D02*
X7795110Y-24972484D01*
X7795110Y-24972484D02*
X7814158Y-24982008D01*
X7814158Y-24982008D02*
X7823682Y-24991531D01*
X7823682Y-24991531D02*
X7833205Y-25010579D01*
X7833205Y-25010579D02*
X7842729Y-25048674D01*
X7842729Y-25048674D02*
X7842729Y-25096293D01*
X7842729Y-25096293D02*
X7833205Y-25134388D01*
X7833205Y-25134388D02*
X7823682Y-25153436D01*
X7823682Y-25153436D02*
X7814158Y-25162960D01*
X7814158Y-25162960D02*
X7795110Y-25172484D01*
X7795110Y-25172484D02*
X7776062Y-25172484D01*
X7776062Y-25172484D02*
X7757015Y-25162960D01*
X7757015Y-25162960D02*
X7747491Y-25153436D01*
X7747491Y-25153436D02*
X7737967Y-25134388D01*
X7737967Y-25134388D02*
X7728443Y-25096293D01*
X7728443Y-25096293D02*
X7728443Y-25048674D01*
X7728443Y-25048674D02*
X7737967Y-25010579D01*
X7737967Y-25010579D02*
X7747491Y-24991531D01*
X7747491Y-24991531D02*
X7757015Y-24982008D01*
X7757015Y-24982008D02*
X7776062Y-24972484D01*
X7966539Y-24972484D02*
X7985586Y-24972484D01*
X7985586Y-24972484D02*
X8004634Y-24982008D01*
X8004634Y-24982008D02*
X8014158Y-24991531D01*
X8014158Y-24991531D02*
X8023682Y-25010579D01*
X8023682Y-25010579D02*
X8033205Y-25048674D01*
X8033205Y-25048674D02*
X8033205Y-25096293D01*
X8033205Y-25096293D02*
X8023682Y-25134388D01*
X8023682Y-25134388D02*
X8014158Y-25153436D01*
X8014158Y-25153436D02*
X8004634Y-25162960D01*
X8004634Y-25162960D02*
X7985586Y-25172484D01*
X7985586Y-25172484D02*
X7966539Y-25172484D01*
X7966539Y-25172484D02*
X7947491Y-25162960D01*
X7947491Y-25162960D02*
X7937967Y-25153436D01*
X7937967Y-25153436D02*
X7928443Y-25134388D01*
X7928443Y-25134388D02*
X7918920Y-25096293D01*
X7918920Y-25096293D02*
X7918920Y-25048674D01*
X7918920Y-25048674D02*
X7928443Y-25010579D01*
X7928443Y-25010579D02*
X7937967Y-24991531D01*
X7937967Y-24991531D02*
X7947491Y-24982008D01*
X7947491Y-24982008D02*
X7966539Y-24972484D01*
X8118920Y-25172484D02*
X8118920Y-25039150D01*
X8118920Y-25058198D02*
X8128443Y-25048674D01*
X8128443Y-25048674D02*
X8147491Y-25039150D01*
X8147491Y-25039150D02*
X8176063Y-25039150D01*
X8176063Y-25039150D02*
X8195110Y-25048674D01*
X8195110Y-25048674D02*
X8204634Y-25067722D01*
X8204634Y-25067722D02*
X8204634Y-25172484D01*
X8204634Y-25067722D02*
X8214158Y-25048674D01*
X8214158Y-25048674D02*
X8233205Y-25039150D01*
X8233205Y-25039150D02*
X8261777Y-25039150D01*
X8261777Y-25039150D02*
X8280824Y-25048674D01*
X8280824Y-25048674D02*
X8290348Y-25067722D01*
X8290348Y-25067722D02*
X8290348Y-25172484D01*
X8385586Y-25172484D02*
X8385586Y-25039150D01*
X8385586Y-25058198D02*
X8395110Y-25048674D01*
X8395110Y-25048674D02*
X8414158Y-25039150D01*
X8414158Y-25039150D02*
X8442729Y-25039150D01*
X8442729Y-25039150D02*
X8461777Y-25048674D01*
X8461777Y-25048674D02*
X8471301Y-25067722D01*
X8471301Y-25067722D02*
X8471301Y-25172484D01*
X8471301Y-25067722D02*
X8480825Y-25048674D01*
X8480825Y-25048674D02*
X8499872Y-25039150D01*
X8499872Y-25039150D02*
X8528444Y-25039150D01*
X8528444Y-25039150D02*
X8547491Y-25048674D01*
X8547491Y-25048674D02*
X8557015Y-25067722D01*
X8557015Y-25067722D02*
X8557015Y-25172484D01*
X8947491Y-24962960D02*
X8776063Y-25220103D01*
X9204634Y-24972484D02*
X9223682Y-24972484D01*
X9223682Y-24972484D02*
X9242729Y-24982008D01*
X9242729Y-24982008D02*
X9252253Y-24991531D01*
X9252253Y-24991531D02*
X9261777Y-25010579D01*
X9261777Y-25010579D02*
X9271301Y-25048674D01*
X9271301Y-25048674D02*
X9271301Y-25096293D01*
X9271301Y-25096293D02*
X9261777Y-25134388D01*
X9261777Y-25134388D02*
X9252253Y-25153436D01*
X9252253Y-25153436D02*
X9242729Y-25162960D01*
X9242729Y-25162960D02*
X9223682Y-25172484D01*
X9223682Y-25172484D02*
X9204634Y-25172484D01*
X9204634Y-25172484D02*
X9185587Y-25162960D01*
X9185587Y-25162960D02*
X9176063Y-25153436D01*
X9176063Y-25153436D02*
X9166539Y-25134388D01*
X9166539Y-25134388D02*
X9157015Y-25096293D01*
X9157015Y-25096293D02*
X9157015Y-25048674D01*
X9157015Y-25048674D02*
X9166539Y-25010579D01*
X9166539Y-25010579D02*
X9176063Y-24991531D01*
X9176063Y-24991531D02*
X9185587Y-24982008D01*
X9185587Y-24982008D02*
X9204634Y-24972484D01*
X9357015Y-25153436D02*
X9366539Y-25162960D01*
X9366539Y-25162960D02*
X9357015Y-25172484D01*
X9357015Y-25172484D02*
X9347491Y-25162960D01*
X9347491Y-25162960D02*
X9357015Y-25153436D01*
X9357015Y-25153436D02*
X9357015Y-25172484D01*
X9490348Y-24972484D02*
X9509396Y-24972484D01*
X9509396Y-24972484D02*
X9528444Y-24982008D01*
X9528444Y-24982008D02*
X9537968Y-24991531D01*
X9537968Y-24991531D02*
X9547491Y-25010579D01*
X9547491Y-25010579D02*
X9557015Y-25048674D01*
X9557015Y-25048674D02*
X9557015Y-25096293D01*
X9557015Y-25096293D02*
X9547491Y-25134388D01*
X9547491Y-25134388D02*
X9537968Y-25153436D01*
X9537968Y-25153436D02*
X9528444Y-25162960D01*
X9528444Y-25162960D02*
X9509396Y-25172484D01*
X9509396Y-25172484D02*
X9490348Y-25172484D01*
X9490348Y-25172484D02*
X9471301Y-25162960D01*
X9471301Y-25162960D02*
X9461777Y-25153436D01*
X9461777Y-25153436D02*
X9452253Y-25134388D01*
X9452253Y-25134388D02*
X9442729Y-25096293D01*
X9442729Y-25096293D02*
X9442729Y-25048674D01*
X9442729Y-25048674D02*
X9452253Y-25010579D01*
X9452253Y-25010579D02*
X9461777Y-24991531D01*
X9461777Y-24991531D02*
X9471301Y-24982008D01*
X9471301Y-24982008D02*
X9490348Y-24972484D01*
X9623682Y-24972484D02*
X9747491Y-24972484D01*
X9747491Y-24972484D02*
X9680825Y-25048674D01*
X9680825Y-25048674D02*
X9709396Y-25048674D01*
X9709396Y-25048674D02*
X9728444Y-25058198D01*
X9728444Y-25058198D02*
X9737968Y-25067722D01*
X9737968Y-25067722D02*
X9747491Y-25086769D01*
X9747491Y-25086769D02*
X9747491Y-25134388D01*
X9747491Y-25134388D02*
X9737968Y-25153436D01*
X9737968Y-25153436D02*
X9728444Y-25162960D01*
X9728444Y-25162960D02*
X9709396Y-25172484D01*
X9709396Y-25172484D02*
X9652253Y-25172484D01*
X9652253Y-25172484D02*
X9633206Y-25162960D01*
X9633206Y-25162960D02*
X9623682Y-25153436D01*
X9842729Y-25172484D02*
X9880825Y-25172484D01*
X9880825Y-25172484D02*
X9899872Y-25162960D01*
X9899872Y-25162960D02*
X9909396Y-25153436D01*
X9909396Y-25153436D02*
X9928444Y-25124865D01*
X9928444Y-25124865D02*
X9937968Y-25086769D01*
X9937968Y-25086769D02*
X9937968Y-25010579D01*
X9937968Y-25010579D02*
X9928444Y-24991531D01*
X9928444Y-24991531D02*
X9918920Y-24982008D01*
X9918920Y-24982008D02*
X9899872Y-24972484D01*
X9899872Y-24972484D02*
X9861777Y-24972484D01*
X9861777Y-24972484D02*
X9842729Y-24982008D01*
X9842729Y-24982008D02*
X9833206Y-24991531D01*
X9833206Y-24991531D02*
X9823682Y-25010579D01*
X9823682Y-25010579D02*
X9823682Y-25058198D01*
X9823682Y-25058198D02*
X9833206Y-25077246D01*
X9833206Y-25077246D02*
X9842729Y-25086769D01*
X9842729Y-25086769D02*
X9861777Y-25096293D01*
X9861777Y-25096293D02*
X9899872Y-25096293D01*
X9899872Y-25096293D02*
X9918920Y-25086769D01*
X9918920Y-25086769D02*
X9928444Y-25077246D01*
X9928444Y-25077246D02*
X9937968Y-25058198D01*
X10109396Y-25039150D02*
X10109396Y-25172484D01*
X10061777Y-24962960D02*
X10014158Y-25105817D01*
X10014158Y-25105817D02*
X10137968Y-25105817D01*
X10204634Y-24972484D02*
X10204634Y-25010579D01*
X10280825Y-24972484D02*
X10280825Y-25010579D01*
X10576063Y-25248674D02*
X10566539Y-25239150D01*
X10566539Y-25239150D02*
X10547491Y-25210579D01*
X10547491Y-25210579D02*
X10537968Y-25191531D01*
X10537968Y-25191531D02*
X10528444Y-25162960D01*
X10528444Y-25162960D02*
X10518920Y-25115341D01*
X10518920Y-25115341D02*
X10518920Y-25077246D01*
X10518920Y-25077246D02*
X10528444Y-25029627D01*
X10528444Y-25029627D02*
X10537968Y-25001055D01*
X10537968Y-25001055D02*
X10547491Y-24982008D01*
X10547491Y-24982008D02*
X10566539Y-24953436D01*
X10566539Y-24953436D02*
X10576063Y-24943912D01*
X10737968Y-24972484D02*
X10699872Y-24972484D01*
X10699872Y-24972484D02*
X10680825Y-24982008D01*
X10680825Y-24982008D02*
X10671301Y-24991531D01*
X10671301Y-24991531D02*
X10652253Y-25020103D01*
X10652253Y-25020103D02*
X10642730Y-25058198D01*
X10642730Y-25058198D02*
X10642730Y-25134388D01*
X10642730Y-25134388D02*
X10652253Y-25153436D01*
X10652253Y-25153436D02*
X10661777Y-25162960D01*
X10661777Y-25162960D02*
X10680825Y-25172484D01*
X10680825Y-25172484D02*
X10718920Y-25172484D01*
X10718920Y-25172484D02*
X10737968Y-25162960D01*
X10737968Y-25162960D02*
X10747491Y-25153436D01*
X10747491Y-25153436D02*
X10757015Y-25134388D01*
X10757015Y-25134388D02*
X10757015Y-25086769D01*
X10757015Y-25086769D02*
X10747491Y-25067722D01*
X10747491Y-25067722D02*
X10737968Y-25058198D01*
X10737968Y-25058198D02*
X10718920Y-25048674D01*
X10718920Y-25048674D02*
X10680825Y-25048674D01*
X10680825Y-25048674D02*
X10661777Y-25058198D01*
X10661777Y-25058198D02*
X10652253Y-25067722D01*
X10652253Y-25067722D02*
X10642730Y-25086769D01*
X10871301Y-25058198D02*
X10852253Y-25048674D01*
X10852253Y-25048674D02*
X10842730Y-25039150D01*
X10842730Y-25039150D02*
X10833206Y-25020103D01*
X10833206Y-25020103D02*
X10833206Y-25010579D01*
X10833206Y-25010579D02*
X10842730Y-24991531D01*
X10842730Y-24991531D02*
X10852253Y-24982008D01*
X10852253Y-24982008D02*
X10871301Y-24972484D01*
X10871301Y-24972484D02*
X10909396Y-24972484D01*
X10909396Y-24972484D02*
X10928444Y-24982008D01*
X10928444Y-24982008D02*
X10937968Y-24991531D01*
X10937968Y-24991531D02*
X10947491Y-25010579D01*
X10947491Y-25010579D02*
X10947491Y-25020103D01*
X10947491Y-25020103D02*
X10937968Y-25039150D01*
X10937968Y-25039150D02*
X10928444Y-25048674D01*
X10928444Y-25048674D02*
X10909396Y-25058198D01*
X10909396Y-25058198D02*
X10871301Y-25058198D01*
X10871301Y-25058198D02*
X10852253Y-25067722D01*
X10852253Y-25067722D02*
X10842730Y-25077246D01*
X10842730Y-25077246D02*
X10833206Y-25096293D01*
X10833206Y-25096293D02*
X10833206Y-25134388D01*
X10833206Y-25134388D02*
X10842730Y-25153436D01*
X10842730Y-25153436D02*
X10852253Y-25162960D01*
X10852253Y-25162960D02*
X10871301Y-25172484D01*
X10871301Y-25172484D02*
X10909396Y-25172484D01*
X10909396Y-25172484D02*
X10928444Y-25162960D01*
X10928444Y-25162960D02*
X10937968Y-25153436D01*
X10937968Y-25153436D02*
X10947491Y-25134388D01*
X10947491Y-25134388D02*
X10947491Y-25096293D01*
X10947491Y-25096293D02*
X10937968Y-25077246D01*
X10937968Y-25077246D02*
X10928444Y-25067722D01*
X10928444Y-25067722D02*
X10909396Y-25058198D01*
X11185587Y-25172484D02*
X11185587Y-24972484D01*
X11271301Y-25172484D02*
X11271301Y-25067722D01*
X11271301Y-25067722D02*
X11261777Y-25048674D01*
X11261777Y-25048674D02*
X11242730Y-25039150D01*
X11242730Y-25039150D02*
X11214158Y-25039150D01*
X11214158Y-25039150D02*
X11195110Y-25048674D01*
X11195110Y-25048674D02*
X11185587Y-25058198D01*
X11395110Y-25172484D02*
X11376063Y-25162960D01*
X11376063Y-25162960D02*
X11366539Y-25153436D01*
X11366539Y-25153436D02*
X11357015Y-25134388D01*
X11357015Y-25134388D02*
X11357015Y-25077246D01*
X11357015Y-25077246D02*
X11366539Y-25058198D01*
X11366539Y-25058198D02*
X11376063Y-25048674D01*
X11376063Y-25048674D02*
X11395110Y-25039150D01*
X11395110Y-25039150D02*
X11423682Y-25039150D01*
X11423682Y-25039150D02*
X11442730Y-25048674D01*
X11442730Y-25048674D02*
X11452253Y-25058198D01*
X11452253Y-25058198D02*
X11461777Y-25077246D01*
X11461777Y-25077246D02*
X11461777Y-25134388D01*
X11461777Y-25134388D02*
X11452253Y-25153436D01*
X11452253Y-25153436D02*
X11442730Y-25162960D01*
X11442730Y-25162960D02*
X11423682Y-25172484D01*
X11423682Y-25172484D02*
X11395110Y-25172484D01*
X11576063Y-25172484D02*
X11557015Y-25162960D01*
X11557015Y-25162960D02*
X11547491Y-25143912D01*
X11547491Y-25143912D02*
X11547491Y-24972484D01*
X11728444Y-25162960D02*
X11709396Y-25172484D01*
X11709396Y-25172484D02*
X11671301Y-25172484D01*
X11671301Y-25172484D02*
X11652253Y-25162960D01*
X11652253Y-25162960D02*
X11642730Y-25143912D01*
X11642730Y-25143912D02*
X11642730Y-25067722D01*
X11642730Y-25067722D02*
X11652253Y-25048674D01*
X11652253Y-25048674D02*
X11671301Y-25039150D01*
X11671301Y-25039150D02*
X11709396Y-25039150D01*
X11709396Y-25039150D02*
X11728444Y-25048674D01*
X11728444Y-25048674D02*
X11737968Y-25067722D01*
X11737968Y-25067722D02*
X11737968Y-25086769D01*
X11737968Y-25086769D02*
X11642730Y-25105817D01*
X11814158Y-25162960D02*
X11833206Y-25172484D01*
X11833206Y-25172484D02*
X11871301Y-25172484D01*
X11871301Y-25172484D02*
X11890349Y-25162960D01*
X11890349Y-25162960D02*
X11899872Y-25143912D01*
X11899872Y-25143912D02*
X11899872Y-25134388D01*
X11899872Y-25134388D02*
X11890349Y-25115341D01*
X11890349Y-25115341D02*
X11871301Y-25105817D01*
X11871301Y-25105817D02*
X11842730Y-25105817D01*
X11842730Y-25105817D02*
X11823682Y-25096293D01*
X11823682Y-25096293D02*
X11814158Y-25077246D01*
X11814158Y-25077246D02*
X11814158Y-25067722D01*
X11814158Y-25067722D02*
X11823682Y-25048674D01*
X11823682Y-25048674D02*
X11842730Y-25039150D01*
X11842730Y-25039150D02*
X11871301Y-25039150D01*
X11871301Y-25039150D02*
X11890349Y-25048674D01*
X11966539Y-25248674D02*
X11976063Y-25239150D01*
X11976063Y-25239150D02*
X11995111Y-25210579D01*
X11995111Y-25210579D02*
X12004634Y-25191531D01*
X12004634Y-25191531D02*
X12014158Y-25162960D01*
X12014158Y-25162960D02*
X12023682Y-25115341D01*
X12023682Y-25115341D02*
X12023682Y-25077246D01*
X12023682Y-25077246D02*
X12014158Y-25029627D01*
X12014158Y-25029627D02*
X12004634Y-25001055D01*
X12004634Y-25001055D02*
X11995111Y-24982008D01*
X11995111Y-24982008D02*
X11976063Y-24953436D01*
X11976063Y-24953436D02*
X11966539Y-24943912D01*
D12*
X7001000Y-25345000D02*
G75*
G03*
X7001000Y-25345000I-60000J0D01*
G01*
D11*
X7366539Y-25436484D02*
X7252253Y-25436484D01*
X7309396Y-25436484D02*
X7309396Y-25236484D01*
X7309396Y-25236484D02*
X7290348Y-25265055D01*
X7290348Y-25265055D02*
X7271301Y-25284103D01*
X7271301Y-25284103D02*
X7252253Y-25293627D01*
X7452253Y-25417436D02*
X7461777Y-25426960D01*
X7461777Y-25426960D02*
X7452253Y-25436484D01*
X7452253Y-25436484D02*
X7442729Y-25426960D01*
X7442729Y-25426960D02*
X7452253Y-25417436D01*
X7452253Y-25417436D02*
X7452253Y-25436484D01*
X7537967Y-25255531D02*
X7547491Y-25246008D01*
X7547491Y-25246008D02*
X7566539Y-25236484D01*
X7566539Y-25236484D02*
X7614158Y-25236484D01*
X7614158Y-25236484D02*
X7633205Y-25246008D01*
X7633205Y-25246008D02*
X7642729Y-25255531D01*
X7642729Y-25255531D02*
X7652253Y-25274579D01*
X7652253Y-25274579D02*
X7652253Y-25293627D01*
X7652253Y-25293627D02*
X7642729Y-25322198D01*
X7642729Y-25322198D02*
X7528443Y-25436484D01*
X7528443Y-25436484D02*
X7652253Y-25436484D01*
X7776062Y-25236484D02*
X7795110Y-25236484D01*
X7795110Y-25236484D02*
X7814158Y-25246008D01*
X7814158Y-25246008D02*
X7823682Y-25255531D01*
X7823682Y-25255531D02*
X7833205Y-25274579D01*
X7833205Y-25274579D02*
X7842729Y-25312674D01*
X7842729Y-25312674D02*
X7842729Y-25360293D01*
X7842729Y-25360293D02*
X7833205Y-25398388D01*
X7833205Y-25398388D02*
X7823682Y-25417436D01*
X7823682Y-25417436D02*
X7814158Y-25426960D01*
X7814158Y-25426960D02*
X7795110Y-25436484D01*
X7795110Y-25436484D02*
X7776062Y-25436484D01*
X7776062Y-25436484D02*
X7757015Y-25426960D01*
X7757015Y-25426960D02*
X7747491Y-25417436D01*
X7747491Y-25417436D02*
X7737967Y-25398388D01*
X7737967Y-25398388D02*
X7728443Y-25360293D01*
X7728443Y-25360293D02*
X7728443Y-25312674D01*
X7728443Y-25312674D02*
X7737967Y-25274579D01*
X7737967Y-25274579D02*
X7747491Y-25255531D01*
X7747491Y-25255531D02*
X7757015Y-25246008D01*
X7757015Y-25246008D02*
X7776062Y-25236484D01*
X7966539Y-25236484D02*
X7985586Y-25236484D01*
X7985586Y-25236484D02*
X8004634Y-25246008D01*
X8004634Y-25246008D02*
X8014158Y-25255531D01*
X8014158Y-25255531D02*
X8023682Y-25274579D01*
X8023682Y-25274579D02*
X8033205Y-25312674D01*
X8033205Y-25312674D02*
X8033205Y-25360293D01*
X8033205Y-25360293D02*
X8023682Y-25398388D01*
X8023682Y-25398388D02*
X8014158Y-25417436D01*
X8014158Y-25417436D02*
X8004634Y-25426960D01*
X8004634Y-25426960D02*
X7985586Y-25436484D01*
X7985586Y-25436484D02*
X7966539Y-25436484D01*
X7966539Y-25436484D02*
X7947491Y-25426960D01*
X7947491Y-25426960D02*
X7937967Y-25417436D01*
X7937967Y-25417436D02*
X7928443Y-25398388D01*
X7928443Y-25398388D02*
X7918920Y-25360293D01*
X7918920Y-25360293D02*
X7918920Y-25312674D01*
X7918920Y-25312674D02*
X7928443Y-25274579D01*
X7928443Y-25274579D02*
X7937967Y-25255531D01*
X7937967Y-25255531D02*
X7947491Y-25246008D01*
X7947491Y-25246008D02*
X7966539Y-25236484D01*
X8118920Y-25436484D02*
X8118920Y-25303150D01*
X8118920Y-25322198D02*
X8128443Y-25312674D01*
X8128443Y-25312674D02*
X8147491Y-25303150D01*
X8147491Y-25303150D02*
X8176063Y-25303150D01*
X8176063Y-25303150D02*
X8195110Y-25312674D01*
X8195110Y-25312674D02*
X8204634Y-25331722D01*
X8204634Y-25331722D02*
X8204634Y-25436484D01*
X8204634Y-25331722D02*
X8214158Y-25312674D01*
X8214158Y-25312674D02*
X8233205Y-25303150D01*
X8233205Y-25303150D02*
X8261777Y-25303150D01*
X8261777Y-25303150D02*
X8280824Y-25312674D01*
X8280824Y-25312674D02*
X8290348Y-25331722D01*
X8290348Y-25331722D02*
X8290348Y-25436484D01*
X8385586Y-25436484D02*
X8385586Y-25303150D01*
X8385586Y-25322198D02*
X8395110Y-25312674D01*
X8395110Y-25312674D02*
X8414158Y-25303150D01*
X8414158Y-25303150D02*
X8442729Y-25303150D01*
X8442729Y-25303150D02*
X8461777Y-25312674D01*
X8461777Y-25312674D02*
X8471301Y-25331722D01*
X8471301Y-25331722D02*
X8471301Y-25436484D01*
X8471301Y-25331722D02*
X8480825Y-25312674D01*
X8480825Y-25312674D02*
X8499872Y-25303150D01*
X8499872Y-25303150D02*
X8528444Y-25303150D01*
X8528444Y-25303150D02*
X8547491Y-25312674D01*
X8547491Y-25312674D02*
X8557015Y-25331722D01*
X8557015Y-25331722D02*
X8557015Y-25436484D01*
X8947491Y-25226960D02*
X8776063Y-25484103D01*
X9204634Y-25236484D02*
X9223682Y-25236484D01*
X9223682Y-25236484D02*
X9242729Y-25246008D01*
X9242729Y-25246008D02*
X9252253Y-25255531D01*
X9252253Y-25255531D02*
X9261777Y-25274579D01*
X9261777Y-25274579D02*
X9271301Y-25312674D01*
X9271301Y-25312674D02*
X9271301Y-25360293D01*
X9271301Y-25360293D02*
X9261777Y-25398388D01*
X9261777Y-25398388D02*
X9252253Y-25417436D01*
X9252253Y-25417436D02*
X9242729Y-25426960D01*
X9242729Y-25426960D02*
X9223682Y-25436484D01*
X9223682Y-25436484D02*
X9204634Y-25436484D01*
X9204634Y-25436484D02*
X9185587Y-25426960D01*
X9185587Y-25426960D02*
X9176063Y-25417436D01*
X9176063Y-25417436D02*
X9166539Y-25398388D01*
X9166539Y-25398388D02*
X9157015Y-25360293D01*
X9157015Y-25360293D02*
X9157015Y-25312674D01*
X9157015Y-25312674D02*
X9166539Y-25274579D01*
X9166539Y-25274579D02*
X9176063Y-25255531D01*
X9176063Y-25255531D02*
X9185587Y-25246008D01*
X9185587Y-25246008D02*
X9204634Y-25236484D01*
X9357015Y-25417436D02*
X9366539Y-25426960D01*
X9366539Y-25426960D02*
X9357015Y-25436484D01*
X9357015Y-25436484D02*
X9347491Y-25426960D01*
X9347491Y-25426960D02*
X9357015Y-25417436D01*
X9357015Y-25417436D02*
X9357015Y-25436484D01*
X9490348Y-25236484D02*
X9509396Y-25236484D01*
X9509396Y-25236484D02*
X9528444Y-25246008D01*
X9528444Y-25246008D02*
X9537968Y-25255531D01*
X9537968Y-25255531D02*
X9547491Y-25274579D01*
X9547491Y-25274579D02*
X9557015Y-25312674D01*
X9557015Y-25312674D02*
X9557015Y-25360293D01*
X9557015Y-25360293D02*
X9547491Y-25398388D01*
X9547491Y-25398388D02*
X9537968Y-25417436D01*
X9537968Y-25417436D02*
X9528444Y-25426960D01*
X9528444Y-25426960D02*
X9509396Y-25436484D01*
X9509396Y-25436484D02*
X9490348Y-25436484D01*
X9490348Y-25436484D02*
X9471301Y-25426960D01*
X9471301Y-25426960D02*
X9461777Y-25417436D01*
X9461777Y-25417436D02*
X9452253Y-25398388D01*
X9452253Y-25398388D02*
X9442729Y-25360293D01*
X9442729Y-25360293D02*
X9442729Y-25312674D01*
X9442729Y-25312674D02*
X9452253Y-25274579D01*
X9452253Y-25274579D02*
X9461777Y-25255531D01*
X9461777Y-25255531D02*
X9471301Y-25246008D01*
X9471301Y-25246008D02*
X9490348Y-25236484D01*
X9728444Y-25303150D02*
X9728444Y-25436484D01*
X9680825Y-25226960D02*
X9633206Y-25369817D01*
X9633206Y-25369817D02*
X9757015Y-25369817D01*
X9814158Y-25236484D02*
X9947491Y-25236484D01*
X9947491Y-25236484D02*
X9861777Y-25436484D01*
X10014158Y-25255531D02*
X10023682Y-25246008D01*
X10023682Y-25246008D02*
X10042729Y-25236484D01*
X10042729Y-25236484D02*
X10090349Y-25236484D01*
X10090349Y-25236484D02*
X10109396Y-25246008D01*
X10109396Y-25246008D02*
X10118920Y-25255531D01*
X10118920Y-25255531D02*
X10128444Y-25274579D01*
X10128444Y-25274579D02*
X10128444Y-25293627D01*
X10128444Y-25293627D02*
X10118920Y-25322198D01*
X10118920Y-25322198D02*
X10004634Y-25436484D01*
X10004634Y-25436484D02*
X10128444Y-25436484D01*
X10204634Y-25236484D02*
X10204634Y-25274579D01*
X10280825Y-25236484D02*
X10280825Y-25274579D01*
X10576063Y-25512674D02*
X10566539Y-25503150D01*
X10566539Y-25503150D02*
X10547491Y-25474579D01*
X10547491Y-25474579D02*
X10537968Y-25455531D01*
X10537968Y-25455531D02*
X10528444Y-25426960D01*
X10528444Y-25426960D02*
X10518920Y-25379341D01*
X10518920Y-25379341D02*
X10518920Y-25341246D01*
X10518920Y-25341246D02*
X10528444Y-25293627D01*
X10528444Y-25293627D02*
X10537968Y-25265055D01*
X10537968Y-25265055D02*
X10547491Y-25246008D01*
X10547491Y-25246008D02*
X10566539Y-25217436D01*
X10566539Y-25217436D02*
X10576063Y-25207912D01*
X10642730Y-25255531D02*
X10652253Y-25246008D01*
X10652253Y-25246008D02*
X10671301Y-25236484D01*
X10671301Y-25236484D02*
X10718920Y-25236484D01*
X10718920Y-25236484D02*
X10737968Y-25246008D01*
X10737968Y-25246008D02*
X10747491Y-25255531D01*
X10747491Y-25255531D02*
X10757015Y-25274579D01*
X10757015Y-25274579D02*
X10757015Y-25293627D01*
X10757015Y-25293627D02*
X10747491Y-25322198D01*
X10747491Y-25322198D02*
X10633206Y-25436484D01*
X10633206Y-25436484D02*
X10757015Y-25436484D01*
X10947491Y-25436484D02*
X10833206Y-25436484D01*
X10890349Y-25436484D02*
X10890349Y-25236484D01*
X10890349Y-25236484D02*
X10871301Y-25265055D01*
X10871301Y-25265055D02*
X10852253Y-25284103D01*
X10852253Y-25284103D02*
X10833206Y-25293627D01*
X11185587Y-25436484D02*
X11185587Y-25236484D01*
X11271301Y-25436484D02*
X11271301Y-25331722D01*
X11271301Y-25331722D02*
X11261777Y-25312674D01*
X11261777Y-25312674D02*
X11242730Y-25303150D01*
X11242730Y-25303150D02*
X11214158Y-25303150D01*
X11214158Y-25303150D02*
X11195110Y-25312674D01*
X11195110Y-25312674D02*
X11185587Y-25322198D01*
X11395110Y-25436484D02*
X11376063Y-25426960D01*
X11376063Y-25426960D02*
X11366539Y-25417436D01*
X11366539Y-25417436D02*
X11357015Y-25398388D01*
X11357015Y-25398388D02*
X11357015Y-25341246D01*
X11357015Y-25341246D02*
X11366539Y-25322198D01*
X11366539Y-25322198D02*
X11376063Y-25312674D01*
X11376063Y-25312674D02*
X11395110Y-25303150D01*
X11395110Y-25303150D02*
X11423682Y-25303150D01*
X11423682Y-25303150D02*
X11442730Y-25312674D01*
X11442730Y-25312674D02*
X11452253Y-25322198D01*
X11452253Y-25322198D02*
X11461777Y-25341246D01*
X11461777Y-25341246D02*
X11461777Y-25398388D01*
X11461777Y-25398388D02*
X11452253Y-25417436D01*
X11452253Y-25417436D02*
X11442730Y-25426960D01*
X11442730Y-25426960D02*
X11423682Y-25436484D01*
X11423682Y-25436484D02*
X11395110Y-25436484D01*
X11576063Y-25436484D02*
X11557015Y-25426960D01*
X11557015Y-25426960D02*
X11547491Y-25407912D01*
X11547491Y-25407912D02*
X11547491Y-25236484D01*
X11728444Y-25426960D02*
X11709396Y-25436484D01*
X11709396Y-25436484D02*
X11671301Y-25436484D01*
X11671301Y-25436484D02*
X11652253Y-25426960D01*
X11652253Y-25426960D02*
X11642730Y-25407912D01*
X11642730Y-25407912D02*
X11642730Y-25331722D01*
X11642730Y-25331722D02*
X11652253Y-25312674D01*
X11652253Y-25312674D02*
X11671301Y-25303150D01*
X11671301Y-25303150D02*
X11709396Y-25303150D01*
X11709396Y-25303150D02*
X11728444Y-25312674D01*
X11728444Y-25312674D02*
X11737968Y-25331722D01*
X11737968Y-25331722D02*
X11737968Y-25350769D01*
X11737968Y-25350769D02*
X11642730Y-25369817D01*
X11814158Y-25426960D02*
X11833206Y-25436484D01*
X11833206Y-25436484D02*
X11871301Y-25436484D01*
X11871301Y-25436484D02*
X11890349Y-25426960D01*
X11890349Y-25426960D02*
X11899872Y-25407912D01*
X11899872Y-25407912D02*
X11899872Y-25398388D01*
X11899872Y-25398388D02*
X11890349Y-25379341D01*
X11890349Y-25379341D02*
X11871301Y-25369817D01*
X11871301Y-25369817D02*
X11842730Y-25369817D01*
X11842730Y-25369817D02*
X11823682Y-25360293D01*
X11823682Y-25360293D02*
X11814158Y-25341246D01*
X11814158Y-25341246D02*
X11814158Y-25331722D01*
X11814158Y-25331722D02*
X11823682Y-25312674D01*
X11823682Y-25312674D02*
X11842730Y-25303150D01*
X11842730Y-25303150D02*
X11871301Y-25303150D01*
X11871301Y-25303150D02*
X11890349Y-25312674D01*
X11966539Y-25512674D02*
X11976063Y-25503150D01*
X11976063Y-25503150D02*
X11995111Y-25474579D01*
X11995111Y-25474579D02*
X12004634Y-25455531D01*
X12004634Y-25455531D02*
X12014158Y-25426960D01*
X12014158Y-25426960D02*
X12023682Y-25379341D01*
X12023682Y-25379341D02*
X12023682Y-25341246D01*
X12023682Y-25341246D02*
X12014158Y-25293627D01*
X12014158Y-25293627D02*
X12004634Y-25265055D01*
X12004634Y-25265055D02*
X11995111Y-25246008D01*
X11995111Y-25246008D02*
X11976063Y-25217436D01*
X11976063Y-25217436D02*
X11966539Y-25207912D01*
D13*
X6931000Y-25539000D02*
X6931000Y-25679000D01*
X6861000Y-25609000D02*
X7001000Y-25609000D01*
D11*
X7366539Y-25700484D02*
X7252253Y-25700484D01*
X7309396Y-25700484D02*
X7309396Y-25500484D01*
X7309396Y-25500484D02*
X7290348Y-25529055D01*
X7290348Y-25529055D02*
X7271301Y-25548103D01*
X7271301Y-25548103D02*
X7252253Y-25557627D01*
X7452253Y-25681436D02*
X7461777Y-25690960D01*
X7461777Y-25690960D02*
X7452253Y-25700484D01*
X7452253Y-25700484D02*
X7442729Y-25690960D01*
X7442729Y-25690960D02*
X7452253Y-25681436D01*
X7452253Y-25681436D02*
X7452253Y-25700484D01*
X7633205Y-25567150D02*
X7633205Y-25700484D01*
X7585586Y-25490960D02*
X7537967Y-25633817D01*
X7537967Y-25633817D02*
X7661777Y-25633817D01*
X7776062Y-25500484D02*
X7795110Y-25500484D01*
X7795110Y-25500484D02*
X7814158Y-25510008D01*
X7814158Y-25510008D02*
X7823682Y-25519531D01*
X7823682Y-25519531D02*
X7833205Y-25538579D01*
X7833205Y-25538579D02*
X7842729Y-25576674D01*
X7842729Y-25576674D02*
X7842729Y-25624293D01*
X7842729Y-25624293D02*
X7833205Y-25662388D01*
X7833205Y-25662388D02*
X7823682Y-25681436D01*
X7823682Y-25681436D02*
X7814158Y-25690960D01*
X7814158Y-25690960D02*
X7795110Y-25700484D01*
X7795110Y-25700484D02*
X7776062Y-25700484D01*
X7776062Y-25700484D02*
X7757015Y-25690960D01*
X7757015Y-25690960D02*
X7747491Y-25681436D01*
X7747491Y-25681436D02*
X7737967Y-25662388D01*
X7737967Y-25662388D02*
X7728443Y-25624293D01*
X7728443Y-25624293D02*
X7728443Y-25576674D01*
X7728443Y-25576674D02*
X7737967Y-25538579D01*
X7737967Y-25538579D02*
X7747491Y-25519531D01*
X7747491Y-25519531D02*
X7757015Y-25510008D01*
X7757015Y-25510008D02*
X7776062Y-25500484D01*
X7966539Y-25500484D02*
X7985586Y-25500484D01*
X7985586Y-25500484D02*
X8004634Y-25510008D01*
X8004634Y-25510008D02*
X8014158Y-25519531D01*
X8014158Y-25519531D02*
X8023682Y-25538579D01*
X8023682Y-25538579D02*
X8033205Y-25576674D01*
X8033205Y-25576674D02*
X8033205Y-25624293D01*
X8033205Y-25624293D02*
X8023682Y-25662388D01*
X8023682Y-25662388D02*
X8014158Y-25681436D01*
X8014158Y-25681436D02*
X8004634Y-25690960D01*
X8004634Y-25690960D02*
X7985586Y-25700484D01*
X7985586Y-25700484D02*
X7966539Y-25700484D01*
X7966539Y-25700484D02*
X7947491Y-25690960D01*
X7947491Y-25690960D02*
X7937967Y-25681436D01*
X7937967Y-25681436D02*
X7928443Y-25662388D01*
X7928443Y-25662388D02*
X7918920Y-25624293D01*
X7918920Y-25624293D02*
X7918920Y-25576674D01*
X7918920Y-25576674D02*
X7928443Y-25538579D01*
X7928443Y-25538579D02*
X7937967Y-25519531D01*
X7937967Y-25519531D02*
X7947491Y-25510008D01*
X7947491Y-25510008D02*
X7966539Y-25500484D01*
X8118920Y-25700484D02*
X8118920Y-25567150D01*
X8118920Y-25586198D02*
X8128443Y-25576674D01*
X8128443Y-25576674D02*
X8147491Y-25567150D01*
X8147491Y-25567150D02*
X8176063Y-25567150D01*
X8176063Y-25567150D02*
X8195110Y-25576674D01*
X8195110Y-25576674D02*
X8204634Y-25595722D01*
X8204634Y-25595722D02*
X8204634Y-25700484D01*
X8204634Y-25595722D02*
X8214158Y-25576674D01*
X8214158Y-25576674D02*
X8233205Y-25567150D01*
X8233205Y-25567150D02*
X8261777Y-25567150D01*
X8261777Y-25567150D02*
X8280824Y-25576674D01*
X8280824Y-25576674D02*
X8290348Y-25595722D01*
X8290348Y-25595722D02*
X8290348Y-25700484D01*
X8385586Y-25700484D02*
X8385586Y-25567150D01*
X8385586Y-25586198D02*
X8395110Y-25576674D01*
X8395110Y-25576674D02*
X8414158Y-25567150D01*
X8414158Y-25567150D02*
X8442729Y-25567150D01*
X8442729Y-25567150D02*
X8461777Y-25576674D01*
X8461777Y-25576674D02*
X8471301Y-25595722D01*
X8471301Y-25595722D02*
X8471301Y-25700484D01*
X8471301Y-25595722D02*
X8480825Y-25576674D01*
X8480825Y-25576674D02*
X8499872Y-25567150D01*
X8499872Y-25567150D02*
X8528444Y-25567150D01*
X8528444Y-25567150D02*
X8547491Y-25576674D01*
X8547491Y-25576674D02*
X8557015Y-25595722D01*
X8557015Y-25595722D02*
X8557015Y-25700484D01*
X8947491Y-25490960D02*
X8776063Y-25748103D01*
X9204634Y-25500484D02*
X9223682Y-25500484D01*
X9223682Y-25500484D02*
X9242729Y-25510008D01*
X9242729Y-25510008D02*
X9252253Y-25519531D01*
X9252253Y-25519531D02*
X9261777Y-25538579D01*
X9261777Y-25538579D02*
X9271301Y-25576674D01*
X9271301Y-25576674D02*
X9271301Y-25624293D01*
X9271301Y-25624293D02*
X9261777Y-25662388D01*
X9261777Y-25662388D02*
X9252253Y-25681436D01*
X9252253Y-25681436D02*
X9242729Y-25690960D01*
X9242729Y-25690960D02*
X9223682Y-25700484D01*
X9223682Y-25700484D02*
X9204634Y-25700484D01*
X9204634Y-25700484D02*
X9185587Y-25690960D01*
X9185587Y-25690960D02*
X9176063Y-25681436D01*
X9176063Y-25681436D02*
X9166539Y-25662388D01*
X9166539Y-25662388D02*
X9157015Y-25624293D01*
X9157015Y-25624293D02*
X9157015Y-25576674D01*
X9157015Y-25576674D02*
X9166539Y-25538579D01*
X9166539Y-25538579D02*
X9176063Y-25519531D01*
X9176063Y-25519531D02*
X9185587Y-25510008D01*
X9185587Y-25510008D02*
X9204634Y-25500484D01*
X9357015Y-25681436D02*
X9366539Y-25690960D01*
X9366539Y-25690960D02*
X9357015Y-25700484D01*
X9357015Y-25700484D02*
X9347491Y-25690960D01*
X9347491Y-25690960D02*
X9357015Y-25681436D01*
X9357015Y-25681436D02*
X9357015Y-25700484D01*
X9490348Y-25500484D02*
X9509396Y-25500484D01*
X9509396Y-25500484D02*
X9528444Y-25510008D01*
X9528444Y-25510008D02*
X9537968Y-25519531D01*
X9537968Y-25519531D02*
X9547491Y-25538579D01*
X9547491Y-25538579D02*
X9557015Y-25576674D01*
X9557015Y-25576674D02*
X9557015Y-25624293D01*
X9557015Y-25624293D02*
X9547491Y-25662388D01*
X9547491Y-25662388D02*
X9537968Y-25681436D01*
X9537968Y-25681436D02*
X9528444Y-25690960D01*
X9528444Y-25690960D02*
X9509396Y-25700484D01*
X9509396Y-25700484D02*
X9490348Y-25700484D01*
X9490348Y-25700484D02*
X9471301Y-25690960D01*
X9471301Y-25690960D02*
X9461777Y-25681436D01*
X9461777Y-25681436D02*
X9452253Y-25662388D01*
X9452253Y-25662388D02*
X9442729Y-25624293D01*
X9442729Y-25624293D02*
X9442729Y-25576674D01*
X9442729Y-25576674D02*
X9452253Y-25538579D01*
X9452253Y-25538579D02*
X9461777Y-25519531D01*
X9461777Y-25519531D02*
X9471301Y-25510008D01*
X9471301Y-25510008D02*
X9490348Y-25500484D01*
X9737968Y-25500484D02*
X9642729Y-25500484D01*
X9642729Y-25500484D02*
X9633206Y-25595722D01*
X9633206Y-25595722D02*
X9642729Y-25586198D01*
X9642729Y-25586198D02*
X9661777Y-25576674D01*
X9661777Y-25576674D02*
X9709396Y-25576674D01*
X9709396Y-25576674D02*
X9728444Y-25586198D01*
X9728444Y-25586198D02*
X9737968Y-25595722D01*
X9737968Y-25595722D02*
X9747491Y-25614769D01*
X9747491Y-25614769D02*
X9747491Y-25662388D01*
X9747491Y-25662388D02*
X9737968Y-25681436D01*
X9737968Y-25681436D02*
X9728444Y-25690960D01*
X9728444Y-25690960D02*
X9709396Y-25700484D01*
X9709396Y-25700484D02*
X9661777Y-25700484D01*
X9661777Y-25700484D02*
X9642729Y-25690960D01*
X9642729Y-25690960D02*
X9633206Y-25681436D01*
X9928444Y-25500484D02*
X9833206Y-25500484D01*
X9833206Y-25500484D02*
X9823682Y-25595722D01*
X9823682Y-25595722D02*
X9833206Y-25586198D01*
X9833206Y-25586198D02*
X9852253Y-25576674D01*
X9852253Y-25576674D02*
X9899872Y-25576674D01*
X9899872Y-25576674D02*
X9918920Y-25586198D01*
X9918920Y-25586198D02*
X9928444Y-25595722D01*
X9928444Y-25595722D02*
X9937968Y-25614769D01*
X9937968Y-25614769D02*
X9937968Y-25662388D01*
X9937968Y-25662388D02*
X9928444Y-25681436D01*
X9928444Y-25681436D02*
X9918920Y-25690960D01*
X9918920Y-25690960D02*
X9899872Y-25700484D01*
X9899872Y-25700484D02*
X9852253Y-25700484D01*
X9852253Y-25700484D02*
X9833206Y-25690960D01*
X9833206Y-25690960D02*
X9823682Y-25681436D01*
X10128444Y-25700484D02*
X10014158Y-25700484D01*
X10071301Y-25700484D02*
X10071301Y-25500484D01*
X10071301Y-25500484D02*
X10052253Y-25529055D01*
X10052253Y-25529055D02*
X10033206Y-25548103D01*
X10033206Y-25548103D02*
X10014158Y-25557627D01*
X10204634Y-25500484D02*
X10204634Y-25538579D01*
X10280825Y-25500484D02*
X10280825Y-25538579D01*
X10576063Y-25776674D02*
X10566539Y-25767150D01*
X10566539Y-25767150D02*
X10547491Y-25738579D01*
X10547491Y-25738579D02*
X10537968Y-25719531D01*
X10537968Y-25719531D02*
X10528444Y-25690960D01*
X10528444Y-25690960D02*
X10518920Y-25643341D01*
X10518920Y-25643341D02*
X10518920Y-25605246D01*
X10518920Y-25605246D02*
X10528444Y-25557627D01*
X10528444Y-25557627D02*
X10537968Y-25529055D01*
X10537968Y-25529055D02*
X10547491Y-25510008D01*
X10547491Y-25510008D02*
X10566539Y-25481436D01*
X10566539Y-25481436D02*
X10576063Y-25471912D01*
X10642730Y-25519531D02*
X10652253Y-25510008D01*
X10652253Y-25510008D02*
X10671301Y-25500484D01*
X10671301Y-25500484D02*
X10718920Y-25500484D01*
X10718920Y-25500484D02*
X10737968Y-25510008D01*
X10737968Y-25510008D02*
X10747491Y-25519531D01*
X10747491Y-25519531D02*
X10757015Y-25538579D01*
X10757015Y-25538579D02*
X10757015Y-25557627D01*
X10757015Y-25557627D02*
X10747491Y-25586198D01*
X10747491Y-25586198D02*
X10633206Y-25700484D01*
X10633206Y-25700484D02*
X10757015Y-25700484D01*
X10995111Y-25700484D02*
X10995111Y-25500484D01*
X11080825Y-25700484D02*
X11080825Y-25595722D01*
X11080825Y-25595722D02*
X11071301Y-25576674D01*
X11071301Y-25576674D02*
X11052253Y-25567150D01*
X11052253Y-25567150D02*
X11023682Y-25567150D01*
X11023682Y-25567150D02*
X11004634Y-25576674D01*
X11004634Y-25576674D02*
X10995111Y-25586198D01*
X11204634Y-25700484D02*
X11185587Y-25690960D01*
X11185587Y-25690960D02*
X11176063Y-25681436D01*
X11176063Y-25681436D02*
X11166539Y-25662388D01*
X11166539Y-25662388D02*
X11166539Y-25605246D01*
X11166539Y-25605246D02*
X11176063Y-25586198D01*
X11176063Y-25586198D02*
X11185587Y-25576674D01*
X11185587Y-25576674D02*
X11204634Y-25567150D01*
X11204634Y-25567150D02*
X11233206Y-25567150D01*
X11233206Y-25567150D02*
X11252253Y-25576674D01*
X11252253Y-25576674D02*
X11261777Y-25586198D01*
X11261777Y-25586198D02*
X11271301Y-25605246D01*
X11271301Y-25605246D02*
X11271301Y-25662388D01*
X11271301Y-25662388D02*
X11261777Y-25681436D01*
X11261777Y-25681436D02*
X11252253Y-25690960D01*
X11252253Y-25690960D02*
X11233206Y-25700484D01*
X11233206Y-25700484D02*
X11204634Y-25700484D01*
X11385587Y-25700484D02*
X11366539Y-25690960D01*
X11366539Y-25690960D02*
X11357015Y-25671912D01*
X11357015Y-25671912D02*
X11357015Y-25500484D01*
X11537968Y-25690960D02*
X11518920Y-25700484D01*
X11518920Y-25700484D02*
X11480825Y-25700484D01*
X11480825Y-25700484D02*
X11461777Y-25690960D01*
X11461777Y-25690960D02*
X11452253Y-25671912D01*
X11452253Y-25671912D02*
X11452253Y-25595722D01*
X11452253Y-25595722D02*
X11461777Y-25576674D01*
X11461777Y-25576674D02*
X11480825Y-25567150D01*
X11480825Y-25567150D02*
X11518920Y-25567150D01*
X11518920Y-25567150D02*
X11537968Y-25576674D01*
X11537968Y-25576674D02*
X11547491Y-25595722D01*
X11547491Y-25595722D02*
X11547491Y-25614769D01*
X11547491Y-25614769D02*
X11452253Y-25633817D01*
X11623682Y-25690960D02*
X11642730Y-25700484D01*
X11642730Y-25700484D02*
X11680825Y-25700484D01*
X11680825Y-25700484D02*
X11699872Y-25690960D01*
X11699872Y-25690960D02*
X11709396Y-25671912D01*
X11709396Y-25671912D02*
X11709396Y-25662388D01*
X11709396Y-25662388D02*
X11699872Y-25643341D01*
X11699872Y-25643341D02*
X11680825Y-25633817D01*
X11680825Y-25633817D02*
X11652253Y-25633817D01*
X11652253Y-25633817D02*
X11633206Y-25624293D01*
X11633206Y-25624293D02*
X11623682Y-25605246D01*
X11623682Y-25605246D02*
X11623682Y-25595722D01*
X11623682Y-25595722D02*
X11633206Y-25576674D01*
X11633206Y-25576674D02*
X11652253Y-25567150D01*
X11652253Y-25567150D02*
X11680825Y-25567150D01*
X11680825Y-25567150D02*
X11699872Y-25576674D01*
X11776063Y-25776674D02*
X11785587Y-25767150D01*
X11785587Y-25767150D02*
X11804634Y-25738579D01*
X11804634Y-25738579D02*
X11814158Y-25719531D01*
X11814158Y-25719531D02*
X11823682Y-25690960D01*
X11823682Y-25690960D02*
X11833206Y-25643341D01*
X11833206Y-25643341D02*
X11833206Y-25605246D01*
X11833206Y-25605246D02*
X11823682Y-25557627D01*
X11823682Y-25557627D02*
X11814158Y-25529055D01*
X11814158Y-25529055D02*
X11804634Y-25510008D01*
X11804634Y-25510008D02*
X11785587Y-25481436D01*
X11785587Y-25481436D02*
X11776063Y-25471912D01*
D14*
X6976105Y-25933105D02*
X6976105Y-25812895D01*
X6855895Y-25812895D01*
X6855895Y-25933105D01*
X6976105Y-25933105D01*
D11*
X7366539Y-25964484D02*
X7252253Y-25964484D01*
X7309396Y-25964484D02*
X7309396Y-25764484D01*
X7309396Y-25764484D02*
X7290348Y-25793055D01*
X7290348Y-25793055D02*
X7271301Y-25812103D01*
X7271301Y-25812103D02*
X7252253Y-25821627D01*
X7452253Y-25945436D02*
X7461777Y-25954960D01*
X7461777Y-25954960D02*
X7452253Y-25964484D01*
X7452253Y-25964484D02*
X7442729Y-25954960D01*
X7442729Y-25954960D02*
X7452253Y-25945436D01*
X7452253Y-25945436D02*
X7452253Y-25964484D01*
X7528443Y-25764484D02*
X7661777Y-25764484D01*
X7661777Y-25764484D02*
X7576062Y-25964484D01*
X7776062Y-25764484D02*
X7795110Y-25764484D01*
X7795110Y-25764484D02*
X7814158Y-25774008D01*
X7814158Y-25774008D02*
X7823682Y-25783531D01*
X7823682Y-25783531D02*
X7833205Y-25802579D01*
X7833205Y-25802579D02*
X7842729Y-25840674D01*
X7842729Y-25840674D02*
X7842729Y-25888293D01*
X7842729Y-25888293D02*
X7833205Y-25926388D01*
X7833205Y-25926388D02*
X7823682Y-25945436D01*
X7823682Y-25945436D02*
X7814158Y-25954960D01*
X7814158Y-25954960D02*
X7795110Y-25964484D01*
X7795110Y-25964484D02*
X7776062Y-25964484D01*
X7776062Y-25964484D02*
X7757015Y-25954960D01*
X7757015Y-25954960D02*
X7747491Y-25945436D01*
X7747491Y-25945436D02*
X7737967Y-25926388D01*
X7737967Y-25926388D02*
X7728443Y-25888293D01*
X7728443Y-25888293D02*
X7728443Y-25840674D01*
X7728443Y-25840674D02*
X7737967Y-25802579D01*
X7737967Y-25802579D02*
X7747491Y-25783531D01*
X7747491Y-25783531D02*
X7757015Y-25774008D01*
X7757015Y-25774008D02*
X7776062Y-25764484D01*
X7966539Y-25764484D02*
X7985586Y-25764484D01*
X7985586Y-25764484D02*
X8004634Y-25774008D01*
X8004634Y-25774008D02*
X8014158Y-25783531D01*
X8014158Y-25783531D02*
X8023682Y-25802579D01*
X8023682Y-25802579D02*
X8033205Y-25840674D01*
X8033205Y-25840674D02*
X8033205Y-25888293D01*
X8033205Y-25888293D02*
X8023682Y-25926388D01*
X8023682Y-25926388D02*
X8014158Y-25945436D01*
X8014158Y-25945436D02*
X8004634Y-25954960D01*
X8004634Y-25954960D02*
X7985586Y-25964484D01*
X7985586Y-25964484D02*
X7966539Y-25964484D01*
X7966539Y-25964484D02*
X7947491Y-25954960D01*
X7947491Y-25954960D02*
X7937967Y-25945436D01*
X7937967Y-25945436D02*
X7928443Y-25926388D01*
X7928443Y-25926388D02*
X7918920Y-25888293D01*
X7918920Y-25888293D02*
X7918920Y-25840674D01*
X7918920Y-25840674D02*
X7928443Y-25802579D01*
X7928443Y-25802579D02*
X7937967Y-25783531D01*
X7937967Y-25783531D02*
X7947491Y-25774008D01*
X7947491Y-25774008D02*
X7966539Y-25764484D01*
X8118920Y-25964484D02*
X8118920Y-25831150D01*
X8118920Y-25850198D02*
X8128443Y-25840674D01*
X8128443Y-25840674D02*
X8147491Y-25831150D01*
X8147491Y-25831150D02*
X8176063Y-25831150D01*
X8176063Y-25831150D02*
X8195110Y-25840674D01*
X8195110Y-25840674D02*
X8204634Y-25859722D01*
X8204634Y-25859722D02*
X8204634Y-25964484D01*
X8204634Y-25859722D02*
X8214158Y-25840674D01*
X8214158Y-25840674D02*
X8233205Y-25831150D01*
X8233205Y-25831150D02*
X8261777Y-25831150D01*
X8261777Y-25831150D02*
X8280824Y-25840674D01*
X8280824Y-25840674D02*
X8290348Y-25859722D01*
X8290348Y-25859722D02*
X8290348Y-25964484D01*
X8385586Y-25964484D02*
X8385586Y-25831150D01*
X8385586Y-25850198D02*
X8395110Y-25840674D01*
X8395110Y-25840674D02*
X8414158Y-25831150D01*
X8414158Y-25831150D02*
X8442729Y-25831150D01*
X8442729Y-25831150D02*
X8461777Y-25840674D01*
X8461777Y-25840674D02*
X8471301Y-25859722D01*
X8471301Y-25859722D02*
X8471301Y-25964484D01*
X8471301Y-25859722D02*
X8480825Y-25840674D01*
X8480825Y-25840674D02*
X8499872Y-25831150D01*
X8499872Y-25831150D02*
X8528444Y-25831150D01*
X8528444Y-25831150D02*
X8547491Y-25840674D01*
X8547491Y-25840674D02*
X8557015Y-25859722D01*
X8557015Y-25859722D02*
X8557015Y-25964484D01*
X8947491Y-25754960D02*
X8776063Y-26012103D01*
X9204634Y-25764484D02*
X9223682Y-25764484D01*
X9223682Y-25764484D02*
X9242729Y-25774008D01*
X9242729Y-25774008D02*
X9252253Y-25783531D01*
X9252253Y-25783531D02*
X9261777Y-25802579D01*
X9261777Y-25802579D02*
X9271301Y-25840674D01*
X9271301Y-25840674D02*
X9271301Y-25888293D01*
X9271301Y-25888293D02*
X9261777Y-25926388D01*
X9261777Y-25926388D02*
X9252253Y-25945436D01*
X9252253Y-25945436D02*
X9242729Y-25954960D01*
X9242729Y-25954960D02*
X9223682Y-25964484D01*
X9223682Y-25964484D02*
X9204634Y-25964484D01*
X9204634Y-25964484D02*
X9185587Y-25954960D01*
X9185587Y-25954960D02*
X9176063Y-25945436D01*
X9176063Y-25945436D02*
X9166539Y-25926388D01*
X9166539Y-25926388D02*
X9157015Y-25888293D01*
X9157015Y-25888293D02*
X9157015Y-25840674D01*
X9157015Y-25840674D02*
X9166539Y-25802579D01*
X9166539Y-25802579D02*
X9176063Y-25783531D01*
X9176063Y-25783531D02*
X9185587Y-25774008D01*
X9185587Y-25774008D02*
X9204634Y-25764484D01*
X9357015Y-25945436D02*
X9366539Y-25954960D01*
X9366539Y-25954960D02*
X9357015Y-25964484D01*
X9357015Y-25964484D02*
X9347491Y-25954960D01*
X9347491Y-25954960D02*
X9357015Y-25945436D01*
X9357015Y-25945436D02*
X9357015Y-25964484D01*
X9490348Y-25764484D02*
X9509396Y-25764484D01*
X9509396Y-25764484D02*
X9528444Y-25774008D01*
X9528444Y-25774008D02*
X9537968Y-25783531D01*
X9537968Y-25783531D02*
X9547491Y-25802579D01*
X9547491Y-25802579D02*
X9557015Y-25840674D01*
X9557015Y-25840674D02*
X9557015Y-25888293D01*
X9557015Y-25888293D02*
X9547491Y-25926388D01*
X9547491Y-25926388D02*
X9537968Y-25945436D01*
X9537968Y-25945436D02*
X9528444Y-25954960D01*
X9528444Y-25954960D02*
X9509396Y-25964484D01*
X9509396Y-25964484D02*
X9490348Y-25964484D01*
X9490348Y-25964484D02*
X9471301Y-25954960D01*
X9471301Y-25954960D02*
X9461777Y-25945436D01*
X9461777Y-25945436D02*
X9452253Y-25926388D01*
X9452253Y-25926388D02*
X9442729Y-25888293D01*
X9442729Y-25888293D02*
X9442729Y-25840674D01*
X9442729Y-25840674D02*
X9452253Y-25802579D01*
X9452253Y-25802579D02*
X9461777Y-25783531D01*
X9461777Y-25783531D02*
X9471301Y-25774008D01*
X9471301Y-25774008D02*
X9490348Y-25764484D01*
X9728444Y-25764484D02*
X9690348Y-25764484D01*
X9690348Y-25764484D02*
X9671301Y-25774008D01*
X9671301Y-25774008D02*
X9661777Y-25783531D01*
X9661777Y-25783531D02*
X9642729Y-25812103D01*
X9642729Y-25812103D02*
X9633206Y-25850198D01*
X9633206Y-25850198D02*
X9633206Y-25926388D01*
X9633206Y-25926388D02*
X9642729Y-25945436D01*
X9642729Y-25945436D02*
X9652253Y-25954960D01*
X9652253Y-25954960D02*
X9671301Y-25964484D01*
X9671301Y-25964484D02*
X9709396Y-25964484D01*
X9709396Y-25964484D02*
X9728444Y-25954960D01*
X9728444Y-25954960D02*
X9737968Y-25945436D01*
X9737968Y-25945436D02*
X9747491Y-25926388D01*
X9747491Y-25926388D02*
X9747491Y-25878769D01*
X9747491Y-25878769D02*
X9737968Y-25859722D01*
X9737968Y-25859722D02*
X9728444Y-25850198D01*
X9728444Y-25850198D02*
X9709396Y-25840674D01*
X9709396Y-25840674D02*
X9671301Y-25840674D01*
X9671301Y-25840674D02*
X9652253Y-25850198D01*
X9652253Y-25850198D02*
X9642729Y-25859722D01*
X9642729Y-25859722D02*
X9633206Y-25878769D01*
X9918920Y-25764484D02*
X9880825Y-25764484D01*
X9880825Y-25764484D02*
X9861777Y-25774008D01*
X9861777Y-25774008D02*
X9852253Y-25783531D01*
X9852253Y-25783531D02*
X9833206Y-25812103D01*
X9833206Y-25812103D02*
X9823682Y-25850198D01*
X9823682Y-25850198D02*
X9823682Y-25926388D01*
X9823682Y-25926388D02*
X9833206Y-25945436D01*
X9833206Y-25945436D02*
X9842729Y-25954960D01*
X9842729Y-25954960D02*
X9861777Y-25964484D01*
X9861777Y-25964484D02*
X9899872Y-25964484D01*
X9899872Y-25964484D02*
X9918920Y-25954960D01*
X9918920Y-25954960D02*
X9928444Y-25945436D01*
X9928444Y-25945436D02*
X9937968Y-25926388D01*
X9937968Y-25926388D02*
X9937968Y-25878769D01*
X9937968Y-25878769D02*
X9928444Y-25859722D01*
X9928444Y-25859722D02*
X9918920Y-25850198D01*
X9918920Y-25850198D02*
X9899872Y-25840674D01*
X9899872Y-25840674D02*
X9861777Y-25840674D01*
X9861777Y-25840674D02*
X9842729Y-25850198D01*
X9842729Y-25850198D02*
X9833206Y-25859722D01*
X9833206Y-25859722D02*
X9823682Y-25878769D01*
X10033206Y-25964484D02*
X10071301Y-25964484D01*
X10071301Y-25964484D02*
X10090349Y-25954960D01*
X10090349Y-25954960D02*
X10099872Y-25945436D01*
X10099872Y-25945436D02*
X10118920Y-25916865D01*
X10118920Y-25916865D02*
X10128444Y-25878769D01*
X10128444Y-25878769D02*
X10128444Y-25802579D01*
X10128444Y-25802579D02*
X10118920Y-25783531D01*
X10118920Y-25783531D02*
X10109396Y-25774008D01*
X10109396Y-25774008D02*
X10090349Y-25764484D01*
X10090349Y-25764484D02*
X10052253Y-25764484D01*
X10052253Y-25764484D02*
X10033206Y-25774008D01*
X10033206Y-25774008D02*
X10023682Y-25783531D01*
X10023682Y-25783531D02*
X10014158Y-25802579D01*
X10014158Y-25802579D02*
X10014158Y-25850198D01*
X10014158Y-25850198D02*
X10023682Y-25869246D01*
X10023682Y-25869246D02*
X10033206Y-25878769D01*
X10033206Y-25878769D02*
X10052253Y-25888293D01*
X10052253Y-25888293D02*
X10090349Y-25888293D01*
X10090349Y-25888293D02*
X10109396Y-25878769D01*
X10109396Y-25878769D02*
X10118920Y-25869246D01*
X10118920Y-25869246D02*
X10128444Y-25850198D01*
X10204634Y-25764484D02*
X10204634Y-25802579D01*
X10280825Y-25764484D02*
X10280825Y-25802579D01*
X10576063Y-26040674D02*
X10566539Y-26031150D01*
X10566539Y-26031150D02*
X10547491Y-26002579D01*
X10547491Y-26002579D02*
X10537968Y-25983531D01*
X10537968Y-25983531D02*
X10528444Y-25954960D01*
X10528444Y-25954960D02*
X10518920Y-25907341D01*
X10518920Y-25907341D02*
X10518920Y-25869246D01*
X10518920Y-25869246D02*
X10528444Y-25821627D01*
X10528444Y-25821627D02*
X10537968Y-25793055D01*
X10537968Y-25793055D02*
X10547491Y-25774008D01*
X10547491Y-25774008D02*
X10566539Y-25745436D01*
X10566539Y-25745436D02*
X10576063Y-25735912D01*
X10680825Y-25850198D02*
X10661777Y-25840674D01*
X10661777Y-25840674D02*
X10652253Y-25831150D01*
X10652253Y-25831150D02*
X10642730Y-25812103D01*
X10642730Y-25812103D02*
X10642730Y-25802579D01*
X10642730Y-25802579D02*
X10652253Y-25783531D01*
X10652253Y-25783531D02*
X10661777Y-25774008D01*
X10661777Y-25774008D02*
X10680825Y-25764484D01*
X10680825Y-25764484D02*
X10718920Y-25764484D01*
X10718920Y-25764484D02*
X10737968Y-25774008D01*
X10737968Y-25774008D02*
X10747491Y-25783531D01*
X10747491Y-25783531D02*
X10757015Y-25802579D01*
X10757015Y-25802579D02*
X10757015Y-25812103D01*
X10757015Y-25812103D02*
X10747491Y-25831150D01*
X10747491Y-25831150D02*
X10737968Y-25840674D01*
X10737968Y-25840674D02*
X10718920Y-25850198D01*
X10718920Y-25850198D02*
X10680825Y-25850198D01*
X10680825Y-25850198D02*
X10661777Y-25859722D01*
X10661777Y-25859722D02*
X10652253Y-25869246D01*
X10652253Y-25869246D02*
X10642730Y-25888293D01*
X10642730Y-25888293D02*
X10642730Y-25926388D01*
X10642730Y-25926388D02*
X10652253Y-25945436D01*
X10652253Y-25945436D02*
X10661777Y-25954960D01*
X10661777Y-25954960D02*
X10680825Y-25964484D01*
X10680825Y-25964484D02*
X10718920Y-25964484D01*
X10718920Y-25964484D02*
X10737968Y-25954960D01*
X10737968Y-25954960D02*
X10747491Y-25945436D01*
X10747491Y-25945436D02*
X10757015Y-25926388D01*
X10757015Y-25926388D02*
X10757015Y-25888293D01*
X10757015Y-25888293D02*
X10747491Y-25869246D01*
X10747491Y-25869246D02*
X10737968Y-25859722D01*
X10737968Y-25859722D02*
X10718920Y-25850198D01*
X10928444Y-25831150D02*
X10928444Y-25964484D01*
X10880825Y-25754960D02*
X10833206Y-25897817D01*
X10833206Y-25897817D02*
X10957015Y-25897817D01*
X11185587Y-25964484D02*
X11185587Y-25764484D01*
X11271301Y-25964484D02*
X11271301Y-25859722D01*
X11271301Y-25859722D02*
X11261777Y-25840674D01*
X11261777Y-25840674D02*
X11242730Y-25831150D01*
X11242730Y-25831150D02*
X11214158Y-25831150D01*
X11214158Y-25831150D02*
X11195110Y-25840674D01*
X11195110Y-25840674D02*
X11185587Y-25850198D01*
X11395110Y-25964484D02*
X11376063Y-25954960D01*
X11376063Y-25954960D02*
X11366539Y-25945436D01*
X11366539Y-25945436D02*
X11357015Y-25926388D01*
X11357015Y-25926388D02*
X11357015Y-25869246D01*
X11357015Y-25869246D02*
X11366539Y-25850198D01*
X11366539Y-25850198D02*
X11376063Y-25840674D01*
X11376063Y-25840674D02*
X11395110Y-25831150D01*
X11395110Y-25831150D02*
X11423682Y-25831150D01*
X11423682Y-25831150D02*
X11442730Y-25840674D01*
X11442730Y-25840674D02*
X11452253Y-25850198D01*
X11452253Y-25850198D02*
X11461777Y-25869246D01*
X11461777Y-25869246D02*
X11461777Y-25926388D01*
X11461777Y-25926388D02*
X11452253Y-25945436D01*
X11452253Y-25945436D02*
X11442730Y-25954960D01*
X11442730Y-25954960D02*
X11423682Y-25964484D01*
X11423682Y-25964484D02*
X11395110Y-25964484D01*
X11576063Y-25964484D02*
X11557015Y-25954960D01*
X11557015Y-25954960D02*
X11547491Y-25935912D01*
X11547491Y-25935912D02*
X11547491Y-25764484D01*
X11728444Y-25954960D02*
X11709396Y-25964484D01*
X11709396Y-25964484D02*
X11671301Y-25964484D01*
X11671301Y-25964484D02*
X11652253Y-25954960D01*
X11652253Y-25954960D02*
X11642730Y-25935912D01*
X11642730Y-25935912D02*
X11642730Y-25859722D01*
X11642730Y-25859722D02*
X11652253Y-25840674D01*
X11652253Y-25840674D02*
X11671301Y-25831150D01*
X11671301Y-25831150D02*
X11709396Y-25831150D01*
X11709396Y-25831150D02*
X11728444Y-25840674D01*
X11728444Y-25840674D02*
X11737968Y-25859722D01*
X11737968Y-25859722D02*
X11737968Y-25878769D01*
X11737968Y-25878769D02*
X11642730Y-25897817D01*
X11814158Y-25954960D02*
X11833206Y-25964484D01*
X11833206Y-25964484D02*
X11871301Y-25964484D01*
X11871301Y-25964484D02*
X11890349Y-25954960D01*
X11890349Y-25954960D02*
X11899872Y-25935912D01*
X11899872Y-25935912D02*
X11899872Y-25926388D01*
X11899872Y-25926388D02*
X11890349Y-25907341D01*
X11890349Y-25907341D02*
X11871301Y-25897817D01*
X11871301Y-25897817D02*
X11842730Y-25897817D01*
X11842730Y-25897817D02*
X11823682Y-25888293D01*
X11823682Y-25888293D02*
X11814158Y-25869246D01*
X11814158Y-25869246D02*
X11814158Y-25859722D01*
X11814158Y-25859722D02*
X11823682Y-25840674D01*
X11823682Y-25840674D02*
X11842730Y-25831150D01*
X11842730Y-25831150D02*
X11871301Y-25831150D01*
X11871301Y-25831150D02*
X11890349Y-25840674D01*
X11966539Y-26040674D02*
X11976063Y-26031150D01*
X11976063Y-26031150D02*
X11995111Y-26002579D01*
X11995111Y-26002579D02*
X12004634Y-25983531D01*
X12004634Y-25983531D02*
X12014158Y-25954960D01*
X12014158Y-25954960D02*
X12023682Y-25907341D01*
X12023682Y-25907341D02*
X12023682Y-25869246D01*
X12023682Y-25869246D02*
X12014158Y-25821627D01*
X12014158Y-25821627D02*
X12004634Y-25793055D01*
X12004634Y-25793055D02*
X11995111Y-25774008D01*
X11995111Y-25774008D02*
X11976063Y-25745436D01*
X11976063Y-25745436D02*
X11966539Y-25735912D01*
M02*
