%TF.GenerationSoftware,KiCad,Pcbnew,7.0.8*%
%TF.CreationDate,2025-10-10T12:25:51-07:00*%
%TF.ProjectId,HV_Safety_Loop,48565f53-6166-4657-9479-5f4c6f6f702e,rev?*%
%TF.SameCoordinates,Original*%
%TF.FileFunction,Copper,L1,Top*%
%TF.FilePolarity,Positive*%
%FSLAX46Y46*%
G04 Gerber Fmt 4.6, Leading zero omitted, Abs format (unit mm)*
G04 Created by KiCad (PCBNEW 7.0.8) date 2025-10-10 12:25:51*
%MOMM*%
%LPD*%
G01*
G04 APERTURE LIST*
G04 Aperture macros list*
%AMRoundRect*
0 Rectangle with rounded corners*
0 $1 Rounding radius*
0 $2 $3 $4 $5 $6 $7 $8 $9 X,Y pos of 4 corners*
0 Add a 4 corners polygon primitive as box body*
4,1,4,$2,$3,$4,$5,$6,$7,$8,$9,$2,$3,0*
0 Add four circle primitives for the rounded corners*
1,1,$1+$1,$2,$3*
1,1,$1+$1,$4,$5*
1,1,$1+$1,$6,$7*
1,1,$1+$1,$8,$9*
0 Add four rect primitives between the rounded corners*
20,1,$1+$1,$2,$3,$4,$5,0*
20,1,$1+$1,$4,$5,$6,$7,0*
20,1,$1+$1,$6,$7,$8,$9,0*
20,1,$1+$1,$8,$9,$2,$3,0*%
G04 Aperture macros list end*
%TA.AperFunction,ComponentPad*%
%ADD10C,1.508000*%
%TD*%
%TA.AperFunction,ComponentPad*%
%ADD11C,2.240000*%
%TD*%
%TA.AperFunction,ComponentPad*%
%ADD12C,2.740000*%
%TD*%
%TA.AperFunction,ComponentPad*%
%ADD13R,1.700000X1.700000*%
%TD*%
%TA.AperFunction,ComponentPad*%
%ADD14O,1.700000X1.700000*%
%TD*%
%TA.AperFunction,SMDPad,CuDef*%
%ADD15RoundRect,0.250000X0.362500X1.425000X-0.362500X1.425000X-0.362500X-1.425000X0.362500X-1.425000X0*%
%TD*%
%TA.AperFunction,ComponentPad*%
%ADD16RoundRect,0.249999X-0.790001X-1.550001X0.790001X-1.550001X0.790001X1.550001X-0.790001X1.550001X0*%
%TD*%
%TA.AperFunction,ComponentPad*%
%ADD17O,2.080000X3.600000*%
%TD*%
%TA.AperFunction,Conductor*%
%ADD18C,0.250000*%
%TD*%
G04 APERTURE END LIST*
D10*
%TO.P,BS4,1*%
%TO.N,unconnected-(BS4-Pad1)*%
X252600000Y-206990000D03*
%TO.P,BS4,2*%
%TO.N,Net-(J10-In)*%
X252600000Y-209490000D03*
%TO.P,BS4,3*%
%TO.N,Net-(J10-Ext)*%
X252600000Y-211990000D03*
%TD*%
%TO.P,BS10,1*%
%TO.N,unconnected-(BS10-Pad1)*%
X312600000Y-206990000D03*
%TO.P,BS10,2*%
%TO.N,Net-(J15-Ext)*%
X312600000Y-209490000D03*
%TO.P,BS10,3*%
%TO.N,Net-(J16-Ext)*%
X312600000Y-211990000D03*
%TD*%
D11*
%TO.P,J26,1,In*%
%TO.N,Net-(J25-Ext)*%
X421000000Y-233010000D03*
D12*
%TO.P,J26,2,Ext*%
%TO.N,Net-(J1-Ext)*%
X418460000Y-235550000D03*
X423540000Y-235550000D03*
X418460000Y-230470000D03*
X423540000Y-230470000D03*
%TD*%
D11*
%TO.P,J16,1,In*%
%TO.N,Net-(J15-Ext)*%
X321000000Y-233010000D03*
D12*
%TO.P,J16,2,Ext*%
%TO.N,Net-(J16-Ext)*%
X318460000Y-230470000D03*
X318460000Y-235550000D03*
X323540000Y-230470000D03*
X323540000Y-235550000D03*
%TD*%
D10*
%TO.P,BS16,1*%
%TO.N,unconnected-(BS16-Pad1)*%
X368880000Y-207190000D03*
%TO.P,BS16,2*%
%TO.N,Net-(J21-Ext)*%
X368880000Y-209690000D03*
%TO.P,BS16,3*%
%TO.N,Net-(J22-Ext)*%
X368880000Y-212190000D03*
%TD*%
D11*
%TO.P,J17,1,In*%
%TO.N,Net-(J16-Ext)*%
X331000000Y-233010000D03*
D12*
%TO.P,J17,2,Ext*%
%TO.N,Net-(J17-Ext)*%
X328460000Y-230470000D03*
X328460000Y-235550000D03*
X333540000Y-230470000D03*
X333540000Y-235550000D03*
%TD*%
D11*
%TO.P,J24,1,In*%
%TO.N,Net-(J23-Ext)*%
X401000000Y-233010000D03*
D12*
%TO.P,J24,2,Ext*%
%TO.N,Net-(J24-Ext)*%
X398460000Y-230470000D03*
X398460000Y-235550000D03*
X403540000Y-230470000D03*
X403540000Y-235550000D03*
%TD*%
D10*
%TO.P,BS1,1*%
%TO.N,unconnected-(BS1-Pad1)*%
X222600000Y-206990000D03*
%TO.P,BS1,2*%
%TO.N,Net-(J5-Pin_1)*%
X222600000Y-209490000D03*
%TO.P,BS1,3*%
%TO.N,Net-(J7-Ext)*%
X222600000Y-211990000D03*
%TD*%
%TO.P,BS5,1*%
%TO.N,unconnected-(BS5-Pad1)*%
X262600000Y-206990000D03*
%TO.P,BS5,2*%
%TO.N,Net-(J10-Ext)*%
X262600000Y-209490000D03*
%TO.P,BS5,3*%
%TO.N,Net-(J11-Ext)*%
X262600000Y-211990000D03*
%TD*%
D13*
%TO.P,J5,1,Pin_1*%
%TO.N,Net-(J5-Pin_1)*%
X198405000Y-218750000D03*
D14*
%TO.P,J5,2,Pin_2*%
%TO.N,Net-(J2-Pin_1)*%
X200945000Y-218750000D03*
%TD*%
D10*
%TO.P,BS7,1*%
%TO.N,unconnected-(BS7-Pad1)*%
X282600000Y-206990000D03*
%TO.P,BS7,2*%
%TO.N,Net-(J12-Ext)*%
X282600000Y-209490000D03*
%TO.P,BS7,3*%
%TO.N,Net-(J13-Ext)*%
X282600000Y-211990000D03*
%TD*%
D11*
%TO.P,J25,1,In*%
%TO.N,Net-(J24-Ext)*%
X411000000Y-233010000D03*
D12*
%TO.P,J25,2,Ext*%
%TO.N,Net-(J25-Ext)*%
X408460000Y-230470000D03*
X408460000Y-235550000D03*
X413540000Y-230470000D03*
X413540000Y-235550000D03*
%TD*%
D10*
%TO.P,BS20,1*%
%TO.N,unconnected-(BS20-Pad1)*%
X406400000Y-207190000D03*
%TO.P,BS20,2*%
%TO.N,Net-(J25-Ext)*%
X406400000Y-209690000D03*
%TO.P,BS20,3*%
%TO.N,Net-(J1-Ext)*%
X406400000Y-212190000D03*
%TD*%
D11*
%TO.P,J11,1,In*%
%TO.N,Net-(J10-Ext)*%
X271000000Y-233010000D03*
D12*
%TO.P,J11,2,Ext*%
%TO.N,Net-(J11-Ext)*%
X273540000Y-235550000D03*
X273540000Y-230470000D03*
X268460000Y-235550000D03*
X268460000Y-230470000D03*
%TD*%
D10*
%TO.P,BS3,1*%
%TO.N,unconnected-(BS3-Pad1)*%
X242600000Y-206990000D03*
%TO.P,BS3,2*%
%TO.N,Net-(J8-Ext)*%
X242600000Y-209490000D03*
%TO.P,BS3,3*%
%TO.N,Net-(J10-In)*%
X242600000Y-211990000D03*
%TD*%
D11*
%TO.P,J9,1,In*%
%TO.N,Net-(J8-Ext)*%
X251060000Y-233010000D03*
D12*
%TO.P,J9,2,Ext*%
%TO.N,Net-(J10-In)*%
X253600000Y-235550000D03*
X253600000Y-230470000D03*
X248520000Y-235550000D03*
X248520000Y-230470000D03*
%TD*%
D11*
%TO.P,J12,1,In*%
%TO.N,Net-(J11-Ext)*%
X281000000Y-233010000D03*
D12*
%TO.P,J12,2,Ext*%
%TO.N,Net-(J12-Ext)*%
X283540000Y-235550000D03*
X283540000Y-230470000D03*
X278460000Y-235550000D03*
X278460000Y-230470000D03*
%TD*%
D10*
%TO.P,BS12,1*%
%TO.N,unconnected-(BS12-Pad1)*%
X331360000Y-207190000D03*
%TO.P,BS12,2*%
%TO.N,Net-(J17-Ext)*%
X331360000Y-209690000D03*
%TO.P,BS12,3*%
%TO.N,Net-(J18-Ext)*%
X331360000Y-212190000D03*
%TD*%
D11*
%TO.P,J1,1,In*%
%TO.N,Net-(J1-In)*%
X161680000Y-233010000D03*
D12*
%TO.P,J1,2,Ext*%
%TO.N,Net-(J1-Ext)*%
X164220000Y-235550000D03*
X164220000Y-230470000D03*
X159140000Y-235550000D03*
X159140000Y-230470000D03*
%TD*%
D10*
%TO.P,BS8,1*%
%TO.N,unconnected-(BS8-Pad1)*%
X292600000Y-206990000D03*
%TO.P,BS8,2*%
%TO.N,Net-(J13-Ext)*%
X292600000Y-209490000D03*
%TO.P,BS8,3*%
%TO.N,Net-(J14-Ext)*%
X292600000Y-211990000D03*
%TD*%
D15*
%TO.P,R1,1*%
%TO.N,Net-(J1-In)*%
X188982500Y-233000000D03*
%TO.P,R1,2*%
%TO.N,Net-(J2-Pin_1)*%
X183057500Y-233000000D03*
%TD*%
D11*
%TO.P,J18,1,In*%
%TO.N,Net-(J17-Ext)*%
X341000000Y-233010000D03*
D12*
%TO.P,J18,2,Ext*%
%TO.N,Net-(J18-Ext)*%
X338460000Y-230470000D03*
X338460000Y-235550000D03*
X343540000Y-230470000D03*
X343540000Y-235550000D03*
%TD*%
D10*
%TO.P,BS6,1*%
%TO.N,unconnected-(BS6-Pad1)*%
X272600000Y-206990000D03*
%TO.P,BS6,2*%
%TO.N,Net-(J11-Ext)*%
X272600000Y-209490000D03*
%TO.P,BS6,3*%
%TO.N,Net-(J12-Ext)*%
X272600000Y-211990000D03*
%TD*%
%TO.P,BS9,1*%
%TO.N,unconnected-(BS9-Pad1)*%
X302600000Y-206990000D03*
%TO.P,BS9,2*%
%TO.N,Net-(J14-Ext)*%
X302600000Y-209490000D03*
%TO.P,BS9,3*%
%TO.N,Net-(J15-Ext)*%
X302600000Y-211990000D03*
%TD*%
D16*
%TO.P,J6,1,Pin_1*%
%TO.N,Net-(J5-Pin_1)*%
X197390238Y-227159568D03*
D17*
%TO.P,J6,2,Pin_2*%
%TO.N,Net-(J2-Pin_1)*%
X202470238Y-227159568D03*
%TD*%
D11*
%TO.P,J19,1,In*%
%TO.N,Net-(J18-Ext)*%
X351000000Y-233010000D03*
D12*
%TO.P,J19,2,Ext*%
%TO.N,Net-(J19-Ext)*%
X348460000Y-230470000D03*
X348460000Y-235550000D03*
X353540000Y-230470000D03*
X353540000Y-235550000D03*
%TD*%
D11*
%TO.P,J7,1,In*%
%TO.N,Net-(J5-Pin_1)*%
X231000000Y-233010000D03*
D12*
%TO.P,J7,2,Ext*%
%TO.N,Net-(J7-Ext)*%
X233540000Y-235550000D03*
X233540000Y-230470000D03*
X228460000Y-235550000D03*
X228460000Y-230470000D03*
%TD*%
D13*
%TO.P,J2,1,Pin_1*%
%TO.N,Net-(J2-Pin_1)*%
X184825000Y-227270000D03*
D14*
%TO.P,J2,2,Pin_2*%
%TO.N,Net-(J1-In)*%
X187365000Y-227270000D03*
%TD*%
D10*
%TO.P,BS17,1*%
%TO.N,unconnected-(BS17-Pad1)*%
X378260000Y-207190000D03*
%TO.P,BS17,2*%
%TO.N,Net-(J22-Ext)*%
X378260000Y-209690000D03*
%TO.P,BS17,3*%
%TO.N,Net-(J23-Ext)*%
X378260000Y-212190000D03*
%TD*%
D11*
%TO.P,J15,1,In*%
%TO.N,Net-(J14-Ext)*%
X311000000Y-233010000D03*
D12*
%TO.P,J15,2,Ext*%
%TO.N,Net-(J15-Ext)*%
X313540000Y-235550000D03*
X313540000Y-230470000D03*
X308460000Y-235550000D03*
X308460000Y-230470000D03*
%TD*%
D11*
%TO.P,J20,1,In*%
%TO.N,Net-(J19-Ext)*%
X361000000Y-233010000D03*
D12*
%TO.P,J20,2,Ext*%
%TO.N,Net-(J20-Ext)*%
X358460000Y-230470000D03*
X358460000Y-235550000D03*
X363540000Y-230470000D03*
X363540000Y-235550000D03*
%TD*%
D11*
%TO.P,J14,1,In*%
%TO.N,Net-(J13-Ext)*%
X301000000Y-233010000D03*
D12*
%TO.P,J14,2,Ext*%
%TO.N,Net-(J14-Ext)*%
X303540000Y-235550000D03*
X303540000Y-230470000D03*
X298460000Y-235550000D03*
X298460000Y-230470000D03*
%TD*%
D10*
%TO.P,BS18,1*%
%TO.N,unconnected-(BS18-Pad1)*%
X387640000Y-207190000D03*
%TO.P,BS18,2*%
%TO.N,Net-(J23-Ext)*%
X387640000Y-209690000D03*
%TO.P,BS18,3*%
%TO.N,Net-(J24-Ext)*%
X387640000Y-212190000D03*
%TD*%
D11*
%TO.P,J13,1,In*%
%TO.N,Net-(J12-Ext)*%
X291000000Y-233010000D03*
D12*
%TO.P,J13,2,Ext*%
%TO.N,Net-(J13-Ext)*%
X293540000Y-235550000D03*
X293540000Y-230470000D03*
X288460000Y-235550000D03*
X288460000Y-230470000D03*
%TD*%
D11*
%TO.P,J21,1,In*%
%TO.N,Net-(J20-Ext)*%
X371000000Y-233010000D03*
D12*
%TO.P,J21,2,Ext*%
%TO.N,Net-(J21-Ext)*%
X368460000Y-230470000D03*
X368460000Y-235550000D03*
X373540000Y-230470000D03*
X373540000Y-235550000D03*
%TD*%
D11*
%TO.P,J10,1,In*%
%TO.N,Net-(J10-In)*%
X261000000Y-233010000D03*
D12*
%TO.P,J10,2,Ext*%
%TO.N,Net-(J10-Ext)*%
X263540000Y-235550000D03*
X263540000Y-230470000D03*
X258460000Y-235550000D03*
X258460000Y-230470000D03*
%TD*%
D10*
%TO.P,BS19,1*%
%TO.N,unconnected-(BS19-Pad1)*%
X397020000Y-207190000D03*
%TO.P,BS19,2*%
%TO.N,Net-(J24-Ext)*%
X397020000Y-209690000D03*
%TO.P,BS19,3*%
%TO.N,Net-(J25-Ext)*%
X397020000Y-212190000D03*
%TD*%
D13*
%TO.P,J4,1,Pin_1*%
%TO.N,Net-(J2-Pin_1)*%
X171175000Y-233010000D03*
D14*
%TO.P,J4,2,Pin_2*%
%TO.N,Net-(J1-Ext)*%
X171175000Y-235550000D03*
%TD*%
D11*
%TO.P,J22,1,In*%
%TO.N,Net-(J21-Ext)*%
X381000000Y-233010000D03*
D12*
%TO.P,J22,2,Ext*%
%TO.N,Net-(J22-Ext)*%
X378460000Y-230470000D03*
X378460000Y-235550000D03*
X383540000Y-230470000D03*
X383540000Y-235550000D03*
%TD*%
D10*
%TO.P,BS2,1*%
%TO.N,unconnected-(BS2-Pad1)*%
X232600000Y-206990000D03*
%TO.P,BS2,2*%
%TO.N,Net-(J7-Ext)*%
X232600000Y-209490000D03*
%TO.P,BS2,3*%
%TO.N,Net-(J8-Ext)*%
X232600000Y-211990000D03*
%TD*%
D11*
%TO.P,J23,1,In*%
%TO.N,Net-(J22-Ext)*%
X391000000Y-233010000D03*
D12*
%TO.P,J23,2,Ext*%
%TO.N,Net-(J23-Ext)*%
X388460000Y-230470000D03*
X388460000Y-235550000D03*
X393540000Y-230470000D03*
X393540000Y-235550000D03*
%TD*%
D10*
%TO.P,BS15,1*%
%TO.N,unconnected-(BS15-Pad1)*%
X359500000Y-207190000D03*
%TO.P,BS15,2*%
%TO.N,Net-(J20-Ext)*%
X359500000Y-209690000D03*
%TO.P,BS15,3*%
%TO.N,Net-(J21-Ext)*%
X359500000Y-212190000D03*
%TD*%
%TO.P,BS14,1*%
%TO.N,unconnected-(BS14-Pad1)*%
X350120000Y-207190000D03*
%TO.P,BS14,2*%
%TO.N,Net-(J19-Ext)*%
X350120000Y-209690000D03*
%TO.P,BS14,3*%
%TO.N,Net-(J20-Ext)*%
X350120000Y-212190000D03*
%TD*%
D11*
%TO.P,J8,1,In*%
%TO.N,Net-(J7-Ext)*%
X241000000Y-233010000D03*
D12*
%TO.P,J8,2,Ext*%
%TO.N,Net-(J8-Ext)*%
X243540000Y-235550000D03*
X243540000Y-230470000D03*
X238460000Y-235550000D03*
X238460000Y-230470000D03*
%TD*%
D10*
%TO.P,BS11,1*%
%TO.N,unconnected-(BS11-Pad1)*%
X321980000Y-207190000D03*
%TO.P,BS11,2*%
%TO.N,Net-(J16-Ext)*%
X321980000Y-209690000D03*
%TO.P,BS11,3*%
%TO.N,Net-(J17-Ext)*%
X321980000Y-212190000D03*
%TD*%
%TO.P,BS13,1*%
%TO.N,unconnected-(BS13-Pad1)*%
X340740000Y-207190000D03*
%TO.P,BS13,2*%
%TO.N,Net-(J18-Ext)*%
X340740000Y-209690000D03*
%TO.P,BS13,3*%
%TO.N,Net-(J19-Ext)*%
X340740000Y-212190000D03*
%TD*%
D13*
%TO.P,J3,1,Pin_1*%
%TO.N,Net-(J2-Pin_1)*%
X176410000Y-233010000D03*
D14*
%TO.P,J3,2,Pin_2*%
%TO.N,Net-(J1-Ext)*%
X176410000Y-235550000D03*
%TD*%
D18*
%TO.N,Net-(J1-In)*%
X161680000Y-233010000D02*
X166360000Y-233010000D01*
X174100000Y-225270000D02*
X185365000Y-225270000D01*
X187365000Y-229375000D02*
X188982500Y-230992500D01*
X185365000Y-225270000D02*
X187365000Y-227270000D01*
X187365000Y-227270000D02*
X187365000Y-229375000D01*
X188982500Y-230992500D02*
X188982500Y-233000000D01*
X166360000Y-233010000D02*
X174100000Y-225270000D01*
%TO.N,Net-(J7-Ext)*%
X222600000Y-224610000D02*
X222600000Y-211990000D01*
X233540000Y-230610000D02*
X236080000Y-233150000D01*
X222600000Y-211990000D02*
X230100000Y-211990000D01*
X233540000Y-230470000D02*
X233540000Y-235550000D01*
X230100000Y-211990000D02*
X232600000Y-209490000D01*
X233540000Y-230470000D02*
X228460000Y-230470000D01*
X228460000Y-230470000D02*
X222600000Y-224610000D01*
X233540000Y-235550000D02*
X228460000Y-235550000D01*
X236080000Y-233150000D02*
X241000000Y-233150000D01*
%TO.N,Net-(J8-Ext)*%
X243540000Y-230610000D02*
X246080000Y-233150000D01*
X238460000Y-230470000D02*
X243540000Y-230470000D01*
X232600000Y-224610000D02*
X238460000Y-230470000D01*
X240100000Y-211990000D02*
X242600000Y-209490000D01*
X232600000Y-211990000D02*
X232600000Y-224610000D01*
X243540000Y-230470000D02*
X243540000Y-235550000D01*
X243540000Y-235550000D02*
X238460000Y-235550000D01*
X246080000Y-233150000D02*
X251060000Y-233150000D01*
X232600000Y-211990000D02*
X240100000Y-211990000D01*
%TO.N,Net-(J10-In)*%
X250100000Y-211990000D02*
X252600000Y-209490000D01*
X242600000Y-211990000D02*
X242600000Y-224550000D01*
X256140000Y-233150000D02*
X261000000Y-233150000D01*
X253600000Y-235550000D02*
X248520000Y-235550000D01*
X242600000Y-211990000D02*
X250100000Y-211990000D01*
X242600000Y-224550000D02*
X248520000Y-230470000D01*
X248520000Y-230470000D02*
X253600000Y-230470000D01*
X253600000Y-230470000D02*
X253600000Y-235550000D01*
X253600000Y-230610000D02*
X256140000Y-233150000D01*
%TO.N,Net-(J10-Ext)*%
X260100000Y-211990000D02*
X262600000Y-209490000D01*
X263540000Y-230470000D02*
X263540000Y-235550000D01*
X252600000Y-211990000D02*
X260100000Y-211990000D01*
X252600000Y-224610000D02*
X252600000Y-211990000D01*
X266080000Y-233150000D02*
X271000000Y-233150000D01*
X263540000Y-235550000D02*
X258460000Y-235550000D01*
X258460000Y-230470000D02*
X263540000Y-230470000D01*
X263540000Y-230610000D02*
X266080000Y-233150000D01*
X258460000Y-230470000D02*
X252600000Y-224610000D01*
%TO.N,Net-(J11-Ext)*%
X281000000Y-233150000D02*
X276080000Y-233150000D01*
X268460000Y-230470000D02*
X262600000Y-224610000D01*
X262600000Y-211990000D02*
X270100000Y-211990000D01*
X262600000Y-224610000D02*
X262600000Y-211990000D01*
X268460000Y-230470000D02*
X273540000Y-230470000D01*
X273540000Y-230470000D02*
X273540000Y-235550000D01*
X270100000Y-211990000D02*
X272600000Y-209490000D01*
X273540000Y-235550000D02*
X268460000Y-235550000D01*
X276080000Y-233150000D02*
X273540000Y-230610000D01*
%TO.N,Net-(J12-Ext)*%
X278460000Y-230470000D02*
X272600000Y-224610000D01*
X278460000Y-230470000D02*
X283540000Y-230470000D01*
X283540000Y-235550000D02*
X278460000Y-235550000D01*
X272600000Y-224610000D02*
X272600000Y-211990000D01*
X283540000Y-230470000D02*
X283540000Y-235550000D01*
X280100000Y-211990000D02*
X282600000Y-209490000D01*
X291000000Y-233150000D02*
X286080000Y-233150000D01*
X286080000Y-233150000D02*
X283540000Y-230610000D01*
X272600000Y-211990000D02*
X280100000Y-211990000D01*
%TO.N,Net-(J13-Ext)*%
X282600000Y-211990000D02*
X290100000Y-211990000D01*
X301000000Y-233150000D02*
X296080000Y-233150000D01*
X296080000Y-233150000D02*
X293540000Y-230610000D01*
X288460000Y-230470000D02*
X282600000Y-224610000D01*
X293540000Y-230470000D02*
X293540000Y-235550000D01*
X282600000Y-224610000D02*
X282600000Y-211990000D01*
X290100000Y-211990000D02*
X292600000Y-209490000D01*
X293540000Y-235550000D02*
X288460000Y-235550000D01*
X288460000Y-230470000D02*
X293540000Y-230470000D01*
%TO.N,Net-(J14-Ext)*%
X298460000Y-230470000D02*
X292600000Y-224610000D01*
X298460000Y-230470000D02*
X303540000Y-230470000D01*
X303540000Y-235550000D02*
X298460000Y-235550000D01*
X300100000Y-211990000D02*
X302600000Y-209490000D01*
X311000000Y-233150000D02*
X306080000Y-233150000D01*
X292600000Y-211990000D02*
X300100000Y-211990000D01*
X292600000Y-224610000D02*
X292600000Y-211990000D01*
X306080000Y-233150000D02*
X303540000Y-230610000D01*
X303540000Y-230470000D02*
X303540000Y-235550000D01*
%TO.N,Net-(J1-Ext)*%
X164220000Y-235550000D02*
X171175000Y-235550000D01*
X423540000Y-230470000D02*
X423540000Y-235550000D01*
X414820000Y-239190000D02*
X418460000Y-235550000D01*
X418460000Y-230470000D02*
X423540000Y-230470000D01*
X423540000Y-235550000D02*
X418460000Y-235550000D01*
X159140000Y-235550000D02*
X164220000Y-235550000D01*
X164220000Y-230470000D02*
X159140000Y-230470000D01*
X406400000Y-218410000D02*
X406400000Y-212190000D01*
X180050000Y-239190000D02*
X414820000Y-239190000D01*
X171175000Y-235550000D02*
X176410000Y-235550000D01*
X176410000Y-235550000D02*
X180050000Y-239190000D01*
X418460000Y-230470000D02*
X406400000Y-218410000D01*
X159140000Y-230470000D02*
X159140000Y-235550000D01*
%TO.N,Net-(J5-Pin_1)*%
X197390238Y-227159568D02*
X197390238Y-219764762D01*
X198405000Y-218750000D02*
X207665000Y-209490000D01*
X219880000Y-212210000D02*
X219880000Y-225580000D01*
X197390238Y-219764762D02*
X198405000Y-218750000D01*
X227310000Y-233010000D02*
X231000000Y-233010000D01*
X207665000Y-209490000D02*
X222600000Y-209490000D01*
X222600000Y-209490000D02*
X219880000Y-212210000D01*
X219880000Y-225580000D02*
X227310000Y-233010000D01*
%TO.N,Net-(J15-Ext)*%
X310100000Y-211990000D02*
X312600000Y-209490000D01*
X313540000Y-230470000D02*
X313540000Y-235550000D01*
X313540000Y-230470000D02*
X316080000Y-233010000D01*
X302600000Y-211990000D02*
X310100000Y-211990000D01*
X316080000Y-233010000D02*
X321000000Y-233010000D01*
X302600000Y-224610000D02*
X302600000Y-211990000D01*
X308460000Y-230470000D02*
X302600000Y-224610000D01*
X308460000Y-230470000D02*
X313540000Y-230470000D01*
X313540000Y-235550000D02*
X308460000Y-235550000D01*
X302580000Y-212010000D02*
X302600000Y-211990000D01*
%TO.N,Net-(J16-Ext)*%
X323540000Y-230470000D02*
X323540000Y-235550000D01*
X318460000Y-230470000D02*
X312600000Y-224610000D01*
X318460000Y-230470000D02*
X323540000Y-230470000D01*
X323540000Y-230470000D02*
X326080000Y-233010000D01*
X326080000Y-233010000D02*
X331000000Y-233010000D01*
X312600000Y-211990000D02*
X319680000Y-211990000D01*
X323540000Y-235550000D02*
X318460000Y-235550000D01*
X312600000Y-224610000D02*
X312600000Y-211990000D01*
X319680000Y-211990000D02*
X321980000Y-209690000D01*
%TO.N,Net-(J17-Ext)*%
X333540000Y-230470000D02*
X336080000Y-233010000D01*
X328460000Y-230180000D02*
X321980000Y-223700000D01*
X328460000Y-230470000D02*
X328460000Y-230180000D01*
X321980000Y-223700000D02*
X321980000Y-212190000D01*
X333540000Y-235550000D02*
X328460000Y-235550000D01*
X328460000Y-230470000D02*
X333540000Y-230470000D01*
X333540000Y-230470000D02*
X333540000Y-235550000D01*
X336080000Y-233010000D02*
X341000000Y-233010000D01*
X328860000Y-212190000D02*
X331360000Y-209690000D01*
X321980000Y-212190000D02*
X328860000Y-212190000D01*
%TO.N,Net-(J18-Ext)*%
X331360000Y-223860000D02*
X331360000Y-212190000D01*
X343540000Y-230470000D02*
X346080000Y-233010000D01*
X338460000Y-230470000D02*
X337970000Y-230470000D01*
X343540000Y-230470000D02*
X343540000Y-235550000D01*
X337970000Y-230470000D02*
X331360000Y-223860000D01*
X343540000Y-235550000D02*
X338460000Y-235550000D01*
X346080000Y-233010000D02*
X351000000Y-233010000D01*
X343540000Y-230470000D02*
X343550000Y-230460000D01*
X331360000Y-212190000D02*
X338240000Y-212190000D01*
X338460000Y-230470000D02*
X343540000Y-230470000D01*
X338240000Y-212190000D02*
X340740000Y-209690000D01*
%TO.N,Net-(J19-Ext)*%
X353540000Y-230470000D02*
X356080000Y-233010000D01*
X356080000Y-233010000D02*
X361000000Y-233010000D01*
X348460000Y-230470000D02*
X353540000Y-230470000D01*
X348460000Y-230470000D02*
X340740000Y-222750000D01*
X340740000Y-212190000D02*
X347620000Y-212190000D01*
X353540000Y-230470000D02*
X353540000Y-235550000D01*
X347620000Y-212190000D02*
X350120000Y-209690000D01*
X353540000Y-235550000D02*
X348460000Y-235550000D01*
X340740000Y-222750000D02*
X340740000Y-212190000D01*
%TO.N,Net-(J20-Ext)*%
X363540000Y-230470000D02*
X366080000Y-233010000D01*
X366080000Y-233010000D02*
X371000000Y-233010000D01*
X363540000Y-230470000D02*
X363540000Y-235550000D01*
X350120000Y-212190000D02*
X357000000Y-212190000D01*
X357000000Y-212190000D02*
X359500000Y-209690000D01*
X363540000Y-235550000D02*
X358460000Y-235550000D01*
X350120000Y-222130000D02*
X350120000Y-212190000D01*
X358460000Y-230470000D02*
X350120000Y-222130000D01*
X358460000Y-230470000D02*
X363540000Y-230470000D01*
%TO.N,Net-(J21-Ext)*%
X373540000Y-230470000D02*
X376080000Y-233010000D01*
X368880000Y-230050000D02*
X368460000Y-230470000D01*
X368460000Y-230470000D02*
X359500000Y-221510000D01*
X373540000Y-230470000D02*
X373540000Y-235550000D01*
X359500000Y-212190000D02*
X366380000Y-212190000D01*
X359500000Y-221510000D02*
X359500000Y-212190000D01*
X376080000Y-233010000D02*
X381000000Y-233010000D01*
X368460000Y-230470000D02*
X373540000Y-230470000D01*
X366380000Y-212190000D02*
X368880000Y-209690000D01*
X373540000Y-235550000D02*
X368460000Y-235550000D01*
%TO.N,Net-(J22-Ext)*%
X375760000Y-212190000D02*
X378260000Y-209690000D01*
X378460000Y-230470000D02*
X383540000Y-230470000D01*
X368880000Y-212190000D02*
X375760000Y-212190000D01*
X383540000Y-230470000D02*
X383540000Y-235550000D01*
X383540000Y-230470000D02*
X386080000Y-233010000D01*
X378460000Y-230470000D02*
X368880000Y-220890000D01*
X386080000Y-233010000D02*
X391000000Y-233010000D01*
X383540000Y-235550000D02*
X378460000Y-235550000D01*
X368880000Y-220890000D02*
X368880000Y-212190000D01*
X368460000Y-212610000D02*
X368880000Y-212190000D01*
%TO.N,Net-(J23-Ext)*%
X388460000Y-230470000D02*
X378260000Y-220270000D01*
X396080000Y-233010000D02*
X401000000Y-233010000D01*
X393540000Y-230470000D02*
X393540000Y-235550000D01*
X388460000Y-230470000D02*
X393540000Y-230470000D01*
X378260000Y-212190000D02*
X385140000Y-212190000D01*
X385140000Y-212190000D02*
X387640000Y-209690000D01*
X393540000Y-230470000D02*
X396080000Y-233010000D01*
X378260000Y-220270000D02*
X378260000Y-212190000D01*
X393540000Y-235550000D02*
X388460000Y-235550000D01*
%TO.N,Net-(J24-Ext)*%
X406080000Y-233010000D02*
X411000000Y-233010000D01*
X403540000Y-230470000D02*
X406080000Y-233010000D01*
X398460000Y-230470000D02*
X387640000Y-219650000D01*
X387640000Y-212190000D02*
X394520000Y-212190000D01*
X403540000Y-230470000D02*
X403540000Y-235550000D01*
X398460000Y-230470000D02*
X403540000Y-230470000D01*
X403540000Y-235550000D02*
X398460000Y-235550000D01*
X387640000Y-219650000D02*
X387640000Y-212190000D01*
X394520000Y-212190000D02*
X397020000Y-209690000D01*
%TO.N,Net-(J2-Pin_1)*%
X171175000Y-233010000D02*
X176410000Y-233010000D01*
X183047500Y-233010000D02*
X183057500Y-233000000D01*
X202470238Y-227159568D02*
X193159806Y-236470000D01*
X176410000Y-233010000D02*
X183047500Y-233010000D01*
X202470238Y-227159568D02*
X202470238Y-220275238D01*
X184825000Y-227270000D02*
X184825000Y-229235000D01*
X202470238Y-220275238D02*
X200945000Y-218750000D01*
X184825000Y-229235000D02*
X183057500Y-231002500D01*
X183057500Y-231002500D02*
X183057500Y-233000000D01*
X193159806Y-236470000D02*
X186527500Y-236470000D01*
X186527500Y-236470000D02*
X183057500Y-233000000D01*
%TO.N,Net-(J25-Ext)*%
X413540000Y-235550000D02*
X408460000Y-235550000D01*
X403900000Y-212190000D02*
X406400000Y-209690000D01*
X421000000Y-233010000D02*
X416080000Y-233010000D01*
X408460000Y-230470000D02*
X397020000Y-219030000D01*
X397020000Y-219030000D02*
X397020000Y-212190000D01*
X408460000Y-230470000D02*
X413540000Y-230470000D01*
X413540000Y-230470000D02*
X413540000Y-235550000D01*
X397020000Y-212190000D02*
X403900000Y-212190000D01*
X416080000Y-233010000D02*
X413540000Y-230470000D01*
%TD*%
M02*
