%TF.GenerationSoftware,KiCad,Pcbnew,7.0.8*%
%TF.CreationDate,2025-10-10T12:28:29-07:00*%
%TF.ProjectId,HV_Safety_Loop,48565f53-6166-4657-9479-5f4c6f6f702e,rev?*%
%TF.SameCoordinates,Original*%
%TF.FileFunction,Drillmap*%
%TF.FilePolarity,Positive*%
%FSLAX45Y45*%
G04 Gerber Fmt 4.5, Leading zero omitted, Abs format (unit mm)*
G04 Created by KiCad (PCBNEW 7.0.8) date 2025-10-10 12:28:29*
%MOMM*%
%LPD*%
G01*
G04 APERTURE LIST*
%ADD10C,0.100000*%
%ADD11C,0.200000*%
%ADD12C,0.640000*%
G04 APERTURE END LIST*
D10*
X55266000Y-19991000D02*
X55266000Y-24436000D01*
X55266000Y-24436000D02*
X7006000Y-24436000D01*
X7006000Y-24436000D02*
X7006000Y-19991000D01*
X7006000Y-19991000D02*
X55266000Y-19991000D01*
D11*
D12*
X7571000Y-20346000D02*
X8211000Y-20986000D01*
X8211000Y-20346000D02*
X7571000Y-20986000D01*
X7571000Y-23546000D02*
X8211000Y-24186000D01*
X8211000Y-23546000D02*
X7571000Y-24186000D01*
X54071000Y-20346000D02*
X54711000Y-20986000D01*
X54711000Y-20346000D02*
X54071000Y-20986000D01*
X54071000Y-23546000D02*
X54711000Y-24186000D01*
X54711000Y-23546000D02*
X54071000Y-24186000D01*
D11*
X7261777Y-24752484D02*
X7261777Y-24552484D01*
X7261777Y-24552484D02*
X7309396Y-24552484D01*
X7309396Y-24552484D02*
X7337967Y-24562008D01*
X7337967Y-24562008D02*
X7357015Y-24581055D01*
X7357015Y-24581055D02*
X7366539Y-24600103D01*
X7366539Y-24600103D02*
X7376062Y-24638198D01*
X7376062Y-24638198D02*
X7376062Y-24666769D01*
X7376062Y-24666769D02*
X7366539Y-24704865D01*
X7366539Y-24704865D02*
X7357015Y-24723912D01*
X7357015Y-24723912D02*
X7337967Y-24742960D01*
X7337967Y-24742960D02*
X7309396Y-24752484D01*
X7309396Y-24752484D02*
X7261777Y-24752484D01*
X7461777Y-24752484D02*
X7461777Y-24619150D01*
X7461777Y-24657246D02*
X7471301Y-24638198D01*
X7471301Y-24638198D02*
X7480824Y-24628674D01*
X7480824Y-24628674D02*
X7499872Y-24619150D01*
X7499872Y-24619150D02*
X7518920Y-24619150D01*
X7585586Y-24752484D02*
X7585586Y-24619150D01*
X7585586Y-24552484D02*
X7576062Y-24562008D01*
X7576062Y-24562008D02*
X7585586Y-24571531D01*
X7585586Y-24571531D02*
X7595110Y-24562008D01*
X7595110Y-24562008D02*
X7585586Y-24552484D01*
X7585586Y-24552484D02*
X7585586Y-24571531D01*
X7709396Y-24752484D02*
X7690348Y-24742960D01*
X7690348Y-24742960D02*
X7680824Y-24723912D01*
X7680824Y-24723912D02*
X7680824Y-24552484D01*
X7814158Y-24752484D02*
X7795110Y-24742960D01*
X7795110Y-24742960D02*
X7785586Y-24723912D01*
X7785586Y-24723912D02*
X7785586Y-24552484D01*
X8042729Y-24752484D02*
X8042729Y-24552484D01*
X8042729Y-24552484D02*
X8109396Y-24695341D01*
X8109396Y-24695341D02*
X8176062Y-24552484D01*
X8176062Y-24552484D02*
X8176062Y-24752484D01*
X8357015Y-24752484D02*
X8357015Y-24647722D01*
X8357015Y-24647722D02*
X8347491Y-24628674D01*
X8347491Y-24628674D02*
X8328443Y-24619150D01*
X8328443Y-24619150D02*
X8290348Y-24619150D01*
X8290348Y-24619150D02*
X8271301Y-24628674D01*
X8357015Y-24742960D02*
X8337967Y-24752484D01*
X8337967Y-24752484D02*
X8290348Y-24752484D01*
X8290348Y-24752484D02*
X8271301Y-24742960D01*
X8271301Y-24742960D02*
X8261777Y-24723912D01*
X8261777Y-24723912D02*
X8261777Y-24704865D01*
X8261777Y-24704865D02*
X8271301Y-24685817D01*
X8271301Y-24685817D02*
X8290348Y-24676293D01*
X8290348Y-24676293D02*
X8337967Y-24676293D01*
X8337967Y-24676293D02*
X8357015Y-24666769D01*
X8452253Y-24619150D02*
X8452253Y-24819150D01*
X8452253Y-24628674D02*
X8471301Y-24619150D01*
X8471301Y-24619150D02*
X8509396Y-24619150D01*
X8509396Y-24619150D02*
X8528444Y-24628674D01*
X8528444Y-24628674D02*
X8537967Y-24638198D01*
X8537967Y-24638198D02*
X8547491Y-24657246D01*
X8547491Y-24657246D02*
X8547491Y-24714388D01*
X8547491Y-24714388D02*
X8537967Y-24733436D01*
X8537967Y-24733436D02*
X8528444Y-24742960D01*
X8528444Y-24742960D02*
X8509396Y-24752484D01*
X8509396Y-24752484D02*
X8471301Y-24752484D01*
X8471301Y-24752484D02*
X8452253Y-24742960D01*
X8633205Y-24733436D02*
X8642729Y-24742960D01*
X8642729Y-24742960D02*
X8633205Y-24752484D01*
X8633205Y-24752484D02*
X8623682Y-24742960D01*
X8623682Y-24742960D02*
X8633205Y-24733436D01*
X8633205Y-24733436D02*
X8633205Y-24752484D01*
X8633205Y-24628674D02*
X8642729Y-24638198D01*
X8642729Y-24638198D02*
X8633205Y-24647722D01*
X8633205Y-24647722D02*
X8623682Y-24638198D01*
X8623682Y-24638198D02*
X8633205Y-24628674D01*
X8633205Y-24628674D02*
X8633205Y-24647722D01*
X6801000Y-24981000D02*
X7001000Y-25181000D01*
X7001000Y-24981000D02*
X6801000Y-25181000D01*
X7347491Y-24972484D02*
X7309396Y-24972484D01*
X7309396Y-24972484D02*
X7290348Y-24982008D01*
X7290348Y-24982008D02*
X7280824Y-24991531D01*
X7280824Y-24991531D02*
X7261777Y-25020103D01*
X7261777Y-25020103D02*
X7252253Y-25058198D01*
X7252253Y-25058198D02*
X7252253Y-25134388D01*
X7252253Y-25134388D02*
X7261777Y-25153436D01*
X7261777Y-25153436D02*
X7271301Y-25162960D01*
X7271301Y-25162960D02*
X7290348Y-25172484D01*
X7290348Y-25172484D02*
X7328443Y-25172484D01*
X7328443Y-25172484D02*
X7347491Y-25162960D01*
X7347491Y-25162960D02*
X7357015Y-25153436D01*
X7357015Y-25153436D02*
X7366539Y-25134388D01*
X7366539Y-25134388D02*
X7366539Y-25086769D01*
X7366539Y-25086769D02*
X7357015Y-25067722D01*
X7357015Y-25067722D02*
X7347491Y-25058198D01*
X7347491Y-25058198D02*
X7328443Y-25048674D01*
X7328443Y-25048674D02*
X7290348Y-25048674D01*
X7290348Y-25048674D02*
X7271301Y-25058198D01*
X7271301Y-25058198D02*
X7261777Y-25067722D01*
X7261777Y-25067722D02*
X7252253Y-25086769D01*
X7452253Y-25153436D02*
X7461777Y-25162960D01*
X7461777Y-25162960D02*
X7452253Y-25172484D01*
X7452253Y-25172484D02*
X7442729Y-25162960D01*
X7442729Y-25162960D02*
X7452253Y-25153436D01*
X7452253Y-25153436D02*
X7452253Y-25172484D01*
X7633205Y-25039150D02*
X7633205Y-25172484D01*
X7585586Y-24962960D02*
X7537967Y-25105817D01*
X7537967Y-25105817D02*
X7661777Y-25105817D01*
X7776062Y-24972484D02*
X7795110Y-24972484D01*
X7795110Y-24972484D02*
X7814158Y-24982008D01*
X7814158Y-24982008D02*
X7823682Y-24991531D01*
X7823682Y-24991531D02*
X7833205Y-25010579D01*
X7833205Y-25010579D02*
X7842729Y-25048674D01*
X7842729Y-25048674D02*
X7842729Y-25096293D01*
X7842729Y-25096293D02*
X7833205Y-25134388D01*
X7833205Y-25134388D02*
X7823682Y-25153436D01*
X7823682Y-25153436D02*
X7814158Y-25162960D01*
X7814158Y-25162960D02*
X7795110Y-25172484D01*
X7795110Y-25172484D02*
X7776062Y-25172484D01*
X7776062Y-25172484D02*
X7757015Y-25162960D01*
X7757015Y-25162960D02*
X7747491Y-25153436D01*
X7747491Y-25153436D02*
X7737967Y-25134388D01*
X7737967Y-25134388D02*
X7728443Y-25096293D01*
X7728443Y-25096293D02*
X7728443Y-25048674D01*
X7728443Y-25048674D02*
X7737967Y-25010579D01*
X7737967Y-25010579D02*
X7747491Y-24991531D01*
X7747491Y-24991531D02*
X7757015Y-24982008D01*
X7757015Y-24982008D02*
X7776062Y-24972484D01*
X7966539Y-24972484D02*
X7985586Y-24972484D01*
X7985586Y-24972484D02*
X8004634Y-24982008D01*
X8004634Y-24982008D02*
X8014158Y-24991531D01*
X8014158Y-24991531D02*
X8023682Y-25010579D01*
X8023682Y-25010579D02*
X8033205Y-25048674D01*
X8033205Y-25048674D02*
X8033205Y-25096293D01*
X8033205Y-25096293D02*
X8023682Y-25134388D01*
X8023682Y-25134388D02*
X8014158Y-25153436D01*
X8014158Y-25153436D02*
X8004634Y-25162960D01*
X8004634Y-25162960D02*
X7985586Y-25172484D01*
X7985586Y-25172484D02*
X7966539Y-25172484D01*
X7966539Y-25172484D02*
X7947491Y-25162960D01*
X7947491Y-25162960D02*
X7937967Y-25153436D01*
X7937967Y-25153436D02*
X7928443Y-25134388D01*
X7928443Y-25134388D02*
X7918920Y-25096293D01*
X7918920Y-25096293D02*
X7918920Y-25048674D01*
X7918920Y-25048674D02*
X7928443Y-25010579D01*
X7928443Y-25010579D02*
X7937967Y-24991531D01*
X7937967Y-24991531D02*
X7947491Y-24982008D01*
X7947491Y-24982008D02*
X7966539Y-24972484D01*
X8118920Y-25172484D02*
X8118920Y-25039150D01*
X8118920Y-25058198D02*
X8128443Y-25048674D01*
X8128443Y-25048674D02*
X8147491Y-25039150D01*
X8147491Y-25039150D02*
X8176063Y-25039150D01*
X8176063Y-25039150D02*
X8195110Y-25048674D01*
X8195110Y-25048674D02*
X8204634Y-25067722D01*
X8204634Y-25067722D02*
X8204634Y-25172484D01*
X8204634Y-25067722D02*
X8214158Y-25048674D01*
X8214158Y-25048674D02*
X8233205Y-25039150D01*
X8233205Y-25039150D02*
X8261777Y-25039150D01*
X8261777Y-25039150D02*
X8280824Y-25048674D01*
X8280824Y-25048674D02*
X8290348Y-25067722D01*
X8290348Y-25067722D02*
X8290348Y-25172484D01*
X8385586Y-25172484D02*
X8385586Y-25039150D01*
X8385586Y-25058198D02*
X8395110Y-25048674D01*
X8395110Y-25048674D02*
X8414158Y-25039150D01*
X8414158Y-25039150D02*
X8442729Y-25039150D01*
X8442729Y-25039150D02*
X8461777Y-25048674D01*
X8461777Y-25048674D02*
X8471301Y-25067722D01*
X8471301Y-25067722D02*
X8471301Y-25172484D01*
X8471301Y-25067722D02*
X8480825Y-25048674D01*
X8480825Y-25048674D02*
X8499872Y-25039150D01*
X8499872Y-25039150D02*
X8528444Y-25039150D01*
X8528444Y-25039150D02*
X8547491Y-25048674D01*
X8547491Y-25048674D02*
X8557015Y-25067722D01*
X8557015Y-25067722D02*
X8557015Y-25172484D01*
X8947491Y-24962960D02*
X8776063Y-25220103D01*
X9204634Y-24972484D02*
X9223682Y-24972484D01*
X9223682Y-24972484D02*
X9242729Y-24982008D01*
X9242729Y-24982008D02*
X9252253Y-24991531D01*
X9252253Y-24991531D02*
X9261777Y-25010579D01*
X9261777Y-25010579D02*
X9271301Y-25048674D01*
X9271301Y-25048674D02*
X9271301Y-25096293D01*
X9271301Y-25096293D02*
X9261777Y-25134388D01*
X9261777Y-25134388D02*
X9252253Y-25153436D01*
X9252253Y-25153436D02*
X9242729Y-25162960D01*
X9242729Y-25162960D02*
X9223682Y-25172484D01*
X9223682Y-25172484D02*
X9204634Y-25172484D01*
X9204634Y-25172484D02*
X9185587Y-25162960D01*
X9185587Y-25162960D02*
X9176063Y-25153436D01*
X9176063Y-25153436D02*
X9166539Y-25134388D01*
X9166539Y-25134388D02*
X9157015Y-25096293D01*
X9157015Y-25096293D02*
X9157015Y-25048674D01*
X9157015Y-25048674D02*
X9166539Y-25010579D01*
X9166539Y-25010579D02*
X9176063Y-24991531D01*
X9176063Y-24991531D02*
X9185587Y-24982008D01*
X9185587Y-24982008D02*
X9204634Y-24972484D01*
X9357015Y-25153436D02*
X9366539Y-25162960D01*
X9366539Y-25162960D02*
X9357015Y-25172484D01*
X9357015Y-25172484D02*
X9347491Y-25162960D01*
X9347491Y-25162960D02*
X9357015Y-25153436D01*
X9357015Y-25153436D02*
X9357015Y-25172484D01*
X9442729Y-24991531D02*
X9452253Y-24982008D01*
X9452253Y-24982008D02*
X9471301Y-24972484D01*
X9471301Y-24972484D02*
X9518920Y-24972484D01*
X9518920Y-24972484D02*
X9537968Y-24982008D01*
X9537968Y-24982008D02*
X9547491Y-24991531D01*
X9547491Y-24991531D02*
X9557015Y-25010579D01*
X9557015Y-25010579D02*
X9557015Y-25029627D01*
X9557015Y-25029627D02*
X9547491Y-25058198D01*
X9547491Y-25058198D02*
X9433206Y-25172484D01*
X9433206Y-25172484D02*
X9557015Y-25172484D01*
X9737968Y-24972484D02*
X9642729Y-24972484D01*
X9642729Y-24972484D02*
X9633206Y-25067722D01*
X9633206Y-25067722D02*
X9642729Y-25058198D01*
X9642729Y-25058198D02*
X9661777Y-25048674D01*
X9661777Y-25048674D02*
X9709396Y-25048674D01*
X9709396Y-25048674D02*
X9728444Y-25058198D01*
X9728444Y-25058198D02*
X9737968Y-25067722D01*
X9737968Y-25067722D02*
X9747491Y-25086769D01*
X9747491Y-25086769D02*
X9747491Y-25134388D01*
X9747491Y-25134388D02*
X9737968Y-25153436D01*
X9737968Y-25153436D02*
X9728444Y-25162960D01*
X9728444Y-25162960D02*
X9709396Y-25172484D01*
X9709396Y-25172484D02*
X9661777Y-25172484D01*
X9661777Y-25172484D02*
X9642729Y-25162960D01*
X9642729Y-25162960D02*
X9633206Y-25153436D01*
X9823682Y-24991531D02*
X9833206Y-24982008D01*
X9833206Y-24982008D02*
X9852253Y-24972484D01*
X9852253Y-24972484D02*
X9899872Y-24972484D01*
X9899872Y-24972484D02*
X9918920Y-24982008D01*
X9918920Y-24982008D02*
X9928444Y-24991531D01*
X9928444Y-24991531D02*
X9937968Y-25010579D01*
X9937968Y-25010579D02*
X9937968Y-25029627D01*
X9937968Y-25029627D02*
X9928444Y-25058198D01*
X9928444Y-25058198D02*
X9814158Y-25172484D01*
X9814158Y-25172484D02*
X9937968Y-25172484D01*
X10061777Y-24972484D02*
X10080825Y-24972484D01*
X10080825Y-24972484D02*
X10099872Y-24982008D01*
X10099872Y-24982008D02*
X10109396Y-24991531D01*
X10109396Y-24991531D02*
X10118920Y-25010579D01*
X10118920Y-25010579D02*
X10128444Y-25048674D01*
X10128444Y-25048674D02*
X10128444Y-25096293D01*
X10128444Y-25096293D02*
X10118920Y-25134388D01*
X10118920Y-25134388D02*
X10109396Y-25153436D01*
X10109396Y-25153436D02*
X10099872Y-25162960D01*
X10099872Y-25162960D02*
X10080825Y-25172484D01*
X10080825Y-25172484D02*
X10061777Y-25172484D01*
X10061777Y-25172484D02*
X10042729Y-25162960D01*
X10042729Y-25162960D02*
X10033206Y-25153436D01*
X10033206Y-25153436D02*
X10023682Y-25134388D01*
X10023682Y-25134388D02*
X10014158Y-25096293D01*
X10014158Y-25096293D02*
X10014158Y-25048674D01*
X10014158Y-25048674D02*
X10023682Y-25010579D01*
X10023682Y-25010579D02*
X10033206Y-24991531D01*
X10033206Y-24991531D02*
X10042729Y-24982008D01*
X10042729Y-24982008D02*
X10061777Y-24972484D01*
X10204634Y-24972484D02*
X10204634Y-25010579D01*
X10280825Y-24972484D02*
X10280825Y-25010579D01*
X10576063Y-25248674D02*
X10566539Y-25239150D01*
X10566539Y-25239150D02*
X10547491Y-25210579D01*
X10547491Y-25210579D02*
X10537968Y-25191531D01*
X10537968Y-25191531D02*
X10528444Y-25162960D01*
X10528444Y-25162960D02*
X10518920Y-25115341D01*
X10518920Y-25115341D02*
X10518920Y-25077246D01*
X10518920Y-25077246D02*
X10528444Y-25029627D01*
X10528444Y-25029627D02*
X10537968Y-25001055D01*
X10537968Y-25001055D02*
X10547491Y-24982008D01*
X10547491Y-24982008D02*
X10566539Y-24953436D01*
X10566539Y-24953436D02*
X10576063Y-24943912D01*
X10737968Y-25039150D02*
X10737968Y-25172484D01*
X10690349Y-24962960D02*
X10642730Y-25105817D01*
X10642730Y-25105817D02*
X10766539Y-25105817D01*
X10995111Y-25172484D02*
X10995111Y-24972484D01*
X11080825Y-25172484D02*
X11080825Y-25067722D01*
X11080825Y-25067722D02*
X11071301Y-25048674D01*
X11071301Y-25048674D02*
X11052253Y-25039150D01*
X11052253Y-25039150D02*
X11023682Y-25039150D01*
X11023682Y-25039150D02*
X11004634Y-25048674D01*
X11004634Y-25048674D02*
X10995111Y-25058198D01*
X11204634Y-25172484D02*
X11185587Y-25162960D01*
X11185587Y-25162960D02*
X11176063Y-25153436D01*
X11176063Y-25153436D02*
X11166539Y-25134388D01*
X11166539Y-25134388D02*
X11166539Y-25077246D01*
X11166539Y-25077246D02*
X11176063Y-25058198D01*
X11176063Y-25058198D02*
X11185587Y-25048674D01*
X11185587Y-25048674D02*
X11204634Y-25039150D01*
X11204634Y-25039150D02*
X11233206Y-25039150D01*
X11233206Y-25039150D02*
X11252253Y-25048674D01*
X11252253Y-25048674D02*
X11261777Y-25058198D01*
X11261777Y-25058198D02*
X11271301Y-25077246D01*
X11271301Y-25077246D02*
X11271301Y-25134388D01*
X11271301Y-25134388D02*
X11261777Y-25153436D01*
X11261777Y-25153436D02*
X11252253Y-25162960D01*
X11252253Y-25162960D02*
X11233206Y-25172484D01*
X11233206Y-25172484D02*
X11204634Y-25172484D01*
X11385587Y-25172484D02*
X11366539Y-25162960D01*
X11366539Y-25162960D02*
X11357015Y-25143912D01*
X11357015Y-25143912D02*
X11357015Y-24972484D01*
X11537968Y-25162960D02*
X11518920Y-25172484D01*
X11518920Y-25172484D02*
X11480825Y-25172484D01*
X11480825Y-25172484D02*
X11461777Y-25162960D01*
X11461777Y-25162960D02*
X11452253Y-25143912D01*
X11452253Y-25143912D02*
X11452253Y-25067722D01*
X11452253Y-25067722D02*
X11461777Y-25048674D01*
X11461777Y-25048674D02*
X11480825Y-25039150D01*
X11480825Y-25039150D02*
X11518920Y-25039150D01*
X11518920Y-25039150D02*
X11537968Y-25048674D01*
X11537968Y-25048674D02*
X11547491Y-25067722D01*
X11547491Y-25067722D02*
X11547491Y-25086769D01*
X11547491Y-25086769D02*
X11452253Y-25105817D01*
X11623682Y-25162960D02*
X11642730Y-25172484D01*
X11642730Y-25172484D02*
X11680825Y-25172484D01*
X11680825Y-25172484D02*
X11699872Y-25162960D01*
X11699872Y-25162960D02*
X11709396Y-25143912D01*
X11709396Y-25143912D02*
X11709396Y-25134388D01*
X11709396Y-25134388D02*
X11699872Y-25115341D01*
X11699872Y-25115341D02*
X11680825Y-25105817D01*
X11680825Y-25105817D02*
X11652253Y-25105817D01*
X11652253Y-25105817D02*
X11633206Y-25096293D01*
X11633206Y-25096293D02*
X11623682Y-25077246D01*
X11623682Y-25077246D02*
X11623682Y-25067722D01*
X11623682Y-25067722D02*
X11633206Y-25048674D01*
X11633206Y-25048674D02*
X11652253Y-25039150D01*
X11652253Y-25039150D02*
X11680825Y-25039150D01*
X11680825Y-25039150D02*
X11699872Y-25048674D01*
X11776063Y-25248674D02*
X11785587Y-25239150D01*
X11785587Y-25239150D02*
X11804634Y-25210579D01*
X11804634Y-25210579D02*
X11814158Y-25191531D01*
X11814158Y-25191531D02*
X11823682Y-25162960D01*
X11823682Y-25162960D02*
X11833206Y-25115341D01*
X11833206Y-25115341D02*
X11833206Y-25077246D01*
X11833206Y-25077246D02*
X11823682Y-25029627D01*
X11823682Y-25029627D02*
X11814158Y-25001055D01*
X11814158Y-25001055D02*
X11804634Y-24982008D01*
X11804634Y-24982008D02*
X11785587Y-24953436D01*
X11785587Y-24953436D02*
X11776063Y-24943912D01*
X12137968Y-25248674D02*
X12128444Y-25239150D01*
X12128444Y-25239150D02*
X12109396Y-25210579D01*
X12109396Y-25210579D02*
X12099872Y-25191531D01*
X12099872Y-25191531D02*
X12090349Y-25162960D01*
X12090349Y-25162960D02*
X12080825Y-25115341D01*
X12080825Y-25115341D02*
X12080825Y-25077246D01*
X12080825Y-25077246D02*
X12090349Y-25029627D01*
X12090349Y-25029627D02*
X12099872Y-25001055D01*
X12099872Y-25001055D02*
X12109396Y-24982008D01*
X12109396Y-24982008D02*
X12128444Y-24953436D01*
X12128444Y-24953436D02*
X12137968Y-24943912D01*
X12214158Y-25039150D02*
X12214158Y-25172484D01*
X12214158Y-25058198D02*
X12223682Y-25048674D01*
X12223682Y-25048674D02*
X12242730Y-25039150D01*
X12242730Y-25039150D02*
X12271301Y-25039150D01*
X12271301Y-25039150D02*
X12290349Y-25048674D01*
X12290349Y-25048674D02*
X12299872Y-25067722D01*
X12299872Y-25067722D02*
X12299872Y-25172484D01*
X12423682Y-25172484D02*
X12404634Y-25162960D01*
X12404634Y-25162960D02*
X12395111Y-25153436D01*
X12395111Y-25153436D02*
X12385587Y-25134388D01*
X12385587Y-25134388D02*
X12385587Y-25077246D01*
X12385587Y-25077246D02*
X12395111Y-25058198D01*
X12395111Y-25058198D02*
X12404634Y-25048674D01*
X12404634Y-25048674D02*
X12423682Y-25039150D01*
X12423682Y-25039150D02*
X12452253Y-25039150D01*
X12452253Y-25039150D02*
X12471301Y-25048674D01*
X12471301Y-25048674D02*
X12480825Y-25058198D01*
X12480825Y-25058198D02*
X12490349Y-25077246D01*
X12490349Y-25077246D02*
X12490349Y-25134388D01*
X12490349Y-25134388D02*
X12480825Y-25153436D01*
X12480825Y-25153436D02*
X12471301Y-25162960D01*
X12471301Y-25162960D02*
X12452253Y-25172484D01*
X12452253Y-25172484D02*
X12423682Y-25172484D01*
X12547492Y-25039150D02*
X12623682Y-25039150D01*
X12576063Y-24972484D02*
X12576063Y-25143912D01*
X12576063Y-25143912D02*
X12585587Y-25162960D01*
X12585587Y-25162960D02*
X12604634Y-25172484D01*
X12604634Y-25172484D02*
X12623682Y-25172484D01*
X12842730Y-25039150D02*
X12842730Y-25239150D01*
X12842730Y-25048674D02*
X12861777Y-25039150D01*
X12861777Y-25039150D02*
X12899873Y-25039150D01*
X12899873Y-25039150D02*
X12918920Y-25048674D01*
X12918920Y-25048674D02*
X12928444Y-25058198D01*
X12928444Y-25058198D02*
X12937968Y-25077246D01*
X12937968Y-25077246D02*
X12937968Y-25134388D01*
X12937968Y-25134388D02*
X12928444Y-25153436D01*
X12928444Y-25153436D02*
X12918920Y-25162960D01*
X12918920Y-25162960D02*
X12899873Y-25172484D01*
X12899873Y-25172484D02*
X12861777Y-25172484D01*
X12861777Y-25172484D02*
X12842730Y-25162960D01*
X13052253Y-25172484D02*
X13033206Y-25162960D01*
X13033206Y-25162960D02*
X13023682Y-25143912D01*
X13023682Y-25143912D02*
X13023682Y-24972484D01*
X13214158Y-25172484D02*
X13214158Y-25067722D01*
X13214158Y-25067722D02*
X13204634Y-25048674D01*
X13204634Y-25048674D02*
X13185587Y-25039150D01*
X13185587Y-25039150D02*
X13147492Y-25039150D01*
X13147492Y-25039150D02*
X13128444Y-25048674D01*
X13214158Y-25162960D02*
X13195111Y-25172484D01*
X13195111Y-25172484D02*
X13147492Y-25172484D01*
X13147492Y-25172484D02*
X13128444Y-25162960D01*
X13128444Y-25162960D02*
X13118920Y-25143912D01*
X13118920Y-25143912D02*
X13118920Y-25124865D01*
X13118920Y-25124865D02*
X13128444Y-25105817D01*
X13128444Y-25105817D02*
X13147492Y-25096293D01*
X13147492Y-25096293D02*
X13195111Y-25096293D01*
X13195111Y-25096293D02*
X13214158Y-25086769D01*
X13280825Y-25039150D02*
X13357015Y-25039150D01*
X13309396Y-24972484D02*
X13309396Y-25143912D01*
X13309396Y-25143912D02*
X13318920Y-25162960D01*
X13318920Y-25162960D02*
X13337968Y-25172484D01*
X13337968Y-25172484D02*
X13357015Y-25172484D01*
X13499873Y-25162960D02*
X13480825Y-25172484D01*
X13480825Y-25172484D02*
X13442730Y-25172484D01*
X13442730Y-25172484D02*
X13423682Y-25162960D01*
X13423682Y-25162960D02*
X13414158Y-25143912D01*
X13414158Y-25143912D02*
X13414158Y-25067722D01*
X13414158Y-25067722D02*
X13423682Y-25048674D01*
X13423682Y-25048674D02*
X13442730Y-25039150D01*
X13442730Y-25039150D02*
X13480825Y-25039150D01*
X13480825Y-25039150D02*
X13499873Y-25048674D01*
X13499873Y-25048674D02*
X13509396Y-25067722D01*
X13509396Y-25067722D02*
X13509396Y-25086769D01*
X13509396Y-25086769D02*
X13414158Y-25105817D01*
X13680825Y-25172484D02*
X13680825Y-24972484D01*
X13680825Y-25162960D02*
X13661777Y-25172484D01*
X13661777Y-25172484D02*
X13623682Y-25172484D01*
X13623682Y-25172484D02*
X13604634Y-25162960D01*
X13604634Y-25162960D02*
X13595111Y-25153436D01*
X13595111Y-25153436D02*
X13585587Y-25134388D01*
X13585587Y-25134388D02*
X13585587Y-25077246D01*
X13585587Y-25077246D02*
X13595111Y-25058198D01*
X13595111Y-25058198D02*
X13604634Y-25048674D01*
X13604634Y-25048674D02*
X13623682Y-25039150D01*
X13623682Y-25039150D02*
X13661777Y-25039150D01*
X13661777Y-25039150D02*
X13680825Y-25048674D01*
X13757015Y-25248674D02*
X13766539Y-25239150D01*
X13766539Y-25239150D02*
X13785587Y-25210579D01*
X13785587Y-25210579D02*
X13795111Y-25191531D01*
X13795111Y-25191531D02*
X13804634Y-25162960D01*
X13804634Y-25162960D02*
X13814158Y-25115341D01*
X13814158Y-25115341D02*
X13814158Y-25077246D01*
X13814158Y-25077246D02*
X13804634Y-25029627D01*
X13804634Y-25029627D02*
X13795111Y-25001055D01*
X13795111Y-25001055D02*
X13785587Y-24982008D01*
X13785587Y-24982008D02*
X13766539Y-24953436D01*
X13766539Y-24953436D02*
X13757015Y-24943912D01*
M02*
